#N canvas 1152 633 552 471 10;
#X obj 9 9 cnv 15 15 15 empty empty Postures.Control: 0 8 1 14 -262144
-16662 0;
#X obj 11 42 loadbang;
#X obj 34 86 anyreg projectPath;
#X msg 34 65 ~/Documents/NTA;
#X obj 205 81 hid_sender;
#X obj 85 179 cameraNodeTracker \$0;
#X obj 191 6 widget-vessConnect \$0;
#X msg 85 160 /posture01/default u1;
#X msg 75 255 /posture02/default u2;
#X obj 11 107 bng 15 250 50 0 empty empty empty 17 7 0 10 -262144 -1
-1;
#X msg 65 349 /posture03/default u3;
#X obj 75 274 cameraNodeTracker \$0;
#X obj 65 369 cameraNodeTracker \$0;
#X connect 1 0 3 0;
#X connect 1 0 9 0;
#X connect 3 0 2 0;
#X connect 7 0 5 0;
#X connect 8 0 11 0;
#X connect 9 0 7 0;
#X connect 9 0 8 0;
#X connect 9 0 10 0;
#X connect 10 0 12 0;
