#N canvas 603 145 1042 558 10;
#X obj 60 61 inlet;
#X obj 727 68 inlet;
#X obj 58 212 cameraSwitcher;
#X obj 57 187 unpack s 0;
#X obj 60 123 route direction;
#X text 103 60 SPIN messages;
#X text 51 10 argument to patch: postureID;
#X obj 117 293 list append \$1;
#X obj 107 156 t a a;
#X obj 117 271 pack s 0 s;
#X obj 194 195 unpack s 0;
#X obj 553 487 outlet;
#X text 129 310 list: camera_name angle seenbyID postureID;
#X obj 283 56 inlet;
#X msg 117 330 /\$4-seenby-\$3 setStateSet \$4-\$1 \, /\$4-seenby-\$3
setOrientation 0 0 \$2;
#X text 605 486 TO SPIN;
#X obj 441 209 list split 1;
#X obj 525 209 list;
#X msg 515 281 createStateSet \$1-\$2 ImageTexture;
#X obj 441 230 list prepend \$1;
#X obj 757 262 list split 1;
#X obj 841 262 list;
#X obj 757 304 t a a;
#X obj 757 283 list prepend \$1;
#X msg 788 335 createStateSet \$1-\$2 SharedVideoTexture;
#X obj 441 252 t a b a;
#X obj 460 284 thisdir;
#X obj 441 319 list append;
#X msg 441 341 /\$1-\$2 setPath \$3/\$2 \, /\$1-\$2 setLighting 0;
#X text 317 73 (textures need to be in the same folder as this patch)
;
#X text 324 54 static texture list;
#X text 768 66 sharedvideo camera list;
#X msg 730 355 /\$1-\$2 setTextureID \$2;
#X obj 60 91 OSCparse /\$1-reporter-video;
#X msg 82 437 /posture08-seenby-posture06 setStateSet posture08-shvid_81443610264e437
;
#X msg 79 476 /posture08-seenby-posture06 setStateSet posture08-shvid_81443610264e626
;
#X connect 0 0 33 0;
#X connect 1 0 2 1;
#X connect 1 0 20 0;
#X connect 2 0 9 0;
#X connect 2 1 9 1;
#X connect 3 1 2 0;
#X connect 4 0 8 0;
#X connect 7 0 14 0;
#X connect 8 0 3 0;
#X connect 8 1 10 0;
#X connect 9 0 7 0;
#X connect 10 0 9 2;
#X connect 13 0 2 1;
#X connect 13 0 16 0;
#X connect 14 0 11 0;
#X connect 16 0 19 0;
#X connect 16 1 17 0;
#X connect 17 0 16 0;
#X connect 18 0 11 0;
#X connect 19 0 25 0;
#X connect 20 0 23 0;
#X connect 20 1 21 0;
#X connect 21 0 20 0;
#X connect 22 0 32 0;
#X connect 22 1 24 0;
#X connect 23 0 22 0;
#X connect 24 0 11 0;
#X connect 25 0 27 0;
#X connect 25 1 26 0;
#X connect 25 2 18 0;
#X connect 26 0 27 1;
#X connect 27 0 28 0;
#X connect 28 0 11 0;
#X connect 32 0 11 0;
#X connect 33 0 4 0;
#X connect 34 0 11 0;
#X connect 35 0 11 0;
