#N canvas 113 289 665 633 10;
#X obj 14 111 widget-spinConnect \$0;
#X symbolatom 346 136 15 0 0 2 userID: g_userID -;
#N canvas 297 127 450 300 SPIN_stuff 0;
#X obj 157 27 inlet;
#X obj 24 55 change1;
#X obj 24 75 bng 15 250 50 0 empty empty empty 17 7 0 10 -262144 -1
-1;
#X obj 24 134 outlet;
#X obj 24 93 delay 1000;
#X connect 0 0 1 0;
#X connect 1 0 2 0;
#X connect 2 0 4 0;
#X connect 4 0 3 0;
#X restore 14 156 pd SPIN_stuff;
#X obj 118 229 postureUser \$0;
#X obj 91 271 widget-AudioRenderer \$0;
#N canvas 234 296 560 374 NTA_audio_stuff 0;
#X obj 16 32 inlet;
#X text 74 180 < userID inbus outbus_l outbus_2 ... outbus_N >;
#X obj 11 240 outlet;
#X obj 399 113 delay 1000;
#X msg 399 132 \; pd dsp 1 \;;
#X obj 333 21 r \$0-from-SPIN;
#X obj 333 43 OSCparse /userID;
#X obj 333 64 route audioInit;
#X obj 274 113 bng 15 250 50 0 empty empty empty 17 7 0 10 -262144
-1 -1;
#X obj 201 64 route userRefresh;
#X obj 80 91 r g_userID;
#X obj 11 147 symbol;
#X obj 426 21 r g_userID;
#X msg 11 178 \$1 1 1 2;
#X msg 92 44 \; pd dsp 0 \;;
#X obj 16 52 t b b;
#X connect 0 0 15 0;
#X connect 3 0 4 0;
#X connect 5 0 6 0;
#X connect 5 0 9 0;
#X connect 6 0 7 0;
#X connect 8 0 11 0;
#X connect 9 0 8 0;
#X connect 10 0 11 1;
#X connect 11 0 13 0;
#X connect 12 0 6 1;
#X connect 13 0 2 0;
#X connect 15 0 11 0;
#X connect 15 1 14 0;
#X restore 91 251 pd NTA_audio_stuff;
#X obj 219 241 bng 10 250 50 0 empty empty empty 17 7 0 10 -262144
-1 -1;
#X obj 425 281 vsl 20 118 -99 18 0 0 \$0-gain \$0-gain-set gain -2
-12 1 12 -261704 -1 -1 0 1;
#X obj 425 405 nbx 3 16 -1e+37 1e+37 0 0 empty \$1-gain-set db 40 10
1 10 -262144 -1 -1 0 256;
#X text 421 293 ------ 0db;
#X floatatom 292 473 6 0 0 0 - - -;
#X obj 298 452 unpack 0 0 0;
#X floatatom 332 473 6 0 0 0 - - -;
#X floatatom 372 473 7 0 0 0 - - -;
#X obj 91 207 t b b;
#X obj 298 434 r g_currentPos;
#X obj 219 219 bng 10 250 50 0 empty empty empty 17 7 0 10 -262144
-1 -1;
#X obj 75 183 bng 15 250 50 0 empty empty empty 17 7 0 10 -262144 -1
-1;
#X msg 60 553 createNode grid GridNode;
#X msg 79 533 deleteNode grid;
#X obj 60 514 sel 1 0;
#X obj 69 593 s \$0-to-SPIN-TCP;
#X obj 57 464 tgl 15 0 empty empty empty 17 7 0 10 -262144 -1 -1 1
1;
#X obj 131 71 paris-config;
#X obj 291 29 inlet;
#X obj 377 29 inlet;
#X obj 291 51 s \$0-to-SPIN;
#X obj 377 51 s \$0-to-SPIN-TCP;
#X obj 488 51 outlet;
#X obj 488 30 r \$0-from-SPIN;
#X obj 17 13 cnv 15 250 40 empty empty PosturePlatform 5 14 1 18 -228856
-86853 0;
#X obj 59 37 cnv 15 15 15 empty empty PARIS<->MONTREAL 0 7 0 8 -233017
-66577 0;
#X obj 202 22 cnv 15 15 15 empty empty CLIENT 0 8 1 10 -228856 -258113
0;
#X connect 0 0 2 0;
#X connect 2 0 17 0;
#X connect 5 0 4 0;
#X connect 6 0 5 0;
#X connect 7 0 8 0;
#X connect 11 0 10 0;
#X connect 11 1 12 0;
#X connect 11 2 13 0;
#X connect 14 0 5 0;
#X connect 14 1 3 0;
#X connect 15 0 11 0;
#X connect 16 0 3 0;
#X connect 17 0 14 0;
#X connect 18 0 21 0;
#X connect 19 0 21 0;
#X connect 20 0 18 0;
#X connect 20 1 19 0;
#X connect 22 0 20 0;
#X connect 23 0 0 0;
#X connect 23 1 0 1;
#X connect 23 2 0 2;
#X connect 24 0 26 0;
#X connect 25 0 27 0;
#X connect 29 0 28 0;
