#N canvas 142 150 882 705 10;
#X obj 12 103 bng 30 250 50 0 initBang! initBang init 4 15 1 14 -261234
-1 -1;
#X obj 414 128 bng 20 250 50 0 \$0-stop-moving empty STOP_MOVING 25
10 1 10 -261234 -1 -1;
#N canvas 688 459 712 366 UTILITIES 0;
#X msg 388 251 refreshSubscribers;
#X obj 388 270 s \$0-to-SPIN-TCP;
#X msg 383 204 optimize all;
#X obj 383 225 s \$0-to-SPIN-TCP;
#X obj 26 21 r \$0-stop-moving;
#X obj 117 189 s \$0-to-SPIN-TCP;
#X obj 70 243 r \$0-from-SPIN;
#X obj 70 263 OSCparse /posture??;
#X obj 70 283 route setTranslation setVelocity;
#X obj 68 319 anyreg posturePos;
#X msg 26 41 /posture?? setVelocity 0 0 0 \, /posture?? setSpin 0 0
0;
#X text 71 224 SAVE uesr position:;
#X msg 83 89 /posture?? debug;
#X obj 217 129 r \$0-debug-scene;
#X obj 213 76 r \$0-debug-context;
#X msg 213 97 debug context;
#X msg 217 150 debug nodes \, debug statesets;
#X connect 0 0 1 0;
#X connect 2 0 3 0;
#X connect 4 0 10 0;
#X connect 6 0 7 0;
#X connect 7 0 8 0;
#X connect 10 0 5 0;
#X connect 12 0 5 0;
#X connect 13 0 16 0;
#X connect 14 0 15 0;
#X connect 15 0 5 0;
#X connect 16 0 5 0;
#X restore 549 55 pd UTILITIES;
#X obj 416 34 bng 15 250 50 0 \$0-go-home \$0-go-home-set home 20 9
1 10 -261682 -1 -1;
#X obj 416 49 bng 15 250 50 0 \$0-go-911 \$0-go-911-set 9/11 20 9 1
10 -261682 -1 -1;
#X obj 100 331 bng 10 250 50 0 empty empty empty 17 7 0 10 -262144
-1 -1;
#X obj 125 128 tgl 15 0 g_hotspot_debugview g_hotspot_debugview-set
hotspot_debug 20 8 1 10 -261234 -1 -1 0 1;
#N canvas 114 159 1044 767 timeline 0;
#X obj 370 21 inlet;
#X obj 420 262 list;
#X obj 420 284 t a a;
#X obj 376 372 bng 15 250 50 0 empty empty empty 17 7 0 10 -262144
-1 -1;
#X obj 457 587 ntaVideoLoop \$0;
#X obj 494 405 s \$0-to-SPIN-TCP;
#X msg 439 141 WAY_N1_lieux -3;
#X msg 463 307 createNode \$1 ModelNode;
#X msg 432 162 WAY_N1_album -3;
#X obj 414 698 s \$0-to-SPIN-TCP;
#X obj 410 490 t b b;
#X msg 432 185 WAY_N1_center -3;
#X obj 867 435 s \$0-to-SPIN-TCP;
#X msg 867 416 /timeline setAll \$1;
#X msg 425 232 WAY_N1_timeline 0 0 0;
#X msg 408 212 WAY_N1_art 0 -22.6 1.5;
#X msg 414 678 /NYC* setParent timeline \, /TwelveOfUs* setParent timeline
;
#X obj 431 642 ntaVideoLoop \$0;
#X msg 431 611 TwelveOfUs TwelveOfUs-nosound.mov TwelveOfUs.wav 163.51
-5 1.5 180 120;
#X msg 457 556 NYC Untitled-NYC911_MP4_SansSon.mov NYC911.wav 52.4
-5.5 1.5 180 90;
#X obj 88 219 s tgl_timeline-set;
#X obj 840 337 r tgl_timeline;
#X obj 799 435 sel 0 1;
#X msg 742 478 0;
#X msg 884 504 1;
#X text 379 468 Create VIDEOS & SOUNDS:;
#X text 621 98 Create TIMELINE:;
#X msg 420 331 createNode \$1 ModelNode \, /\$1 setOrientation 90 0
90 \, /\$1 setTranslation \$2 \$3 \$4 \, /\$1 setModelFromFile ~/content/nta/models/environnements/ac3d/WAY_N1/\$1.ac
\, /\$1 setParent timeline \, /timeline setEnabled \$1 0;
#X obj 470 30 print CREATE_TIMELINE;
#X obj 884 485 delay 500;
#X msg 884 571 1;
#X msg 884 626 1;
#X obj 738 448 tgl 15 0 empty empty empty 17 7 0 10 -262144 -1 -1 1
1;
#X obj 884 607 delay 3000;
#X obj 870 666 t b b;
#X msg 870 707 1;
#X obj 870 688 delay 1500;
#X obj 884 552 delay 1000;
#X obj 49 510 bng 15 250 50 0 empty empty empty 4 15 1 14 -262144 -1
-1;
#X obj 93 655 s \$0-to-SPIN-TCP;
#X msg 104 599 /OceanBeach1.mov rewind \, /OceanBeach1 setPlay 1;
#X msg 71 624 /OceanBeach1 setPlay 0;
#X msg 153 558 /OceanBeach1.mov setIndex 0;
#X obj 57 545 delay 1000;
#X obj 50 567 delay 2000;
#X obj 884 534 t b b;
#X obj 884 463 t b b;
#X obj 785 413 tgl 15 0 empty empty empty 17 7 0 10 -262144 -1 -1 0
1;
#X obj 864 367 r tgl_audiovideo;
#X msg 88 199 1;
#X text 481 501 was -19.5 -8 0 270 -4.5 0 1.43 0 0;
#X obj 370 44 t b b b b b b;
#X msg 619 120 createNode timeline SwitchNode \, /timeline setTranslation
0 8 0 \, /timeline setOrientation 0 0 90;
#X msg 622 156 createNode timelineLabels ModelNode \, /timelineLabels
setParent timeline \, /timelineLabels setModelFromFile ~/content/nta/models/environnements/ac3d/WAY_N1/timelineLabels.osg
;
#X obj 474 520 ntaPanoVideo \$0 OceanBeach1 OceanBeach1.mov OceanBeach1.aif
-5 20 0 270 -4.5 0 1.43 0 0;
#X connect 0 0 51 0;
#X connect 1 0 2 0;
#X connect 2 0 27 0;
#X connect 2 1 7 0;
#X connect 3 0 10 0;
#X connect 7 0 5 0;
#X connect 10 0 16 0;
#X connect 10 1 19 0;
#X connect 10 1 18 0;
#X connect 10 1 54 0;
#X connect 13 0 12 0;
#X connect 14 0 1 0;
#X connect 15 0 1 0;
#X connect 16 0 9 0;
#X connect 18 0 17 0;
#X connect 19 0 4 0;
#X connect 21 0 22 0;
#X connect 21 0 13 0;
#X connect 21 0 32 0;
#X connect 22 0 23 0;
#X connect 22 1 34 0;
#X connect 22 1 45 0;
#X connect 22 1 46 0;
#X connect 23 0 4 1;
#X connect 23 0 17 1;
#X connect 23 0 54 2;
#X connect 24 0 54 2;
#X connect 27 0 5 0;
#X connect 29 0 24 0;
#X connect 30 0 4 1;
#X connect 33 0 31 0;
#X connect 34 0 36 0;
#X connect 34 1 35 0;
#X connect 35 0 17 1;
#X connect 36 0 35 0;
#X connect 37 0 30 0;
#X connect 38 0 43 0;
#X connect 38 0 44 0;
#X connect 40 0 39 0;
#X connect 41 0 39 0;
#X connect 42 0 39 0;
#X connect 43 0 40 0;
#X connect 44 0 41 0;
#X connect 45 0 37 0;
#X connect 45 1 30 0;
#X connect 46 0 29 0;
#X connect 46 1 24 0;
#X connect 47 0 22 0;
#X connect 48 0 22 0;
#X connect 49 0 20 0;
#X connect 51 0 49 0;
#X connect 51 1 3 0;
#X connect 51 1 38 0;
#X connect 51 2 15 0;
#X connect 51 2 14 0;
#X connect 51 3 53 0;
#X connect 51 4 52 0;
#X connect 51 5 28 0;
#X connect 52 0 5 0;
#X connect 53 0 5 0;
#X restore 60 397 pd timeline;
#X obj 273 105 tgl 25 0 tgl_timeline tgl_timeline-set timeline 30 12
1 12 -262130 -1 -1 1 1;
#X obj 134 387 bng 10 250 50 0 empty empty empty 17 7 0 10 -262144
-1 -1;
#X obj 125 146 tgl 15 0 g_snap_toggle g_snap_toggle-set snapToPanoscope
20 8 1 10 -261234 -1 -1 0 1;
#N canvas 89 366 843 563 fog 0;
#X obj 236 -65 inlet;
#X obj 285 412 s \$0-to-SPIN-TCP;
#X msg 322 31 createStateSet toronto-Fog Fog;
#X obj 199 227 hsl 128 15 0 0.1 0 0 empty empty empty -2 -8 0 10 -262144
-1 -1 508 1;
#X msg 221 340 /toronto-Fog setFogDensity \$1;
#X obj -161 257 line \$1 50;
#X obj -87 256 line \$1 50;
#X msg -86 237 \$1 3000;
#X msg -160 238 \$1 3000;
#X obj -53 318 pack 0 0 0;
#X obj -17 256 line \$1 50;
#X msg -16 237 \$1 3000;
#X msg -63 52 0.005 0.75 0.75 0.75;
#X msg -24 109 0 0 0 0.2;
#X obj 53 256 line \$1 50;
#X msg 54 237 \$1 3000;
#X obj -74 193 unpack 0 0 0 0;
#X msg -69 361 /toronto-Fog setFogColor \$1 \$2 \$3 0;
#X obj -21 -32 r gScene;
#X obj -31 -2 sel 0 1 2;
#X text 72 54 white;
#X text 26 80 black;
#X text 42 109 blue;
#X msg -50 80 0.01 0 0 0;
#X msg 416 81 deleteNode toronto-Fog;
#X obj 293 -28 print CREATE_FOG;
#X obj 236 -44 t b b b;
#X msg 191 205 0.004;
#X msg -13 137 0.005 0.1 0.6 0.75;
#X obj -15 454 hotpack3;
#X obj -22 418 nbx 5 14 -1e+37 1e+37 0 0 empty empty empty 0 -8 0 10
-261234 -1 -1 0 256;
#X obj 38 418 nbx 5 14 -1e+37 1e+37 0 0 empty empty empty 0 -8 0 10
-204786 -1 -1 0 256;
#X obj 98 418 nbx 5 14 -1e+37 1e+37 0 0 empty empty empty 0 -8 0 10
-203904 -1 -1 0 256;
#X msg 4 163 0.005 0.6 0.8 1;
#X text 109 138 aqua;
#X text 118 160 sky?;
#X connect 0 0 26 0;
#X connect 2 0 1 0;
#X connect 3 0 4 0;
#X connect 4 0 1 0;
#X connect 5 0 4 0;
#X connect 6 0 9 0;
#X connect 7 0 6 0;
#X connect 8 0 5 0;
#X connect 9 0 17 0;
#X connect 10 0 9 1;
#X connect 11 0 10 0;
#X connect 12 0 16 0;
#X connect 13 0 16 0;
#X connect 14 0 9 2;
#X connect 15 0 14 0;
#X connect 16 0 8 0;
#X connect 16 1 7 0;
#X connect 16 2 11 0;
#X connect 16 3 15 0;
#X connect 17 0 1 0;
#X connect 18 0 19 0;
#X connect 19 0 12 0;
#X connect 19 1 23 0;
#X connect 19 2 13 0;
#X connect 23 0 16 0;
#X connect 24 0 1 0;
#X connect 26 0 27 0;
#X connect 26 0 33 0;
#X connect 26 1 2 0;
#X connect 26 2 25 0;
#X connect 27 0 3 0;
#X connect 28 0 16 0;
#X connect 29 0 17 0;
#X connect 30 0 29 0;
#X connect 31 0 29 1;
#X connect 32 0 29 2;
#X connect 33 0 16 0;
#X restore 56 341 pd fog;
#X obj 125 110 tgl 15 0 g_noPointer g_noPointer-set noPointer 20 8
1 10 -261234 -1 -1 0 1;
#N canvas 186 239 590 811 GO-THERE 0;
#X obj 86 431 s \$0-to-SPIN;
#X obj 62 13 r \$0-go-home;
#X obj 162 64 r \$0-go-911;
#X obj 84 265 t a;
#X obj 212 154 r \$0-go-twelveOfUs;
#X obj 264 246 r \$0-go-sat;
#X obj 273 296 r \$0-go-paris;
#X obj 274 347 r \$0-go-beach;
#X msg 272 370 -8 16 1.9;
#X msg 200 184 -171 3 1.5;
#X msg 168 114 3.5 60.5 1.5;
#X msg 162 94 -60 4 1.5;
#X obj 86 401 setPosWithOffsets posture08 0 1 posture06 0 -1;
#X msg 210 204 3 172 1.5;
#X msg 271 319 0 0 87.5;
#X msg 264 266 0 0 -85.5;
#X msg 62 33 1 0 1.5;
#X connect 1 0 16 0;
#X connect 2 0 10 0;
#X connect 3 0 12 0;
#X connect 4 0 13 0;
#X connect 5 0 15 0;
#X connect 6 0 14 0;
#X connect 7 0 8 0;
#X connect 8 0 12 0;
#X connect 9 0 12 0;
#X connect 10 0 3 0;
#X connect 11 0 3 0;
#X connect 12 0 0 0;
#X connect 13 0 12 0;
#X connect 14 0 12 0;
#X connect 15 0 12 0;
#X connect 16 0 3 0;
#X restore 415 14 pd GO-THERE;
#X obj 400 156 bng 16 250 50 0 \$0-debug-scene empty DEBUG_scene 20
9 1 9 -261234 -1 -1;
#X obj 12 137 t b b b b b b;
#X obj 416 64 bng 15 250 50 0 \$0-go-twelveOfUs \$0-go-twelveOfUs-set
TwelveOfUs 20 9 1 10 -261682 -1 -1;
#X obj 273 134 tgl 25 0 tgl_audiovideo tgl_audiovideo-set audio/video
30 12 1 12 -262130 -1 -1 1 1;
#X text 550 136 need this or snap2panoscope won't work:;
#X obj 194 370 cnv 15 300 225 empty empty userCallback: 5 15 1 14 -228856
-162280 0;
#N canvas 274 406 956 497 CAMERA_SWITCHING 0;
#X obj 24 16 cnv 15 150 24 empty empty callback: 4 12 1 24 -99865 -262144
0;
#X obj 35 159 r \$0-from-SPIN;
#X text 22 46 (measures distance/angle between users and siwtches texture)
;
#X obj 267 415 s \$0-to-SPIN-TCP;
#X msg 90 189 north.jpg east.jpg south.jpg west.jpg;
#X msg 503 140 north.jpg east.jpg south.jpg west.jpg;
#X obj 280 123 inlet;
#X text 154 214 streamer08's cameras:;
#X text 555 184 streamer05's cameras:;
#X text 571 238 posture05's cameras:;
#X msg 559 258 shvid_81443610264df38 shvid_81443610264df9f shvid_81443610264df80
shvid_81443610264e117;
#X obj 448 115 r \$0-from-SPIN;
#X text 327 123 <- init bang;
#X obj 35 268 4cam-user posture08;
#X obj 573 302 cnv 20 20 20 empty empty * 0 18 0 32 -262144 -258113
0;
#X obj 686 182 cnv 20 20 20 empty empty * 0 18 0 32 -262144 -258113
0;
#X msg 544 205 shvid_81443610264df44 shvid_81443610264e5e3 shvid_81443610264df4e
shvid_81443610264dca3;
#X obj 448 295 4cam-user posture06;
#X msg 146 232 shvid_81443610264e437 shvid_81443610264e63e shvid_81443610264e626
shvid_81443610264e5f4;
#X connect 1 0 13 0;
#X connect 4 0 13 1;
#X connect 5 0 17 1;
#X connect 6 0 18 0;
#X connect 6 0 16 0;
#X connect 10 0 17 2;
#X connect 11 0 17 0;
#X connect 13 0 3 0;
#X connect 16 0 17 2;
#X connect 17 0 3 0;
#X connect 18 0 13 2;
#X restore 124 251 pd CAMERA_SWITCHING;
#N canvas 655 508 743 426 TextLabels 0;
#X obj 84 23 inlet;
#X obj 73 91 list;
#X text 255 153 create a UserNode (just in case) and a TextNode for
debugging:;
#X msg 212 196 createNode \$1 UserNode \, createNode \$1-text TextNode
;
#X obj 73 114 t b a;
#X obj 107 161 t a a;
#X obj 95 351 s \$0-to-SPIN-TCP;
#X msg -94 210 /posture06-text setContext posture08;
#X msg -87 235 /posture08-text setContext posture06;
#X msg 173 50 posture06 Paris \, posture08 Montreal;
#X msg 215 233 /\$1-text setParent \$1 \, /\$1-text setTextValue \$2
\, /\$1-text setTranslation 0 0 1.1 \, /\$1-text setBillboard 2 \,
/\$1-text setScale 3 3 3 \, \$1-text setFont GillSans.ttf;
#X connect 0 0 1 0;
#X connect 1 0 4 0;
#X connect 3 0 6 0;
#X connect 4 0 7 0;
#X connect 4 0 8 0;
#X connect 4 1 5 0;
#X connect 5 0 10 0;
#X connect 5 1 3 0;
#X connect 7 0 6 0;
#X connect 8 0 6 0;
#X connect 9 0 1 0;
#X connect 10 0 6 0;
#X restore 75 308 pd TextLabels;
#X obj 94 278 bng 10 250 50 0 empty empty empty 17 7 0 10 -262144 -1
-1;
#X obj 266 51 client;
#X obj 696 43 tgl 15 0 empty empty empty 17 7 0 10 -262144 -1 -1 0
1;
#X obj 266 4 r \$0-to-SPIN;
#X obj 299 27 r \$0-to-SPIN-TCP;
#X obj 266 73 s \$0-from-SPIN;
#X obj 7 3 cnv 15 250 40 empty empty PosturePlatform 5 14 1 18 -228856
-86853 0;
#X obj 525 335 widget-nodeEditor \$0;
#X obj 49 27 cnv 15 15 15 empty empty PARIS<->MONTREAL 0 7 0 8 -233017
-66577 0;
#X obj 192 12 cnv 15 15 15 empty empty MASTER 0 8 1 10 -228856 -258113
0;
#X obj 12 56 loadbang;
#X obj 12 77 delay 2500;
#X obj 245 241 bng 10 250 50 0 empty empty empty 17 7 0 10 -262144
-1 -1;
#X obj 34 372 delay 5000;
#X msg 135 196 refresh;
#X obj 297 286 cnv 20 20 20 empty empty * 0 18 0 32 -262144 -258113
0;
#X obj 250 254 cnv 20 20 20 empty empty * 0 18 0 32 -262144 -258113
0;
#X msg 75 288 posture06 Paris \, posture08 Montreal;
#X obj 135 216 s \$0-to-SPIN-TCP;
#X obj 697 85 tgl 15 0 empty empty empty 17 7 0 10 -262144 -1 -1 0
1;
#N canvas 0 0 321 224 gridTest-TCP 0;
#X msg 86 125 createNode grid GridNode;
#X msg 105 105 deleteNode grid;
#X obj 86 86 sel 1 0;
#X obj 105 150 s \$0-to-SPIN-TCP;
#X obj 86 42 inlet;
#X connect 0 0 3 0;
#X connect 1 0 3 0;
#X connect 2 0 0 0;
#X connect 2 1 1 0;
#X connect 4 0 2 0;
#X restore 696 62 pd gridTest-TCP;
#N canvas 0 0 322 215 gridTest-UDP 0;
#X msg 60 103 createNode grid GridNode;
#X msg 79 83 deleteNode grid;
#X obj 60 64 sel 1 0;
#X obj 79 128 s \$0-to-SPIN-TCP;
#X obj 60 27 inlet;
#X connect 0 0 3 0;
#X connect 1 0 3 0;
#X connect 2 0 0 0;
#X connect 2 1 1 0;
#X connect 4 0 2 0;
#X restore 697 105 pd gridTest-UDP;
#X obj 550 229 tgl 15 0 empty empty PARIS 19 8 0 10 -204786 -1 -1 0
1;
#X msg 543 276 /cities setEnabled paris-cnam.ac \$1;
#X obj 532 297 s \$0-to-SPIN-TCP;
#X obj 550 210 tgl 15 0 empty empty MONTREAL 19 8 0 10 -204786 -1 -1
0 1;
#X msg 532 255 /cities setEnabled montreal-sat.ac \$1;
#X obj 134 412 bng 10 250 50 0 empty empty empty 17 7 0 10 -262144
-1 -1;
#X obj 416 79 bng 15 250 50 0 \$0-go-sat \$0-go-sat-set SAT 20 9 1
10 -261682 -1 -1;
#X obj 242 441 r \$0-from-SPIN;
#X obj 242 464 route nodeList;
#X obj 242 485 route UserNode;
#X obj 213 569 s \$0-to-SPIN-TCP;
#X obj 221 539 createVideoBillboards posture08;
#X obj 419 529 cnv 20 20 20 empty empty * 0 18 0 32 -228856 -258113
0;
#X obj 208 518 createVideoBillboards posture06;
#X msg 363 484 posture06 posture08;
#N canvas 0 25 569 518 cities 0;
#X obj 83 36 inlet;
#X obj 88 223 list;
#X obj 140 483 s \$0-to-SPIN-TCP;
#X msg 115 356 createNode \$1 ModelNode;
#X obj 89 245 t a a b;
#X msg 73 380 createNode \$1 ModelNode \, /\$1 setOrientation 90 0
\$5 \, /\$1 setTranslation \$2 \$3 \$4 \, /\$1 setModelFromFile ~/content/posture_sat-cnam/modeles/\$1
\, /\$1 setParent cities \, /cities setEnabled \$1 1;
#X msg 120 189 paris-cnam.ac -35 -24 85 0;
#X msg 87 162 montreal-sat.ac 0 0 -85 -56.5;
#X msg 173 277 createNode cities SwitchNode \, /cities setTranslation
0.5 11.1 0 \, /cities setOrientation 0 0 0;
#X connect 0 0 7 0;
#X connect 0 0 6 0;
#X connect 1 0 4 0;
#X connect 3 0 2 0;
#X connect 4 0 5 0;
#X connect 4 1 3 0;
#X connect 4 2 8 0;
#X connect 5 0 2 0;
#X connect 6 0 1 0;
#X connect 7 0 1 0;
#X connect 8 0 2 0;
#X restore 66 422 pd cities;
#X text 208 412 for EACH OTHER user);
#X text 203 397 (creates video billboards given a user;
#X obj 282 177 r g_currentPos;
#X obj 282 199 unpack 0 0 0;
#X floatatom 282 220 5 0 0 0 - - -;
#X floatatom 316 220 5 0 0 0 - - -;
#X floatatom 351 220 5 0 0 0 - - -;
#X obj 416 94 bng 15 250 50 0 \$0-go-paris \$0-go-paris-set paris 20
9 1 10 -261682 -1 -1;
#X obj 416 109 bng 15 250 50 0 \$0-go-beach \$0-go-beach-set beach
20 9 1 10 -261682 -1 -1;
#X obj 12 498 delay 30000;
#X obj 23 587 anyreg g_SCENE_BOUND;
#X msg 23 608 setCubeOffset \$1 \$2 \$3 \, setCubeSize \$4 \$5 \$6
;
#X msg 43 633 setCubeOffset 0 0 0 \, setCubeSize 0 0 0;
#X obj 157 577 bng 10 250 50 0 empty empty empty 17 7 0 10 -262144
-1 -1;
#X obj 30 662 OSCprepend /posture??;
#X obj 30 685 s \$0-to-SPIN-TCP;
#N canvas 0 0 450 300 force_refresh 0;
#X obj 118 37 inlet;
#X msg 71 204 refreshSubscribers;
#X obj 71 224 s \$0-to-SPIN-TCP;
#X obj 118 63 t b b b;
#X obj 216 80 print REFRESH_SUBSCRIBERS;
#X connect 0 0 3 0;
#X connect 1 0 2 0;
#X connect 3 0 1 0;
#X connect 3 2 4 0;
#X restore 12 518 pd force_refresh;
#X obj 117 508 bng 10 250 50 0 empty empty empty 17 7 0 10 -262144
-1 -1;
#X obj 400 174 bng 16 250 50 0 \$0-debug-context empty DEBUG_connection
20 9 1 9 -261234 -1 -1;
#X obj 27 468 tgl 20 0 g_snap_toggle empty snap2panoscope 23 10 1 10
-262144 -1 -1 1 1;
#X msg 27 446 1;
#X msg 450 312 posture08;
#X obj 569 158 anyreg g_SCENE_BOUND 0 0 62.3 750 750 300;
#X msg 450 334 posture06;
#X connect 0 0 15 0;
#X connect 5 0 11 0;
#X connect 9 0 7 0;
#X connect 15 0 69 0;
#X connect 15 0 80 0;
#X connect 15 1 35 0;
#X connect 15 2 11 0;
#X connect 15 3 39 0;
#X connect 15 4 20 0;
#X connect 15 5 36 0;
#X connect 22 0 39 0;
#X connect 23 0 27 0;
#X connect 24 0 42 0;
#X connect 25 0 23 0;
#X connect 26 0 23 1;
#X connect 32 0 33 0;
#X connect 33 0 0 0;
#X connect 34 0 20 0;
#X connect 35 0 7 0;
#X connect 35 0 59 0;
#X connect 36 0 40 0;
#X connect 39 0 21 0;
#X connect 41 0 43 0;
#X connect 44 0 45 0;
#X connect 45 0 46 0;
#X connect 47 0 48 0;
#X connect 48 0 46 0;
#X connect 49 0 59 0;
#X connect 51 0 52 0;
#X connect 52 0 53 0;
#X connect 53 0 55 0;
#X connect 53 0 57 0;
#X connect 55 0 54 0;
#X connect 57 0 54 0;
#X connect 58 0 55 0;
#X connect 58 0 57 0;
#X connect 62 0 63 0;
#X connect 63 0 64 0;
#X connect 63 1 65 0;
#X connect 63 2 66 0;
#X connect 69 0 76 0;
#X connect 70 0 71 0;
#X connect 71 0 74 0;
#X connect 73 0 70 0;
#X connect 74 0 75 0;
#X connect 77 0 76 0;
#X connect 80 0 79 0;
#X connect 81 0 29 0;
#X connect 83 0 29 0;
