#N canvas 679 25 882 674 10;
#X obj 12 103 bng 30 250 50 0 initBang! initBang init 4 15 1 14 -261234
-1 -1;
#X obj 412 175 bng 20 250 50 0 \$0-stop-moving empty STOP_MOVING 25
10 1 10 -261234 -1 -1;
#N canvas 352 109 808 496 INIT 0;
#X msg 620 113 0;
#X msg 220 346 \; pd dsp 1 \;;
#X obj 263 39 t b b;
#X obj 263 17 inlet;
#X obj 593 221 s \$0-to-SPIN-TCP;
#X msg 419 264 /posture?? setTranslation 0 0 1.5;
#X msg 605 176 /posture?? setParam gain \$1;
#X msg 593 200 /posture??-listener stateDump;
#X obj 593 90 t b b;
#X obj 419 284 s \$0-to-SPIN-TCP;
#X msg 39 189 refreshSubscribers;
#X obj 51 215 s \$0-to-SPIN-TCP;
#X obj 39 236 print SUBSCRIBER_REFRESH;
#X obj 448 165 s g_snap_toggle-set;
#X msg 448 145 1;
#X obj 620 132 s \$0-gain-set;
#X obj 605 157 r \$0-gain-set;
#X text 574 63 Force listener to initialize:;
#X obj 270 264 t b b;
#X obj 270 245 delay 1000;
#X obj 39 168 delay 10000;
#X obj 320 33 print INIT;
#X obj 120 136 delay 60000;
#X connect 0 0 15 0;
#X connect 2 0 5 0;
#X connect 2 0 19 0;
#X connect 2 1 8 0;
#X connect 2 1 14 0;
#X connect 3 0 2 0;
#X connect 3 0 21 0;
#X connect 5 0 9 0;
#X connect 6 0 4 0;
#X connect 7 0 4 0;
#X connect 8 0 7 0;
#X connect 8 1 0 0;
#X connect 10 0 11 0;
#X connect 10 0 12 0;
#X connect 14 0 13 0;
#X connect 16 0 6 0;
#X connect 18 0 1 0;
#X connect 19 0 18 0;
#X connect 20 0 10 0;
#X connect 22 0 10 0;
#X restore 12 448 pd INIT;
#N canvas 1091 190 712 366 UTILITIES 0;
#X msg 403 55 refreshSubscribers;
#X obj 403 74 s \$0-to-SPIN-TCP;
#X msg 394 121 optimize all;
#X obj 394 142 s \$0-to-SPIN-TCP;
#X obj 26 21 r \$0-stop-moving;
#X obj 84 153 s \$0-to-SPIN-TCP;
#X obj 70 243 r \$0-from-SPIN;
#X obj 70 263 OSCparse /posture??;
#X obj 70 283 route setTranslation setVelocity;
#X obj 70 304 anyreg posturePos;
#X msg 26 41 /posture?? setVelocity 0 0 0 \, /posture?? setSpin 0 0
0;
#X text 71 224 SAVE uesr position:;
#X msg 83 89 /posture?? debug;
#X obj 213 76 r \$0-debug-scene;
#X msg 213 97 debug;
#X connect 0 0 1 0;
#X connect 2 0 3 0;
#X connect 4 0 10 0;
#X connect 6 0 7 0;
#X connect 7 0 8 0;
#X connect 8 0 9 0;
#X connect 10 0 5 0;
#X connect 12 0 5 0;
#X connect 13 0 14 0;
#X connect 14 0 5 0;
#X restore 546 77 pd UTILITIES;
#X obj 416 122 bng 15 250 50 0 \$0-go-home \$0-go-home-set home 20
9 1 10 -261682 -1 -1;
#X obj 416 137 bng 15 250 50 0 \$0-go-911 \$0-go-911-set 9/11 20 9
1 10 -261682 -1 -1;
#X obj 92 438 bng 10 250 50 0 empty empty empty 17 7 0 10 -262144 -1
-1;
#X obj 106 353 bng 10 250 50 0 empty empty empty 17 7 0 10 -262144
-1 -1;
#X obj 125 128 tgl 15 0 g_hotspot_debugview g_hotspot_debugview-set
hotspot_debug 20 8 1 10 -261234 -1 -1 0 1;
#N canvas 790 188 1044 696 timeline 0;
#X obj 370 21 inlet;
#X obj 424 175 list;
#X obj 424 197 t a a;
#X obj 371 292 bng 15 250 50 0 empty empty empty 17 7 0 10 -262144
-1 -1;
#X obj 452 507 ntaVideoLoop \$0;
#X obj 503 318 s \$0-to-SPIN-TCP;
#X msg 610 126 WAY_N1_lieux -3;
#X obj 46 308 bng 15 250 50 0 empty empty empty 17 7 0 10 -262144 -1
-1;
#X msg 467 220 createNode \$1 ModelNode;
#X msg 38 342 360 0 0 -6 0 0 1950 1 101;
#X msg 67 369 -261 0 0 -21 0 0 2100 50 3;
#X obj 44 401 makeTimeline \$0;
#X msg 603 147 WAY_N1_album -3;
#X msg 474 84 createNode timeline SwitchNode \, /timeline setTranslation
-7.5 0 0 \, /timeline setOrientation 0 0 180;
#X obj 409 618 s \$0-to-SPIN-TCP;
#X obj 409 375 t b b;
#X msg 603 170 WAY_N1_center -3;
#X obj 862 355 s \$0-to-SPIN-TCP;
#X msg 862 336 /timeline setAll \$1;
#X msg 439 148 WAY_N1_timeline 0 0 0;
#X msg 440 129 WAY_N1_art 0 -22.6 1.5;
#X msg 409 598 /NYC* setParent timeline \, /TwelveOfUs* setParent timeline
;
#X obj 426 562 ntaVideoLoop \$0;
#X msg 426 531 TwelveOfUs TwelveOfUs-nosound.mov TwelveOfUs.wav 163.51
-5 1.5 180 120;
#X msg 452 476 NYC Untitled-NYC911_MP4_SansSon.mov NYC911.wav 52.4
-5.5 1.5 180 90;
#X obj 51 167 s tgl_timeline-set;
#X obj 835 257 r tgl_timeline;
#X obj 794 355 sel 0 1;
#X msg 768 403 0;
#X msg 879 424 1;
#X text 70 323 create TextNodes for years:;
#X text 14 425 (x y z offsetX offsetY offsetZ startValue increment
count);
#X text 422 351 Create VIDEOS & SOUNDS:;
#X text 485 59 Create TIMELINE:;
#X msg 424 244 createNode \$1 ModelNode \, /\$1 setOrientation 90 0
90 \, /\$1 setTranslation \$2 \$3 \$4 \, /\$1 setModelFromFile ~/content/nta/models/environnements/ac3d/WAY_N1/\$1.ac
\, /\$1 setParent timeline \, /timeline setEnabled \$1 0;
#X obj 370 44 t b b b b b;
#X obj 470 30 print CREATE_TIMELINE;
#X obj 879 405 delay 500;
#X msg 879 491 1;
#X msg 879 546 1;
#X obj 733 368 tgl 15 0 empty empty empty 17 7 0 10 -262144 -1 -1 0
1;
#X obj 46 270 delay 10000;
#X obj 879 527 delay 3000;
#X obj 865 586 t b b;
#X msg 865 627 1;
#X obj 865 608 delay 1500;
#X obj 879 472 delay 1000;
#X obj 49 510 bng 15 250 50 0 empty empty empty 4 15 1 14 -262144 -1
-1;
#X obj 93 655 s \$0-to-SPIN-TCP;
#X msg 104 599 /OceanBeach1.mov rewind \, /OceanBeach1 setPlay 1;
#X msg 71 624 /OceanBeach1 setPlay 0;
#X msg 153 558 /OceanBeach1.mov setIndex 0;
#X obj 57 545 delay 1000;
#X obj 50 567 delay 2000;
#X obj 879 454 t b b;
#X obj 879 383 t b b;
#X obj 780 333 tgl 15 0 empty empty empty 17 7 0 10 -262144 -1 -1 0
1;
#X obj 469 440 ntaPanoVideo \$0 OceanBeach1 OceanBeach1.mov OceanBeach1.aif
-19.5 -8 0 270 -4.5 0 1.43 0 0;
#X obj 859 287 r tgl_audiovideo;
#X msg 51 147 1;
#X connect 0 0 35 0;
#X connect 1 0 2 0;
#X connect 2 0 34 0;
#X connect 2 1 8 0;
#X connect 3 0 15 0;
#X connect 7 0 10 0;
#X connect 7 0 9 0;
#X connect 8 0 5 0;
#X connect 9 0 11 0;
#X connect 10 0 11 0;
#X connect 13 0 5 0;
#X connect 15 0 21 0;
#X connect 15 1 24 0;
#X connect 15 1 23 0;
#X connect 15 1 57 0;
#X connect 18 0 17 0;
#X connect 19 0 1 0;
#X connect 20 0 1 0;
#X connect 21 0 14 0;
#X connect 23 0 22 0;
#X connect 24 0 4 0;
#X connect 26 0 27 0;
#X connect 26 0 18 0;
#X connect 26 0 40 0;
#X connect 27 0 28 0;
#X connect 27 1 43 0;
#X connect 27 1 54 0;
#X connect 27 1 55 0;
#X connect 28 0 4 1;
#X connect 28 0 22 1;
#X connect 28 0 57 2;
#X connect 29 0 57 2;
#X connect 34 0 5 0;
#X connect 35 0 59 0;
#X connect 35 1 3 0;
#X connect 35 1 41 0;
#X connect 35 1 47 0;
#X connect 35 2 20 0;
#X connect 35 2 19 0;
#X connect 35 3 13 0;
#X connect 35 4 36 0;
#X connect 37 0 29 0;
#X connect 38 0 4 1;
#X connect 41 0 7 0;
#X connect 42 0 39 0;
#X connect 43 0 45 0;
#X connect 43 1 44 0;
#X connect 44 0 22 1;
#X connect 45 0 44 0;
#X connect 46 0 38 0;
#X connect 47 0 52 0;
#X connect 47 0 53 0;
#X connect 49 0 48 0;
#X connect 50 0 48 0;
#X connect 51 0 48 0;
#X connect 52 0 49 0;
#X connect 53 0 50 0;
#X connect 54 0 46 0;
#X connect 54 1 38 0;
#X connect 55 0 37 0;
#X connect 55 1 29 0;
#X connect 56 0 27 0;
#X connect 58 0 27 0;
#X connect 59 0 25 0;
#X restore 85 320 pd timeline;
#X obj 273 104 tgl 25 0 tgl_timeline tgl_timeline-set timeline 30 12
1 12 -262130 -1 -1 0 1;
#X obj 159 310 bng 10 250 50 0 empty empty empty 17 7 0 10 -262144
-1 -1;
#X obj 125 146 tgl 15 0 g_snap_toggle g_snap_toggle-set snapToPanoscope
20 8 1 10 -261234 -1 -1 0 1;
#N canvas 965 353 843 563 fog 0;
#X obj 236 -65 inlet;
#X obj 285 412 s \$0-to-SPIN-TCP;
#X msg 322 31 createStateSet toronto-Fog Fog;
#X obj 199 227 hsl 128 15 0 0.1 0 0 empty empty empty -2 -8 0 10 -262144
-1 -1 0 1;
#X msg 221 340 /toronto-Fog setFogDensity \$1;
#X obj -161 207 line \$1 50;
#X obj -87 206 line \$1 50;
#X msg -86 187 \$1 3000;
#X msg -160 188 \$1 3000;
#X obj -53 268 pack 0 0 0;
#X obj -17 206 line \$1 50;
#X msg -16 187 \$1 3000;
#X msg -63 52 0.005 0.75 0.75 0.75;
#X msg -24 109 0 0 0 0.2;
#X obj 53 206 line \$1 50;
#X msg 54 187 \$1 3000;
#X obj -74 143 unpack 0 0 0 0;
#X msg -69 311 /toronto-Fog setFogColor \$1 \$2 \$3 0;
#X obj -21 -32 r gScene;
#X obj -31 -2 sel 0 1 2;
#X text 72 54 white;
#X text 26 80 black;
#X text 42 109 blue;
#X msg -50 80 0.01 0 0 0;
#X msg 416 81 deleteNode toronto-Fog;
#X obj 293 -28 print CREATE_FOG;
#X obj 236 -44 t b b b;
#X msg 191 205 0.004;
#X connect 0 0 26 0;
#X connect 2 0 1 0;
#X connect 3 0 4 0;
#X connect 4 0 1 0;
#X connect 5 0 4 0;
#X connect 6 0 9 0;
#X connect 7 0 6 0;
#X connect 8 0 5 0;
#X connect 9 0 17 0;
#X connect 10 0 9 1;
#X connect 11 0 10 0;
#X connect 12 0 16 0;
#X connect 13 0 16 0;
#X connect 14 0 9 2;
#X connect 15 0 14 0;
#X connect 16 0 8 0;
#X connect 16 1 7 0;
#X connect 16 2 11 0;
#X connect 16 3 15 0;
#X connect 17 0 1 0;
#X connect 18 0 19 0;
#X connect 19 0 12 0;
#X connect 19 1 23 0;
#X connect 19 2 13 0;
#X connect 23 0 16 0;
#X connect 24 0 1 0;
#X connect 26 0 27 0;
#X connect 26 0 13 0;
#X connect 26 1 2 0;
#X connect 26 2 25 0;
#X connect 27 0 3 0;
#X restore 42 363 pd fog;
#X obj 125 110 tgl 15 0 g_noPointer g_noPointer-set noPointer 20 8
1 10 -261234 -1 -1 0 1;
#X obj 12 429 delay 5000;
#N canvas 871 77 801 634 GO-THERE 0;
#X obj 70 465 s \$0-to-SPIN;
#X msg 76 161 setTranslation 0 0 1.5;
#X obj 77 425 OSCprepend /posture??;
#X obj 76 141 r \$0-go-home;
#X obj 176 202 r \$0-go-911;
#X msg 176 222 setTranslation -60 4 1.5;
#X obj 98 393 t a;
#X obj 313 291 r \$0-go-twelveOfUs;
#X msg 313 311 setTranslation -171 3 1.5;
#X connect 1 0 6 0;
#X connect 2 0 0 0;
#X connect 3 0 1 0;
#X connect 4 0 5 0;
#X connect 5 0 6 0;
#X connect 6 0 2 0;
#X connect 7 0 8 0;
#X connect 8 0 2 0;
#X restore 415 102 pd GO-THERE;
#X obj 412 199 bng 20 250 50 0 \$0-debug-scene empty DEBUG 25 10 1
10 -261234 -1 -1;
#X obj 85 301 delay 1000;
#X obj 12 137 t b b b b b b;
#X obj 416 152 bng 15 250 50 0 \$0-go-twelveOfUs \$0-go-twelveOfUs-set
TwelveOfUs 20 9 1 10 -261682 -1 -1;
#X obj 273 133 tgl 25 0 tgl_audiovideo tgl_audiovideo-set audio/video
30 12 1 12 -262130 -1 -1 0 1;
#X msg 327 381 refreshSubscribers;
#X obj 339 407 s \$0-to-SPIN-TCP;
#X obj 483 35 anyreg g_SCENE_BOUND 0 0 0 0 0 0;
#X text 465 13 need this or snap2panoscope won't work:;
#X obj 185 511 r \$0-from-SPIN;
#X obj 185 534 route nodeList;
#X obj 185 555 route UserNode;
#X obj 150 453 cnv 15 150 24 empty empty callback: 4 12 1 24 -99865
-262144 0;
#X text 101 483 (creates video billboards given a user \, for EACH
OTHER user);
#X obj 151 588 createVideoBillboards posture05;
#X obj 156 639 s \$0-to-SPIN-TCP;
#N canvas 815 404 956 497 CAMERA_SWITCHING 0;
#X obj 24 16 cnv 15 150 24 empty empty callback: 4 12 1 24 -99865 -262144
0;
#X obj 35 159 r \$0-from-SPIN;
#X text 22 46 (measures distance/angle between users and siwtches texture)
;
#X obj 267 415 s \$0-to-SPIN-TCP;
#X msg 90 189 north.jpg east.jpg south.jpg west.jpg;
#X msg 503 210 north.jpg east.jpg south.jpg west.jpg;
#X obj 280 123 inlet;
#X msg 146 232 shvid_81443610264e63e shvid_81443610264e437 shvid_81443610264e626
shvid_81443610264e5f4;
#X text 154 214 streamer08's cameras:;
#X text 541 92 streamer05's cameras:;
#X msg 530 113 shvid_81443610264e5e3 shvid_81443610264df4e shvid_81443610264df44
shvid_81443610264dca3;
#X text 571 238 posture05's cameras:;
#X msg 559 258 shvid_81443610264df38 shvid_81443610264df9f shvid_81443610264df80
shvid_81443610264e117;
#X obj 448 185 r \$0-from-SPIN;
#X text 327 123 <- init bang;
#X obj 35 268 4cam-user posture08;
#X obj 448 295 4cam-user posture05;
#X connect 1 0 15 0;
#X connect 4 0 15 1;
#X connect 5 0 16 1;
#X connect 6 0 12 0;
#X connect 6 0 7 0;
#X connect 7 0 15 2;
#X connect 12 0 16 2;
#X connect 13 0 16 0;
#X connect 15 0 3 0;
#X connect 16 0 3 0;
#X restore 144 254 pd CAMERA_SWITCHING;
#X obj 144 216 bng 15 250 50 0 empty empty empty 17 7 0 10 -262144
-1 -1;
#X msg 227 318 posture05 Paris \, posture08 Montreal;
#N canvas 989 488 743 426 TextLabels 0;
#X obj 84 23 inlet;
#X obj 73 91 list;
#X text 255 153 create a UserNode (just in case) and a TextNode for
debugging:;
#X msg 212 196 createNode \$1 UserNode \, createNode \$1-text TextNode
;
#X msg -94 210 /posture05-text setContext posture08;
#X msg -87 235 /posture08-text setContext posture05;
#X msg 173 50 posture05 Paris \, posture08 Montreal;
#X obj 73 114 t b a;
#X obj 107 161 t a a;
#X obj 95 351 s \$0-to-SPIN-TCP;
#X msg 215 233 /\$1-text setParent \$1 \, /\$1-text setTextValue \$2
\, /\$1-text setTranslation 0 0 1.5 \, /\$1-text setBillboard 2 \,
/\$1-text setScale 3 3 3 \, \$1-text setFont GillSans.ttf;
#X connect 0 0 1 0;
#X connect 1 0 7 0;
#X connect 3 0 9 0;
#X connect 4 0 9 0;
#X connect 5 0 9 0;
#X connect 6 0 1 0;
#X connect 7 0 4 0;
#X connect 7 0 5 0;
#X connect 7 1 8 0;
#X connect 8 0 10 0;
#X connect 8 1 3 0;
#X connect 10 0 9 0;
#X restore 227 342 pd TextLabels;
#X obj 206 308 bng 10 250 50 0 empty empty empty 17 7 0 10 -262144
-1 -1;
#X obj 266 51 client;
#X msg 626 225 createNode grid GridNode;
#X msg 645 205 deleteNode grid;
#X obj 626 186 sel 1 0;
#X obj 606 145 tgl 15 0 empty empty empty 17 7 0 10 -262144 -1 -1 1
1;
#X obj 557 266 s \$0-to-SPIN-TCP;
#X obj 164 609 createVideoBillboards posture08;
#X obj 266 4 r \$0-to-SPIN;
#X obj 299 27 r \$0-to-SPIN-TCP;
#X obj 266 73 s \$0-from-SPIN;
#X obj 7 3 cnv 15 250 40 empty empty PosturePlatform 5 14 1 18 -228856
-86853 0;
#X obj 505 380 widget-nodeEditor \$0;
#X obj 49 27 cnv 15 15 15 empty empty PARIS<->MONTREAL 0 7 0 8 -233017
-66577 0;
#X obj 192 12 cnv 15 15 15 empty empty MASTER 0 8 1 10 -228856 -258113
0;
#X connect 0 0 19 0;
#X connect 6 0 2 0;
#X connect 7 0 13 0;
#X connect 11 0 9 0;
#X connect 15 0 2 0;
#X connect 18 0 9 0;
#X connect 19 0 15 0;
#X connect 19 2 13 0;
#X connect 19 3 18 0;
#X connect 22 0 23 0;
#X connect 26 0 27 0;
#X connect 27 0 28 0;
#X connect 28 0 31 0;
#X connect 28 0 44 0;
#X connect 31 0 32 0;
#X connect 34 0 33 0;
#X connect 35 0 36 0;
#X connect 37 0 35 0;
#X connect 38 0 47 0;
#X connect 39 0 43 0;
#X connect 40 0 43 0;
#X connect 41 0 39 0;
#X connect 41 1 40 0;
#X connect 42 0 41 0;
#X connect 44 0 32 0;
#X connect 45 0 38 0;
#X connect 46 0 38 1;
