#N canvas 630 420 695 483 10;
#X obj 106 46 inlet;
#X obj 346 115 unpack 0 0 0;
#X obj 346 144 + \$2;
#X obj 380 144 + \$3;
#X obj 349 171 pack 0 0 0;
#X obj 349 192 list prepend /\$1 setTranslation;
#X obj 121 403 list trim;
#X obj 121 423 outlet;
#X obj 546 115 unpack 0 0 0;
#X obj 549 171 pack 0 0 0;
#X obj 546 144 + \$5;
#X obj 580 144 + \$6;
#X obj 549 192 list prepend /\$4 setTranslation;
#X obj 187 200 unpack s 0 0 0;
#X obj 161 236 + 0;
#X obj 191 236 + 0;
#X obj 221 236 + 0;
#X obj 108 115 t a b;
#X obj 89 166 unpack 0 0 0;
#X obj 137 353 list prepend;
#X obj 235 282 OSCsymbol;
#X obj 140 280 pack 0 0 0;
#X msg 139 321 setTranslation \$1 \$2 \$3;
#X obj 187 167 anyreg \$1;
#X text 151 46 x y z;
#X text 56 12 patch argument is the user's anyreg symbol;
#X connect 0 0 17 0;
#X connect 1 0 2 0;
#X connect 1 1 3 0;
#X connect 1 2 4 2;
#X connect 2 0 4 0;
#X connect 3 0 4 1;
#X connect 4 0 5 0;
#X connect 6 0 7 0;
#X connect 8 0 10 0;
#X connect 8 1 11 0;
#X connect 8 2 9 2;
#X connect 9 0 12 0;
#X connect 10 0 9 0;
#X connect 11 0 9 1;
#X connect 13 0 20 0;
#X connect 13 1 14 1;
#X connect 13 2 15 1;
#X connect 13 3 16 1;
#X connect 14 0 21 0;
#X connect 15 0 21 1;
#X connect 16 0 21 2;
#X connect 17 0 18 0;
#X connect 17 1 23 0;
#X connect 18 0 14 0;
#X connect 18 1 15 0;
#X connect 18 2 16 0;
#X connect 19 0 6 0;
#X connect 20 0 19 1;
#X connect 21 0 22 0;
#X connect 22 0 19 0;
#X connect 23 0 13 0;
