#N canvas 369 361 531 467 10;
#X obj 178 18 inlet;
#X obj 39 109 unpack 0 0 0;
#X obj 39 138 + \$2;
#X obj 73 138 + \$3;
#X obj 42 165 pack 0 0 0;
#X obj 42 186 list prepend /\$1 setTranslation;
#X obj 312 329 list trim;
#X obj 312 349 outlet;
#X obj 239 109 unpack 0 0 0;
#X obj 242 165 pack 0 0 0;
#X obj 239 138 + \$5;
#X obj 273 138 + \$6;
#X obj 242 186 list prepend /\$4 setTranslation;
#X obj 235 387 p;
#X connect 0 0 1 0;
#X connect 0 0 8 0;
#X connect 1 0 2 0;
#X connect 1 1 3 0;
#X connect 1 2 4 2;
#X connect 2 0 4 0;
#X connect 3 0 4 1;
#X connect 4 0 5 0;
#X connect 5 0 6 0;
#X connect 6 0 7 0;
#X connect 6 0 13 0;
#X connect 8 0 10 0;
#X connect 8 1 11 0;
#X connect 8 2 9 2;
#X connect 9 0 12 0;
#X connect 10 0 9 0;
#X connect 11 0 9 1;
#X connect 12 0 6 0;
