#N canvas 214 226 962 703 10;
#X obj 96 203 distance3D;
#X obj 197 244 < 1;
#X obj 197 262 change;
#X obj 197 282 sel 1;
#X obj 37 13 inlet;
#X obj 264 17 loadbang;
#X obj 283 144 f \$1;
#X text 360 176 <- threshold trigger distance;
#X obj 774 628 outlet;
#X floatatom 306 176 6 0 0 0 - - -;
#X text 335 108 <- trigger location;
#X obj 367 418 f \$4;
#X obj 294 386 t b b;
#X obj 353 517 pack 0 0 0;
#X obj 330 418 f \$3;
#X obj 294 418 f \$2;
#X obj 296 57 f \$4;
#X text 345 75 <- height within panoscope;
#X obj 264 37 t b b;
#X obj 224 106 pack \$2 \$3 \$4;
#X text 458 495 <- height within panoscope;
#X obj 226 667 outlet;
#X obj 167 13 inlet;
#X obj 96 264 s \$0-dist;
#X obj 774 606 r \$0-dist;
#X text 239 234 <- someone just "entered" the panoscope;
#X msg 353 562 setTranslation \$1 \$2 \$3 \, setCubeSize 0.001 0.001
0.001 \, setCubeOffset \$1 \$2 \$3;
#X obj 226 642 OSCprepend;
#X obj 37 156 route setTranslation;
#X obj 167 34 OSCsymbol;
#X obj 37 135 OSCparse /posture0?;
#N canvas 0 0 450 300 old 0;
#X msg 170 29 bang;
#X obj 167 90 metro 50;
#X obj 167 118 f;
#X obj 198 120 + 1;
#X obj 211 171 sel 0;
#X msg 233 57 0;
#X msg 170 61 1;
#X obj 197 141 mod 60;
#X text 251 144 <- 50 x 60 = 3000ms;
#X obj 249 224 f \$4;
#X text 298 242 <- height within panoscope;
#X obj 167 193 t b b;
#X obj 172 279 pack 0 0 0;
#X obj 192 224 f \$3;
#X obj 136 224 f \$2;
#X text 330 267 <- height within panoscope;
#X obj 282 268 + 2.85;
#X obj 250 243 + 4;
#X obj 172 303 list prepend setTranslation;
#X obj 172 323 list trim;
#X connect 0 0 6 0;
#X connect 1 0 2 0;
#X connect 2 0 3 0;
#X connect 2 0 11 0;
#X connect 3 0 7 0;
#X connect 4 0 5 0;
#X connect 5 0 1 0;
#X connect 6 0 1 0;
#X connect 7 0 2 1;
#X connect 7 0 4 0;
#X connect 9 0 17 0;
#X connect 11 0 14 0;
#X connect 11 1 9 0;
#X connect 11 1 13 0;
#X connect 12 0 18 0;
#X connect 13 0 12 1;
#X connect 14 0 12 0;
#X connect 17 0 12 2;
#X connect 18 0 19 0;
#X restore 795 85 pd old;
#X obj 37 34 list;
#X obj 37 54 t a a;
#X msg 64 76 symbol \$1;
#X obj 197 307 t b b;
#X obj 22 490 anyreg g_SCENE_BOUND;
#X msg 22 511 setCubeOffset \$1 \$2 \$3 \, setCubeSize \$4 \$5 \$6
;
#X msg 42 536 setCubeOffset 0 0 0 \, setCubeSize 0 0 0;
#X obj 297 77 + 1.93;
#X obj 410 496 + 1.93;
#X obj 365 14 bng 15 250 50 0 empty empty empty 17 7 0 10 -262144 -1
-1;
#X obj 873 612 outlet;
#X obj 461 347 anyreg \$5;
#X obj 429 308 bng 15 250 50 0 empty empty empty 17 7 0 10 -262144
-1 -1;
#X obj 151 107 OSCsymbol;
#X obj 461 371 unpack s 0 0 0;
#X obj 461 321 loadbang;
#X obj 353 466 + 0;
#X obj 381 466 + 0;
#X obj 410 466 + 0;
#X obj 63 452 delay 1500;
#X text 456 268 Added support for multiple users by passing the user's
anyreg symbol as argument \$5. (this is a list: userID xOffset yOffset
zOffset);
#X obj 64 98 anyreg \$0-u;
#X obj 283 618 anyreg \$0-u;
#X obj 351 661 p;
#X obj 53 327 p;
#X floatatom 18 257 5 0 0 0 - - -;
#X connect 0 0 1 0;
#X connect 0 0 23 0;
#X connect 0 0 57 0;
#X connect 1 0 2 0;
#X connect 2 0 3 0;
#X connect 2 0 42 0;
#X connect 3 0 35 0;
#X connect 4 0 32 0;
#X connect 5 0 18 0;
#X connect 5 0 6 0;
#X connect 6 0 1 1;
#X connect 6 0 9 0;
#X connect 11 0 50 0;
#X connect 12 0 15 0;
#X connect 12 1 11 0;
#X connect 12 1 14 0;
#X connect 13 0 26 0;
#X connect 14 0 49 0;
#X connect 15 0 48 0;
#X connect 16 0 39 0;
#X connect 18 0 19 0;
#X connect 18 1 16 0;
#X connect 19 0 0 1;
#X connect 22 0 29 0;
#X connect 24 0 8 0;
#X connect 26 0 27 0;
#X connect 27 0 21 0;
#X connect 27 0 55 0;
#X connect 28 0 0 0;
#X connect 29 0 30 1;
#X connect 30 0 28 0;
#X connect 32 0 33 0;
#X connect 33 0 30 0;
#X connect 33 1 34 0;
#X connect 34 0 53 0;
#X connect 35 0 12 0;
#X connect 35 0 51 0;
#X connect 35 1 54 0;
#X connect 35 1 43 0;
#X connect 36 0 37 0;
#X connect 37 0 27 0;
#X connect 39 0 19 2;
#X connect 40 0 13 2;
#X connect 41 0 18 0;
#X connect 43 0 46 0;
#X connect 44 0 43 0;
#X connect 45 0 30 1;
#X connect 46 0 45 0;
#X connect 46 1 48 1;
#X connect 46 2 49 1;
#X connect 46 3 50 1;
#X connect 47 0 43 0;
#X connect 48 0 13 0;
#X connect 49 0 13 1;
#X connect 50 0 40 0;
#X connect 51 0 36 0;
#X connect 51 0 38 0;
#X connect 54 0 27 1;
