#N canvas 617 452 687 300 10;
#X obj 107 26 inlet;
#X msg 107 90 /\$1_text setTextValue \$2 \, /\$1_text setColor \$3
\$4 \$5 \$6;
#X obj 270 139 p;
#X obj 107 131 outlet;
#X obj 107 54 list append \$1 \$2 \$3 \$4 \$5 \$6;
#X connect 0 0 4 0;
#X connect 1 0 2 0;
#X connect 1 0 3 0;
#X connect 4 0 1 0;
