#N canvas 778 560 379 272 10;
#X obj 53 170 spigot;
#X obj 100 168 tgl 15 0 empty empty empty 17 7 0 10 -262144 -1 -1 0
1;
#X obj 53 8 inlet;
#X obj 53 224 outlet;
#X msg 53 141 \$2;
#X msg 95 124 symbol \$1;
#X obj 95 146 eqsym \$1;
#X obj 88 196 print in-\$1;
#X obj 53 96 t a a;
#X obj 163 68 route \$1;
#X obj 204 121 p;
#X obj 53 48 route containedBy;
#X obj 53 29 list trim;
#X obj 53 69 list;
#X connect 0 0 3 0;
#X connect 0 0 7 0;
#X connect 2 0 12 0;
#X connect 4 0 0 0;
#X connect 5 0 6 0;
#X connect 6 0 0 1;
#X connect 6 0 1 0;
#X connect 8 0 4 0;
#X connect 8 1 5 0;
#X connect 11 0 13 0;
#X connect 12 0 11 0;
#X connect 13 0 8 0;
#X connect 13 0 10 0;
