#N canvas 446 578 680 409 10;
#X obj 130 285 outlet;
#X text 353 36 Arguments: name of the planet;
#X obj 158 171 symbol \$1;
#X obj 253 9 loadbang;
#X obj 253 37 random 5000;
#X obj 253 62 + 5000;
#X text 313 67 <-- to avoid loading 10 obj at the same time;
#X obj 130 194 pack s s s;
#X obj 187 149 symbol \$2;
#X text 361 48 Arguments: dir of the .ac file;
#X obj 130 93 anyreg gProjectPath;
#X obj 130 42 inlet;
#X obj 130 119 t a b b;
#X obj 327 104 p;
#X obj 130 68 delay 5000;
#X msg 130 242 createNode \$3 ModelNode \, /\$3 setModelFromFile \$1/\$2/\$3.ac
\, /\$3 setOrientation 90 0 0 \, /\$3 setScale 1 1 1;
#X connect 2 0 7 1;
#X connect 3 0 4 0;
#X connect 4 0 5 0;
#X connect 7 0 15 0;
#X connect 8 0 7 2;
#X connect 10 0 12 0;
#X connect 11 0 14 0;
#X connect 12 0 7 0;
#X connect 12 1 2 0;
#X connect 12 2 8 0;
#X connect 14 0 10 0;
#X connect 15 0 13 0;
#X connect 15 0 0 0;
