#N canvas 747 215 680 409 10;
#X obj 135 285 outlet;
#X text 353 36 Arguments: name of the planet;
#X obj 100 151 symbol \$1;
#X obj 131 68 delay;
#X obj 253 9 loadbang;
#X obj 253 37 random 5000;
#X obj 253 62 + 5000;
#X text 313 67 <-- to avoid loading 10 obj at the same time;
#X text 165 151 <-- first symbol is node name;
#X text 201 192 <-- second symbol is current directory (folder) to
look for .ac file;
#X obj 135 194 pack s s s;
#X obj 130 119 t b s b;
#X obj 222 169 symbol \$2;
#X msg 135 242 deleteNode \$1 \, createNode \$1 ModelNode \, /\$1 setModelFromFile
\$2/\$3/\$1.ac;
#X text 361 48 Arguments: dir of the .ac file;
#X obj 130 93 anyreg gProjectPath;
#X obj 136 27 inlet;
#X connect 2 0 10 0;
#X connect 3 0 15 0;
#X connect 4 0 5 0;
#X connect 5 0 6 0;
#X connect 6 0 3 1;
#X connect 10 0 13 0;
#X connect 11 0 2 0;
#X connect 11 1 10 1;
#X connect 11 2 12 0;
#X connect 12 0 10 2;
#X connect 13 0 0 0;
#X connect 15 0 11 0;
#X connect 16 0 3 0;
