#N canvas 225 175 450 300 10;
#X obj 190 82 inlet;
#X obj 194 221 outlet;
#X text 261 73 input: [0 \, 1];
#X text 260 224 output: [0 \, 1];
#X obj 192 144 + 1;
#X obj 190 111 * 1.72;
#X obj 193 170 log;
#X connect 0 0 5 0;
#X connect 4 0 6 0;
#X connect 5 0 4 0;
#X connect 6 0 1 0;
