#N canvas 471 79 577 409 10;
#X obj 182 378 outlet;
#X obj 130 119 t b s;
#X text 353 36 Arguments: name of the planet;
#X obj 100 151 symbol \$1;
#X obj 135 194 pack s s;
#X obj 131 68 delay;
#X obj 253 9 loadbang;
#X text 313 67 <-- to avoid loading 10 obj at the same time;
#X text 187 154 <-- first symbol is node name;
#X text 201 192 <-- second symbol is current directory (folder) to
look for .ac file;
#X obj 253 37 random 500;
#X obj 253 62 + 500;
#X obj 130 93 anyreg gProjectPath;
#X obj 15 221 p;
#X obj 136 27 inlet;
#X msg 134 242 deleteNode \$1 \, createNode \$1 ModelNode \, /\$1 setModelFromFile
\$2/\$1.ac \, deleteNode \$1_group \, createNode \$1_group GroupNode
\, /\$1 setParent \$1_group;
#X connect 1 0 3 0;
#X connect 1 1 4 1;
#X connect 3 0 4 0;
#X connect 4 0 15 0;
#X connect 5 0 12 0;
#X connect 6 0 10 0;
#X connect 10 0 11 0;
#X connect 11 0 5 1;
#X connect 12 0 1 0;
#X connect 14 0 5 0;
#X connect 15 0 0 0;
#X connect 15 0 13 0;
