#N canvas 463 82 724 604 10;
#X obj 32 113 bng 30 250 50 0 initBang! initBang init 4 15 1 14 -261234
-1 -1;
#N canvas 297 127 450 300 SPIN_stuff 0;
#X obj 157 27 inlet;
#X obj 24 55 change1;
#X obj 24 75 bng 15 250 50 0 empty empty empty 17 7 0 10 -262144 -1
-1;
#X obj 24 134 outlet;
#X obj 24 93 delay 1000;
#X connect 0 0 1 0;
#X connect 1 0 2 0;
#X connect 2 0 4 0;
#X connect 4 0 3 0;
#X restore 34 76 pd SPIN_stuff;
#X obj 442 155 bng 20 250 50 0 \$0-stop-moving empty STOP_MOVING 25
10 1 10 -261234 -1 -1;
#N canvas 352 109 808 496 INIT 0;
#X msg 620 113 0;
#X msg 220 346 \; pd dsp 1 \;;
#X obj 263 39 t b b;
#X obj 263 17 inlet;
#X obj 593 221 s \$0-to-SPIN-TCP;
#X msg 419 264 /posture?? setTranslation 0 0 1.5;
#X msg 605 176 /posture?? setParam gain \$1;
#X msg 593 200 /posture??-listener stateDump;
#X obj 593 90 t b b;
#X obj 419 284 s \$0-to-SPIN-TCP;
#X msg 39 189 refreshSubscribers;
#X obj 51 215 s \$0-to-SPIN-TCP;
#X obj 39 236 print SUBSCRIBER_REFRESH;
#X obj 448 165 s g_snap_toggle-set;
#X msg 448 145 1;
#X obj 620 132 s \$0-gain-set;
#X obj 605 157 r \$0-gain-set;
#X text 574 63 Force listener to initialize:;
#X obj 270 264 t b b;
#X obj 270 245 delay 1000;
#X obj 39 168 delay 10000;
#X obj 320 33 print INIT;
#X obj 120 136 delay 60000;
#X connect 0 0 15 0;
#X connect 2 0 5 0;
#X connect 2 0 19 0;
#X connect 2 1 8 0;
#X connect 2 1 14 0;
#X connect 3 0 2 0;
#X connect 3 0 21 0;
#X connect 5 0 9 0;
#X connect 6 0 4 0;
#X connect 7 0 4 0;
#X connect 8 0 7 0;
#X connect 8 1 0 0;
#X connect 10 0 11 0;
#X connect 10 0 12 0;
#X connect 14 0 13 0;
#X connect 16 0 6 0;
#X connect 18 0 1 0;
#X connect 19 0 18 0;
#X connect 20 0 10 0;
#X connect 22 0 10 0;
#X restore 43 453 pd INIT;
#X obj 34 31 widget-spinConnect \$0;
#X obj 325 197 bng 10 250 50 0 empty empty empty 17 7 0 10 -262144
-1 -1;
#N canvas 288 22 949 846 user 0;
#X obj 107 18 inlet;
#X msg 215 63 hostname -s;
#X obj 215 43 loadbang;
#X obj 147 156 symbol;
#X obj 341 815 s \$0-to-SPIN-TCP;
#X obj 436 116 print Creating_User;
#X obj 43 411 delay 500;
#X msg 133 379 audioInit;
#X obj 133 401 OSCprepend /\$2;
#X msg 43 434 /posture0?-listener stateDump;
#X obj 214 381 OSCsymbol;
#X obj 103 504 s \$0-to-SPIN-TCP;
#X text 474 359 Reporter (used to report hotspot enter/exit);
#X msg 475 718 /\$1-light setParent \$1 \, /\$1-light setTranslation
0 0 0 \, /\$1-light setOrientation -90 0 0 \, /\$1-light setCutoff
180 \, /\$1-light setExponent 100 \, /\$1-light setAttenuation 0.2
\, /\$1-light setAmbient 0.75 0.75 0.75 1 \, /\$1-light setDiffuse
0.75 0.75 0.75 1 \, /\$1-light setSpecular 1 1 1 1;
#X text 476 702 LIGHT:;
#X msg 471 317 1;
#X obj 471 336 s g_collisions;
#X text 504 317 enable collisions;
#X text 481 431 Reporter (used to report angle wrt the 4-angle video)
;
#X obj 231 150 s g_userID;
#X obj 183 18 inlet;
#X text 232 19 <-override user id;
#X msg 447 149 userRefresh;
#X obj 447 169 s \$0-to-SPIN;
#X obj 152 173 t b s s b s;
#X text 481 486 Pointer Reporter;
#X obj 78 79 bng 15 250 50 0 empty empty empty 17 7 0 10 -262144 -1
-1;
#X msg 475 449 /\$1-reporter-video setParent \$1 \, /\$1-reporter-video
setReporting INCIDENCE 1 \, /\$1-reporter-video setMaxRate 10;
#X msg 468 379 /\$1-reporter-hotspot setParent \$1 \, /\$1-reporter-hotspot
setReporting CONTAINMENT 1 \, /\$1-reporter-hotspot setMaxRate 10;
#X msg 478 503 /\$1-pointer setParent \$1 \, /\$1-pointer-reporter
setParent \$1-pointer \, /\$1-pointer-reporter setReporting INCIDENCE
1 \, /\$1-pointer-reporter setReporting DISTANCE 1 \, /\$1-pointer-reporter
setMaxRate 2;
#X obj 25 568 r g_currentPos;
#X obj 25 588 t b;
#X obj 25 609 delay 180000;
#X text 108 609 3 min;
#X msg 107 693 /posture?? setTranslation 0 0 1.5;
#X text 24 546 inactivity timer:;
#X obj 473 563 pack s s;
#X obj 856 547 list2symbol;
#X obj 856 508 loadbang;
#X msg 462 272 createNode \$1-target SwitchNode \, createNode \$1-target-cursor
TextNode \, createNode \$1-target-instructions TextNode;
#X msg 473 582 /\$1-target setParent \$1-pointer \, /\$1-target-instructions
setParent \$1-target \, /\$1-target-cursor setParent \$1-target \,
/\$1-target-cursor setTextValue + \, /\$1-target-instructions setTextValue
\$2 \, /\$1-target setTranslation 0 0.01 0 \, /\$1-target setScale
0.01 0.01 0.01 \, /\$1-target-* setColor 1 0 0 1 \, /\$1-target-* setDecoration
9 \, /\$1-target-* setFont GillSans.ttf \, /\$1-target-* setBillboard
2 \, /\$1-target-instructions setTranslation 0 0 0.1 \, /\$1-target
setEnabled \$1-target-instructions 0;
#X msg 856 528 Point HERE;
#X obj 80 674 t b b;
#X obj 80 750 s gScene-set;
#X msg 80 731 0;
#X obj 151 572 r \$0-from-SPIN;
#X obj 151 590 OSCparse /posture??;
#X obj 150 630 route reset;
#X obj 150 609 route event setTranslation;
#X obj 226 632 s g_currentPos;
#X text 238 650 ^ NEED this!;
#X msg 442 193 createNode \$1 UserNode \, createNode \$1-reporter-hotspot
ReporterNode \, createNode \$1-reporter-video ReporterNode \, createNode
\$1-light LightSource \, createNode \$1-pointer GroupNode \, createNode
\$1-pointer-reporter ReporterNode;
#X obj 215 83 shell;
#X obj 214 111 symbol;
#X connect 0 0 3 0;
#X connect 1 0 52 0;
#X connect 2 0 1 0;
#X connect 3 0 24 0;
#X connect 6 0 9 0;
#X connect 7 0 8 0;
#X connect 8 0 11 0;
#X connect 9 0 11 0;
#X connect 10 0 8 1;
#X connect 13 0 4 0;
#X connect 15 0 16 0;
#X connect 20 0 3 0;
#X connect 22 0 23 0;
#X connect 24 0 7 0;
#X connect 24 0 6 0;
#X connect 24 1 28 0;
#X connect 24 1 15 0;
#X connect 24 1 13 0;
#X connect 24 1 27 0;
#X connect 24 1 29 0;
#X connect 24 1 36 0;
#X connect 24 2 39 0;
#X connect 24 2 51 0;
#X connect 24 3 22 0;
#X connect 24 4 5 0;
#X connect 26 0 3 0;
#X connect 27 0 4 0;
#X connect 28 0 4 0;
#X connect 29 0 4 0;
#X connect 30 0 31 0;
#X connect 31 0 32 0;
#X connect 32 0 42 0;
#X connect 36 0 40 0;
#X connect 37 0 36 1;
#X connect 38 0 41 0;
#X connect 39 0 4 0;
#X connect 40 0 4 0;
#X connect 41 0 37 0;
#X connect 42 1 34 0;
#X connect 44 0 43 0;
#X connect 45 0 46 0;
#X connect 46 0 48 0;
#X connect 47 0 42 0;
#X connect 48 0 47 0;
#X connect 48 1 49 0;
#X connect 51 0 4 0;
#X connect 52 0 53 0;
#X connect 53 0 3 1;
#X connect 53 0 10 0;
#X connect 53 0 19 0;
#X restore 274 207 pd user;
#N canvas 1091 190 712 366 UTILITIES 0;
#X msg 403 55 refreshSubscribers;
#X obj 403 74 s \$0-to-SPIN-TCP;
#X msg 394 121 optimize all;
#X obj 394 142 s \$0-to-SPIN-TCP;
#X obj 26 21 r \$0-stop-moving;
#X obj 84 153 s \$0-to-SPIN-TCP;
#X obj 70 243 r \$0-from-SPIN;
#X obj 70 263 OSCparse /posture??;
#X obj 70 283 route setTranslation setVelocity;
#X obj 70 304 anyreg posturePos;
#X msg 26 41 /posture?? setVelocity 0 0 0 \, /posture?? setSpin 0 0
0;
#X text 71 224 SAVE uesr position:;
#X msg 83 89 /posture?? debug;
#X obj 213 76 r \$0-debug-scene;
#X msg 213 97 debug;
#X connect 0 0 1 0;
#X connect 2 0 3 0;
#X connect 4 0 10 0;
#X connect 6 0 7 0;
#X connect 7 0 8 0;
#X connect 8 0 9 0;
#X connect 10 0 5 0;
#X connect 12 0 5 0;
#X connect 13 0 14 0;
#X connect 14 0 5 0;
#X restore 578 131 pd UTILITIES;
#X obj 244 250 widget-AudioRenderer \$0;
#N canvas 234 296 560 374 NTA_audio_stuff 0;
#X obj 16 32 inlet;
#X text 74 180 < userID inbus outbus_l outbus_2 ... outbus_N >;
#X obj 11 240 outlet;
#X obj 399 113 delay 1000;
#X msg 399 132 \; pd dsp 1 \;;
#X obj 333 21 r \$0-from-SPIN;
#X obj 333 43 OSCparse /userID;
#X obj 333 64 route audioInit;
#X obj 274 113 bng 15 250 50 0 empty empty empty 17 7 0 10 -262144
-1 -1;
#X obj 201 64 route userRefresh;
#X obj 80 91 r g_userID;
#X obj 11 147 symbol;
#X obj 426 21 r g_userID;
#X msg 11 178 \$1 1 1 2;
#X msg 92 44 \; pd dsp 0 \;;
#X obj 16 52 t b b;
#X connect 0 0 15 0;
#X connect 3 0 4 0;
#X connect 5 0 6 0;
#X connect 5 0 9 0;
#X connect 6 0 7 0;
#X connect 8 0 11 0;
#X connect 9 0 8 0;
#X connect 10 0 11 1;
#X connect 11 0 13 0;
#X connect 12 0 6 1;
#X connect 13 0 2 0;
#X connect 15 0 11 0;
#X connect 15 1 14 0;
#X restore 244 230 pd NTA_audio_stuff;
#X obj 446 102 bng 15 250 50 0 \$0-go-home \$0-go-home-set home 20
9 1 10 -261682 -1 -1;
#X obj 446 117 bng 15 250 50 0 \$0-go-911 \$0-go-911-set 9/11 20 9
1 10 -261682 -1 -1;
#X obj 372 220 bng 10 250 50 0 empty empty empty 17 7 0 10 -262144
-1 -1;
#X obj 578 260 vsl 20 118 -99 18 0 0 \$0-gain \$0-gain-set gain -2
-12 1 12 -261704 -1 -1 0 1;
#X obj 578 384 nbx 3 16 -1e+37 1e+37 0 0 empty \$1-gain-set db 40 10
1 10 -262144 -1 -1 0 256;
#X text 574 272 ------ 0db;
#X obj 123 443 bng 10 250 50 0 empty empty empty 17 7 0 10 -262144
-1 -1;
#X floatatom 445 452 6 0 0 0 - - -;
#X obj 451 431 unpack 0 0 0;
#X floatatom 485 452 6 0 0 0 - - -;
#X floatatom 525 452 7 0 0 0 - - -;
#X obj 134 358 bng 10 250 50 0 empty empty empty 17 7 0 10 -262144
-1 -1;
#X obj 155 108 tgl 15 0 g_hotspot_debugview g_hotspot_debugview-set
hotspot_debug 20 8 1 10 -261234 -1 -1 0 1;
#X obj 303 84 tgl 25 0 tgl_timeline tgl_timeline-set timeline 30 12
1 12 -262130 -1 -1 0 1;
#X obj 196 315 bng 10 250 50 0 empty empty empty 17 7 0 10 -262144
-1 -1;
#X obj 155 126 tgl 15 0 g_snap_toggle g_snap_toggle-set snapToPanoscope
20 8 1 10 -261234 -1 -1 0 1;
#N canvas 965 353 843 563 fog 0;
#X obj 236 -65 inlet;
#X obj 285 412 s \$0-to-SPIN-TCP;
#X msg 322 31 createStateSet toronto-Fog Fog;
#X obj 199 227 hsl 128 15 0 0.1 0 0 empty empty empty -2 -8 0 10 -262144
-1 -1 0 1;
#X msg 221 340 /toronto-Fog setFogDensity \$1;
#X obj -161 207 line \$1 50;
#X obj -87 206 line \$1 50;
#X msg -86 187 \$1 3000;
#X msg -160 188 \$1 3000;
#X obj -53 268 pack 0 0 0;
#X obj -17 206 line \$1 50;
#X msg -16 187 \$1 3000;
#X msg -63 52 0.005 0.75 0.75 0.75;
#X msg -24 109 0 0 0 0.2;
#X obj 53 206 line \$1 50;
#X msg 54 187 \$1 3000;
#X obj -74 143 unpack 0 0 0 0;
#X msg -69 311 /toronto-Fog setFogColor \$1 \$2 \$3 0;
#X obj -21 -32 r gScene;
#X obj -31 -2 sel 0 1 2;
#X text 72 54 white;
#X text 26 80 black;
#X text 42 109 blue;
#X msg -50 80 0.01 0 0 0;
#X msg 416 81 deleteNode toronto-Fog;
#X obj 293 -28 print CREATE_FOG;
#X obj 236 -44 t b b b;
#X msg 191 205 0.004;
#X connect 0 0 26 0;
#X connect 2 0 1 0;
#X connect 3 0 4 0;
#X connect 4 0 1 0;
#X connect 5 0 4 0;
#X connect 6 0 9 0;
#X connect 7 0 6 0;
#X connect 8 0 5 0;
#X connect 9 0 17 0;
#X connect 10 0 9 1;
#X connect 11 0 10 0;
#X connect 12 0 16 0;
#X connect 13 0 16 0;
#X connect 14 0 9 2;
#X connect 15 0 14 0;
#X connect 16 0 8 0;
#X connect 16 1 7 0;
#X connect 16 2 11 0;
#X connect 16 3 15 0;
#X connect 17 0 1 0;
#X connect 18 0 19 0;
#X connect 19 0 12 0;
#X connect 19 1 23 0;
#X connect 19 2 13 0;
#X connect 23 0 16 0;
#X connect 24 0 1 0;
#X connect 26 0 27 0;
#X connect 26 0 13 0;
#X connect 26 1 2 0;
#X connect 26 2 25 0;
#X connect 27 0 3 0;
#X restore 70 368 pd fog;
#X obj 244 186 t b b;
#X obj 451 413 r g_currentPos;
#X obj 155 90 tgl 15 0 g_noPointer g_noPointer-set noPointer 20 8 1
10 -261234 -1 -1 0 1;
#X obj 43 434 delay 5000;
#N canvas 871 77 801 634 GO-THERE 0;
#X obj 70 465 s \$0-to-SPIN;
#X msg 76 161 setTranslation 0 0 1.5;
#X obj 77 425 OSCprepend /posture??;
#X obj 76 141 r \$0-go-home;
#X obj 176 202 r \$0-go-911;
#X msg 176 222 setTranslation -60 4 1.5;
#X obj 98 393 t a;
#X obj 313 291 r \$0-go-twelveOfUs;
#X msg 313 311 setTranslation -171 3 1.5;
#X connect 1 0 6 0;
#X connect 2 0 0 0;
#X connect 3 0 1 0;
#X connect 4 0 5 0;
#X connect 5 0 6 0;
#X connect 6 0 2 0;
#X connect 7 0 8 0;
#X connect 8 0 2 0;
#X restore 445 82 pd GO-THERE;
#X obj 442 179 bng 20 250 50 0 \$0-debug-scene empty DEBUG 25 10 1
10 -261234 -1 -1;
#X symbolatom 366 56 15 0 0 2 userID: g_userID -;
#X obj 113 306 delay 1000;
#X obj 32 147 t b b b b b b;
#X obj 446 132 bng 15 250 50 0 \$0-go-twelveOfUs \$0-go-twelveOfUs-set
TwelveOfUs 20 9 1 10 -261682 -1 -1;
#X obj 303 113 tgl 25 0 tgl_audiovideo tgl_audiovideo-set audio/video
30 12 1 12 -262130 -1 -1 0 1;
#X msg 274 466 refreshSubscribers;
#X obj 286 492 s \$0-to-SPIN-TCP;
#X obj 438 512 anyreg g_SCENE_BOUND 0 0 0 0 0 0;
#X text 420 490 need this or snap2panoscope won't work:;
#N canvas 0 22 1147 744 video 0;
#X obj 88 540 s \$0-to-SPIN;
#X obj 248 292 bng 20 250 50 0 empty empty empty 17 7 0 10 -262144
-1 -1;
#X text 278 295 set the file path for the texture;
#X msg 206 255 createStateSet vid VideoTexture;
#X obj 649 356 tgl 15 0 empty empty empty 17 7 0 10 -262144 -1 -1 0
1;
#X msg 649 375 /vid setPlay \$1;
#X text 673 356 play / pause;
#X obj 91 49 inlet;
#X obj 94 100 t b b b b b;
#X obj 597 101 r g_currentPos;
#X obj 597 121 t b;
#X obj 597 142 delay 180000;
#X text 680 142 3 min;
#X msg 790 115 /posture?? setTranslation 0 0 1.5;
#X text 596 79 inactivity timer:;
#X obj 763 96 t b b;
#X obj 763 172 s gScene-set;
#X msg 763 153 0;
#X obj 650 252 r \$0-from-SPIN;
#X obj 650 270 OSCparse /posture??;
#X obj 649 310 route reset;
#X obj 649 289 route event setTranslation;
#X obj 725 312 s g_currentPos;
#X text 737 330 ^ NEED this!;
#X msg 89 151 createNode video ShapeNode;
#X msg 152 201 /video-placeholder setShape 1 \, /video-placeholder
setScale 1.92 1.08 1 \, /video-placeholder set Translation 0 0 0;
#X msg 248 341 /vid setPath ~/Desktop/projet-secret/47-McLuhan_SAT_Short.mov
;
#X msg 295 398 /video-placeholder setStateSet vid;
#X connect 1 0 26 0;
#X connect 3 0 0 0;
#X connect 4 0 5 0;
#X connect 5 0 0 0;
#X connect 7 0 8 0;
#X connect 8 0 27 0;
#X connect 8 1 1 0;
#X connect 8 2 3 0;
#X connect 8 3 25 0;
#X connect 8 4 24 0;
#X connect 9 0 10 0;
#X connect 10 0 11 0;
#X connect 15 0 17 0;
#X connect 15 1 13 0;
#X connect 17 0 16 0;
#X connect 18 0 19 0;
#X connect 19 0 21 0;
#X connect 20 0 4 0;
#X connect 21 0 20 0;
#X connect 21 1 22 0;
#X connect 24 0 0 0;
#X connect 25 0 0 0;
#X connect 26 0 0 0;
#X connect 27 0 0 0;
#X restore 30 262 pd video;
#N canvas 188 45 1056 768 models-test 1;
#X obj 370 21 inlet;
#X obj 383 585 list;
#X obj 383 607 t a a;
#X obj 462 728 s \$0-to-SPIN-TCP;
#X msg 706 44 WAY_N1_lieux -3;
#X obj 51 373 bng 15 250 50 0 empty empty empty 17 7 0 10 -262144 -1
-1;
#X msg 426 630 createNode \$1 ModelNode;
#X msg 43 407 360 0 0 -6 0 0 1950 1 101;
#X msg 72 434 -261 0 0 -21 0 0 2100 50 3;
#X msg 699 65 WAY_N1_album -3;
#X msg 501 142 createNode timeline SwitchNode \, /timeline setTranslation
-7.5 0 0 \, /timeline setOrientation 0 0 180;
#X msg 699 88 WAY_N1_center -3;
#X obj 50 237 s tgl_timeline-set;
#X text 75 388 create TextNodes for years:;
#X text -112 496 (x y z offsetX offsetY offsetZ startValue increment
count);
#X text 512 117 Create TIMELINE:;
#X obj 370 44 t b b b b b;
#X obj 485 77 print CREATE_TIMELINE;
#X obj 51 335 delay 10000;
#X msg 50 217 1;
#X obj 49 466 makeTimeline \$0;
#X msg 467 192 Scene_Action_Endoplasmic_Ret_w_ribosomes_extras 0 0
0;
#X msg 451 214 CytoSkeleton_Elements 0 0 0;
#X msg 434 237 Scene_Centrosome_complex_w_microtubules_lysosomes_vesicles
0 0 0;
#X msg 410 282 Centrioles_w_Extras 0 0 0;
#X msg 396 304 Scene_Cells_views_w_irradenence_Extra 0 0 0;
#X msg 380 327 Scene_Plasma_memebrane_with_exoskeleton elements_HEAVY
0 0 0;
#X msg 364 350 Scene_Action_Ribosomes_w_mRNA 0 0 0;
#X msg 348 376 Golgi_Apparatus 0 0 0;
#X msg 332 398 Scene_Action_without_Lysosome 0 0 0;
#X msg 315 421 Glycan_Protein_Cell_membrane 0 0 0;
#X msg 297 444 Scene_Nucleus_w_Rough_Endoplasmic_ 0 0 0;
#X msg 283 466 Mitochondria 0 0 0;
#X msg 267 489 Nucleus_w_extras 0 0 0;
#X msg 251 512 Golgi_Apparatus2_w_microtubules 0 0 0;
#X msg 229 538 Protein_molecules 0 0 0;
#X msg 383 654 createNode \$1 ModelNode \, /\$1 setOrientation 90 0
90 \, /\$1 setTranslation \$2 \$3 \$4 \, /\$1 setModelFromFile ~/Desktop/HMR_plans/models/HMR-models/\$1.3DS
\, /\$1 setParent timeline \, /timeline setEnabled \$1 0;
#X connect 0 0 16 0;
#X connect 1 0 2 0;
#X connect 2 0 36 0;
#X connect 2 1 6 0;
#X connect 5 0 8 0;
#X connect 5 0 7 0;
#X connect 6 0 3 0;
#X connect 7 0 20 0;
#X connect 8 0 20 0;
#X connect 10 0 3 0;
#X connect 16 0 19 0;
#X connect 16 1 18 0;
#X connect 16 2 22 0;
#X connect 16 2 21 0;
#X connect 16 2 23 0;
#X connect 16 2 25 0;
#X connect 16 2 26 0;
#X connect 16 2 27 0;
#X connect 16 2 24 0;
#X connect 16 2 28 0;
#X connect 16 2 29 0;
#X connect 16 2 30 0;
#X connect 16 2 31 0;
#X connect 16 2 32 0;
#X connect 16 2 33 0;
#X connect 16 2 34 0;
#X connect 16 2 35 0;
#X connect 16 3 10 0;
#X connect 16 4 17 0;
#X connect 18 0 5 0;
#X connect 19 0 12 0;
#X connect 21 0 1 0;
#X connect 22 0 1 0;
#X connect 23 0 1 0;
#X connect 24 0 1 0;
#X connect 25 0 1 0;
#X connect 26 0 1 0;
#X connect 27 0 1 0;
#X connect 28 0 1 0;
#X connect 29 0 1 0;
#X connect 30 0 1 0;
#X connect 31 0 1 0;
#X connect 32 0 1 0;
#X connect 33 0 1 0;
#X connect 34 0 1 0;
#X connect 35 0 1 0;
#X connect 36 0 3 0;
#X restore 113 325 pd models-test;
#N canvas 458 225 740 608 models-checkbox 1;
#X obj 288 22 tgl 15 0 empty empty empty 17 7 0 10 -262144 -1 -1 0
1;
#X obj 269 59 tgl 15 0 empty empty empty 17 7 0 10 -262144 -1 -1 0
1;
#X obj 251 82 tgl 15 0 empty empty empty 17 7 0 10 -262144 -1 -1 0
1;
#X obj 227 132 tgl 15 0 empty empty empty 17 7 0 10 -262144 -1 -1 0
1;
#X obj 214 154 tgl 15 0 empty empty empty 17 7 0 10 -262144 -1 -1 0
1;
#X obj 197 191 tgl 15 0 empty empty empty 17 7 0 10 -262144 -1 -1 0
1;
#X obj 179 224 tgl 15 0 empty empty empty 17 7 0 10 -262144 -1 -1 0
1;
#X obj 163 250 tgl 15 0 empty empty empty 17 7 0 10 -262144 -1 -1 0
1;
#X obj 147 274 tgl 15 0 empty empty empty 17 7 0 10 -262144 -1 -1 0
1;
#X obj 130 296 tgl 15 0 empty empty empty 17 7 0 10 -262144 -1 -1 0
1;
#X obj 112 318 tgl 15 0 empty empty empty 17 7 0 10 -262144 -1 -1 0
1;
#X obj 98 340 tgl 15 0 empty empty empty 17 7 0 10 -262144 -1 -1 0
1;
#X obj 81 363 tgl 15 0 empty empty empty 17 7 0 10 -262144 -1 -1 0
1;
#X obj 67 386 tgl 15 0 empty empty empty 17 7 0 10 -262144 -1 -1 0
1;
#X obj 42 412 tgl 15 0 empty empty empty 17 7 0 10 -262144 -1 -1 0
1;
#X msg 308 22 /timeline setEnabled Scene_Action_Endoplasmic_Ret_w_ribosomes_extras
\$1;
#X msg 291 59 /timeline setEnabled CytoSkeleton_Elements \$1;
#X obj 218 459 s \$0-to-SPIN-TCP;
#X msg 274 82 /timeline setEnabled Scene_Centrosome_complex_w_microtubules_lysosomes_vesicles
\$1;
#X msg 248 132 /timeline setEnabled Centrioles_w_Extras \$1;
#X msg 234 154 /timeline setEnabled Scene_Cells_views_w_irradenence_Extra
\$1;
#X msg 218 191 /timeline setEnabled Scene_Plasma_memebrane_with_exoskeleton
elements_HEAVY \$1;
#X msg 199 224 /timeline setEnabled Scene_Action_Ribosomes_w_mRNA \$1
;
#X msg 183 250 /timeline setEnabled Golgi_Apparatus \$1;
#X msg 167 272 /timeline setEnabled Scene_Action_without_Lysosome \$1
;
#X msg 150 295 /timeline setEnabled Glycan_Protein_Cell_membrane \$1
;
#X msg 132 318 /timeline setEnabled Scene_Nucleus_w_Rough_Endoplasmic
\$1;
#X msg 118 340 /timeline setEnabled Mitochondria \$1;
#X msg 102 363 /timeline setEnabled Nucleus_w_extras \$1;
#X msg 86 386 /timeline setEnabled Golgi_Apparatus2_w_microtubules
\$1;
#X msg 64 412 /timeline setEnabled Protein_molecules \$1;
#X connect 0 0 15 0;
#X connect 1 0 16 0;
#X connect 2 0 18 0;
#X connect 3 0 19 0;
#X connect 4 0 20 0;
#X connect 5 0 21 0;
#X connect 6 0 22 0;
#X connect 7 0 23 0;
#X connect 8 0 24 0;
#X connect 9 0 25 0;
#X connect 10 0 26 0;
#X connect 11 0 27 0;
#X connect 12 0 28 0;
#X connect 13 0 29 0;
#X connect 14 0 30 0;
#X connect 15 0 17 0;
#X connect 16 0 17 0;
#X connect 18 0 17 0;
#X connect 19 0 17 0;
#X connect 20 0 17 0;
#X connect 21 0 17 0;
#X connect 22 0 17 0;
#X connect 23 0 17 0;
#X connect 24 0 17 0;
#X connect 25 0 17 0;
#X connect 26 0 17 0;
#X connect 27 0 17 0;
#X connect 28 0 17 0;
#X connect 29 0 17 0;
#X connect 30 0 17 0;
#X restore 110 207 pd models-checkbox;
#X connect 0 0 35 0;
#X connect 4 0 1 0;
#X connect 5 0 6 0;
#X connect 9 0 8 0;
#X connect 12 0 9 0;
#X connect 13 0 14 0;
#X connect 16 0 3 0;
#X connect 18 0 17 0;
#X connect 18 1 19 0;
#X connect 18 2 20 0;
#X connect 21 0 26 0;
#X connect 24 0 43 0;
#X connect 27 1 6 0;
#X connect 28 0 18 0;
#X connect 30 0 3 0;
#X connect 34 0 43 0;
#X connect 35 2 42 0;
#X connect 35 3 34 0;
#X connect 35 5 27 0;
#X connect 38 0 39 0;
