#N canvas 226 248 892 695 10;
#X obj 12 139 bng 30 250 50 0 initBang! initBang init 4 15 1 14 -261234
-1 -1;
#X obj 527 122 bng 20 250 50 0 \$0-stop-moving empty STOP_MOVING 25
10 1 10 -261234 -1 -1;
#N canvas 682 22 1238 716 UTILITIES 0;
#X msg 388 251 refreshSubscribers;
#X obj 388 270 s \$0-to-SPIN-TCP;
#X msg 383 204 optimize all;
#X obj 383 225 s \$0-to-SPIN-TCP;
#X obj 26 21 r \$0-stop-moving;
#X obj 117 189 s \$0-to-SPIN-TCP;
#X obj 70 243 r \$0-from-SPIN;
#X obj 70 263 OSCparse /posture??;
#X obj 70 283 route setTranslation setVelocity;
#X obj 68 319 anyreg posturePos;
#X msg 26 41 /posture?? setVelocity 0 0 0 \, /posture?? setSpin 0 0
0;
#X text 71 224 SAVE uesr position:;
#X msg 83 89 /posture?? debug;
#X obj 217 129 r \$0-debug-scene;
#X obj 213 76 r \$0-debug-context;
#X msg 213 97 debug context;
#X msg 217 150 debug nodes \, debug statesets;
#X text 219 340 need this or snap2panoscope won't work:;
#X obj 240 403 anyreg g_USER02 posture08 0 0.75 0;
#X text 249 430 centerX centerY centerZ sizeX sizeY sizeZ;
#X obj 239 382 anyreg g_USER01 posture05 0 0 1.5;
#X obj 237 362 anyreg g_SCENE_BOUND 0 0 0 1000 1000 1000;
#X obj 510 114 r g_soundSpheres-tgl;
#X msg 519 154 /mcluhan-st*-snd setDirectivityFlag \$1;
#X floatatom 184 558 5 0 0 1 - - -;
#X msg 183 517 50;
#X msg 191 538 0;
#X floatatom 346 533 5 0 0 0 - - -;
#X obj 348 509 hsl 128 15 -90 90 0 0 empty empty empty -2 -8 0 10 -262144
-1 -1 0 1;
#X text 468 486 90;
#X obj 346 557 hotpack2 0 0;
#X text 657 490 180;
#X floatatom 534 537 5 0 0 0 - - -;
#X obj 535 512 hsl 128 15 -180 180 0 0 empty empty empty -2 -8 0 10
-262144 -1 -1 0 1;
#X text 592 494 0;
#X text 624 494 90;
#X text 551 494 -90;
#X text 512 495 -180;
#X text 523 473 YAW;
#X text 331 475 ELEVATION;
#X floatatom 583 538 5 0 0 0 - - -;
#X msg 346 601 setOrientation \$1 0 \$2;
#X obj 534 559 + 0;
#X obj 103 582 hotpack3 0 0 0;
#X msg 104 607 setSpin \$1 \$2 \$3;
#X floatatom 142 557 5 0 0 1 - - -;
#X msg 149 537 0;
#X floatatom 104 558 5 0 0 1 - - -;
#X msg 103 517 50;
#X msg 111 538 0;
#X text 94 500 P R Y orbit speeds;
#X obj 104 639 OSCprepend /spinner-snd;
#X msg 141 516 20;
#X obj 686 256 bng 25 250 50 0 empty empty test_sound 28 12 0 12 -262144
-1 -1;
#X obj 678 298 t b b;
#X obj 583 638 s \$0-to-SPIN-TCP;
#X msg 701 331 createNode testSound SoundNode;
#X msg 703 379 /testSound setParam setPlugin buzz~ \, /testSound setParam
hz 23 \, /testSound setDirectivityFlag 1 \, /testSound setLength 0.1
\, /testSound setSpread 0;
#X msg 699 444 createNode spinner-snd GroupNode \, /testSound setParent
spinner-snd \, /testSound setTranslation 0 10 0;
#X text 335 489 -90;
#X text 404 487 0;
#X msg 878 251 deleteNode testSound \, deleteNode spinner-snd;
#X connect 0 0 1 0;
#X connect 2 0 3 0;
#X connect 4 0 10 0;
#X connect 6 0 7 0;
#X connect 7 0 8 0;
#X connect 10 0 5 0;
#X connect 12 0 5 0;
#X connect 13 0 16 0;
#X connect 14 0 15 0;
#X connect 15 0 5 0;
#X connect 16 0 5 0;
#X connect 22 0 23 0;
#X connect 23 0 5 0;
#X connect 24 0 43 2;
#X connect 25 0 24 0;
#X connect 26 0 24 0;
#X connect 27 0 30 0;
#X connect 28 0 27 0;
#X connect 30 0 41 0;
#X connect 32 0 42 0;
#X connect 33 0 32 0;
#X connect 40 0 42 1;
#X connect 41 0 51 0;
#X connect 42 0 30 1;
#X connect 43 0 44 0;
#X connect 44 0 51 0;
#X connect 45 0 43 1;
#X connect 46 0 45 0;
#X connect 47 0 43 0;
#X connect 48 0 47 0;
#X connect 49 0 47 0;
#X connect 51 0 55 0;
#X connect 52 0 45 0;
#X connect 53 0 54 0;
#X connect 54 0 57 0;
#X connect 54 0 58 0;
#X connect 54 1 56 0;
#X connect 56 0 55 0;
#X connect 57 0 55 0;
#X connect 58 0 55 0;
#X connect 61 0 55 0;
#X restore 457 80 pd UTILITIES;
#X obj 528 184 bng 15 250 50 0 \$0-go-home \$0-go-home-set home 20
9 1 10 -261682 -1 -1;
#X obj 117 208 bng 10 250 50 0 empty empty empty 17 7 0 10 -262144
-1 -1;
#X obj 388 188 tgl 15 0 g_snap_toggle g_snap_toggle-set snapToPanoscope
20 8 1 10 -261234 -1 -1 0 1;
#N canvas 400 109 843 563 fog 0;
#X obj 236 -65 inlet;
#X obj 285 412 s \$0-to-SPIN-TCP;
#X msg 322 31 createStateSet toronto-Fog Fog;
#X obj 199 227 hsl 128 15 0 0.1 0 0 empty empty empty -2 -8 0 10 -262144
-1 -1 508 1;
#X msg 221 340 /toronto-Fog setFogDensity \$1;
#X obj -161 257 line \$1 50;
#X obj -87 256 line \$1 50;
#X msg -86 237 \$1 3000;
#X msg -160 238 \$1 3000;
#X obj -53 318 pack 0 0 0;
#X obj -17 256 line \$1 50;
#X msg -16 237 \$1 3000;
#X msg -63 52 0.005 0.75 0.75 0.75;
#X msg -24 109 0 0 0 0.2;
#X obj 53 256 line \$1 50;
#X msg 54 237 \$1 3000;
#X obj -74 193 unpack 0 0 0 0;
#X msg -69 361 /toronto-Fog setFogColor \$1 \$2 \$3 0;
#X obj -21 -32 r gScene;
#X obj -31 -2 sel 0 1 2;
#X text 72 54 white;
#X text 26 80 black;
#X text 42 109 blue;
#X msg 416 81 deleteNode toronto-Fog;
#X obj 293 -28 print CREATE_FOG;
#X obj 236 -44 t b b b;
#X msg 191 205 0.004;
#X msg -13 137 0.005 0.1 0.6 0.75;
#X obj -15 454 hotpack3;
#X obj -22 418 nbx 5 14 -1e+37 1e+37 0 0 empty empty empty 0 -8 0 10
-261234 -1 -1 0 256;
#X obj 38 418 nbx 5 14 -1e+37 1e+37 0 0 empty empty empty 0 -8 0 10
-204786 -1 -1 0 256;
#X obj 98 418 nbx 5 14 -1e+37 1e+37 0 0 empty empty empty 0 -8 0 10
-203904 -1 -1 0 256;
#X msg 4 163 0.005 0.6 0.8 1;
#X text 109 138 aqua;
#X text 118 160 sky?;
#X msg -50 80 0.1 0 0 0;
#X msg 66 78 0.002 0 0 0.2;
#X connect 0 0 25 0;
#X connect 2 0 1 0;
#X connect 3 0 4 0;
#X connect 4 0 1 0;
#X connect 5 0 4 0;
#X connect 6 0 9 0;
#X connect 7 0 6 0;
#X connect 8 0 5 0;
#X connect 9 0 17 0;
#X connect 10 0 9 1;
#X connect 11 0 10 0;
#X connect 12 0 16 0;
#X connect 13 0 16 0;
#X connect 14 0 9 2;
#X connect 15 0 14 0;
#X connect 16 0 8 0;
#X connect 16 1 7 0;
#X connect 16 2 11 0;
#X connect 16 3 15 0;
#X connect 17 0 1 0;
#X connect 18 0 19 0;
#X connect 19 0 12 0;
#X connect 19 1 35 0;
#X connect 19 2 13 0;
#X connect 23 0 1 0;
#X connect 25 0 26 0;
#X connect 25 0 36 0;
#X connect 25 1 2 0;
#X connect 25 2 24 0;
#X connect 26 0 3 0;
#X connect 27 0 16 0;
#X connect 28 0 17 0;
#X connect 29 0 28 0;
#X connect 30 0 28 1;
#X connect 31 0 28 2;
#X connect 32 0 16 0;
#X connect 35 0 16 0;
#X connect 36 0 16 0;
#X restore 73 218 pd fog;
#X obj 388 152 tgl 15 0 g_noPointer g_noPointer-set noPointer 20 8
1 10 -261234 -1 -1 0 1;
#N canvas 451 169 462 664 GO-THERE 0;
#X obj 76 514 s \$0-to-SPIN;
#X obj 62 13 r \$0-go-home;
#X obj 84 265 t a;
#X obj 53 583 setPosWithOffsets posture08 0 1 posture06 0 -1;
#X obj 86 401 t a;
#X obj 64 456 setPosWithOffsets g_USER01;
#X obj 87 481 setPosWithOffsets g_USER02;
#X msg 62 33 0 0 0;
#X obj 162 64 r \$0-go-questionmark;
#X msg 168 114 0 -20 435;
#X connect 1 0 7 0;
#X connect 2 0 4 0;
#X connect 4 0 5 0;
#X connect 4 0 6 0;
#X connect 5 0 0 0;
#X connect 6 0 0 0;
#X connect 7 0 2 0;
#X connect 8 0 9 0;
#X connect 9 0 2 0;
#X restore 528 224 pd GO-THERE;
#X obj 529 146 bng 16 250 50 0 \$0-debug-scene empty DEBUG_scene 20
9 1 9 -261234 -1 -1;
#X obj 494 7 cnv 25 25 25 empty empty McLuhan 5 14 2 40 -262144 -162280
0;
#X obj 12 118 delay 2500;
#X obj 104 57 cnv 20 20 20 empty empty * 0 18 0 32 -262144 -258113
0;
#X obj 344 49 r g_currentPos;
#X obj 344 71 unpack 0 0 0;
#X floatatom 344 92 5 0 0 0 - - -;
#X floatatom 378 92 5 0 0 0 - - -;
#X floatatom 413 92 5 0 0 0 - - -;
#N canvas 0 22 450 300 force_refresh 0;
#X obj 118 37 inlet;
#X msg 71 204 refreshSubscribers;
#X obj 71 224 s \$0-to-SPIN-TCP;
#X obj 118 63 t b b b;
#X obj 216 80 print REFRESH_SUBSCRIBERS;
#X connect 0 0 3 0;
#X connect 1 0 2 0;
#X connect 3 0 1 0;
#X connect 3 2 4 0;
#X restore 19 548 pd force_refresh;
#X obj 124 538 bng 10 250 50 0 empty empty empty 17 7 0 10 -262144
-1 -1;
#X obj 529 164 bng 16 250 50 0 \$0-debug-context empty DEBUG_connection
20 9 1 9 -261234 -1 -1;
#X symbolatom 344 28 15 0 0 2 userID: g_userID -;
#N canvas 297 127 450 300 SPIN_stuff 0;
#X obj 157 27 inlet;
#X obj 24 55 change1;
#X obj 24 75 bng 15 250 50 0 empty empty empty 17 7 0 10 -262144 -1
-1;
#X obj 24 134 outlet;
#X obj 24 93 delay 1000;
#X connect 0 0 1 0;
#X connect 1 0 2 0;
#X connect 2 0 4 0;
#X connect 4 0 3 0;
#X restore 12 54 pd SPIN_stuff;
#X obj 231 128 bng 15 250 50 0 empty empty empty 17 7 0 10 -262144
-1 -1;
#X obj 388 170 tgl 15 0 g_inactivityToggle g_inactivityToggle-set inactivityTimer
20 8 1 10 -261234 -1 -1 1 1;
#X obj 112 459 bng 10 250 50 0 empty empty empty 17 7 0 10 -262144
-1 -1;
#X obj 12 3 widget-spinConnect \$0;
#N canvas 216 262 1094 680 actions 0;
#X obj -210 -301 inlet;
#X obj 23 -309 r \$0-from-SPIN;
#X obj 11 -258 route /posture05;
#X obj 11 -238 route collide;
#X obj -239 -210 bng 40 250 50 0 empty empty bang! 2 -10 0 10 -261234
-258113 -1;
#X msg 221 -4 /\$1-snd setParam event 1;
#X obj 151 174 s \$0-to-SPIN-TCP;
#X obj 11 -215 list;
#X obj -102 -99 sel mcluhan_3-0-open mcluhan_3-0-close;
#X msg -181 14 /book setEnabled mcluhan_3-0-close 0 \, /book setEnabled
mcluhan_3-0-open 1;
#X msg -179 -23 /book setEnabled mcluhan_3-0-close 1 \, /book setEnabled
mcluhan_3-0-open 0;
#X msg 11 -193 symbol \$1;
#X symbolatom 92 -159 20 0 0 2 lastCollision: - -;
#X text 226 -26 switch sound loop & bip;
#X obj 425 77 t s s s;
#X msg 443 141 createNode \$1 ShapeNode \, /\$1 setShape 2 \, /\$1
setParent world \, /\$1 setColor 1 0 0 0 \, /\$1 setRenderBin 111;
#X connect 1 0 2 0;
#X connect 2 0 3 0;
#X connect 3 0 4 0;
#X connect 3 0 7 0;
#X connect 5 0 6 0;
#X connect 7 0 11 0;
#X connect 8 0 10 0;
#X connect 8 1 9 0;
#X connect 8 2 5 0;
#X connect 9 0 6 0;
#X connect 10 0 6 0;
#X connect 11 0 12 0;
#X connect 11 0 8 0;
#X connect 14 2 15 0;
#X restore 130 359 pd actions;
#X obj 140 143 postureUser \$0;
#X msg 140 121 posture05;
#N canvas 650 114 991 818 mcluhan-stations 0;
#X obj 372 13 inlet;
#X obj 463 268 list;
#X msg 558 83 createNode mcluhan SwitchNode \, /mcluhan setTranslation
0 0 0 \, /mcluhan setOrientation 0 0 0;
#X obj 435 163 until;
#X obj 460 184 f;
#X obj 443 140 t f b;
#X obj 486 184 + 1;
#X obj 412 814 s \$0-to-SPIN-TCP;
#X obj 612 203 OSCsymbol;
#X obj 612 182 r g_userID;
#X obj 513 76 OSCprepend /\$2;
#X msg 531 161 setTarget mcluhan;
#X obj 565 255 s \$0-to-SPIN-TCP;
#X floatatom 475 206 5 0 0 0 - - -;
#X msg 581 122 createNode book SwitchNode \, /book setTranslation 0
0 0 \, /book setOrientation 0 0 0;
#X msg 531 403 /\$1-snd setParam setPlugin mcluhanLooper~;
#X obj 463 291 t a a a;
#X msg 264 101 2;
#X msg 534 324 createNode \$1 ModelNode \, createNode \$1-snd SoundNode
\, createNode;
#X msg 294 101 3;
#X msg 324 101 4;
#X msg 354 101 5;
#X msg 384 101 6;
#X msg 204 101 0;
#X msg 234 101 1;
#X msg 558 363 createNode \$1-txt TextNode;
#X msg 550 556 /\$1-txt setParent \$1-snd \, /\$1-txt setTextValue
st\$1 \, /\$1-txt setBillboard 2 \, /\$1-txt setTranslation 0 0 0.5
\, /\$1-txt setColor 0 0 1 1 \, /\$1-txt setSize 1;
#X msg 313 228 mcluhan-st\$1 \$1 0 -2 -3.5 0;
#X msg 490 720 \$2;
#X msg 490 783 /\$1-snd setParam enableEvents \$2;
#X obj 490 762 list prepend id;
#X obj 521 690 t a a;
#X msg 197 130 11;
#X msg 577 740 \$1;
#X msg 477 163 1;
#X msg 418 114 34;
#X msg 195 174 34;
#X msg 379 143 29;
#X obj 372 33 t b b b b;
#X obj 56 114 t b;
#X obj 40 604 s \$0-to-SPIN-TCP;
#X text 46 86 misc / extra;
#X msg 510 501 /\$1-snd setSpread 0 \, /\$1-snd setRadius 8 \, /\$1-snd
setParam spread 0 \, /\$1-snd setOrientation -90 0 0;
#X msg 56 265 /mcluhan-st2-snd setRadius 10;
#X msg 43 235 /mcluhan-st3-snd setRadius 13;
#X msg 70 293 /mcluhan-st4-snd setRadius 13;
#X msg 11 436 /posture??-reporter-hotspot addTarget mcluhan-st1;
#X text 84 404 hotspot;
#X msg 120 552 deleteNode mcluhan-st1-black;
#X msg -4 655 createNode askMarshall_bg ShapeNode \, /askMarshall_bg
setParent askMarshall \, /askMarshall_bg setShape 6 \, /askMarshall_bg
setTranslation 0 0.01 0 \, /askMarshall_bg setScale 4.25 1 7.57 \,
/askMarshall_bg setColor 0.8 0.8 0.8 1;
#X obj 490 741 <= 33;
#X msg 512 433 /\$1-snd setParent \$1 \, /\$1-snd setParam loopA ~/Documents/Metalab/mcluhan/sound/\$1_A.wav
\, /\$1-snd setParam loopB ~/Documents/Metalab/mcluhan/sound/\$1_B.wav
;
#X msg 385 608 createNode \$1 ModelNode \, /\$1 setOrientation 90 0
\$6 \, /\$1 setTranslation \$3 \$4 \$5 \, /\$1 setAttachCentroid 1
\, /\$1 setModelFromFile ~/Documents/Metalab/mcluhan/models/low-res/\$1.ive
\, /\$1 setParent mcluhan \, /mcluhan setEnabled \$1 1;
#X msg 459 112 34;
#X connect 0 0 38 0;
#X connect 1 0 16 0;
#X connect 2 0 12 0;
#X connect 3 0 4 0;
#X connect 4 0 6 0;
#X connect 4 0 27 0;
#X connect 4 0 13 0;
#X connect 5 0 3 0;
#X connect 5 1 34 0;
#X connect 6 0 4 1;
#X connect 8 0 10 1;
#X connect 9 0 8 0;
#X connect 10 0 12 0;
#X connect 11 0 10 0;
#X connect 14 0 12 0;
#X connect 15 0 7 0;
#X connect 16 0 52 0;
#X connect 16 0 51 0;
#X connect 16 0 42 0;
#X connect 16 0 31 0;
#X connect 16 1 15 0;
#X connect 16 2 18 0;
#X connect 17 0 27 0;
#X connect 18 0 7 0;
#X connect 19 0 27 0;
#X connect 20 0 27 0;
#X connect 21 0 27 0;
#X connect 22 0 27 0;
#X connect 23 0 27 0;
#X connect 24 0 27 0;
#X connect 25 0 7 0;
#X connect 26 0 7 0;
#X connect 27 0 1 0;
#X connect 28 0 50 0;
#X connect 29 0 7 0;
#X connect 30 0 29 0;
#X connect 31 0 28 0;
#X connect 31 1 33 0;
#X connect 32 0 27 0;
#X connect 33 0 30 1;
#X connect 34 0 4 1;
#X connect 35 0 5 0;
#X connect 36 0 27 0;
#X connect 37 0 27 0;
#X connect 38 0 39 0;
#X connect 38 1 53 0;
#X connect 38 2 11 0;
#X connect 38 3 2 0;
#X connect 38 3 14 0;
#X connect 39 0 44 0;
#X connect 39 0 43 0;
#X connect 39 0 45 0;
#X connect 39 0 46 0;
#X connect 42 0 7 0;
#X connect 43 0 40 0;
#X connect 44 0 40 0;
#X connect 45 0 40 0;
#X connect 46 0 40 0;
#X connect 48 0 40 0;
#X connect 50 0 30 0;
#X connect 51 0 7 0;
#X connect 52 0 7 0;
#X connect 53 0 5 0;
#X restore 29 322 pd mcluhan-stations;
#X obj 388 134 tgl 15 0 g_collisions g_collisions-set collisions 20
8 1 10 -261234 -1 -1 1 1;
#X obj 161 312 bng 10 250 50 0 empty empty empty 17 7 0 10 -262144
-1 -1;
#N canvas 39 198 851 748 mcluhan-meta 0;
#X obj 147 27 inlet;
#X obj 134 291 OSCsymbol;
#X obj 134 270 r g_userID;
#X obj 53 311 OSCprepend /\$2;
#X msg 53 249 setTarget mcluhan;
#X obj 148 663 s \$0-to-SPIN-TCP;
#X msg 343 165 createNode book SwitchNode \, /book setTranslation 0
0 0 \, /book setOrientation 0 0 0;
#X obj 147 78 t b b b;
#X obj 95 38 bng 15 250 50 0 empty empty empty 17 7 0 10 -262144 -1
-1;
#X text 329 83 create switch nodes:;
#X text 88 223 target for collisions:;
#X msg 362 217 createNode askMarshall SwitchNode \, /askMarshall setParent
mcluhan \, /askMarshall setTranslation 0.03 6.078 -1.52;
#X msg 385 283 createNode askMarshall_bg ShapeNode \, /askMarshall_bg
setParent askMarshall \, /askMarshall_bg setShape 2 \, /askMarshall_bg
setTranslation 0 0.31 0 \, /askMarshall_bg setScale 4.25 0.6 7.57 \,
/askMarshall_bg setColor 0.8 0.8 0.8 1;
#X msg 320 112 createNode mcluhan SwitchNode \, /mcluhan setTranslation
0 0 0 \, /mcluhan setOrientation 0 0 0 \, /mcluhan setScale 1 1 0.6666
;
#X connect 0 0 7 0;
#X connect 1 0 3 1;
#X connect 2 0 1 0;
#X connect 3 0 5 0;
#X connect 4 0 3 0;
#X connect 6 0 5 0;
#X connect 7 0 4 0;
#X connect 7 1 12 0;
#X connect 7 2 13 0;
#X connect 7 2 6 0;
#X connect 7 2 11 0;
#X connect 8 0 7 0;
#X connect 11 0 5 0;
#X connect 12 0 5 0;
#X connect 13 0 5 0;
#X restore 63 239 pd mcluhan-meta;
#X obj 162 229 bng 10 250 50 0 empty empty empty 17 7 0 10 -262144
-1 -1;
#X obj 263 143 tgl 30 0 g_pdDSP g_pdDSP-set DSP 1 13 1 10 -261234 -262130
-86277 1 1;
#X msg 263 176 \; pd dsp \$1 \;;
#N canvas 472 137 808 706 mcluhan-models 1;
#X obj 157 37 inlet;
#X obj 116 662 s \$0-to-SPIN-TCP;
#X obj 313 378 list;
#X obj 313 399 t a a;
#X msg 320 320 mcluhan_3-0-open 0 -2 -3.5 0;
#X msg 305 343 mcluhan_3-0-close 0 -2 -3.5 0;
#X obj 157 88 t b b b;
#X obj 105 48 bng 15 250 50 0 empty empty empty 17 7 0 10 -262144 -1
-1;
#X obj 48 401 list;
#X msg 47 299 mcluhan_3-1-1r 0 -2 -3.5 0;
#X msg 65 324 mcluhan_3-1-2r 0 -2 -3.5 0;
#X msg 88 348 mcluhan_3-2-1r 0 -2 -3.5 0;
#X msg 105 375 mcluhan_3-2-2r 0 -2 -3.5 0;
#X obj 48 423 t a a;
#X msg 107 583 /\$1 setParent book \, /book setEnabled \$1 1;
#X msg 31 532 /\$1 setParent mcluhan \, /mcluhan setEnabled \$1 1;
#X text 386 459 stuff to make a generica model node:;
#X text 133 567 parent is book:;
#X text 56 510 parent is mcluhan:;
#X msg 183 241 mcluhan-st33-2 0 -2 -3.5 0;
#X msg 208 212 mcluhan-st0 0 -2 -3.5 0;
#X msg 367 484 createNode \$1 ModelNode \, /\$1 setOrientation 90 0
\$5 \, /\$1 setTranslation \$2 \$3 \$4 \, /\$1 setAttachCentroid 1
\, /\$1 setModelFromFile ~/Documents/Metalab/mcluhan/models/low-res/\$1.ive
\, /\$1 setParent book \, /book setEnabled \$1 1;
#X connect 0 0 6 0;
#X connect 2 0 3 0;
#X connect 3 0 14 0;
#X connect 3 1 21 0;
#X connect 4 0 2 0;
#X connect 5 0 2 0;
#X connect 6 0 9 0;
#X connect 6 0 10 0;
#X connect 6 0 19 0;
#X connect 6 0 20 0;
#X connect 6 0 11 0;
#X connect 6 0 12 0;
#X connect 7 0 6 0;
#X connect 8 0 13 0;
#X connect 9 0 8 0;
#X connect 10 0 8 0;
#X connect 11 0 8 0;
#X connect 12 0 8 0;
#X connect 13 0 15 0;
#X connect 13 1 21 0;
#X connect 14 0 1 0;
#X connect 15 0 1 0;
#X connect 19 0 8 0;
#X connect 20 0 8 0;
#X connect 21 0 1 0;
#X restore 46 267 pd mcluhan-models;
#X obj 160 257 bng 10 250 50 0 empty empty empty 17 7 0 10 -262144
-1 -1;
#X obj 331 289 vsl 30 100 -99 18 0 0 empty g_masterGain-set MASTER
-17 -12 1 12 -257985 -1 -86277 8377 1;
#X floatatom 331 392 5 0 0 0 - - -;
#X text 322 295 -------0db;
#X obj 528 204 bng 15 250 50 0 \$0-go-questionmark \$0-go-questionmark-set
questionmark 20 9 1 10 -261682 -1 -1;
#N canvas 27 63 1034 885 ambient-audio 0;
#X obj 92 122 symbol;
#X msg 92 142 open \$1;
#X obj 65 165 readsf~ 2;
#X obj 65 62 t f b;
#X obj 68 43 tgl 15 0 empty \$0-ambientLoops-tgl-set empty 17 7 0 10
-262144 -1 -1 1 1;
#X obj 116 185 bng 15 250 50 0 empty empty empty 17 7 0 10 -262144
-1 -1;
#X obj 314 195 symbol;
#X msg 314 215 open \$1;
#X obj 287 238 readsf~ 2;
#X obj 287 139 t f b;
#X obj 287 121 tgl 15 0 empty \$0-ambientLoops-tgl-set empty 17 7 0
10 -262144 -1 -1 1 1;
#X obj 338 258 bng 15 250 50 0 empty empty empty 17 7 0 10 -262144
-1 -1;
#X msg 249 273 1;
#X msg 29 200 1;
#X obj 744 360 sqrt;
#X text 132 186 <- loop when done;
#X obj 744 274 r g_currentPos;
#X obj 744 295 unpack 0 0 0;
#X obj 744 339 expr ($f1*$f1) + ($f2*$f2);
#X obj 582 33 inlet;
#X obj 724 695 throw~ audio_outbus1;
#X obj 864 694 throw~ audio_outbus2;
#X obj 724 715 throw~ audio_outbus3;
#X obj 864 715 throw~ audio_outbus4;
#X obj 933 446 vsl 20 100 -99 18 0 1 empty empty Output -14 -10 0 12
-260818 -1 -1 8377 1;
#X floatatom 933 552 5 0 0 1 db - -;
#X obj 781 650 stgain2~;
#X msg 899 454 0;
#X text 925 452 -----0db;
#X obj 933 38 inlet;
#X msg 869 454 -99;
#X obj 844 299 s g_userElev;
#X text 108 65 Grows just below installation floor (-20) downwards
;
#X text 328 137 Grows above the letter Y (250);
#X obj 108 211 r g_userElev;
#X obj 165 272 vsl 15 25 0 1 0 0 empty empty empty 0 -9 0 10 -262144
-1 -1 9 1;
#X msg 108 273 \$1 30;
#X obj 108 253 clip 0 1;
#X obj 744 400 clip 0 1;
#X obj 108 293 line~;
#X obj 89 322 *~;
#X obj 64 322 *~;
#X obj 757 431 vsl 15 25 0 1 0 0 empty empty empty 0 -9 0 10 -262144
-1 -1 476 1;
#X obj 331 287 r g_userElev;
#X obj 388 348 vsl 15 25 0 1 0 0 empty empty empty 0 -9 0 10 -262144
-1 -1 0 1;
#X msg 331 349 \$1 30;
#X msg 744 530 \$1 30;
#X obj 331 329 clip 0 1;
#X obj 331 369 line~;
#X obj 312 398 *~;
#X obj 287 398 *~;
#X obj 730 587 *~;
#X obj 705 587 *~;
#X obj 744 550 line~;
#X obj 112 522 symbol;
#X msg 112 542 open \$1;
#X obj 85 565 readsf~ 2;
#X obj 85 466 t f b;
#X obj 85 448 tgl 15 0 empty \$0-ambientLoops-tgl-set empty 17 7 0
10 -262144 -1 -1 1 1;
#X obj 136 585 bng 15 250 50 0 empty empty empty 17 7 0 10 -262144
-1 -1;
#X msg 47 600 1;
#X obj 126 611 r g_userElev;
#X obj 186 661 vsl 15 25 0 1 0 0 empty empty empty 0 -9 0 10 -262144
-1 -1 964 1;
#X msg 126 662 \$1 30;
#X obj 126 682 line~;
#X obj 111 709 *~;
#X obj 86 709 *~;
#X obj 309 607 symbol;
#X msg 309 627 open \$1;
#X obj 282 650 readsf~ 2;
#X obj 282 551 t f b;
#X obj 282 533 tgl 15 0 empty \$0-ambientLoops-tgl-set empty 17 7 0
10 -262144 -1 -1 1 1;
#X obj 333 670 bng 15 250 50 0 empty empty empty 17 7 0 10 -262144
-1 -1;
#X msg 244 685 1;
#X obj 323 696 r g_userElev;
#X obj 383 746 vsl 15 25 0 1 0 0 empty empty empty 0 -9 0 10 -262144
-1 -1 0 1;
#X msg 323 747 \$1 30;
#X obj 323 767 line~;
#X obj 308 794 *~;
#X obj 283 794 *~;
#X obj 705 220 catch~ ambL~;
#X obj 729 240 catch~ ambR~;
#X obj 88 347 throw~ ambR~;
#X obj 63 369 throw~ ambL~;
#X obj 311 421 throw~ ambR~;
#X obj 286 443 throw~ ambL~;
#X obj 111 738 throw~ ambR~;
#X obj 86 760 throw~ ambL~;
#X obj 307 818 throw~ ambR~;
#X obj 282 840 throw~ ambL~;
#X obj 582 55 tgl 25 0 empty empty empty 17 7 0 10 -262130 -1 -1 1
1;
#X obj 582 84 s \$0-ambientLoops-tgl-set;
#X obj 323 717 midpointRamp 120 300;
#X obj 108 232 zscale 20 -200 0 1;
#X obj 126 632 midpointRamp -20 175;
#X obj 331 308 zscale 225 400 0 1;
#X obj 744 380 zscale 0 150 0 1;
#X msg 112 486 ~/Documents/Metalab/mcluhan/sound/mcluhan-st200_2_Who.wav
;
#X msg 309 571 ~/Documents/Metalab/mcluhan/sound/mcluhan-st200_3_Are.wav
;
#X msg 314 159 ~/Documents/Metalab/mcluhan/sound/mcluhan-st200_4_You.wav
;
#X msg 92 83 ~/Documents/Metalab/mcluhan/sound/mcluhan-st200_1_And.wav
;
#X obj 619 692 vu1~;
#X connect 0 0 1 0;
#X connect 1 0 2 0;
#X connect 2 0 41 0;
#X connect 2 1 40 0;
#X connect 2 2 5 0;
#X connect 3 0 2 0;
#X connect 3 1 100 0;
#X connect 4 0 3 0;
#X connect 5 0 13 0;
#X connect 6 0 7 0;
#X connect 7 0 8 0;
#X connect 8 0 50 0;
#X connect 8 1 49 0;
#X connect 8 2 11 0;
#X connect 9 0 8 0;
#X connect 9 1 99 0;
#X connect 10 0 9 0;
#X connect 11 0 12 0;
#X connect 12 0 10 0;
#X connect 13 0 4 0;
#X connect 14 0 96 0;
#X connect 16 0 17 0;
#X connect 17 0 18 0;
#X connect 17 1 18 1;
#X connect 17 2 31 0;
#X connect 18 0 14 0;
#X connect 19 0 90 0;
#X connect 24 0 25 0;
#X connect 24 0 26 2;
#X connect 26 0 20 0;
#X connect 26 0 22 0;
#X connect 26 1 21 0;
#X connect 26 1 23 0;
#X connect 27 0 24 0;
#X connect 29 0 24 0;
#X connect 30 0 24 0;
#X connect 34 0 93 0;
#X connect 36 0 39 0;
#X connect 37 0 36 0;
#X connect 37 0 35 0;
#X connect 38 0 46 0;
#X connect 38 0 42 0;
#X connect 39 0 41 1;
#X connect 39 0 40 1;
#X connect 40 0 82 0;
#X connect 41 0 83 0;
#X connect 43 0 95 0;
#X connect 45 0 48 0;
#X connect 46 0 53 0;
#X connect 47 0 45 0;
#X connect 47 0 44 0;
#X connect 48 0 50 1;
#X connect 48 0 49 1;
#X connect 49 0 84 0;
#X connect 50 0 85 0;
#X connect 51 0 26 1;
#X connect 52 0 26 0;
#X connect 52 0 101 0;
#X connect 53 0 51 1;
#X connect 53 0 52 1;
#X connect 54 0 55 0;
#X connect 55 0 56 0;
#X connect 56 0 66 0;
#X connect 56 1 65 0;
#X connect 56 2 59 0;
#X connect 57 0 56 0;
#X connect 57 1 97 0;
#X connect 58 0 57 0;
#X connect 59 0 60 0;
#X connect 60 0 58 0;
#X connect 61 0 94 0;
#X connect 63 0 64 0;
#X connect 64 0 65 1;
#X connect 64 0 66 1;
#X connect 65 0 86 0;
#X connect 66 0 87 0;
#X connect 67 0 68 0;
#X connect 68 0 69 0;
#X connect 69 0 79 0;
#X connect 69 1 78 0;
#X connect 69 2 72 0;
#X connect 70 0 69 0;
#X connect 70 1 98 0;
#X connect 71 0 70 0;
#X connect 72 0 73 0;
#X connect 73 0 71 0;
#X connect 74 0 92 0;
#X connect 76 0 77 0;
#X connect 77 0 78 1;
#X connect 77 0 79 1;
#X connect 78 0 88 0;
#X connect 79 0 89 0;
#X connect 80 0 52 0;
#X connect 81 0 51 0;
#X connect 90 0 91 0;
#X connect 92 0 75 0;
#X connect 92 0 76 0;
#X connect 93 0 37 0;
#X connect 94 0 62 0;
#X connect 94 0 63 0;
#X connect 95 0 47 0;
#X connect 96 0 38 0;
#X connect 97 0 54 0;
#X connect 98 0 67 0;
#X connect 99 0 6 0;
#X connect 100 0 0 0;
#X restore 63 437 pd ambient-audio;
#X obj 231 284 vsl 20 100 -99 18 0 1 empty empty AmbientLoops -30 -10
0 10 -257985 -1 -1 8377 1;
#X floatatom 231 390 5 0 0 1 db - -;
#X text 223 290 -----0db;
#N canvas 126 167 450 300 start 0;
#X obj 104 39 inlet;
#X obj 77 244 s g_snap_toggle-set;
#X msg 76 184 1;
#X msg 244 180 1;
#X obj 245 240 s g_inactivityToggle-set;
#X obj 29 135 s \$0-go-home;
#X obj 107 72 t b b b b b;
#X connect 0 0 6 0;
#X connect 2 0 1 0;
#X connect 3 0 4 0;
#X connect 6 0 5 0;
#X connect 6 4 3 0;
#X restore 46 469 pd start;
#X obj 134 572 spatOSC-basicRenderer;
#X obj 284 555 tgl 15 0 empty empty <-Debug 20 7 1 9 -262144 -1 -1
0 1;
#X obj 284 536 bng 15 250 50 0 empty empty <-ShowNodes 20 7 1 9 -262144
-1 -1;
#X obj 210 594 nbx 3 20 -1e+37 1e+37 0 0 empty g_numSoundNodes nodeCount:
-72 10 0 9 -262144 -1 -1 0 256;
#N canvas 176 238 949 633 reverb 0;
#X obj 387 376 vsl 15 128 -99 18 0 1 empty empty Output -14 -10 0 12
-260818 -1 -1 7707 1;
#X floatatom 387 514 5 0 0 1 db - -;
#X obj 159 105 vsl 15 128 -99 18 0 1 empty \$0-rev-1 empty 0 -8 0 8
-225271 -66577 -262144 10300 1;
#X floatatom 159 243 5 0 0 1 db - -;
#X obj 221 105 vsl 15 128 -99 18 0 1 empty \$0-rev-2 empty 0 -8 0 8
-225271 -1 -1 10000 1;
#X floatatom 221 243 5 0 0 1 db - -;
#X obj 283 106 vsl 15 128 -99 18 0 1 empty \$0-rev-3 empty 0 -8 0 8
-225271 -1 -1 10800 1;
#X floatatom 283 244 5 0 0 1 db - -;
#X obj 345 105 vsl 15 128 5 10000 0 1 empty \$0-rev-4 empty 0 -8 0
8 -225271 -1 -1 6800 1;
#X floatatom 345 243 5 0 0 1 hz - -;
#X obj 407 105 vsl 15 128 0.1 200 0 1 empty \$0-rev-5 empty 0 -8 0
8 -225271 -1 -1 10704 1;
#X obj 469 105 vsl 15 128 0 100 0 1 empty \$0-rev-6 empty 0 -8 0 8
-225271 -1 -1 11000 1;
#X obj 576 244 hsl 128 15 -1 1 0 1 empty \$0-rev-7 empty -2 -6 0 8
-162350 -261889 -1 12700 1;
#X text 453 51 rTime(%);
#X text 621 219 mix(-1:1);
#X text 384 79 roomSize(%);
#X text 320 49 L-pass(hz);
#X text 256 80 recycle(db);
#X text 196 51 2ndRfl(db);
#X text 131 81 1stRfl(db);
#X text 716 240 wet;
#X text 536 242 dry;
#N canvas 262 374 707 364 ---------------------------------------------------
0;
#X obj 53 50 inlet;
#X obj 550 254 outlet;
#X msg 550 212 put \$1 \$2;
#X msg 60 79 1 \$1;
#X obj 125 50 inlet;
#X obj 196 50 inlet;
#X obj 267 50 inlet;
#X obj 338 50 inlet;
#X obj 408 50 inlet;
#X msg 132 79 2 \$1;
#X msg 203 79 3 \$1;
#X msg 274 79 4 \$1;
#X msg 345 80 5 \$1;
#X msg 415 80 6 \$1;
#X obj 479 50 inlet;
#X msg 486 80 7 \$1;
#X obj 53 254 outlet;
#X obj 125 254 outlet;
#X obj 196 254 outlet;
#X obj 267 254 outlet;
#X obj 338 254 outlet;
#X obj 408 254 outlet;
#X obj 479 254 outlet;
#X connect 0 0 3 0;
#X connect 0 0 16 0;
#X connect 2 0 1 0;
#X connect 3 0 2 0;
#X connect 4 0 9 0;
#X connect 4 0 17 0;
#X connect 5 0 10 0;
#X connect 5 0 18 0;
#X connect 6 0 11 0;
#X connect 6 0 19 0;
#X connect 7 0 12 0;
#X connect 7 0 20 0;
#X connect 8 0 13 0;
#X connect 8 0 21 0;
#X connect 9 0 2 0;
#X connect 10 0 2 0;
#X connect 11 0 2 0;
#X connect 12 0 2 0;
#X connect 13 0 2 0;
#X connect 14 0 15 0;
#X connect 14 0 22 0;
#X connect 15 0 2 0;
#X restore 159 322 pd ---------------------------------------------------
;
#X floatatom 407 242 5 0 0 1 % - -;
#X floatatom 469 242 5 0 0 1 % - -;
#X obj 136 477 qgain2~;
#X text 572 23 inlet1-2 : audio signal;
#X text 572 34 inlet3 : first reflection_db;
#X text 572 45 inlet4 : second reflection_db;
#X text 572 56 inlet5 : feedback_db;
#X text 572 66 inlet6 : low-pass filter_hz;
#X text 572 77 inlet7 : room size_%;
#X text 572 88 inlet8 : reverb time_%;
#X text 572 98 inlet9 : wet/dry mix;
#X text 21 16 zrev1~ : reverb unit;
#X text 549 120 2 (+2) channel output.;
#X text 547 136 Outputs 3 and 4 are for additional complexity;
#X text 422 567 note: while zverb is not a true multi-channel reverb
\, it still does worthwhile things to stereo input \, and produces
4 unique outputs.;
#X obj 561 324 bng 15 250 50 0 empty empty clear_reverb 17 7 1 12 -262144
-1 -1;
#X obj 150 378 zrev1~;
#X obj 29 265 playsf~;
#X obj 49 114 inlet~;
#X obj 536 399 tgl 15 0 empty empty empty 17 7 0 10 -262144 -1 -1 1
1;
#X obj 503 429 sel 0 1;
#X msg 497 459 -99;
#X obj 579 364 inlet;
#X obj 592 190 loadbang1 1;
#X obj 81 531 throw~ audio_outbus1;
#X obj 91 550 throw~ audio_outbus2;
#X obj 101 571 throw~ audio_outbus3;
#X obj 111 591 throw~ audio_outbus4;
#X obj 695 402 sqrt;
#X obj 695 316 r g_currentPos;
#X obj 695 337 unpack 0 0 0;
#X obj 695 442 clip 0 1;
#X obj 708 473 vsl 15 25 0 1 0 0 empty empty empty 0 -9 0 10 -262144
-1 -1 2043 1;
#X obj 695 381 expr ($f1*$f1) + ($f2*$f2) + ($f3*$f3);
#X floatatom 840 447 5 0 0 0 - - -;
#X obj 697 421 zscale 0 200 1 0;
#X obj 114 437 *~;
#X obj 144 437 *~;
#X obj 174 437 *~;
#X obj 204 437 *~;
#X msg 853 330 0;
#X msg 527 459 -28;
#X connect 0 0 1 0;
#X connect 1 0 25 4;
#X connect 2 0 3 0;
#X connect 3 0 22 0;
#X connect 4 0 5 0;
#X connect 5 0 22 1;
#X connect 6 0 7 0;
#X connect 7 0 22 2;
#X connect 8 0 9 0;
#X connect 9 0 22 3;
#X connect 10 0 23 0;
#X connect 11 0 24 0;
#X connect 12 0 22 6;
#X connect 22 0 39 2;
#X connect 22 1 39 3;
#X connect 22 2 39 4;
#X connect 22 3 39 5;
#X connect 22 4 39 6;
#X connect 22 5 39 7;
#X connect 22 6 39 8;
#X connect 23 0 22 4;
#X connect 24 0 22 5;
#X connect 25 0 47 0;
#X connect 25 1 48 0;
#X connect 25 2 49 0;
#X connect 25 3 50 0;
#X connect 38 0 39 9;
#X connect 39 0 59 0;
#X connect 39 1 60 0;
#X connect 39 2 61 0;
#X connect 39 3 62 0;
#X connect 40 0 39 0;
#X connect 40 0 39 1;
#X connect 41 0 39 0;
#X connect 42 0 43 0;
#X connect 43 0 44 0;
#X connect 43 1 64 0;
#X connect 44 0 0 0;
#X connect 45 0 42 0;
#X connect 46 0 12 0;
#X connect 46 0 42 0;
#X connect 51 0 57 0;
#X connect 51 0 58 0;
#X connect 52 0 53 0;
#X connect 53 0 56 0;
#X connect 53 1 56 1;
#X connect 54 0 55 0;
#X connect 54 0 62 1;
#X connect 54 0 61 1;
#X connect 54 0 60 1;
#X connect 54 0 59 1;
#X connect 56 0 51 0;
#X connect 58 0 54 0;
#X connect 59 0 25 0;
#X connect 60 0 25 1;
#X connect 61 0 25 2;
#X connect 62 0 25 3;
#X connect 63 0 56 2;
#X connect 64 0 0 0;
#X restore 374 602 pd reverb;
#X obj 375 556 catch~ global-reverb~;
#X obj 423 579 tgl 20 0 empty g_reverbToggle-set reverb::on/off 25
10 1 10 -261234 -1 -1 1 1;
#X obj 12 173 t b b b b;
#X obj 12 372 t b b b b;
#X msg 63 392 1;
#N canvas 299 240 884 651 DEBUG 0;
#X obj 30 132 widget-nodeEditor \$0;
#X msg 490 295 debug spatosc;
#X obj 501 441 s \$0-to-SPIN-TCP;
#X msg 464 268 /posture05-listener debug;
#X msg 116 44 posture05;
#X obj 30 415 subwidget-motionControl \$0;
#X msg 30 393 posture05;
#X obj 30 373 loadbang;
#X obj 130 379 tgl 25 0 empty empty empty 17 7 0 10 -262144 -1 -1 0
1;
#X msg 615 295 debug scenegraph;
#X msg 607 318 debug context;
#X msg 490 232 deleteNode mcluhan-st32-snd;
#X msg 415 207 /book setEnabled mcluhan_3-0-open 0;
#X msg 177 92 mcluhan_3-1-1r;
#X msg 268 76 mcluhan-st33-1;
#N canvas 0 22 750 456 NORTH_EAST_SOUTH_WEST 0;
#X obj 151 58 inlet;
#X msg 151 156 North 0 5 1 \, East 5 0 1 \, South 0 -5 1 \, West -5
0 1;
#X obj 168 383 s \$0-to-SPIN-TCP;
#X obj 151 103 sel 1 0;
#X obj 249 73 tgl 15 0 empty empty empty 17 7 0 10 -262144 -1 -1 0
1;
#X msg 237 317 /zDebugText setAll 0;
#X obj 298 199 r g_userID;
#X obj 151 217 list append;
#X msg 151 238 createNode zDebugText SwitchNode \, /zDebugText setParent
\$5 \, createNode z\$1 TextNode \, /z\$1 setTextValue \$1 \, /z\$1
setParent zDebugText \, /z\$1 setTranslation \$2 \$3 \$4 \, /z\$1 setScale
1 1 1 \, /z\$1 setBillboard 2 \, /z\$1 setSize 2 \, /zDebugText setAll
1;
#X connect 0 0 3 0;
#X connect 1 0 7 0;
#X connect 3 0 1 0;
#X connect 3 1 5 0;
#X connect 4 0 3 0;
#X connect 5 0 2 0;
#X connect 6 0 7 1;
#X connect 7 0 8 0;
#X connect 8 0 2 0;
#X restore 162 383 pd NORTH_EAST_SOUTH_WEST;
#X msg 634 403 spatosc setDefaultDistanceFactor \$1 1;
#X msg 744 353 100;
#X msg 754 323 200;
#X msg 46 68 test;
#X msg 597 253 createNode test ShapeNode;
#X msg 474 134 /mcluhan-*-snd setRadius 8;
#X msg 477 96 /mcluhan-*-snd setRadius 8;
#X msg 196 44 mcluhan-st33-snd;
#X msg 205 20 mcluhan-st33-txt;
#X msg 784 343 150;
#X msg 787 373 0;
#X msg 750 376 80;
#X msg 386 54 posture05-target-cursor;
#X msg 386 74 posture05-target-instructions;
#X msg 611 42 /\$1-target-* setScale 0.05 0.05 0.05;
#X msg 693 75 /\$1-target-* setScale 0.01 0.01 0.01;
#X obj 659 111 s \$0-to-SPIN-TCP;
#X obj 282 612 s \$0-to-SPIN-TCP;
#X msg 290 489 createNode testSound SoundNode \, createNode spinner
GroupNode;
#X msg 378 115 testSound;
#X msg 396 27 posture05-listener;
#X msg 327 5 posture05;
#X msg 275 467 deleteNode spinner \, deleteNode testSound;
#X msg 295 516 /spinner setSpin 0 0 30 \, /testSound setTranslation
0 5 0 \, /testSound setParam setPlugin testnoise~ \, /testSound setParent
spinner \, /testSound setSpread 0 \, /testSound setRadius 1 \, /testSound
setParam spread 1 \, /testSound setOrientation -90 0 0 \, /testSound
setDirectivityFlag 1;
#X connect 1 0 2 0;
#X connect 3 0 2 0;
#X connect 4 0 0 0;
#X connect 6 0 5 0;
#X connect 7 0 6 0;
#X connect 8 0 15 0;
#X connect 9 0 2 0;
#X connect 10 0 2 0;
#X connect 11 0 2 0;
#X connect 12 0 2 0;
#X connect 13 0 0 0;
#X connect 14 0 0 0;
#X connect 16 0 2 0;
#X connect 17 0 16 0;
#X connect 18 0 16 0;
#X connect 19 0 0 0;
#X connect 20 0 2 0;
#X connect 21 0 2 0;
#X connect 23 0 0 0;
#X connect 24 0 0 0;
#X connect 26 0 16 0;
#X connect 27 0 16 0;
#X connect 28 0 0 0;
#X connect 29 0 0 0;
#X connect 30 0 32 0;
#X connect 31 0 32 0;
#X connect 34 0 33 0;
#X connect 35 0 0 0;
#X connect 36 0 0 0;
#X connect 37 0 0 0;
#X connect 38 0 33 0;
#X connect 39 0 33 0;
#X restore 461 53 pd DEBUG;
#X obj 63 413 tgl 20 0 empty empty ambientLoops::on/off 25 10 1 10
-261234 -1 -1 1 1;
#X obj 257 490 r gAudioInit!;
#N canvas 35 65 933 793 AUDIO_INIT 0;
#X obj 180 20 inlet;
#X obj 180 58 t b b b b;
#X text 332 508 <- to audio renderer;
#X obj 556 224 s \$0-to-SPIN-TCP;
#X msg 543 174 spatosc setDefaultDistanceFactor \$1 1;
#X msg 659 147 50;
#X msg 653 124 100;
#X msg 643 78 200;
#X text 241 18 <- this bang should be sent only when spinserver is
confirmed to be running \, and ideally after the listener is created
;
#X obj 170 299 s renderer.toggleDsp;
#X msg 164 253 bang;
#X obj 40 303 s g_masterGain-set;
#X obj 93 186 loadbang;
#X obj 42 259 line;
#X msg 90 208 -99 0;
#X obj 161 357 sendset g_pdDSP-set;
#X msg 161 336 1;
#X text 16 131 Goes to 0db over 2sec fade;
#X obj 29 156 cnv 20 20 20 empty empty * 0 18 0 32 -262144 -258113
0;
#X msg 653 101 150;
#X msg 58 157 0 2000;
#X msg 320 210 /a.renderer/setOutputFormat octo;
#X msg 296 154 /a.renderer/setOutputFormat dome;
#X obj 333 259 t b;
#X msg 439 257 vmic1.channel 18;
#X obj 268 507 outlet;
#X obj 342 451 list prepend /spatosc/core/listener/posture05-listener/prop
;
#X obj 360 238 bng 15 250 50 0 empty empty empty 17 7 0 10 -262144
-1 -1;
#X msg 439 280 vmic2.channel 24;
#X msg 439 347 vmic5.channel 25;
#X msg 439 392 vmic7.channel 21;
#X msg 439 416 vmic8.channel 19;
#X msg 439 370 vmic6.channel 23;
#X obj 508 484 t b;
#X obj 517 676 list prepend /spatosc/core/listener/posture05-listener/prop
;
#X obj 472 477 bng 15 250 50 0 empty empty empty 17 7 0 10 -262144
-1 -1;
#X msg 614 482 vmic1.yaw 90;
#X msg 614 505 vmic2.yaw 0;
#X msg 614 527 vmic3.yaw 180;
#X msg 614 550 vmic4.yaw -90;
#X msg 614 572 vmic5.yaw 45;
#X msg 614 595 vmic6.yaw -45;
#X msg 614 617 vmic7.yaw -135;
#X msg 614 641 vmic8.yaw 125;
#X msg 569 302 vmic3.channel 22;
#X msg 569 325 vmic4.channel 20;
#X msg 439 302 vmic3.channel 20;
#X msg 439 325 vmic4.channel 22;
#X connect 0 0 1 0;
#X connect 1 0 20 0;
#X connect 1 1 10 0;
#X connect 1 1 23 0;
#X connect 1 2 21 0;
#X connect 1 3 6 0;
#X connect 4 0 3 0;
#X connect 5 0 4 0;
#X connect 6 0 4 0;
#X connect 7 0 4 0;
#X connect 10 0 9 0;
#X connect 10 0 16 0;
#X connect 12 0 14 0;
#X connect 13 0 11 0;
#X connect 14 0 13 0;
#X connect 16 0 15 0;
#X connect 19 0 4 0;
#X connect 20 0 13 0;
#X connect 21 0 25 0;
#X connect 22 0 25 0;
#X connect 23 0 29 0;
#X connect 23 0 32 0;
#X connect 23 0 24 0;
#X connect 23 0 28 0;
#X connect 23 0 46 0;
#X connect 23 0 47 0;
#X connect 23 0 30 0;
#X connect 23 0 31 0;
#X connect 24 0 26 0;
#X connect 26 0 25 0;
#X connect 27 0 23 0;
#X connect 28 0 26 0;
#X connect 29 0 26 0;
#X connect 30 0 26 0;
#X connect 31 0 26 0;
#X connect 32 0 26 0;
#X connect 33 0 40 0;
#X connect 33 0 41 0;
#X connect 33 0 36 0;
#X connect 33 0 37 0;
#X connect 33 0 38 0;
#X connect 33 0 39 0;
#X connect 33 0 42 0;
#X connect 33 0 43 0;
#X connect 34 0 25 0;
#X connect 35 0 33 0;
#X connect 36 0 34 0;
#X connect 37 0 34 0;
#X connect 38 0 34 0;
#X connect 39 0 34 0;
#X connect 40 0 34 0;
#X connect 41 0 34 0;
#X connect 42 0 34 0;
#X connect 43 0 34 0;
#X connect 46 0 26 0;
#X connect 47 0 26 0;
#X restore 257 514 pd AUDIO_INIT;
#X obj 29 500 s gAudioInit!;
#X obj 233 511 bng 10 250 50 0 empty empty empty 17 7 0 10 -262144
-1 -1;
#X obj 387 210 tgl 20 0 g_soundSpheres-tgl g_soundSpheres-tgl-set soundSpheres
25 10 1 10 -203904 -4160 -1 0 1;
#X obj 19 527 delay 20000;
#X obj 12 347 delay 10000;
#X obj 38 295 delay 5000;
#X obj 91 362 bng 10 250 50 0 empty empty empty 17 7 0 10 -262144 -1
-1;
#X obj 531 438 widget-nodeEditor \$0;
#X obj 660 210 s \$0-to-SPIN-TCP;
#X msg 637 385 test;
#X msg 701 376 domeGrid;
#X msg 505 345 posture05;
#N canvas 431 205 1245 796 menu 0;
#N canvas 141 217 900 647 MENU_FORMAT 0;
#X obj 44 27 vradio 15 1 0 4 empty empty empty 0 -8 0 10 -262144 -1
-1 0;
#X text 64 27 no background;
#X text 64 42 filled;
#X text 64 58 wireframe;
#X text 64 73 all;
#X obj 58 114 hsl 128 15 0 1 0 0 empty empty empty -2 -8 0 10 -262144
-1 -1 0 1;
#X obj 39 164 s \$0-to-SPIN-TCP;
#X msg 44 90 /menu_item* setBackground \$1;
#X msg 55 134 /menu_item* setMargin \$1;
#X obj 272 18 vradio 15 1 0 10 empty empty empty 0 -8 0 10 -262144
-1 -1 0;
#X text 292 18 Dropshadow (bottom right);
#X text 292 33 Dropshadow (center right);
#X text 292 49 Dropshadow (top right);
#X text 292 64 Dropshadow (bottom center);
#X text 292 78 Dropshadow (top center);
#X text 292 93 Dropshadow (bottom left);
#X text 292 108 Dropshadow (center left);
#X text 292 124 Dropshadow (top left);
#X text 292 139 outline;
#X text 292 155 none;
#X obj 272 203 s \$0-to-SPIN-TCP;
#X obj 317 310 hotpack7;
#X obj 36 279 nbx 4 14 0 1 0 0 empty empty Red 0 -8 1 11 -261234 -1
-1 0 256;
#X obj 86 279 nbx 4 14 0 1 0 0 empty empty Green 0 -8 1 11 -204786
-1 -1 0 256;
#X obj 136 279 nbx 4 14 0 1 0 0 empty empty Blue 0 -8 1 11 -204800
-1 -1 0 256;
#X obj 186 279 nbx 4 14 0 1 0 0 empty empty Alpha 0 -8 1 11 -262144
-1 -1 0 256;
#X obj 89 310 hotpack7;
#X obj 300 486 s \$0-to-SPIN-TCP;
#X msg 317 329 /menu_item* setBgColor \$1 \$2 \$3 \$4;
#X msg 89 330 /menu_item* setColor \$1 \$2 \$3 \$4;
#X msg 331 556 /menu_item* setSize 0.3;
#X obj 18 227 s \$0-to-SPIN-TCP;
#X msg 15 209 /menu_item* setBillboard 2;
#X obj 522 183 s \$0-to-SPIN-TCP;
#X obj 522 37 vradio 15 1 0 8 empty empty empty 0 -8 0 10 -262144 -1
-1 0;
#X msg 522 163 /menu setHighlighted \$1;
#X floatatom 249 220 5 0 0 0 - - -;
#X msg 509 457 /menu_item* setFont \$1;
#X msg 553 389 arial.ttf;
#X obj 509 438 symbol;
#X msg 273 181 /menu_item* setDecoration \$1;
#X msg 553 409 GillSans.ttf;
#X msg 553 369 times.ttf;
#X msg 553 349 Vera.ttf;
#X msg 553 329 VeraMono.ttf;
#X msg 553 309 dirtydoz.ttf;
#X msg 553 289 fudd.ttf;
#X msg 340 535 /menu_item* setSize 0.07;
#X msg 110 594 /menu debug;
#X msg 80 539 /menu setItemOffset 0 0 -0.12;
#X msg 668 530 0.7;
#X msg 556 585 /menu setScale \$1 \$1 \$1;
#X msg 698 530 1;
#X msg 76 516 /menu setItemOffset 0 0 -0.09;
#X msg 364 514 /menu_item* setSize 0.05;
#X msg 89 492 /menu setItemOffset 0 0 -0.07;
#X msg 729 530 5;
#X msg 548 532 0.35;
#X msg 518 532 0.3;
#X msg 80 559 /menu setItemOffset 0 0 -0.11;
#X msg 618 532 0.25;
#X msg 532 618 /menu setTranslation 0 0.15 -0.02;
#X msg 588 532 0.2;
#X obj 266 279 nbx 4 14 0 1 0 0 empty empty Red 0 -8 1 11 -261234 -1
-1 0 256;
#X obj 316 279 nbx 4 14 0 1 0 0 empty empty Green 0 -8 1 11 -204786
-1 -1 0 256;
#X obj 366 279 nbx 4 14 0 1 0 0 empty empty Blue 0 -8 1 11 -204800
-1 -1 0 256;
#X obj 416 279 nbx 4 14 0 1 0 0 empty empty Alpha 0 -8 1 11 -262144
-1 -1 0 256;
#X floatatom 58 406 5 0 0 0 - - -;
#X msg 65 460 /menu setItemOffset 0 0 \$1;
#X msg 334 444 /menu_item* setSize \$1;
#X floatatom 344 404 5 0 0 0 - - -;
#X connect 0 0 7 0;
#X connect 5 0 8 0;
#X connect 7 0 6 0;
#X connect 8 0 6 0;
#X connect 9 0 40 0;
#X connect 9 0 36 0;
#X connect 21 0 28 0;
#X connect 22 0 26 0;
#X connect 23 0 26 1;
#X connect 24 0 26 2;
#X connect 25 0 26 3;
#X connect 26 0 29 0;
#X connect 28 0 27 0;
#X connect 29 0 27 0;
#X connect 30 0 27 0;
#X connect 32 0 31 0;
#X connect 34 0 35 0;
#X connect 35 0 33 0;
#X connect 37 0 27 0;
#X connect 38 0 39 0;
#X connect 39 0 37 0;
#X connect 40 0 20 0;
#X connect 41 0 39 0;
#X connect 42 0 39 0;
#X connect 43 0 39 0;
#X connect 44 0 39 0;
#X connect 45 0 39 0;
#X connect 46 0 39 0;
#X connect 47 0 27 0;
#X connect 48 0 27 0;
#X connect 49 0 27 0;
#X connect 50 0 51 0;
#X connect 51 0 27 0;
#X connect 52 0 51 0;
#X connect 53 0 27 0;
#X connect 54 0 27 0;
#X connect 55 0 27 0;
#X connect 56 0 51 0;
#X connect 57 0 51 0;
#X connect 58 0 51 0;
#X connect 59 0 27 0;
#X connect 60 0 51 0;
#X connect 61 0 27 0;
#X connect 62 0 51 0;
#X connect 63 0 21 0;
#X connect 64 0 21 1;
#X connect 65 0 21 2;
#X connect 66 0 21 3;
#X connect 67 0 68 0;
#X connect 68 0 27 0;
#X connect 69 0 27 0;
#X connect 70 0 69 0;
#X restore 42 42 pd MENU_FORMAT;
#X obj 178 28 inlet;
#X obj 723 694 s \$0-to-SPIN-TCP;
#X obj 232 347 s \$0-to-SPIN-TCP;
#X obj 229 21 bng 15 250 50 0 empty empty empty 17 7 0 10 -262144 -1
-1;
#X obj 871 39 r \$0-from-SPIN;
#X obj 687 166 change;
#X text 808 11 activate menu only when pointing:;
#X msg 807 338 /menu setEnabled \$1;
#X obj 833 415 s \$0-to-SPIN-TCP;
#X obj 372 378 r \$0-from-SPIN;
#X obj 372 398 OSCparse /menu;
#X obj 881 608 s \$0-to-SPIN-TCP;
#X msg 753 552 /menu event \$1;
#X obj 364 451 + 1;
#X obj 939 200 change;
#X obj 807 295 &&;
#X obj 937 236 tgl 15 0 empty empty empty 17 7 0 10 -262144 -1 -1 0
1;
#X obj 372 418 route selected setHighlighted addItem setEnabled;
#X obj 887 498 == 0;
#X obj 932 496 r g_userID;
#X obj 887 516 pack 0 s;
#X msg 887 537 /\$2-target setEnabled \$2-target-cursor \$1;
#X text 895 559 disable cursor when menu visible;
#X obj 229 67 print CREATE_MENU;
#X obj 178 48 t b b b b;
#X obj 811 263 t b f;
#X msg 700 595 /menu debug;
#X msg 310 309 /menu addItem \$1;
#X obj 320 281 list2symbol;
#X msg 744 634 /menu highlightNext;
#X obj 994 136 route containedBy;
#X obj 994 117 OSCparse /posture??-reporter-hotspot;
#X obj 994 155 route mcluhan-st1;
#X obj 974 342 == 0;
#X obj 974 366 s g_reverbToggle-set;
#X obj 687 103 OSCparse /posture??-pointer;
#X obj 687 124 route setOrientation;
#X obj 807 316 change;
#X obj 218 109 symbol posture05;
#X obj 313 89 r g_userID;
#X msg 36 208 /menu_item* setSize 0.06;
#X obj 877 450 tgl 15 0 empty empty empty 17 7 0 10 -262144 -1 -1 0
1;
#X obj 408 592 symbol;
#X msg 408 612 open \$1;
#X obj 364 645 readsf~ 2;
#X obj 364 480 coll;
#C restore;
#X msg 185 419 read mcluhan_bits.coll;
#X obj 185 397 loadbang;
#X obj 282 607 vu1~;
#X obj 364 621 tgl 15 0 empty empty empty 17 7 0 10 -262144 -1 -1 0
1;
#X obj 364 565 t b s;
#X msg 364 589 1;
#X obj 234 649 vsl 20 128 -99 18 0 1 \$0-gain empty gain -7 -18 0 14
-260760 -1 -1 9661 1;
#X obj 374 705 stgain2~;
#X obj 359 775 dac~ 1 2 3 4 5 6 7 8;
#X obj 404 682 r \$0-gain;
#X obj 34 468 nbx 3 30 -1e+37 1e+37 0 0 empty empty empty 0 -8 0 20
-262144 -1 -1 0 256;
#X symbolatom 33 497 50 0 0 0 - - -;
#X msg 319 221 One Liners \, Compression \, Grievance \, Streakers
\, The Ball Game \, Swedish Humour \, Updating \, Jeans \, Nudity \,
On Being Ahead \, Primitivism \, Subliminal Effects \, Television \,
Touch \, Kinetics \, Literacy \, Replay \, Charisma;
#X msg 1054 313 /a.renderer/setOutputDB \$1;
#X obj 1041 254 sel 0 1;
#X msg 1034 281 0;
#X msg 1071 281 -30;
#X msg 34 234 /menu setItemOffset 0 0 -0.055;
#X msg 219 133 deleteNode menu \, createNode menu Menu3D \, createNode
menuOffset GroupNode \, /menuOffset setParent \$1 \, /menu setParent
menuOffset \, /menu setTranslation 0 -0.01 0.014 \, /menu setBillboard
2 \, /menu setScale 0.015 0.015 0.015 \, /menu setHighlightColor 1
1 0 1;
#X obj 687 145 expr if ((abs($f1)<90) && (180-abs($f3)<90) \, 1 \,
0);
#X msg 901 389 /askMarshall setAll \$1;
#N canvas 0 22 628 611 askMarshall 1;
#X obj 184 38 inlet;
#X msg 260 90 Ask Marshall;
#X obj 260 111 list2symbol;
#X obj 264 253 list2symbol;
#X msg 264 234 Excerpts from "McLuhan" (1975);
#X obj 193 405 list2symbol;
#X msg 193 386 a video by Richard Kerr;
#X obj 76 551 s \$0-to-SPIN-TCP;
#X msg 268 267 createNode askMarshall_excerpts TextNode \, /askMarshall_excerpts
setParent menu \, /askMarshall_excerpts setTranslation -0.6 0 -0.8
\, /askMarshall_excerpts setScale 0.3 0.3 0.3 \, /askMarshall_excerpts
setOrientation 0 0 180 \, /askMarshall_excerpts setTextValue \$1;
#X msg 197 419 createNode askMarshall_credits TextNode \, /askMarshall_credits
setParent menu \, /askMarshall_credits setTranslation -0.6 0 -0.83
\, /askMarshall_credits setScale 0.3 0.3 0.3 \, /askMarshall_credits
setOrientation 0 0 180 \, /askMarshall_credits setTextValue \$1;
#X msg 261 134 createNode askMarshall_titletext TextNode \, /askMarshall_titletext
setParent menu \, /askMarshall_titletext setTranslation 0.85 0 -0.6
\, /askMarshall_titletext setScale 1 1 1 \, /askMarshall_titletext
setOrientation 0 0 180 \, /askMarshall_titletext setTextValue \$1;
#X connect 0 0 1 0;
#X connect 0 0 4 0;
#X connect 0 0 6 0;
#X connect 1 0 2 0;
#X connect 2 0 10 0;
#X connect 3 0 8 0;
#X connect 4 0 3 0;
#X connect 5 0 9 0;
#X connect 6 0 5 0;
#X connect 8 0 7 0;
#X connect 9 0 7 0;
#X connect 10 0 7 0;
#X restore 459 64 pd askMarshall;
#X obj 732 318 tgl 15 0 empty empty empty 17 7 0 10 -262144 -1 -1 0
1;
#X msg 92 400 2;
#X msg 181 584 0;
#X msg 29 317 /menu setEnabled 0;
#X obj 28 292 delay 100;
#X obj 645 332 sel 0;
#X msg 492 619 0;
#X msg 114 575 -10;
#X obj 127 630 loadbang1 -10;
#X obj 466 477 getenv HOME;
#X obj 364 524 list prepend HOME;
#X obj 466 456 loadbang;
#X obj 364 545 list2symbol /;
#X obj 364 502 list prepend Documents/Metalab/mcluhan;
#X obj 1054 337 s \$0-toRenderer;
#X connect 1 0 25 0;
#X connect 4 0 25 0;
#X connect 5 0 32 0;
#X connect 5 0 36 0;
#X connect 6 0 16 0;
#X connect 8 0 9 0;
#X connect 10 0 11 0;
#X connect 11 0 18 0;
#X connect 13 0 12 0;
#X connect 14 0 46 0;
#X connect 14 0 57 0;
#X connect 15 0 17 0;
#X connect 15 0 26 0;
#X connect 15 0 34 0;
#X connect 15 0 61 0;
#X connect 15 0 67 0;
#X connect 15 0 74 0;
#X connect 16 0 38 0;
#X connect 18 0 14 0;
#X connect 19 0 21 0;
#X connect 20 0 21 1;
#X connect 21 0 22 0;
#X connect 22 0 12 0;
#X connect 25 0 41 0;
#X connect 25 0 64 0;
#X connect 25 0 73 0;
#X connect 25 1 59 0;
#X connect 25 2 39 0;
#X connect 25 2 68 0;
#X connect 25 3 24 0;
#X connect 26 0 16 0;
#X connect 26 1 16 1;
#X connect 27 0 2 0;
#X connect 28 0 3 0;
#X connect 29 0 28 0;
#X connect 30 0 2 0;
#X connect 31 0 33 0;
#X connect 32 0 31 0;
#X connect 33 0 15 0;
#X connect 34 0 35 0;
#X connect 36 0 37 0;
#X connect 37 0 66 0;
#X connect 38 0 8 0;
#X connect 39 0 65 0;
#X connect 40 0 39 1;
#X connect 41 0 3 0;
#X connect 42 0 19 0;
#X connect 43 0 44 0;
#X connect 44 0 45 0;
#X connect 45 0 54 0;
#X connect 45 1 54 1;
#X connect 46 0 58 0;
#X connect 46 0 82 0;
#X connect 47 0 46 0;
#X connect 48 0 47 0;
#X connect 50 0 45 0;
#X connect 51 0 52 0;
#X connect 51 1 43 0;
#X connect 52 0 50 0;
#X connect 54 0 55 0;
#X connect 54 0 55 2;
#X connect 54 0 55 4;
#X connect 54 0 55 6;
#X connect 54 0 49 0;
#X connect 54 1 55 1;
#X connect 54 1 55 3;
#X connect 54 1 55 5;
#X connect 54 1 55 7;
#X connect 56 0 54 2;
#X connect 59 0 29 0;
#X connect 60 0 83 0;
#X connect 61 0 62 0;
#X connect 61 1 63 0;
#X connect 62 0 60 0;
#X connect 63 0 60 0;
#X connect 64 0 3 0;
#X connect 65 0 3 0;
#X connect 66 0 6 0;
#X connect 67 0 9 0;
#X connect 69 0 8 0;
#X connect 70 0 46 0;
#X connect 71 0 53 0;
#X connect 72 0 3 0;
#X connect 73 0 72 0;
#X connect 74 0 75 0;
#X connect 75 0 45 0;
#X connect 76 0 53 0;
#X connect 77 0 53 0;
#X connect 78 0 79 1;
#X connect 79 0 81 0;
#X connect 80 0 78 0;
#X connect 81 0 51 0;
#X connect 82 0 79 0;
#X restore 19 638 pd menu;
#X msg 640 357 menu;
#X msg 459 309 askMarshall_bg;
#X msg 539 370 askMarshall;
#X text 581 37 DOME VERSION;
#X msg 310 414 /a.renderer/setOutputDB \$1;
#X msg 660 253 menuOffset;
#X obj 77 625 bng 10 250 50 0 empty empty empty 17 7 0 10 -262144 -1
-1;
#X msg 687 172 /mcluhan setScale 1 1 0.6666;
#X msg 576 287 askMarshall_titletext;
#X msg 592 317 askMarshall_excerpts;
#X obj 9 592 delay 18000;
#X msg 685 403 mcluhan-st2;
#X msg 666 143 debug spatosc;
#X msg 263 118 0;
#X obj 12 72 t b b b b;
#X obj 131 63 bng 15 250 50 0 empty empty empty 17 7 0 10 -262144 -1
-1;
#N canvas 161 166 520 806 LISTENER_tuning 0;
#X obj 26 237 cnv 15 450 450 empty empty underListener_tuning 20 12
0 14 -233017 -66577 0;
#X msg 56 425 \; listener-ext.exp \$1;
#X floatatom 56 400 5 0 0 0 - - -;
#X msg 55 377 2;
#X floatatom 57 515 5 0 0 1 _db - -;
#X text 33 265 listener-ext is a separate vmic for at -90 pitch;
#X msg 59 599 \; listener-ext.elev.exp-scaler 1;
#X text 55 630 not needed;
#X obj 59 494 hsl 128 15 -90 12 0 0 empty empty gain -2 -8 0 10 -262144
-1 -1 0 1;
#X msg 57 539 \; listener-ext.vmic-below.gain \$1;
#X obj 26 -79 cnv 15 450 300 empty empty dome-vmic_tuning 20 12 0 14
-233017 -66577 0;
#X floatatom 45 74 5 0 0 0 - - -;
#X obj 42 195 s \$0-toRenderer;
#X msg 44 105 /spatosc/core/listener/listener/prop exp \$1;
#X floatatom 119 4 5 0 0 0 - - -;
#X text 46 -61 good pair;
#X msg 118 30 /spatosc/core/listener/listener/prop elev.exp-scaler
\$1;
#X text 84 76 to set azimuth "spread";
#X text 158 -20 to adjust (scale) elevation "spread";
#X msg 45 48 12;
#X msg 119 -20 0.2;
#X text 34 286 (listener-ext is not a node-name so param messages will
not work messages are sent directly to renderer);
#X text 154 -3 (note: this is a function of azimuth spread);
#X msg 74 153 /spatosc/core/listener/listener/prop offset.yaw 45;
#X text 145 171 TEMPORARY FIX UNTIL ROTATE LISTENER IS FIXED;
#X text 193 497 attenuation of node when below listener;
#X text 82 378 sharpness of transition when node goes below listener
;
#X connect 2 0 1 0;
#X connect 3 0 2 0;
#X connect 4 0 9 0;
#X connect 8 0 4 0;
#X connect 11 0 13 0;
#X connect 13 0 12 0;
#X connect 14 0 16 0;
#X connect 16 0 12 0;
#X connect 19 0 11 0;
#X connect 20 0 14 0;
#X connect 23 0 12 0;
#X restore 227 641 pd LISTENER_tuning;
#N canvas 356 70 480 200 AUDIO-DEBUG-TOOLS 0;
#X obj 12 -40 cnv 15 450 150 empty empty debug 20 12 0 14 -233017 -66577
0;
#X msg 29 -16 vis 1;
#X obj 29 13 send listener.plugin.patch;
#X msg 227 -15 vis 1;
#X obj 228 8 send snd-listener.conn.plugin.patch;
#X obj 21 83 s \$0-to-SPIN;
#X msg 105 51 debug spatosc;
#X msg 105 82 debug;
#X msg 21 50 debug nodes;
#X text 192 51 debug message prints spatosc info to console;
#N canvas 171 22 860 879 UNUSED-TILL-FIXED 0;
#X msg 270 172 /listener setParam setSpread \$1;
#X floatatom 270 149 5 0 0 0 - - -;
#X floatatom 233 163 5 0 0 0 - - -;
#X msg 233 193 /listener setSpread \$1;
#X text 306 142 has no effect since spin does not pass it through to
spatOSC properly;
#X msg 56 107 /listener setOrientation 0 0 \$1;
#X floatatom 283 57 5 0 0 0 - - -;
#X obj 283 81 rad2deg;
#X obj 282 107 rad2deg;
#X floatatom 358 112 5 0 0 0 - - -;
#X obj 183 240 s \$0-to-SPIN;
#X msg 152 428 /snd setParam filename /Volumes/media/sound/wood.aiff
;
#X text 113 398 <optional> to change the sound file played by "looper"
plugin;
#X msg 310 346 /snd setParam setPlugin testtone~;
#X text 116 346 this one implemented;
#X msg 289 492 /snd setParam setPlugin buzz~;
#X obj 66 626 s \$0-toRenderer;
#X msg 66 606 /spatosc/core/listener/listener/prop offset.yaw 45;
#X text 60 577 set listenr yaw offset: sent locally to renderer (since
spin won't echo the message through via spatOSC);
#X text 168 629 sent locally to renderer (or could be sent to renderer
via UDP on port 18032);
#X msg 526 414 /snd1 setParam setPlugin looper1~;
#X obj 98 470 s \$0-to-SPIN-TCP;
#X connect 0 0 10 0;
#X connect 1 0 0 0;
#X connect 2 0 3 0;
#X connect 3 0 10 0;
#X connect 5 0 10 0;
#X connect 6 0 7 0;
#X connect 7 0 8 0;
#X connect 8 0 9 0;
#X connect 8 0 5 0;
#X connect 11 0 21 0;
#X connect 13 0 21 0;
#X connect 15 0 21 0;
#X connect 17 0 16 0;
#X connect 20 0 21 0;
#X restore 19 128 pd UNUSED-TILL-FIXED;
#X connect 1 0 2 0;
#X connect 3 0 4 0;
#X connect 6 0 5 0;
#X connect 7 0 5 0;
#X connect 8 0 5 0;
#X restore 226 620 pd AUDIO-DEBUG-TOOLS;
#X obj 147 538 r \$0-toRenderer;
#X connect 0 0 55 0;
#X connect 4 0 6 0;
#X connect 13 0 14 0;
#X connect 14 0 15 0;
#X connect 14 1 16 0;
#X connect 14 2 17 0;
#X connect 19 0 18 0;
#X connect 22 0 89 0;
#X connect 23 0 28 0;
#X connect 25 0 47 0;
#X connect 26 0 22 0;
#X connect 29 0 28 0;
#X connect 32 0 30 0;
#X connect 34 0 33 0;
#X connect 35 0 36 0;
#X connect 38 0 37 0;
#X connect 39 0 79 0;
#X connect 39 0 40 0;
#X connect 44 0 45 0;
#X connect 44 0 43 1;
#X connect 49 0 48 1;
#X connect 50 0 48 1;
#X connect 53 0 52 0;
#X connect 54 0 52 1;
#X connect 55 0 66 0;
#X connect 55 1 67 0;
#X connect 55 1 30 0;
#X connect 55 2 37 0;
#X connect 55 3 33 0;
#X connect 55 3 6 0;
#X connect 56 0 65 0;
#X connect 56 0 85 0;
#X connect 56 1 62 0;
#X connect 56 2 47 0;
#X connect 56 3 57 0;
#X connect 57 0 59 0;
#X connect 59 0 43 0;
#X connect 60 0 61 0;
#X connect 61 0 48 1;
#X connect 63 0 61 0;
#X connect 65 0 18 0;
#X connect 66 0 56 0;
#X connect 67 0 30 0;
#X connect 68 0 56 0;
#X connect 71 0 69 0;
#X connect 72 0 69 0;
#X connect 73 0 69 0;
#X connect 75 0 69 0;
#X connect 76 0 69 0;
#X connect 77 0 69 0;
#X connect 79 0 48 1;
#X connect 80 0 69 0;
#X connect 81 0 74 0;
#X connect 82 0 70 0;
#X connect 83 0 69 0;
#X connect 84 0 69 0;
#X connect 85 0 74 0;
#X connect 86 0 69 0;
#X connect 87 0 70 0;
#X connect 88 0 35 0;
#X connect 89 0 11 0;
#X connect 89 1 29 0;
#X connect 89 3 88 0;
#X connect 90 0 22 0;
#X connect 93 0 48 1;
