#N canvas 213 58 770 847 10;
#X obj 132 752 gain2~;
#X obj 2 1 cnv 15 500 30 empty empty DSP.plugin:(looper1~) 5 15 1 18
-228856 -16662 0;
#X obj 339 36 namecanvas \$2.plugin.patch;
#X obj 185 37 r \$2.nodeMsg;
#X obj 258 7 cnv 20 20 20 empty empty nodeID:(\$2) 5 10 0 12 -233017
-66577 0;
#X obj 267 439 symbol;
#X obj 132 779 send~ \$2.plugout~;
#X obj 13 37 receive~ \$2.plugin~;
#X msg 24 413 phase 0;
#X obj 24 394 r global_loopSync!;
#X obj 6 214 cnv 15 500 150 empty empty empty 20 12 0 14 -228856 -66577
0;
#X obj 18 269 vsl 14 64 -99 18 0 1 \$2.gain-put \$2.gain-set gain 24
22 1 12 -261704 -1 -1 5331 1;
#X floatatom 18 340 5 0 0 1 _db #2.gain-set -;
#X obj 339 56 param-declare \$1 \$2;
#X symbolatom 67 242 60 0 0 0 filename #2.filename-set #2.filename-put
;
#X obj 477 360 openpanel;
#X obj 10 219 bng 20 250 50 0 \$0-browse! empty Browse_Soundfiles 25
9 1 10 -262130 -1 -1;
#X obj 477 389 s \$2.filename-set;
#X obj 143 725 r \$2.gain;
#X obj 477 311 r \$0-browse!;
#X obj 339 78 param \$2 gain 0;
#X msg 88 515 speed \$1;
#X obj 88 467 mtof;
#X obj 88 490 expr $f1/2.61626;
#X floatatom 200 290 5 -48 48 0 transposition #2.transposition-set
#2.transposition-put;
#X obj 88 421 r \$2.transposition;
#X obj 339 99 param \$2 transposition 0;
#X obj 89 445 + 60;
#X obj 25 622 loop1~;
#X msg 477 340 symbol ~/;
#X obj 114 808 throw~ global-reverb~;
#X obj 339 121 param \$2 loopA test.aif;
#X obj 339 141 param \$2 loopB test.aif;
#X symbolatom 267 466 75 0 0 0 - - -;
#X obj 267 517 symbol;
#X symbolatom 267 546 75 0 0 0 - - -;
#X msg 254 318 phase 0;
#X obj 254 299 r global_loopSync!;
#X obj 97 622 loop1~;
#X obj 131 683 bal1~;
#X obj 437 805 hsl 128 15 -1 1 0 1 empty empty empty -2 -6 0 8 -1 -260353
-1 0 0;
#X text 417 804 A;
#X text 570 805 B;
#X text 485 822 A+B;
#X text 373 764 BALANCE:;
#X obj 435 773 clip -1 1;
#X obj 406 663 tgl 15 0 empty empty empty 17 7 0 10 -262144 -1 -1 1
1;
#X obj 405 576 r \$2.event;
#X obj 339 181 param \$2 event 0;
#X obj 405 642 sel 1;
#X obj 409 729 line;
#X obj 409 684 expr ($f1*2)-1;
#X msg 409 706 \$1 500;
#X obj 548 678 ping~;
#X obj 405 621 spigot;
#X obj 438 600 r \$2.enableEvents;
#X obj 339 201 param \$2 enableEvents 0;
#X obj 452 623 tgl 15 0 empty empty empty 17 7 0 10 -262144 -1 -1 1
1;
#X obj 688 668 sel 0;
#X msg 688 725 -1;
#X obj 436 751 r \$2.balance;
#X obj 548 700 *~ 0.05;
#X obj 518 744 dac~ 1 2 3 4 5 6 7 8;
#X obj 267 496 r \$2.loopB;
#X obj 267 420 r \$2.loopA;
#X obj 339 161 param \$2 balance 1;
#X obj 325 606 loadbang;
#X msg 325 626 set 1;
#X connect 0 0 6 0;
#X connect 0 0 30 0;
#X connect 5 0 28 1;
#X connect 5 0 33 0;
#X connect 8 0 28 0;
#X connect 8 0 38 0;
#X connect 9 0 8 0;
#X connect 15 0 17 0;
#X connect 18 0 0 1;
#X connect 19 0 29 0;
#X connect 21 0 28 0;
#X connect 21 0 38 0;
#X connect 22 0 23 0;
#X connect 23 0 21 0;
#X connect 25 0 27 0;
#X connect 27 0 22 0;
#X connect 28 0 39 0;
#X connect 29 0 15 0;
#X connect 34 0 35 0;
#X connect 34 0 38 1;
#X connect 37 0 36 0;
#X connect 38 0 39 1;
#X connect 39 0 0 0;
#X connect 40 0 39 2;
#X connect 45 0 40 0;
#X connect 46 0 51 0;
#X connect 47 0 54 0;
#X connect 49 0 46 0;
#X connect 49 0 53 0;
#X connect 50 0 45 0;
#X connect 51 0 52 0;
#X connect 52 0 50 0;
#X connect 53 0 61 0;
#X connect 54 0 49 0;
#X connect 55 0 54 1;
#X connect 55 0 57 0;
#X connect 57 0 58 0;
#X connect 58 0 59 0;
#X connect 59 0 40 0;
#X connect 60 0 45 0;
#X connect 61 0 62 0;
#X connect 61 0 62 1;
#X connect 61 0 62 2;
#X connect 61 0 62 3;
#X connect 61 0 62 4;
#X connect 61 0 62 5;
#X connect 61 0 62 6;
#X connect 61 0 62 7;
#X connect 63 0 34 0;
#X connect 64 0 5 0;
#X connect 66 0 67 0;
#X connect 67 0 46 0;
#X coords 0 0 1 1 400 400 0;
