#N canvas 184 70 744 583 10;
#X obj 12 119 bng 30 250 50 0 initBang! initBang init 4 15 1 14 -261234
-1 -1;
#X obj 567 102 bng 20 250 50 0 \$0-stop-moving empty STOP_MOVING 25
10 1 10 -261234 -1 -1;
#N canvas 213 213 766 580 UTILITIES 0;
#X msg 388 251 refreshSubscribers;
#X obj 388 270 s \$0-to-SPIN-TCP;
#X msg 383 204 optimize all;
#X obj 383 225 s \$0-to-SPIN-TCP;
#X obj 26 21 r \$0-stop-moving;
#X obj 117 189 s \$0-to-SPIN-TCP;
#X obj 70 243 r \$0-from-SPIN;
#X obj 70 263 OSCparse /posture??;
#X obj 70 283 route setTranslation setVelocity;
#X obj 68 319 anyreg posturePos;
#X msg 26 41 /posture?? setVelocity 0 0 0 \, /posture?? setSpin 0 0
0;
#X text 71 224 SAVE uesr position:;
#X msg 83 89 /posture?? debug;
#X obj 217 129 r \$0-debug-scene;
#X obj 213 76 r \$0-debug-context;
#X msg 213 97 debug context;
#X msg 217 150 debug nodes \, debug statesets;
#X text 219 340 need this or snap2panoscope won't work:;
#X obj 240 403 anyreg g_USER02 posture08 0 0.75 0;
#X text 249 430 centerX centerY centerZ sizeX sizeY sizeZ;
#X obj 239 382 anyreg g_USER01 posture05 0 0 1.5;
#X obj 237 362 anyreg g_SCENE_BOUND 0 0 0 1000 1000 1000;
#X obj 510 114 r g_soundSpheres-tgl;
#X msg 519 154 /mcluhan-st*-snd setDirectivityFlag \$1;
#X connect 0 0 1 0;
#X connect 2 0 3 0;
#X connect 4 0 10 0;
#X connect 6 0 7 0;
#X connect 7 0 8 0;
#X connect 10 0 5 0;
#X connect 12 0 5 0;
#X connect 13 0 16 0;
#X connect 14 0 15 0;
#X connect 15 0 5 0;
#X connect 16 0 5 0;
#X connect 22 0 23 0;
#X connect 23 0 5 0;
#X restore 244 102 pd UTILITIES;
#X obj 568 164 bng 15 250 50 0 \$0-go-home \$0-go-home-set home 20
9 1 10 -261682 -1 -1;
#X obj 117 188 bng 10 250 50 0 empty empty empty 17 7 0 10 -262144
-1 -1;
#X obj 400 172 tgl 15 0 g_snap_toggle g_snap_toggle-set snapToPanoscope
20 8 1 10 -261234 -1 -1 0 1;
#N canvas 400 109 843 563 fog 0;
#X obj 236 -65 inlet;
#X obj 285 412 s \$0-to-SPIN-TCP;
#X msg 322 31 createStateSet toronto-Fog Fog;
#X obj 199 227 hsl 128 15 0 0.1 0 0 empty empty empty -2 -8 0 10 -262144
-1 -1 508 1;
#X msg 221 340 /toronto-Fog setFogDensity \$1;
#X obj -161 257 line \$1 50;
#X obj -87 256 line \$1 50;
#X msg -86 237 \$1 3000;
#X msg -160 238 \$1 3000;
#X obj -53 318 pack 0 0 0;
#X obj -17 256 line \$1 50;
#X msg -16 237 \$1 3000;
#X msg -63 52 0.005 0.75 0.75 0.75;
#X msg -24 109 0 0 0 0.2;
#X obj 53 256 line \$1 50;
#X msg 54 237 \$1 3000;
#X obj -74 193 unpack 0 0 0 0;
#X msg -69 361 /toronto-Fog setFogColor \$1 \$2 \$3 0;
#X obj -21 -32 r gScene;
#X obj -31 -2 sel 0 1 2;
#X text 72 54 white;
#X text 26 80 black;
#X text 42 109 blue;
#X msg 416 81 deleteNode toronto-Fog;
#X obj 293 -28 print CREATE_FOG;
#X obj 236 -44 t b b b;
#X msg 191 205 0.004;
#X msg -13 137 0.005 0.1 0.6 0.75;
#X obj -15 454 hotpack3;
#X obj -22 418 nbx 5 14 -1e+37 1e+37 0 0 empty empty empty 0 -8 0 10
-261234 -1 -1 0 256;
#X obj 38 418 nbx 5 14 -1e+37 1e+37 0 0 empty empty empty 0 -8 0 10
-204786 -1 -1 0 256;
#X obj 98 418 nbx 5 14 -1e+37 1e+37 0 0 empty empty empty 0 -8 0 10
-203904 -1 -1 0 256;
#X msg 4 163 0.005 0.6 0.8 1;
#X text 109 138 aqua;
#X text 118 160 sky?;
#X msg -50 80 0.1 0 0 0;
#X msg 66 78 0.002 0 0 0.2;
#X connect 0 0 25 0;
#X connect 2 0 1 0;
#X connect 3 0 4 0;
#X connect 4 0 1 0;
#X connect 5 0 4 0;
#X connect 6 0 9 0;
#X connect 7 0 6 0;
#X connect 8 0 5 0;
#X connect 9 0 17 0;
#X connect 10 0 9 1;
#X connect 11 0 10 0;
#X connect 12 0 16 0;
#X connect 13 0 16 0;
#X connect 14 0 9 2;
#X connect 15 0 14 0;
#X connect 16 0 8 0;
#X connect 16 1 7 0;
#X connect 16 2 11 0;
#X connect 16 3 15 0;
#X connect 17 0 1 0;
#X connect 18 0 19 0;
#X connect 19 0 12 0;
#X connect 19 1 35 0;
#X connect 19 2 13 0;
#X connect 23 0 1 0;
#X connect 25 0 26 0;
#X connect 25 0 36 0;
#X connect 25 1 2 0;
#X connect 25 2 24 0;
#X connect 26 0 3 0;
#X connect 27 0 16 0;
#X connect 28 0 17 0;
#X connect 29 0 28 0;
#X connect 30 0 28 1;
#X connect 31 0 28 2;
#X connect 32 0 16 0;
#X connect 35 0 16 0;
#X connect 36 0 16 0;
#X restore 73 198 pd fog;
#X obj 400 136 tgl 15 0 g_noPointer g_noPointer-set noPointer 20 8
1 10 -261234 -1 -1 0 1;
#N canvas 451 169 462 664 GO-THERE 0;
#X obj 76 514 s \$0-to-SPIN;
#X obj 62 13 r \$0-go-home;
#X obj 84 265 t a;
#X obj 53 583 setPosWithOffsets posture08 0 1 posture06 0 -1;
#X obj 86 401 t a;
#X obj 64 456 setPosWithOffsets g_USER01;
#X obj 87 481 setPosWithOffsets g_USER02;
#X msg 62 33 0 0 0;
#X obj 162 64 r \$0-go-questionmark;
#X msg 168 114 0 -20 435;
#X connect 1 0 7 0;
#X connect 2 0 4 0;
#X connect 4 0 5 0;
#X connect 4 0 6 0;
#X connect 5 0 0 0;
#X connect 6 0 0 0;
#X connect 7 0 2 0;
#X connect 8 0 9 0;
#X connect 9 0 2 0;
#X restore 568 204 pd GO-THERE;
#X obj 569 126 bng 16 250 50 0 \$0-debug-scene empty DEBUG_scene 20
9 1 9 -261234 -1 -1;
#X obj 494 7 cnv 25 25 25 empty empty McLuhan 5 14 2 40 -262144 -162280
0;
#X obj 12 87 delay 2500;
#X obj 104 51 cnv 20 20 20 empty empty * 0 18 0 32 -262144 -258113
0;
#X obj 227 163 r g_currentPos;
#X obj 227 185 unpack 0 0 0;
#X floatatom 227 206 5 0 0 0 - - -;
#X floatatom 261 206 5 0 0 0 - - -;
#X floatatom 296 206 5 0 0 0 - - -;
#N canvas 0 22 450 300 force_refresh 0;
#X obj 118 37 inlet;
#X msg 71 204 refreshSubscribers;
#X obj 71 224 s \$0-to-SPIN-TCP;
#X obj 118 63 t b b b;
#X obj 216 80 print REFRESH_SUBSCRIBERS;
#X connect 0 0 3 0;
#X connect 1 0 2 0;
#X connect 3 0 1 0;
#X connect 3 2 4 0;
#X restore 12 528 pd force_refresh;
#X obj 117 518 bng 10 250 50 0 empty empty empty 17 7 0 10 -262144
-1 -1;
#X obj 569 144 bng 16 250 50 0 \$0-debug-context empty DEBUG_connection
20 9 1 9 -261234 -1 -1;
#X symbolatom 344 28 15 0 0 2 userID: g_userID -;
#N canvas 297 127 450 300 SPIN_stuff 0;
#X obj 157 27 inlet;
#X obj 24 55 change1;
#X obj 24 75 bng 15 250 50 0 empty empty empty 17 7 0 10 -262144 -1
-1;
#X obj 24 134 outlet;
#X obj 24 93 delay 1000;
#X connect 0 0 1 0;
#X connect 1 0 2 0;
#X connect 2 0 4 0;
#X connect 4 0 3 0;
#X restore 12 48 pd SPIN_stuff;
#X obj 197 90 bng 15 250 50 0 empty empty empty 17 7 0 10 -262144 -1
-1;
#X obj 12 66 t b b;
#X obj 400 154 tgl 15 0 g_inactivityToggle g_inactivityToggle-set inactivityTimer
20 8 1 10 -261234 -1 -1 1 1;
#X obj 112 439 bng 10 250 50 0 empty empty empty 17 7 0 10 -262144
-1 -1;
#X obj 12 3 widget-spinConnect \$0;
#N canvas 171 167 1094 680 actions 0;
#X obj -210 -301 inlet;
#X obj 23 -309 r \$0-from-SPIN;
#X obj 11 -258 route /posture05;
#X obj 11 -238 route collide;
#X obj -239 -210 bng 40 250 50 0 empty empty bang! 2 -10 0 10 -261234
-258113 -1;
#X msg 309 -8 /\$1-snd setParam event 1;
#X obj 239 170 s \$0-to-SPIN-TCP;
#X obj 11 -215 list;
#X obj 1 -127 sel mcluhan_3-0-open mcluhan_3-0-close;
#X msg -93 10 /book setEnabled mcluhan_3-0-close 0 \, /book setEnabled
mcluhan_3-0-open 1;
#X msg -91 -27 /book setEnabled mcluhan_3-0-close 1 \, /book setEnabled
mcluhan_3-0-open 0;
#X msg 11 -193 symbol \$1;
#X symbolatom 171 -241 20 0 0 2 lastCollision: - -;
#X obj -171 -155 p;
#X text 314 -30 switch sound loop & bip;
#X connect 1 0 2 0;
#X connect 2 0 3 0;
#X connect 3 0 4 0;
#X connect 3 0 7 0;
#X connect 3 0 13 0;
#X connect 5 0 6 0;
#X connect 7 0 11 0;
#X connect 8 0 10 0;
#X connect 8 1 9 0;
#X connect 8 2 5 0;
#X connect 9 0 6 0;
#X connect 10 0 6 0;
#X connect 11 0 12 0;
#X connect 11 0 8 0;
#X restore 100 339 pd actions;
#X obj 106 105 postureUser \$0;
#X msg 106 83 posture05;
#N canvas 0 111 991 818 mcluhan-stations 0;
#X obj 372 13 inlet;
#X obj 275 249 list;
#X msg 558 83 createNode mcluhan SwitchNode \, /mcluhan setTranslation
0 0 0 \, /mcluhan setOrientation 0 0 0;
#X obj 435 163 until;
#X obj 460 184 f;
#X obj 443 140 t f b;
#X obj 486 184 + 1;
#X obj 224 795 s \$0-to-SPIN-TCP;
#X obj 612 203 OSCsymbol;
#X obj 612 182 r g_userID;
#X obj 513 76 OSCprepend /\$2;
#X msg 531 161 setTarget mcluhan;
#X obj 565 252 s \$0-to-SPIN-TCP;
#X floatatom 475 206 5 0 0 0 - - -;
#X msg 581 122 createNode book SwitchNode \, /book setTranslation 0
0 0 \, /book setOrientation 0 0 0;
#X msg 343 384 /\$1-snd setParam setPlugin mcluhanLooper~;
#X obj 275 272 t a a a;
#X msg 264 101 2;
#X msg 330 415 /\$1-snd setParent \$1 \, /\$1-snd setParam loopA ~/content/projects-models/mcluhan-models/sound/\$1_A.wav
\, /\$1-snd setParam loopB ~/content/projects-models/mcluhan-models/sound/\$1_B.wav
;
#X msg 346 305 createNode \$1 ModelNode \, createNode \$1-snd SoundNode
\, createNode;
#X msg 294 101 3;
#X msg 324 101 4;
#X msg 354 101 5;
#X msg 384 101 6;
#X msg 204 101 0;
#X msg 234 101 1;
#X msg 370 344 createNode \$1-txt TextNode;
#X msg 362 537 /\$1-txt setParent \$1-snd \, /\$1-txt setTextValue
st\$1 \, /\$1-txt setBillboard 2 \, /\$1-txt setTranslation 0 0 0.5
\, /\$1-txt setColor 0 0 1 1 \, /\$1-txt setSize 1;
#X msg 309 226 mcluhan-st\$1 \$1 0 -2 -3.5 0;
#X msg 302 701 \$2;
#X obj 302 722 <= 8;
#X msg 302 764 /\$1-snd setParam enableEvents \$2;
#X obj 302 743 list prepend id;
#X obj 333 671 t a a;
#X msg 197 130 11;
#X msg 389 721 \$1;
#X msg 477 163 1;
#X msg 197 589 createNode \$1 ModelNode \, /\$1 setOrientation 90 0
\$6 \, /\$1 setTranslation \$3 \$4 \$5 \, /\$1 setAttachCentroid 1
\, /\$1 setModelFromFile ~/content/projects-models/mcluhan-models/models/low-res/\$1.ive
\, /\$1 setParent mcluhan \, /mcluhan setEnabled \$1 1;
#X msg 427 113 34;
#X msg 195 174 34;
#X msg 379 143 29;
#X obj 372 33 t b b b b;
#X obj 56 114 t b;
#X obj 65 503 s \$0-to-SPIN-TCP;
#X text 46 86 misc / extra;
#X msg 322 482 /\$1-snd setSpread 0 \, /\$1-snd setRadius 8 \, /\$1-snd
setParam spread 0 \, /\$1-snd setOrientation -90 0 0;
#X msg 56 265 /mcluhan-st2-snd setRadius 10;
#X msg 118 162;
#X msg 43 235 /mcluhan-st3-snd setRadius 13;
#X msg 66 295 /mcluhan-st4-snd setRadius 13;
#X connect 0 0 41 0;
#X connect 1 0 16 0;
#X connect 2 0 12 0;
#X connect 3 0 4 0;
#X connect 4 0 6 0;
#X connect 4 0 28 0;
#X connect 4 0 13 0;
#X connect 5 0 3 0;
#X connect 5 1 36 0;
#X connect 6 0 4 1;
#X connect 8 0 10 1;
#X connect 9 0 8 0;
#X connect 10 0 12 0;
#X connect 11 0 10 0;
#X connect 14 0 12 0;
#X connect 15 0 7 0;
#X connect 16 0 37 0;
#X connect 16 0 18 0;
#X connect 16 0 45 0;
#X connect 16 0 33 0;
#X connect 16 1 15 0;
#X connect 16 2 19 0;
#X connect 17 0 28 0;
#X connect 18 0 7 0;
#X connect 19 0 7 0;
#X connect 20 0 28 0;
#X connect 21 0 28 0;
#X connect 22 0 28 0;
#X connect 23 0 28 0;
#X connect 24 0 28 0;
#X connect 25 0 28 0;
#X connect 26 0 7 0;
#X connect 27 0 7 0;
#X connect 28 0 1 0;
#X connect 29 0 30 0;
#X connect 30 0 32 0;
#X connect 31 0 7 0;
#X connect 32 0 31 0;
#X connect 33 0 29 0;
#X connect 33 1 35 0;
#X connect 34 0 28 0;
#X connect 35 0 32 1;
#X connect 36 0 4 1;
#X connect 37 0 7 0;
#X connect 38 0 5 0;
#X connect 39 0 28 0;
#X connect 40 0 28 0;
#X connect 41 0 42 0;
#X connect 41 1 38 0;
#X connect 41 2 11 0;
#X connect 41 3 2 0;
#X connect 41 3 14 0;
#X connect 42 0 48 0;
#X connect 42 0 46 0;
#X connect 42 0 49 0;
#X connect 45 0 7 0;
#X connect 46 0 43 0;
#X connect 48 0 43 0;
#X connect 49 0 43 0;
#X restore 29 302 pd mcluhan-stations;
#X obj 400 118 tgl 15 0 g_collisions g_collisions-set collisions 20
8 1 10 -261234 -1 -1 1 1;
#X obj 161 292 bng 10 250 50 0 empty empty empty 17 7 0 10 -262144
-1 -1;
#N canvas 291 64 838 669 mcluhan-meta 0;
#X obj 147 27 inlet;
#X msg 320 112 createNode mcluhan SwitchNode \, /mcluhan setTranslation
0 0 0 \, /mcluhan setOrientation 0 0 0;
#X obj 134 291 OSCsymbol;
#X obj 134 270 r g_userID;
#X obj 53 311 OSCprepend /\$2;
#X msg 53 249 setTarget mcluhan;
#X obj 321 508 s \$0-to-SPIN-TCP;
#X msg 343 151 createNode book SwitchNode \, /book setTranslation 0
0 0 \, /book setOrientation 0 0 0;
#X obj 147 78 t b b b;
#X obj 95 38 bng 15 250 50 0 empty empty empty 17 7 0 10 -262144 -1
-1;
#X text 329 83 create switch nodes:;
#X text 88 223 target for collisions:;
#X connect 0 0 8 0;
#X connect 1 0 6 0;
#X connect 2 0 4 1;
#X connect 3 0 2 0;
#X connect 4 0 6 0;
#X connect 5 0 4 0;
#X connect 7 0 6 0;
#X connect 8 1 5 0;
#X connect 8 2 1 0;
#X connect 8 2 7 0;
#X connect 9 0 8 0;
#X restore 63 219 pd mcluhan-meta;
#X obj 162 209 bng 10 250 50 0 empty empty empty 17 7 0 10 -262144
-1 -1;
#X obj 444 314 tgl 30 0 g_pdDSP g_pdDSP-set DSP 1 13 1 10 -261234 -262130
-86277 1 1;
#X msg 444 347 \; pd dsp \$1 \;;
#N canvas 91 51 808 706 mcluhan-models 1;
#X obj 157 37 inlet;
#X obj 116 662 s \$0-to-SPIN-TCP;
#X obj 313 378 list;
#X obj 313 399 t a a;
#X msg 320 320 mcluhan_3-0-open 0 -2 -3.5 0;
#X msg 305 343 mcluhan_3-0-close 0 -2 -3.5 0;
#X obj 157 88 t b b b;
#X obj 105 48 bng 15 250 50 0 empty empty empty 17 7 0 10 -262144 -1
-1;
#X obj 48 401 list;
#X msg 47 299 mcluhan_3-1-1r 0 -2 -3.5 0;
#X msg 65 324 mcluhan_3-1-2r 0 -2 -3.5 0;
#X msg 88 348 mcluhan_3-2-1r 0 -2 -3.5 0;
#X msg 105 375 mcluhan_3-2-2r 0 -2 -3.5 0;
#X obj 48 423 t a a;
#X msg 107 583 /\$1 setParent book \, /book setEnabled \$1 1;
#X msg 31 532 /\$1 setParent mcluhan \, /mcluhan setEnabled \$1 1;
#X text 386 459 stuff to make a generica model node:;
#X text 133 567 parent is book:;
#X text 56 510 parent is mcluhan:;
#X msg 183 241 mcluhan-st33-2 0 -2 -3.5 0;
#X msg 208 212 mcluhan-st0 0 -2 -3.5 0;
#X msg 367 484 createNode \$1 ModelNode \, /\$1 setOrientation 90 0
\$5 \, /\$1 setTranslation \$2 \$3 \$4 \, /\$1 setAttachCentroid 1
\, /\$1 setModelFromFile ~/content/projects-models/mcluhan-models/models/low-res/\$1.ive
\, /\$1 setParent book \, /book setEnabled \$1 1;
#X connect 0 0 6 0;
#X connect 2 0 3 0;
#X connect 3 0 14 0;
#X connect 3 1 21 0;
#X connect 4 0 2 0;
#X connect 5 0 2 0;
#X connect 6 0 9 0;
#X connect 6 0 10 0;
#X connect 6 0 19 0;
#X connect 6 0 20 0;
#X connect 6 0 11 0;
#X connect 6 0 12 0;
#X connect 7 0 6 0;
#X connect 8 0 13 0;
#X connect 9 0 8 0;
#X connect 10 0 8 0;
#X connect 11 0 8 0;
#X connect 12 0 8 0;
#X connect 13 0 15 0;
#X connect 13 1 21 0;
#X connect 14 0 1 0;
#X connect 15 0 1 0;
#X connect 19 0 8 0;
#X connect 20 0 8 0;
#X connect 21 0 1 0;
#X restore 46 247 pd mcluhan-models;
#X obj 160 237 bng 10 250 50 0 empty empty empty 17 7 0 10 -262144
-1 -1;
#X obj 331 289 vsl 30 100 -99 18 0 0 empty g_masterGain-set MASTER
-17 -12 1 12 -257985 -1 -86277 8377 1;
#X msg 309 415 /fake /a.renderer /setOutputDB \$1;
#X floatatom 331 392 5 0 0 0 - - -;
#X text 322 295 -------0db;
#X obj 568 184 bng 15 250 50 0 \$0-go-questionmark \$0-go-questionmark-set
questionmark 20 9 1 10 -261682 -1 -1;
#N canvas 7 59 1034 885 ambient-audio 0;
#X obj 92 122 symbol;
#X msg 92 142 open \$1;
#X obj 65 165 readsf~ 2;
#X obj 65 62 t f b;
#X obj 68 43 tgl 15 0 empty \$0-ambientLoops-tgl-set empty 17 7 0 10
-262144 -1 -1 1 1;
#X obj 116 185 bng 15 250 50 0 empty empty empty 17 7 0 10 -262144
-1 -1;
#X obj 314 195 symbol;
#X msg 314 215 open \$1;
#X obj 287 238 readsf~ 2;
#X obj 287 139 t f b;
#X obj 287 121 tgl 15 0 empty \$0-ambientLoops-tgl-set empty 17 7 0
10 -262144 -1 -1 1 1;
#X obj 338 258 bng 15 250 50 0 empty empty empty 17 7 0 10 -262144
-1 -1;
#X msg 249 273 1;
#X msg 29 200 1;
#X obj 744 360 sqrt;
#X text 132 186 <- loop when done;
#X obj 744 274 r g_currentPos;
#X obj 744 295 unpack 0 0 0;
#X obj 744 339 expr ($f1*$f1) + ($f2*$f2);
#X obj 582 33 inlet;
#X obj 724 695 throw~ audio_outbus1;
#X obj 864 694 throw~ audio_outbus2;
#X obj 724 715 throw~ audio_outbus3;
#X obj 864 715 throw~ audio_outbus4;
#X obj 933 446 vsl 20 100 -99 18 0 1 empty empty Output -14 -10 0 12
-260818 -1 -1 8377 1;
#X floatatom 933 552 5 0 0 1 db - -;
#X obj 781 650 stgain2~;
#X msg 899 454 0;
#X text 925 452 -----0db;
#X obj 933 38 inlet;
#X msg 869 454 -99;
#X msg 92 83 ~/content/projects-models/mcluhan-models/sound/mcluhan-st200_1_And.wav
;
#X obj 844 299 s g_userElev;
#X text 108 65 Grows just below installation floor (-20) downwards
;
#X text 328 137 Grows above the letter Y (250);
#X obj 108 211 r g_userElev;
#X obj 165 272 vsl 15 25 0 1 0 0 empty empty empty 0 -9 0 10 -262144
-1 -1 0 1;
#X msg 108 273 \$1 30;
#X obj 108 253 clip 0 1;
#X obj 744 400 clip 0 1;
#X obj 108 293 line~;
#X obj 89 322 *~;
#X obj 64 322 *~;
#X obj 757 431 vsl 15 25 0 1 0 0 empty empty empty 0 -9 0 10 -262144
-1 -1 403 1;
#X obj 331 287 r g_userElev;
#X obj 388 348 vsl 15 25 0 1 0 0 empty empty empty 0 -9 0 10 -262144
-1 -1 0 1;
#X msg 331 349 \$1 30;
#X msg 744 530 \$1 30;
#X obj 331 329 clip 0 1;
#X obj 331 369 line~;
#X obj 312 398 *~;
#X obj 287 398 *~;
#X obj 730 587 *~;
#X obj 705 587 *~;
#X obj 744 550 line~;
#X msg 314 159 ~/content/projects-models/mcluhan-models/sound/mcluhan-st200_4_You.wav
;
#X obj 112 522 symbol;
#X msg 112 542 open \$1;
#X obj 85 565 readsf~ 2;
#X obj 85 466 t f b;
#X obj 85 448 tgl 15 0 empty \$0-ambientLoops-tgl-set empty 17 7 0
10 -262144 -1 -1 1 1;
#X obj 136 585 bng 15 250 50 0 empty empty empty 17 7 0 10 -262144
-1 -1;
#X msg 47 600 1;
#X msg 112 486 ~/content/projects-models/mcluhan-models/sound/mcluhan-st200_2_Who.wav
;
#X obj 126 611 r g_userElev;
#X obj 186 661 vsl 15 25 0 1 0 0 empty empty empty 0 -9 0 10 -262144
-1 -1 1162 1;
#X msg 126 662 \$1 30;
#X obj 126 682 line~;
#X obj 111 709 *~;
#X obj 86 709 *~;
#X obj 309 607 symbol;
#X msg 309 627 open \$1;
#X obj 282 650 readsf~ 2;
#X obj 282 551 t f b;
#X obj 282 533 tgl 15 0 empty \$0-ambientLoops-tgl-set empty 17 7 0
10 -262144 -1 -1 1 1;
#X obj 333 670 bng 15 250 50 0 empty empty empty 17 7 0 10 -262144
-1 -1;
#X msg 244 685 1;
#X obj 323 696 r g_userElev;
#X obj 383 746 vsl 15 25 0 1 0 0 empty empty empty 0 -9 0 10 -262144
-1 -1 0 1;
#X msg 323 747 \$1 30;
#X obj 323 767 line~;
#X obj 308 794 *~;
#X obj 283 794 *~;
#X obj 705 220 catch~ ambL~;
#X obj 729 240 catch~ ambR~;
#X msg 309 571 ~/content/projects-models/mcluhan-models/sound/mcluhan-st200_3_Are.wav
;
#X obj 88 347 throw~ ambR~;
#X obj 63 369 throw~ ambL~;
#X obj 311 421 throw~ ambR~;
#X obj 286 443 throw~ ambL~;
#X obj 111 738 throw~ ambR~;
#X obj 86 760 throw~ ambL~;
#X obj 307 818 throw~ ambR~;
#X obj 282 840 throw~ ambL~;
#X obj 582 55 tgl 25 0 empty empty empty 17 7 0 10 -262130 -1 -1 1
1;
#X obj 582 84 s \$0-ambientLoops-tgl-set;
#X obj 323 717 midpointRamp 120 300;
#X obj 108 232 zscale 20 -200 0 1;
#X obj 126 632 midpointRamp -20 175;
#X obj 331 308 zscale 225 400 0 1;
#X obj 744 380 zscale 0 150 0 1;
#X connect 0 0 1 0;
#X connect 1 0 2 0;
#X connect 2 0 42 0;
#X connect 2 1 41 0;
#X connect 2 2 5 0;
#X connect 3 0 2 0;
#X connect 3 1 31 0;
#X connect 4 0 3 0;
#X connect 5 0 13 0;
#X connect 6 0 7 0;
#X connect 7 0 8 0;
#X connect 8 0 51 0;
#X connect 8 1 50 0;
#X connect 8 2 11 0;
#X connect 9 0 8 0;
#X connect 9 1 55 0;
#X connect 10 0 9 0;
#X connect 11 0 12 0;
#X connect 12 0 10 0;
#X connect 13 0 4 0;
#X connect 14 0 100 0;
#X connect 16 0 17 0;
#X connect 17 0 18 0;
#X connect 17 1 18 1;
#X connect 17 2 32 0;
#X connect 18 0 14 0;
#X connect 19 0 94 0;
#X connect 24 0 25 0;
#X connect 24 0 26 2;
#X connect 26 0 20 0;
#X connect 26 0 22 0;
#X connect 26 1 21 0;
#X connect 26 1 23 0;
#X connect 27 0 24 0;
#X connect 29 0 24 0;
#X connect 30 0 24 0;
#X connect 31 0 0 0;
#X connect 35 0 97 0;
#X connect 37 0 40 0;
#X connect 38 0 37 0;
#X connect 38 0 36 0;
#X connect 39 0 47 0;
#X connect 39 0 43 0;
#X connect 40 0 42 1;
#X connect 40 0 41 1;
#X connect 41 0 86 0;
#X connect 42 0 87 0;
#X connect 44 0 99 0;
#X connect 46 0 49 0;
#X connect 47 0 54 0;
#X connect 48 0 46 0;
#X connect 48 0 45 0;
#X connect 49 0 51 1;
#X connect 49 0 50 1;
#X connect 50 0 88 0;
#X connect 51 0 89 0;
#X connect 52 0 26 1;
#X connect 53 0 26 0;
#X connect 54 0 52 1;
#X connect 54 0 53 1;
#X connect 55 0 6 0;
#X connect 56 0 57 0;
#X connect 57 0 58 0;
#X connect 58 0 69 0;
#X connect 58 1 68 0;
#X connect 58 2 61 0;
#X connect 59 0 58 0;
#X connect 59 1 63 0;
#X connect 60 0 59 0;
#X connect 61 0 62 0;
#X connect 62 0 60 0;
#X connect 63 0 56 0;
#X connect 64 0 98 0;
#X connect 66 0 67 0;
#X connect 67 0 68 1;
#X connect 67 0 69 1;
#X connect 68 0 90 0;
#X connect 69 0 91 0;
#X connect 70 0 71 0;
#X connect 71 0 72 0;
#X connect 72 0 82 0;
#X connect 72 1 81 0;
#X connect 72 2 75 0;
#X connect 73 0 72 0;
#X connect 73 1 85 0;
#X connect 74 0 73 0;
#X connect 75 0 76 0;
#X connect 76 0 74 0;
#X connect 77 0 96 0;
#X connect 79 0 80 0;
#X connect 80 0 81 1;
#X connect 80 0 82 1;
#X connect 81 0 92 0;
#X connect 82 0 93 0;
#X connect 83 0 53 0;
#X connect 84 0 52 0;
#X connect 85 0 70 0;
#X connect 94 0 95 0;
#X connect 96 0 78 0;
#X connect 96 0 79 0;
#X connect 97 0 38 0;
#X connect 98 0 65 0;
#X connect 98 0 66 0;
#X connect 99 0 48 0;
#X connect 100 0 39 0;
#X restore 63 417 pd ambient-audio;
#X obj 231 284 vsl 20 100 -99 18 0 1 empty empty AmbientLoops -30 -10
0 10 -257985 -1 -1 8377 1;
#X floatatom 231 390 5 0 0 1 db - -;
#X text 223 290 -----0db;
#N canvas 126 167 450 300 start 0;
#X obj 104 39 inlet;
#X obj 77 244 s g_snap_toggle-set;
#X msg 76 184 1;
#X msg 244 180 1;
#X obj 245 240 s g_inactivityToggle-set;
#X obj 29 135 s \$0-go-home;
#X obj 107 72 t b b b b b;
#X connect 0 0 6 0;
#X connect 2 0 1 0;
#X connect 3 0 4 0;
#X connect 6 0 5 0;
#X connect 6 4 3 0;
#X restore 46 449 pd start;
#X obj 343 495 spatOSC-basicRenderer;
#X obj 494 499 tgl 15 0 empty empty <-Debug 20 7 1 9 -262144 -1 -1
0 1;
#X obj 494 480 bng 15 250 50 0 empty empty <-ShowNodes 20 7 1 9 -262144
-1 -1;
#X obj 419 517 nbx 3 20 -1e+37 1e+37 0 0 empty g_numSoundNodes nodeCount:
-72 10 0 9 -262144 -1 -1 33 256;
#N canvas 176 238 949 633 reverb 0;
#X obj 387 376 vsl 15 128 -99 18 0 1 empty empty Output -14 -10 0 12
-260818 -1 -1 7707 1;
#X floatatom 387 514 5 0 0 1 db - -;
#X obj 159 105 vsl 15 128 -99 18 0 1 empty \$0-rev-1 empty 0 -8 0 8
-225271 -66577 -262144 10300 1;
#X floatatom 159 243 5 0 0 1 db - -;
#X obj 221 105 vsl 15 128 -99 18 0 1 empty \$0-rev-2 empty 0 -8 0 8
-225271 -1 -1 10000 1;
#X floatatom 221 243 5 0 0 1 db - -;
#X obj 283 106 vsl 15 128 -99 18 0 1 empty \$0-rev-3 empty 0 -8 0 8
-225271 -1 -1 10800 1;
#X floatatom 283 244 5 0 0 1 db - -;
#X obj 345 105 vsl 15 128 5 10000 0 1 empty \$0-rev-4 empty 0 -8 0
8 -225271 -1 -1 6800 1;
#X floatatom 345 243 5 0 0 1 hz - -;
#X obj 407 105 vsl 15 128 0.1 200 0 1 empty \$0-rev-5 empty 0 -8 0
8 -225271 -1 -1 10704 1;
#X obj 469 105 vsl 15 128 0 100 0 1 empty \$0-rev-6 empty 0 -8 0 8
-225271 -1 -1 11000 1;
#X obj 576 244 hsl 128 15 -1 1 0 1 empty \$0-rev-7 empty -2 -6 0 8
-162350 -261889 -1 12700 1;
#X text 453 51 rTime(%);
#X text 621 219 mix(-1:1);
#X text 384 79 roomSize(%);
#X text 320 49 L-pass(hz);
#X text 256 80 recycle(db);
#X text 196 51 2ndRfl(db);
#X text 131 81 1stRfl(db);
#X text 716 240 wet;
#X text 536 242 dry;
#N canvas 262 374 707 364 ---------------------------------------------------
0;
#X obj 53 50 inlet;
#X obj 550 254 outlet;
#X msg 550 212 put \$1 \$2;
#X msg 60 79 1 \$1;
#X obj 125 50 inlet;
#X obj 196 50 inlet;
#X obj 267 50 inlet;
#X obj 338 50 inlet;
#X obj 408 50 inlet;
#X msg 132 79 2 \$1;
#X msg 203 79 3 \$1;
#X msg 274 79 4 \$1;
#X msg 345 80 5 \$1;
#X msg 415 80 6 \$1;
#X obj 479 50 inlet;
#X msg 486 80 7 \$1;
#X obj 53 254 outlet;
#X obj 125 254 outlet;
#X obj 196 254 outlet;
#X obj 267 254 outlet;
#X obj 338 254 outlet;
#X obj 408 254 outlet;
#X obj 479 254 outlet;
#X connect 0 0 3 0;
#X connect 0 0 16 0;
#X connect 2 0 1 0;
#X connect 3 0 2 0;
#X connect 4 0 9 0;
#X connect 4 0 17 0;
#X connect 5 0 10 0;
#X connect 5 0 18 0;
#X connect 6 0 11 0;
#X connect 6 0 19 0;
#X connect 7 0 12 0;
#X connect 7 0 20 0;
#X connect 8 0 13 0;
#X connect 8 0 21 0;
#X connect 9 0 2 0;
#X connect 10 0 2 0;
#X connect 11 0 2 0;
#X connect 12 0 2 0;
#X connect 13 0 2 0;
#X connect 14 0 15 0;
#X connect 14 0 22 0;
#X connect 15 0 2 0;
#X restore 159 322 pd ---------------------------------------------------
;
#X floatatom 407 242 5 0 0 1 % - -;
#X floatatom 469 242 5 0 0 1 % - -;
#X obj 136 477 qgain2~;
#X text 572 23 inlet1-2 : audio signal;
#X text 572 34 inlet3 : first reflection_db;
#X text 572 45 inlet4 : second reflection_db;
#X text 572 56 inlet5 : feedback_db;
#X text 572 66 inlet6 : low-pass filter_hz;
#X text 572 77 inlet7 : room size_%;
#X text 572 88 inlet8 : reverb time_%;
#X text 572 98 inlet9 : wet/dry mix;
#X text 21 16 zrev1~ : reverb unit;
#X text 549 120 2 (+2) channel output.;
#X text 547 136 Outputs 3 and 4 are for additional complexity;
#X text 422 567 note: while zverb is not a true multi-channel reverb
\, it still does worthwhile things to stereo input \, and produces
4 unique outputs.;
#X obj 561 324 bng 15 250 50 0 empty empty clear_reverb 17 7 1 12 -262144
-1 -1;
#X obj 150 378 zrev1~;
#X obj 29 265 playsf~;
#X obj 49 114 inlet~;
#X obj 536 399 tgl 15 0 empty empty empty 17 7 0 10 -262144 -1 -1 1
1;
#X obj 503 429 sel 0 1;
#X msg 497 459 -99;
#X obj 579 364 inlet;
#X obj 592 190 loadbang1 1;
#X obj 81 531 throw~ audio_outbus1;
#X obj 91 550 throw~ audio_outbus2;
#X obj 101 571 throw~ audio_outbus3;
#X obj 111 591 throw~ audio_outbus4;
#X obj 695 402 sqrt;
#X obj 695 316 r g_currentPos;
#X obj 695 337 unpack 0 0 0;
#X obj 695 442 clip 0 1;
#X obj 708 473 vsl 15 25 0 1 0 0 empty empty empty 0 -9 0 10 -262144
-1 -1 2098 1;
#X obj 695 381 expr ($f1*$f1) + ($f2*$f2) + ($f3*$f3);
#X floatatom 840 447 5 0 0 0 - - -;
#X obj 697 421 zscale 0 200 1 0;
#X obj 114 437 *~;
#X obj 144 437 *~;
#X obj 174 437 *~;
#X obj 204 437 *~;
#X msg 853 330 0;
#X msg 527 459 -28;
#X connect 0 0 1 0;
#X connect 1 0 25 4;
#X connect 2 0 3 0;
#X connect 3 0 22 0;
#X connect 4 0 5 0;
#X connect 5 0 22 1;
#X connect 6 0 7 0;
#X connect 7 0 22 2;
#X connect 8 0 9 0;
#X connect 9 0 22 3;
#X connect 10 0 23 0;
#X connect 11 0 24 0;
#X connect 12 0 22 6;
#X connect 22 0 39 2;
#X connect 22 1 39 3;
#X connect 22 2 39 4;
#X connect 22 3 39 5;
#X connect 22 4 39 6;
#X connect 22 5 39 7;
#X connect 22 6 39 8;
#X connect 23 0 22 4;
#X connect 24 0 22 5;
#X connect 25 0 47 0;
#X connect 25 1 48 0;
#X connect 25 2 49 0;
#X connect 25 3 50 0;
#X connect 38 0 39 9;
#X connect 39 0 59 0;
#X connect 39 1 60 0;
#X connect 39 2 61 0;
#X connect 39 3 62 0;
#X connect 40 0 39 0;
#X connect 40 0 39 1;
#X connect 41 0 39 0;
#X connect 42 0 43 0;
#X connect 43 0 44 0;
#X connect 43 1 64 0;
#X connect 44 0 0 0;
#X connect 45 0 42 0;
#X connect 46 0 12 0;
#X connect 46 0 42 0;
#X connect 51 0 57 0;
#X connect 51 0 58 0;
#X connect 52 0 53 0;
#X connect 53 0 56 0;
#X connect 53 1 56 1;
#X connect 54 0 55 0;
#X connect 54 0 62 1;
#X connect 54 0 61 1;
#X connect 54 0 60 1;
#X connect 54 0 59 1;
#X connect 56 0 51 0;
#X connect 58 0 54 0;
#X connect 59 0 25 0;
#X connect 60 0 25 1;
#X connect 61 0 25 2;
#X connect 62 0 25 3;
#X connect 63 0 56 2;
#X connect 64 0 0 0;
#X restore 541 355 pd reverb;
#X obj 542 309 catch~ global-reverb~;
#X obj 590 332 tgl 20 0 empty empty reverb::on/off 25 10 1 10 -261234
-1 -1 0 1;
#X obj 12 153 t b b b b;
#X obj 12 352 t b b b b;
#X msg 63 372 1;
#N canvas 0 21 884 651 DEBUG 0;
#X obj 30 132 widget-nodeEditor \$0;
#X msg 490 295 debug spatosc;
#X obj 501 441 s \$0-to-SPIN-TCP;
#X msg 464 268 /posture05-listener debug;
#X msg 116 44 posture05;
#X obj 30 415 subwidget-motionControl \$0;
#X msg 30 393 posture05;
#X obj 30 373 loadbang;
#X obj 130 379 tgl 25 0 empty empty empty 17 7 0 10 -262144 -1 -1 0
1;
#X msg 615 295 debug scenegraph;
#X msg 607 318 debug context;
#X msg 490 232 deleteNode mcluhan-st32-snd;
#X msg 415 207 /book setEnabled mcluhan_3-0-open 0;
#X msg 177 92 mcluhan_3-1-1r;
#X msg 268 76 mcluhan-st33-1;
#N canvas 0 0 750 456 NORTH_EAST_SOUTH_WEST 0;
#X obj 151 58 inlet;
#X msg 151 156 North 0 5 1 \, East 5 0 1 \, South 0 -5 1 \, West -5
0 1;
#X obj 168 383 s \$0-to-SPIN-TCP;
#X obj 151 103 sel 1 0;
#X obj 249 73 tgl 15 0 empty empty empty 17 7 0 10 -262144 -1 -1 0
1;
#X msg 237 317 /zDebugText setAll 0;
#X obj 298 199 r g_userID;
#X obj 151 217 list append;
#X msg 151 238 createNode zDebugText SwitchNode \, /zDebugText setParent
\$5 \, createNode z\$1 TextNode \, /z\$1 setTextValue \$1 \, /z\$1
setParent zDebugText \, /z\$1 setTranslation \$2 \$3 \$4 \, /z\$1 setScale
1 1 1 \, /z\$1 setBillboard 2 \, /z\$1 setSize 2 \, /zDebugText setAll
1;
#X connect 0 0 3 0;
#X connect 1 0 7 0;
#X connect 3 0 1 0;
#X connect 3 1 5 0;
#X connect 4 0 3 0;
#X connect 5 0 2 0;
#X connect 6 0 7 1;
#X connect 7 0 8 0;
#X connect 8 0 2 0;
#X restore 162 383 pd NORTH_EAST_SOUTH_WEST;
#X msg 634 403 spatosc setDefaultDistanceFactor \$1 1;
#X msg 744 353 100;
#X msg 754 323 200;
#X msg 46 68 test;
#X msg 597 253 createNode test ShapeNode;
#X msg 474 134 /mcluhan-*-snd setRadius 8;
#X msg 477 96 /mcluhan-*-snd setRadius 8;
#X msg 196 44 mcluhan-st33-snd;
#X msg 205 20 mcluhan-st33-txt;
#X msg 784 343 150;
#X msg 787 373 0;
#X msg 750 376 80;
#X msg 386 54 posture05-target-cursor;
#X msg 386 74 posture05-target-instructions;
#X msg 611 42 /\$1-target-* setScale 0.05 0.05 0.05;
#X msg 693 75 /\$1-target-* setScale 0.01 0.01 0.01;
#X obj 659 111 s \$0-to-SPIN-TCP;
#X obj 282 612 s \$0-to-SPIN-TCP;
#X msg 290 489 createNode testSound SoundNode \, createNode spinner
GroupNode;
#X msg 378 115 testSound;
#X msg 295 516 /spinner setSpin 0 0 30 \, /testSound setTranslation
0 5 0 \, /testSound setPlugin testnoise~ /testSound setParent spinner
\, /testSound setSpread 0 \, /testSound setRadius 1 \, /testSound setParam
spread 1 \, /testSound setOrientation -90 0 0 \, /testSound setDirectivityFlag
1;
#X msg 396 27 posture05-listener;
#X msg 327 5 posture05;
#X msg 275 467 deleteNode spinner \, deleteNode testSound;
#X connect 1 0 2 0;
#X connect 3 0 2 0;
#X connect 4 0 0 0;
#X connect 6 0 5 0;
#X connect 7 0 6 0;
#X connect 8 0 15 0;
#X connect 9 0 2 0;
#X connect 10 0 2 0;
#X connect 11 0 2 0;
#X connect 12 0 2 0;
#X connect 13 0 0 0;
#X connect 14 0 0 0;
#X connect 16 0 2 0;
#X connect 17 0 16 0;
#X connect 18 0 16 0;
#X connect 19 0 0 0;
#X connect 20 0 2 0;
#X connect 21 0 2 0;
#X connect 23 0 0 0;
#X connect 24 0 0 0;
#X connect 26 0 16 0;
#X connect 27 0 16 0;
#X connect 28 0 0 0;
#X connect 29 0 0 0;
#X connect 30 0 32 0;
#X connect 31 0 32 0;
#X connect 34 0 33 0;
#X connect 35 0 0 0;
#X connect 36 0 33 0;
#X connect 37 0 0 0;
#X connect 38 0 0 0;
#X connect 39 0 33 0;
#X restore 249 75 pd DEBUG;
#X obj 63 393 tgl 20 0 empty empty ambientLoops::on/off 25 10 1 10
-261234 -1 -1 1 1;
#X obj 346 448 r gAudioInit!;
#N canvas 92 92 856 620 AUDIO_INIT 0;
#X obj 180 20 inlet;
#X obj 180 58 t b b b b;
#X obj 272 519 outlet;
#X text 324 520 <- to audio renderer;
#X obj 498 257 s \$0-to-SPIN-TCP;
#X msg 485 207 spatosc setDefaultDistanceFactor \$1 1;
#X msg 601 180 50;
#X msg 595 157 100;
#X msg 585 111 200;
#X text 241 18 <- this bang should be sent only when spinserver is
confirmed to be running \, and ideally after the listener is created
;
#X obj 191 312 s renderer.toggleDsp;
#X msg 185 266 bang;
#X obj 40 303 s g_masterGain-set;
#X obj 93 186 loadbang;
#X obj 42 259 line;
#X msg 90 208 -99 0;
#X msg 378 365 /fake /a.renderer /setOutputFormat quad;
#X obj 182 370 sendset g_pdDSP-set;
#X msg 182 349 1;
#X text 16 131 Goes to 0db over 2sec fade;
#X obj 29 156 cnv 20 20 20 empty empty * 0 18 0 32 -262144 -258113
0;
#X msg 595 134 150;
#X msg 58 157 0 2000;
#X connect 0 0 1 0;
#X connect 1 0 22 0;
#X connect 1 1 11 0;
#X connect 1 2 16 0;
#X connect 1 3 7 0;
#X connect 5 0 4 0;
#X connect 6 0 5 0;
#X connect 7 0 5 0;
#X connect 8 0 5 0;
#X connect 11 0 10 0;
#X connect 11 0 18 0;
#X connect 13 0 15 0;
#X connect 14 0 12 0;
#X connect 15 0 14 0;
#X connect 16 0 2 0;
#X connect 18 0 17 0;
#X connect 21 0 5 0;
#X connect 22 0 14 0;
#X restore 346 472 pd AUDIO_INIT;
#X obj 29 480 s gAudioInit!;
#X obj 438 462 bng 10 250 50 0 empty empty empty 17 7 0 10 -262144
-1 -1;
#X text 627 37 Oct 1st \, 2011;
#X obj 399 194 tgl 20 0 g_soundSpheres-tgl g_soundSpheres-tgl-set soundSpheres
25 10 1 10 -203904 -4160 -1 0 1;
#X obj 12 507 delay 20000;
#X obj 12 327 delay 10000;
#X obj 38 275 delay 5000;
#X connect 0 0 57 0;
#X connect 4 0 6 0;
#X connect 11 0 0 0;
#X connect 13 0 14 0;
#X connect 14 0 15 0;
#X connect 14 1 16 0;
#X connect 14 2 17 0;
#X connect 19 0 18 0;
#X connect 22 0 24 0;
#X connect 23 0 29 0;
#X connect 24 0 11 0;
#X connect 24 1 30 0;
#X connect 26 0 49 0;
#X connect 27 0 22 0;
#X connect 30 0 29 0;
#X connect 33 0 31 0;
#X connect 35 0 34 0;
#X connect 36 0 37 0;
#X connect 39 0 38 0;
#X connect 40 0 41 0;
#X connect 40 0 42 0;
#X connect 41 0 50 0;
#X connect 46 0 47 0;
#X connect 46 0 45 1;
#X connect 51 0 50 1;
#X connect 52 0 50 1;
#X connect 55 0 54 0;
#X connect 56 0 54 1;
#X connect 57 0 69 0;
#X connect 57 1 70 0;
#X connect 57 1 31 0;
#X connect 57 2 38 0;
#X connect 57 3 34 0;
#X connect 57 3 6 0;
#X connect 58 0 68 0;
#X connect 58 1 64 0;
#X connect 58 2 49 0;
#X connect 58 3 59 0;
#X connect 59 0 61 0;
#X connect 61 0 45 0;
#X connect 62 0 63 0;
#X connect 63 0 50 0;
#X connect 65 0 63 0;
#X connect 68 0 18 0;
#X connect 69 0 58 0;
#X connect 70 0 31 0;
