#N canvas 722 260 458 434 10;
#N canvas 113 284 886 631 reverb 0;
#X obj 387 376 vsl 15 128 -99 18 0 1 empty empty Output -14 -10 0 12
-260818 -1 -1 7490 1;
#X floatatom 387 514 5 0 0 1 db - -;
#X obj 159 105 vsl 15 128 -99 18 0 1 empty \$0-rev-1 empty 0 -8 0 8
-225271 -66577 -262144 10300 1;
#X floatatom 159 243 5 0 0 1 db - -;
#X obj 221 105 vsl 15 128 -99 18 0 1 empty \$0-rev-2 empty 0 -8 0 8
-225271 -1 -1 10000 1;
#X floatatom 221 243 5 0 0 1 db - -;
#X obj 283 106 vsl 15 128 -99 18 0 1 empty \$0-rev-3 empty 0 -8 0 8
-225271 -1 -1 10800 1;
#X floatatom 283 244 5 0 0 1 db - -;
#X obj 345 105 vsl 15 128 5 10000 0 1 empty \$0-rev-4 empty 0 -8 0
8 -225271 -1 -1 6800 1;
#X floatatom 345 243 5 0 0 1 hz - -;
#X obj 407 105 vsl 15 128 0.1 200 0 1 empty \$0-rev-5 empty 0 -8 0
8 -225271 -1 -1 10704 1;
#X obj 469 105 vsl 15 128 0 100 0 1 empty \$0-rev-6 empty 0 -8 0 8
-225271 -1 -1 11000 1;
#X obj 576 244 hsl 128 15 -1 1 0 1 empty \$0-rev-7 empty -2 -6 0 8
-162350 -261889 -1 12700 1;
#X text 453 51 rTime(%);
#X text 621 219 mix(-1:1);
#X text 384 79 roomSize(%);
#X text 320 49 L-pass(hz);
#X text 256 80 recycle(db);
#X text 196 51 2ndRfl(db);
#X text 131 81 1stRfl(db);
#X text 716 240 wet;
#X text 536 242 dry;
#N canvas 262 374 707 364 ---------------------------------------------------
0;
#X obj 53 50 inlet;
#X obj 550 254 outlet;
#X msg 550 212 put \$1 \$2;
#X msg 60 79 1 \$1;
#X obj 125 50 inlet;
#X obj 196 50 inlet;
#X obj 267 50 inlet;
#X obj 338 50 inlet;
#X obj 408 50 inlet;
#X msg 132 79 2 \$1;
#X msg 203 79 3 \$1;
#X msg 274 79 4 \$1;
#X msg 345 80 5 \$1;
#X msg 415 80 6 \$1;
#X obj 479 50 inlet;
#X msg 486 80 7 \$1;
#X obj 53 254 outlet;
#X obj 125 254 outlet;
#X obj 196 254 outlet;
#X obj 267 254 outlet;
#X obj 338 254 outlet;
#X obj 408 254 outlet;
#X obj 479 254 outlet;
#X connect 0 0 3 0;
#X connect 0 0 16 0;
#X connect 2 0 1 0;
#X connect 3 0 2 0;
#X connect 4 0 9 0;
#X connect 4 0 17 0;
#X connect 5 0 10 0;
#X connect 5 0 18 0;
#X connect 6 0 11 0;
#X connect 6 0 19 0;
#X connect 7 0 12 0;
#X connect 7 0 20 0;
#X connect 8 0 13 0;
#X connect 8 0 21 0;
#X connect 9 0 2 0;
#X connect 10 0 2 0;
#X connect 11 0 2 0;
#X connect 12 0 2 0;
#X connect 13 0 2 0;
#X connect 14 0 15 0;
#X connect 14 0 22 0;
#X connect 15 0 2 0;
#X restore 159 322 pd ---------------------------------------------------
;
#X floatatom 407 242 5 0 0 1 % - -;
#X floatatom 469 242 5 0 0 1 % - -;
#X obj 150 414 qgain2~;
#X text 572 23 inlet1-2 : audio signal;
#X text 572 34 inlet3 : first reflection_db;
#X text 572 45 inlet4 : second reflection_db;
#X text 572 56 inlet5 : feedback_db;
#X text 572 66 inlet6 : low-pass filter_hz;
#X text 572 77 inlet7 : room size_%;
#X text 572 88 inlet8 : reverb time_%;
#X text 572 98 inlet9 : wet/dry mix;
#X text 24 584 xjimmies lib. z. settel/jm dumas 2003-2007;
#X obj 152 456 dac~ 1 2 3 4;
#X text 21 16 zrev1~ : reverb unit;
#X text 549 120 2 (+2) channel output.;
#X text 547 136 Outputs 3 and 4 are for additional complexity;
#X text 28 536 note: while zverb is not a true multi-channel reverb
\, it still does worthwhile things to stereo input \, and produces
4 unique outputs.;
#X obj 561 324 bng 15 250 50 0 empty empty clear_reverb 17 7 1 12 -262144
-1 -1;
#X obj 150 378 zrev1~;
#X obj 29 265 playsf~;
#X obj 49 114 inlet~;
#X obj 536 399 tgl 15 0 empty empty empty 17 7 0 10 -262144 -1 -1 1
1;
#X obj 503 429 sel 0 1;
#X msg 497 459 -99;
#X obj 579 364 inlet;
#X obj 592 190 loadbang1 1;
#X msg 527 459 -30;
#X connect 0 0 1 0;
#X connect 1 0 25 4;
#X connect 2 0 3 0;
#X connect 3 0 22 0;
#X connect 4 0 5 0;
#X connect 5 0 22 1;
#X connect 6 0 7 0;
#X connect 7 0 22 2;
#X connect 8 0 9 0;
#X connect 9 0 22 3;
#X connect 10 0 23 0;
#X connect 11 0 24 0;
#X connect 12 0 22 6;
#X connect 22 0 41 2;
#X connect 22 1 41 3;
#X connect 22 2 41 4;
#X connect 22 3 41 5;
#X connect 22 4 41 6;
#X connect 22 5 41 7;
#X connect 22 6 41 8;
#X connect 23 0 22 4;
#X connect 24 0 22 5;
#X connect 25 0 35 0;
#X connect 25 1 35 1;
#X connect 25 2 35 2;
#X connect 25 3 35 3;
#X connect 40 0 41 9;
#X connect 41 0 25 0;
#X connect 41 1 25 1;
#X connect 41 2 25 2;
#X connect 41 3 25 3;
#X connect 42 0 41 0;
#X connect 42 0 41 1;
#X connect 43 0 41 0;
#X connect 44 0 45 0;
#X connect 45 0 46 0;
#X connect 45 1 49 0;
#X connect 46 0 0 0;
#X connect 47 0 44 0;
#X connect 48 0 12 0;
#X connect 48 0 44 0;
#X connect 49 0 0 0;
#X restore 263 229 pd reverb;
#X obj 125 164 catch~ global-reverb~;
#X obj 126 203 vu1~;
#X obj 58 59 spatOSC-basicRenderer;
#X connect 1 0 2 0;
#X connect 1 0 0 0;
