#N canvas 98 41 1028 788 10;
#X obj 12 109 bng 30 250 50 0 initBang! initBang init 4 15 1 14 -261234
-1 -1;
#X obj 414 128 bng 20 250 50 0 \$0-stop-moving empty STOP_MOVING 25
10 1 10 -261234 -1 -1;
#N canvas 568 459 712 366 UTILITIES 0;
#X msg 388 251 refreshSubscribers;
#X obj 388 270 s \$0-to-SPIN-TCP;
#X msg 383 204 optimize all;
#X obj 383 225 s \$0-to-SPIN-TCP;
#X obj 26 21 r \$0-stop-moving;
#X obj 117 189 s \$0-to-SPIN-TCP;
#X obj 70 243 r \$0-from-SPIN;
#X obj 70 263 OSCparse /posture??;
#X obj 70 283 route setTranslation setVelocity;
#X obj 68 319 anyreg posturePos;
#X msg 26 41 /posture?? setVelocity 0 0 0 \, /posture?? setSpin 0 0
0;
#X text 71 224 SAVE uesr position:;
#X msg 83 89 /posture?? debug;
#X obj 217 129 r \$0-debug-scene;
#X obj 213 76 r \$0-debug-context;
#X msg 213 97 debug context;
#X msg 217 150 debug nodes \, debug statesets;
#X connect 0 0 1 0;
#X connect 2 0 3 0;
#X connect 4 0 10 0;
#X connect 6 0 7 0;
#X connect 7 0 8 0;
#X connect 10 0 5 0;
#X connect 12 0 5 0;
#X connect 13 0 16 0;
#X connect 14 0 15 0;
#X connect 15 0 5 0;
#X connect 16 0 5 0;
#X restore 284 136 pd UTILITIES;
#X obj 52 596 bng 15 250 50 0 \$0-go-home \$0-go-home-set home 20 9
1 10 -261682 -1 -1;
#X obj 86 432 bng 10 250 50 0 empty empty empty 17 7 0 10 -262144 -1
-1;
#X obj 125 146 tgl 15 0 g_snap_toggle g_snap_toggle-set snapToPanoscope
20 8 1 10 -261234 -1 -1 0 1;
#N canvas 400 109 843 563 fog 0;
#X obj 236 -65 inlet;
#X obj 285 412 s \$0-to-SPIN-TCP;
#X msg 322 31 createStateSet toronto-Fog Fog;
#X obj 199 227 hsl 128 15 0 0.1 0 0 empty empty empty -2 -8 0 10 -262144
-1 -1 0 1;
#X msg 221 340 /toronto-Fog setFogDensity \$1;
#X obj -161 257 line \$1 50;
#X obj -87 256 line \$1 50;
#X msg -86 237 \$1 3000;
#X msg -160 238 \$1 3000;
#X obj -53 318 pack 0 0 0;
#X obj -17 256 line \$1 50;
#X msg -16 237 \$1 3000;
#X msg -63 52 0.005 0.75 0.75 0.75;
#X msg -24 109 0 0 0 0.2;
#X obj 53 256 line \$1 50;
#X msg 54 237 \$1 3000;
#X obj -74 193 unpack 0 0 0 0;
#X msg -69 361 /toronto-Fog setFogColor \$1 \$2 \$3 0;
#X obj -21 -32 r gScene;
#X obj -31 -2 sel 0 1 2;
#X text 72 54 white;
#X text 26 80 black;
#X text 42 109 blue;
#X msg 416 81 deleteNode toronto-Fog;
#X obj 293 -28 print CREATE_FOG;
#X obj 236 -44 t b b b;
#X msg 191 205 0.004;
#X msg -13 137 0.005 0.1 0.6 0.75;
#X obj -15 454 hotpack3;
#X obj -22 418 nbx 5 14 -1e+37 1e+37 0 0 empty empty empty 0 -8 0 10
-261234 -1 -1 0 256;
#X obj 38 418 nbx 5 14 -1e+37 1e+37 0 0 empty empty empty 0 -8 0 10
-204786 -1 -1 0 256;
#X obj 98 418 nbx 5 14 -1e+37 1e+37 0 0 empty empty empty 0 -8 0 10
-203904 -1 -1 0 256;
#X msg 4 163 0.005 0.6 0.8 1;
#X text 109 138 aqua;
#X text 118 160 sky?;
#X msg -50 80 0.1 0 0 0;
#X msg 66 78 0.002 0 0 0.2;
#X connect 0 0 25 0;
#X connect 2 0 1 0;
#X connect 3 0 4 0;
#X connect 4 0 1 0;
#X connect 5 0 4 0;
#X connect 6 0 9 0;
#X connect 7 0 6 0;
#X connect 8 0 5 0;
#X connect 9 0 17 0;
#X connect 10 0 9 1;
#X connect 11 0 10 0;
#X connect 12 0 16 0;
#X connect 13 0 16 0;
#X connect 14 0 9 2;
#X connect 15 0 14 0;
#X connect 16 0 8 0;
#X connect 16 1 7 0;
#X connect 16 2 11 0;
#X connect 16 3 15 0;
#X connect 17 0 1 0;
#X connect 18 0 19 0;
#X connect 19 0 12 0;
#X connect 19 1 35 0;
#X connect 19 2 13 0;
#X connect 23 0 1 0;
#X connect 25 0 26 0;
#X connect 25 0 36 0;
#X connect 25 1 2 0;
#X connect 25 2 24 0;
#X connect 26 0 3 0;
#X connect 27 0 16 0;
#X connect 28 0 17 0;
#X connect 29 0 28 0;
#X connect 30 0 28 1;
#X connect 31 0 28 2;
#X connect 32 0 16 0;
#X connect 35 0 16 0;
#X connect 36 0 16 0;
#X restore 42 442 pd fog;
#X obj 125 110 tgl 15 0 g_noPointer g_noPointer-set noPointer 20 8
1 10 -261234 -1 -1 0 1;
#N canvas 187 121 462 664 GO-THERE 0;
#X obj 76 514 s \$0-to-SPIN;
#X obj 62 13 r \$0-go-home;
#X obj 84 265 t a;
#X obj 53 583 setPosWithOffsets posture08 0 1 posture06 0 -1;
#X obj 86 401 t a;
#X obj 64 456 setPosWithOffsets g_USER01;
#X obj 87 481 setPosWithOffsets g_USER02;
#X msg 62 33 0 0 0;
#X obj 162 64 r \$0-go-questionmark;
#X msg 168 114 0 -20 435;
#X connect 1 0 7 0;
#X connect 2 0 4 0;
#X connect 4 0 5 0;
#X connect 4 0 6 0;
#X connect 5 0 0 0;
#X connect 6 0 0 0;
#X connect 7 0 2 0;
#X connect 8 0 9 0;
#X connect 9 0 2 0;
#X restore 51 576 pd GO-THERE;
#X obj 400 156 bng 16 250 50 0 \$0-debug-scene empty DEBUG_scene 20
9 1 9 -261234 -1 -1;
#X obj 12 143 t b b b b b b;
#X text 548 96 need this or snap2panoscope won't work:;
#X obj 698 15 tgl 15 0 empty empty empty 17 7 0 10 -262144 -1 -1 0
1;
#X obj 7 3 cnv 15 250 40 empty empty McLuhan 5 14 1 18 -228856 -86853
0;
#X obj 515 277 widget-nodeEditor \$0;
#X obj 12 83 delay 2500;
#X msg 135 196 refresh;
#X obj 352 51 cnv 20 20 20 empty empty * 0 18 0 32 -262144 -258113
0;
#X obj 135 216 s \$0-to-SPIN-TCP;
#X obj 699 57 tgl 15 0 empty empty empty 17 7 0 10 -262144 -1 -1 0
1;
#N canvas 0 22 321 224 gridTest-TCP 0;
#X msg 86 125 createNode grid GridNode;
#X msg 105 105 deleteNode grid;
#X obj 86 86 sel 1 0;
#X obj 105 150 s \$0-to-SPIN-TCP;
#X obj 86 42 inlet;
#X connect 0 0 3 0;
#X connect 1 0 3 0;
#X connect 2 0 0 0;
#X connect 2 1 1 0;
#X connect 4 0 2 0;
#X restore 698 34 pd gridTest-TCP;
#N canvas 0 22 322 215 gridTest-UDP 0;
#X msg 60 103 createNode grid GridNode;
#X msg 79 83 deleteNode grid;
#X obj 60 64 sel 1 0;
#X obj 79 128 s \$0-to-SPIN-TCP;
#X obj 60 27 inlet;
#X connect 0 0 3 0;
#X connect 1 0 3 0;
#X connect 2 0 0 0;
#X connect 2 1 1 0;
#X connect 4 0 2 0;
#X restore 699 76 pd gridTest-UDP;
#X obj 282 177 r g_currentPos;
#X obj 282 199 unpack 0 0 0;
#X floatatom 282 220 5 0 0 0 - - -;
#X floatatom 316 220 5 0 0 0 - - -;
#X floatatom 351 220 5 0 0 0 - - -;
#X obj 12 498 delay 30000;
#N canvas 0 22 450 300 force_refresh 0;
#X obj 118 37 inlet;
#X msg 71 204 refreshSubscribers;
#X obj 71 224 s \$0-to-SPIN-TCP;
#X obj 118 63 t b b b;
#X obj 216 80 print REFRESH_SUBSCRIBERS;
#X connect 0 0 3 0;
#X connect 1 0 2 0;
#X connect 3 0 1 0;
#X connect 3 2 4 0;
#X restore 12 518 pd force_refresh;
#X obj 117 508 bng 10 250 50 0 empty empty empty 17 7 0 10 -262144
-1 -1;
#X obj 400 174 bng 16 250 50 0 \$0-debug-context empty DEBUG_connection
20 9 1 9 -261234 -1 -1;
#X msg 548 202 posture08;
#X obj 569 159 anyreg g_USER02 posture08 0 0.75 0;
#X symbolatom 592 28 15 0 0 2 userID: g_userID -;
#N canvas 297 127 450 300 SPIN_stuff 0;
#X obj 157 27 inlet;
#X obj 24 55 change1;
#X obj 24 75 bng 15 250 50 0 empty empty empty 17 7 0 10 -262144 -1
-1;
#X obj 24 134 outlet;
#X obj 24 93 delay 1000;
#X connect 0 0 1 0;
#X connect 1 0 2 0;
#X connect 2 0 4 0;
#X connect 4 0 3 0;
#X restore 260 48 pd SPIN_stuff;
#X obj 378 94 bng 15 250 50 0 empty empty empty 17 7 0 10 -262144 -1
-1;
#X obj 260 66 t b b;
#X obj 125 128 tgl 15 0 g_inactivityToggle g_inactivityToggle-set inactivityTimer
20 8 1 10 -261234 -1 -1 0 1;
#N canvas 0 22 450 300 init 0;
#X obj 104 39 inlet;
#X obj 77 244 s g_snap_toggle-set;
#X msg 76 184 1;
#X msg 244 180 1;
#X obj 245 240 s g_inactivityToggle-set;
#X connect 0 0 2 0;
#X connect 0 0 3 0;
#X connect 2 0 1 0;
#X connect 3 0 4 0;
#X restore 27 476 pd init;
#X obj 83 466 bng 10 250 50 0 empty empty empty 17 7 0 10 -262144 -1
-1;
#X obj 260 3 widget-spinConnect \$0;
#X text 821 117 centerX centerY centerZ sizeX sizeY sizeZ;
#X obj 50 313 delay 5000;
#N canvas 171 167 1094 680 actions 0;
#X obj -210 -301 inlet;
#X obj 23 -309 r \$0-from-SPIN;
#X obj 11 -258 route /posture05;
#X obj 11 -238 route collide;
#X obj -239 -210 bng 40 250 50 0 empty empty bang! 2 -10 0 10 -261234
-258113 -1;
#X msg 309 -8 /\$1-snd setParam event 1;
#X obj 239 170 s \$0-to-SPIN-TCP;
#X obj 11 -215 list;
#X obj 1 -127 sel mcluhan_3-0-open mcluhan_3-0-close;
#X msg -93 10 /book setEnabled mcluhan_3-0-close 0 \, /book setEnabled
mcluhan_3-0-open 1;
#X msg -91 -27 /book setEnabled mcluhan_3-0-close 1 \, /book setEnabled
mcluhan_3-0-open 0;
#X msg 11 -193 symbol \$1;
#X symbolatom 171 -241 20 0 0 2 lastCollision: - -;
#X obj -171 -155 p;
#X text 314 -30 switch sound loop & bip;
#X connect 1 0 2 0;
#X connect 2 0 3 0;
#X connect 3 0 4 0;
#X connect 3 0 7 0;
#X connect 3 0 13 0;
#X connect 5 0 6 0;
#X connect 7 0 11 0;
#X connect 8 0 10 0;
#X connect 8 1 9 0;
#X connect 8 2 5 0;
#X connect 9 0 6 0;
#X connect 10 0 6 0;
#X connect 11 0 12 0;
#X connect 11 0 8 0;
#X restore 300 283 pd actions;
#X obj 665 534 bng 16 250 50 0 empty empty <-see-nodes 17 8 0 9 -261682
-1 -1;
#X obj 676 553 tgl 16 0 empty empty <-debugPrint 17 8 0 9 -262130 -1
-1 0 1;
#X obj 542 553 spatOSC-basicRenderer;
#X obj 287 109 postureUser \$0;
#X msg 312 83 posture05;
#X msg 209 517 debug spatosc;
#X obj 215 606 s \$0-to-SPIN-TCP;
#X msg 183 490 /posture05-listener debug;
#N canvas 129 24 991 818 mcluhan-stations 0;
#X obj 244 13 inlet;
#X obj 92 207 list;
#X msg 489 50 createNode mcluhan SwitchNode \, /mcluhan setTranslation
0 0 0 \, /mcluhan setOrientation 0 0 0;
#X obj 252 121 until;
#X obj 277 142 f;
#X obj 260 98 t f b;
#X obj 303 142 + 1;
#X obj 41 753 s \$0-to-SPIN-TCP;
#X obj 543 170 OSCsymbol;
#X obj 543 149 r g_userID;
#X obj 462 190 OSCprepend /\$2;
#X msg 462 128 setTarget mcluhan;
#X obj 244 33 t b b b;
#X obj 496 219 s \$0-to-SPIN-TCP;
#X floatatom 292 164 5 0 0 0 - - -;
#X msg 512 89 createNode book SwitchNode \, /book setTranslation 0
0 0 \, /book setOrientation 0 0 0;
#X msg 160 342 /\$1-snd setParam setPlugin mcluhanLooper~;
#X obj 92 230 t a a a;
#X msg 69 38 2;
#X msg 147 373 /\$1-snd setParent \$1 \, /\$1-snd setParam loopA ~/content/projects-models/mcluhan-models/sound/\$1_A.wav
\, /\$1-snd setParam loopB ~/content/projects-models/mcluhan-models/sound/\$1_B.wav
;
#X msg 163 263 createNode \$1 ModelNode \, createNode \$1-snd SoundNode
\, createNode;
#X msg 99 38 3;
#X msg 129 38 4;
#X msg 159 38 5;
#X msg 189 38 6;
#X msg 9 38 0;
#X msg 39 38 1;
#X msg 187 302 createNode \$1-txt TextNode;
#X msg 140 440 /\$1-snd setSpread 0 \, /\$1-snd setDirectivityFlag
1 \, /\$1-snd setLength 0.1 \, /\$1-snd setParam spread 0 \, /\$1-snd
setOrientation -90 0 0;
#X msg 139 491 /\$1-txt setParent \$1-snd \, /\$1-txt setTextValue
st\$1 \, /\$1-txt setBillboard 2 \, /\$1-txt setTranslation 0 0 0.5
\, /\$1-txt setColor 0 0 1 1 \, /\$1-txt setSize 1;
#X msg 126 184 mcluhan-st\$1 \$1 0 -2 -3.5 0;
#X msg 119 659 \$2;
#X obj 119 680 <= 8;
#X msg 119 722 /\$1-snd setParam enableEvents \$2;
#X obj 119 701 list prepend id;
#X obj 150 629 t a a;
#X msg 14 88 11;
#X msg 206 679 \$1;
#X msg 294 121 1;
#X msg 14 547 createNode \$1 ModelNode \, /\$1 setOrientation 90 0
\$6 \, /\$1 setTranslation \$3 \$4 \$5 \, /\$1 setAttachCentroid 1
\, /\$1 setModelFromFile ~/content/projects-models/mcluhan-models/models/low-res/\$1.ive
\, /\$1 setParent mcluhan \, /mcluhan setEnabled \$1 1;
#X msg 244 71 34;
#X msg 12 132 34;
#X connect 0 0 12 0;
#X connect 1 0 17 0;
#X connect 2 0 13 0;
#X connect 3 0 4 0;
#X connect 4 0 6 0;
#X connect 4 0 30 0;
#X connect 4 0 14 0;
#X connect 5 0 3 0;
#X connect 5 1 38 0;
#X connect 6 0 4 1;
#X connect 8 0 10 1;
#X connect 9 0 8 0;
#X connect 10 0 13 0;
#X connect 11 0 10 0;
#X connect 12 0 40 0;
#X connect 12 1 11 0;
#X connect 12 2 2 0;
#X connect 12 2 15 0;
#X connect 15 0 13 0;
#X connect 16 0 7 0;
#X connect 17 0 39 0;
#X connect 17 0 19 0;
#X connect 17 0 28 0;
#X connect 17 0 29 0;
#X connect 17 0 35 0;
#X connect 17 1 16 0;
#X connect 17 2 20 0;
#X connect 17 2 27 0;
#X connect 18 0 30 0;
#X connect 19 0 7 0;
#X connect 20 0 7 0;
#X connect 21 0 30 0;
#X connect 22 0 30 0;
#X connect 23 0 30 0;
#X connect 24 0 30 0;
#X connect 25 0 30 0;
#X connect 26 0 30 0;
#X connect 27 0 7 0;
#X connect 28 0 7 0;
#X connect 29 0 7 0;
#X connect 30 0 1 0;
#X connect 31 0 32 0;
#X connect 32 0 34 0;
#X connect 33 0 7 0;
#X connect 34 0 33 0;
#X connect 35 0 31 0;
#X connect 35 1 37 0;
#X connect 36 0 30 0;
#X connect 37 0 34 1;
#X connect 38 0 4 1;
#X connect 39 0 7 0;
#X connect 40 0 5 0;
#X connect 41 0 30 0;
#X restore 51 346 pd mcluhan-stations;
#X obj 125 92 tgl 15 0 g_collisions g_collisions-set collisions 20
8 1 10 -261234 -1 -1 1 1;
#X obj 183 336 bng 10 250 50 0 empty empty empty 17 7 0 10 -262144
-1 -1;
#X msg 548 224 posture05;
#X obj 671 633 subwidget-motionControl \$0;
#X msg 805 593 posture05;
#X obj 798 568 loadbang;
#N canvas 0 178 1204 657 OLD_mcluhan 0;
#X obj 92 -17 inlet;
#X obj 79 232 list;
#X obj 64 537 s \$0-to-SPIN-TCP;
#X msg 168 392 createNode \$1 ModelNode;
#X obj 79 254 t a a b;
#X obj 232 235 list;
#X msg 178 323 createNode mcluhan SwitchNode \, /mcluhan setTranslation
0 0 0 \, /mcluhan setOrientation 0 0 0;
#X obj 232 257 t a a b;
#X msg 251 284 createNode \$1 ModelNode \, createNode andwhoareyou
ShapeNode \, /\$1 setParent andwhoareyou \, /andwhoareyou setBillboard
2;
#X obj 815 116 list;
#X obj 815 138 t a b;
#X obj 411 115 list;
#X obj 411 137 t a b;
#X msg 815 203 createNode \$1 ModelNode \, /\$1 setOrientation 90 0
\$5 \, /\$1 setTranslation \$2 \$3 \$4 \, /\$1 setModelFromFile ~/content/projects-models/mcluhan-models/models/low-res/\$1
\, /\$1 setParent book \, /book setEnabled \$1 0;
#X msg 411 202 createNode \$1 ModelNode \, /\$1 setOrientation 90 0
\$5 \, /\$1 setTranslation \$2 \$3 \$4 \, /\$1 setModelFromFile ~/content/projects-models/mcluhan-models/models/low-res/\$1
\, /\$1 setParent book \, /book setEnabled \$1 1;
#X msg 438 163 createNode book SwitchNode \, /book setTranslation 0
0 0 \, /book setOrientation 0 0 0;
#X msg 842 164 createNode book SwitchNode \, /book setTranslation 0
0 0 \, /book setOrientation 0 0 0;
#X msg 411 93 mcluhan_3-0-close.ac 0 -2 -3.5 0;
#X msg 815 94 mcluhan_3-0-open.ac 0 -2 -3.5 0;
#X msg 549 494 refresh;
#X msg 37 26 mcluhan_3-1 0 -2 -3.5 0;
#X msg 60 53 mcluhan_3-1-1r 0 -2 -3.5 0;
#X msg 78 78 mcluhan_3-1-2r 0 -2 -3.5 0;
#X msg 96 101 mcluhan_3-2 0 -2 -3.5 0;
#X msg 119 128 mcluhan_3-2-1r 0 -2 -3.5 0;
#X msg 136 155 mcluhan_3-2-2r 0 -2 -3.5 0;
#X msg 232 204 mcluhan_3-3 0 -2 -3.5 0;
#X msg 79 426 createNode \$1 ModelNode \, /\$1 setOrientation 90 0
\$5 \, /\$1 setTranslation \$2 \$3 \$4 \, /\$1 setModelFromFile ~/content/projects-models/mcluhan-models/models/low-res/\$1.ive
\, /\$1 setParent mcluhan \, /mcluhan setEnabled \$1 1;
#X connect 0 0 20 0;
#X connect 0 0 23 0;
#X connect 0 0 26 0;
#X connect 0 0 18 0;
#X connect 0 0 17 0;
#X connect 0 0 21 0;
#X connect 0 0 24 0;
#X connect 0 0 22 0;
#X connect 0 0 25 0;
#X connect 1 0 4 0;
#X connect 3 0 2 0;
#X connect 4 0 27 0;
#X connect 4 1 3 0;
#X connect 4 2 6 0;
#X connect 5 0 7 0;
#X connect 6 0 2 0;
#X connect 7 0 27 0;
#X connect 7 1 8 0;
#X connect 8 0 2 0;
#X connect 9 0 10 0;
#X connect 10 0 13 0;
#X connect 10 1 16 0;
#X connect 11 0 12 0;
#X connect 12 0 14 0;
#X connect 12 1 15 0;
#X connect 13 0 2 0;
#X connect 14 0 2 0;
#X connect 15 0 2 0;
#X connect 16 0 2 0;
#X connect 17 0 11 0;
#X connect 18 0 9 0;
#X connect 19 0 2 0;
#X connect 20 0 1 0;
#X connect 21 0 1 0;
#X connect 22 0 1 0;
#X connect 23 0 1 0;
#X connect 24 0 1 0;
#X connect 25 0 1 0;
#X connect 26 0 5 0;
#X connect 27 0 2 0;
#X restore 119 393 pd OLD_mcluhan;
#X obj 568 138 anyreg g_USER01 posture05 0 0 1.5;
#N canvas 291 64 838 669 mcluhan-meta 0;
#X obj 147 27 inlet;
#X msg 320 112 createNode mcluhan SwitchNode \, /mcluhan setTranslation
0 0 0 \, /mcluhan setOrientation 0 0 0;
#X obj 134 291 OSCsymbol;
#X obj 134 270 r g_userID;
#X obj 53 311 OSCprepend /\$2;
#X msg 53 249 setTarget mcluhan;
#X obj 321 508 s \$0-to-SPIN-TCP;
#X msg 343 151 createNode book SwitchNode \, /book setTranslation 0
0 0 \, /book setOrientation 0 0 0;
#X obj 147 78 t b b b;
#X obj 95 38 bng 15 250 50 0 empty empty empty 17 7 0 10 -262144 -1
-1;
#X text 329 83 create switch nodes:;
#X text 88 223 target for collisions:;
#X connect 0 0 8 0;
#X connect 1 0 6 0;
#X connect 2 0 4 1;
#X connect 3 0 2 0;
#X connect 4 0 6 0;
#X connect 5 0 4 0;
#X connect 7 0 6 0;
#X connect 8 1 5 0;
#X connect 8 2 1 0;
#X connect 8 2 7 0;
#X connect 9 0 8 0;
#X restore 114 260 pd mcluhan-meta;
#X obj 213 250 bng 10 250 50 0 empty empty empty 17 7 0 10 -262144
-1 -1;
#X obj 395 602 tgl 30 0 g_pdDSP g_pdDSP-set DSP 1 13 1 10 -261234 -262130
-86277 0 1;
#X msg 395 635 \; pd dsp \$1 \;;
#X obj 865 305 tgl 25 0 empty empty empty 17 7 0 10 -262144 -1 -1 0
1;
#X msg 334 517 debug scenegraph;
#X msg 326 540 debug context;
#N canvas 91 51 808 706 mcluhan-models 0;
#X obj 157 37 inlet;
#X obj 116 662 s \$0-to-SPIN-TCP;
#X obj 313 378 list;
#X obj 313 399 t a a;
#X msg 320 320 mcluhan_3-0-open 0 -2 -3.5 0;
#X msg 305 343 mcluhan_3-0-close 0 -2 -3.5 0;
#X obj 157 88 t b b b;
#X obj 105 48 bng 15 250 50 0 empty empty empty 17 7 0 10 -262144 -1
-1;
#X obj 48 401 list;
#X msg 47 299 mcluhan_3-1-1r 0 -2 -3.5 0;
#X msg 65 324 mcluhan_3-1-2r 0 -2 -3.5 0;
#X msg 88 348 mcluhan_3-2-1r 0 -2 -3.5 0;
#X msg 105 375 mcluhan_3-2-2r 0 -2 -3.5 0;
#X obj 48 423 t a a;
#X msg 107 583 /\$1 setParent book \, /book setEnabled \$1 1;
#X msg 31 532 /\$1 setParent mcluhan \, /mcluhan setEnabled \$1 1;
#X text 386 459 stuff to make a generica model node:;
#X text 133 567 parent is book:;
#X text 56 510 parent is mcluhan:;
#X msg 183 241 mcluhan-st33-2 0 -2 -3.5 0;
#X msg 208 212 mcluhan-st0 0 -2 -3.5 0;
#X msg 367 484 createNode \$1 ModelNode \, /\$1 setOrientation 90 0
\$5 \, /\$1 setTranslation \$2 \$3 \$4 \, /\$1 setAttachCentroid 1
\, /\$1 setModelFromFile ~/content/projects-models/mcluhan-models/models/low-res/\$1.ive
\, /\$1 setParent book \, /book setEnabled \$1 1;
#X connect 0 0 6 0;
#X connect 2 0 3 0;
#X connect 3 0 14 0;
#X connect 3 1 21 0;
#X connect 4 0 2 0;
#X connect 5 0 2 0;
#X connect 6 0 9 0;
#X connect 6 0 10 0;
#X connect 6 0 19 0;
#X connect 6 0 20 0;
#X connect 7 0 6 0;
#X connect 8 0 13 0;
#X connect 9 0 8 0;
#X connect 10 0 8 0;
#X connect 11 0 8 0;
#X connect 12 0 8 0;
#X connect 13 0 15 0;
#X connect 13 1 21 0;
#X connect 14 0 1 0;
#X connect 15 0 1 0;
#X connect 19 0 8 0;
#X connect 20 0 8 0;
#X connect 21 0 1 0;
#X restore 51 279 pd mcluhan-models;
#X obj 213 297 bng 10 250 50 0 empty empty empty 17 7 0 10 -262144
-1 -1;
#X msg 209 454 deleteNode mcluhan-st32-snd;
#X obj 185 769 tgl 15 0 empty empty empty 17 7 0 10 -262144 -1 -1 0
13525;
#X msg 221 672 connect 10.10.30.9 18032;
#X msg 124 675 disconnect;
#X obj 185 746 OSCtx tcp;
#X msg 243 694 /fake /a.renderer /setOutputFormat quad;
#X obj 544 614 vsl 30 100 -99 18 0 0 empty empty GAIN 0 -9 1 9 -257985
-1 -1 0 1;
#X msg 298 719 /fake /a.renderer /setOutputDB \$1;
#X floatatom 544 717 5 0 0 0 - - -;
#X text 535 620 -------0db;
#X msg 292 751 /fake /a.renderer /setDSP \$1;
#X msg 134 429 /book setEnabled mcluhan_3-0-open 0;
#X msg 267 379 /deleteNode mcluhan_3-0-close;
#X msg 293 344 /deleteNode mcluhan-st1;
#X msg 702 216 mcluhan_3-1-1r;
#X obj 566 118 anyreg g_SCENE_BOUND 0 0 0 1000 1000 1000;
#X msg 712 188 mcluhan-st33;
#X msg 421 189 mcluhan-st33-snd;
#X obj 52 616 bng 15 250 50 0 \$0-go-questionmark \$0-go-questionmark-set
questionmark 20 9 1 10 -261682 -1 -1;
#X msg 788 175 mcluhan-st33-1;
#N canvas 0 102 845 752 extra-sounds 0;
#X obj 31 54 list;
#X obj 54 338 s \$0-to-SPIN-TCP;
#X obj 31 77 t a a a;
#X msg 93 108 createNode \$1 SoundNode \, createNode \$1-txt TextNode
;
#X msg 108 145 /\$1 setParam setPlugin looper1~;
#X msg 114 178 /\$1 setParam filename ~/content/projects-models/mcluhan-models/sound/\$1.wav
;
#X msg 44 19 mcluhan-st200_1_And 0 0 -50 \, mcluhan-st200_2_Who 0 0
50 \, mcluhan-st200_3_Are 0 0 200 \, mcluhan-st200_4_You 0 0 400;
#X msg 126 281 /\$1-txt setParent \$1 \, /\$1-txt setTextValue \$1
\, /\$1-txt setBillboard 2 \, /\$1-txt setTranslation 0 0 0.5 \, /\$1-txt
setColor 1 1 0 1 \, /\$1-txt setSize 1;
#X msg 118 228 /\$1 setTranslation \$2 \$3 \$4 \, /\$1 setSpread 0
\, /\$1 setDirectivityFlag 1 \, /\$1 setLength 0.1 \, /\$1-snd setParam
spread 0;
#X connect 0 0 2 0;
#X connect 2 0 5 0;
#X connect 2 0 8 0;
#X connect 2 0 7 0;
#X connect 2 1 4 0;
#X connect 2 2 3 0;
#X connect 3 0 1 0;
#X connect 4 0 1 0;
#X connect 5 0 1 0;
#X connect 6 0 0 0;
#X connect 7 0 1 0;
#X connect 8 0 1 0;
#X restore 69 375 pd extra-sounds;
#X msg 818 193 mcluhan-st200_1_And;
#N canvas 0 0 750 456 NORTH_EAST_SOUTH_WEST 0;
#X obj 151 58 inlet;
#X msg 151 156 North 0 5 1 \, East 5 0 1 \, South 0 -5 1 \, West -5
0 1;
#X obj 168 383 s \$0-to-SPIN-TCP;
#X obj 151 103 sel 1 0;
#X obj 249 73 tgl 15 0 empty empty empty 17 7 0 10 -262144 -1 -1 0
1;
#X msg 237 317 /zDebugText setAll 0;
#X obj 298 199 r g_userID;
#X obj 151 217 list append;
#X msg 151 238 createNode zDebugText SwitchNode \, /zDebugText setParent
\$5 \, createNode z\$1 TextNode \, /z\$1 setTextValue \$1 \, /z\$1
setParent zDebugText \, /z\$1 setTranslation \$2 \$3 \$4 \, /z\$1 setScale
1 1 1 \, /z\$1 setBillboard 2 \, /z\$1 setSize 2 \, /zDebugText setAll
1;
#X connect 0 0 3 0;
#X connect 1 0 7 0;
#X connect 3 0 1 0;
#X connect 3 1 5 0;
#X connect 4 0 3 0;
#X connect 5 0 2 0;
#X connect 6 0 7 1;
#X connect 7 0 8 0;
#X connect 8 0 2 0;
#X restore 876 334 pd NORTH_EAST_SOUTH_WEST;
#X msg 827 213 mcluhan-st200_2_Who;
#X msg 838 233 mcluhan-st200_3_Are;
#X msg 848 254 mcluhan-st200_4_You;
#N canvas 0 0 1123 742 ambient-audio 0;
#X obj 115 171 symbol;
#X msg 115 191 open \$1;
#X obj 88 214 readsf~ 2;
#X obj 88 131 t f b;
#X msg 115 151 /home/posture/content/nta_videos/toronto/BMO-outsideHigh.aif
;
#X obj 88 112 tgl 15 0 empty empty empty 17 7 0 10 -262144 -1 -1 0
1;
#X obj 139 234 bng 15 250 50 0 empty empty empty 17 7 0 10 -262144
-1 -1;
#X obj 611 169 symbol;
#X msg 611 189 open \$1;
#X obj 584 212 readsf~ 2;
#X obj 584 129 t f b;
#X obj 584 111 tgl 15 0 empty empty empty 17 7 0 10 -262144 -1 -1 0
1;
#X obj 635 232 bng 15 250 50 0 empty empty empty 17 7 0 10 -262144
-1 -1;
#X msg 611 149 /home/posture/content/nta_videos/toronto/BMO-outsideLow.aif
;
#X obj 625 296 vsl 15 75 0 1 0 0 empty empty empty 0 -9 0 10 -262144
-1 -1 0 1;
#X obj 129 324 vsl 15 75 0 1 0 0 empty empty empty 0 -9 0 10 -262144
-1 -1 0 1;
#X obj 214 637 *~ 1;
#X obj 244 637 *~ 1;
#X obj 424 674 *~ 1;
#X obj 454 674 *~ 1;
#X obj 410 477 vsl 15 75 0 1 0 0 empty empty empty 0 -9 0 10 -262144
-1 -1 0 1;
#X obj 584 400 *~;
#X obj 610 400 *~;
#X msg 535 233 1;
#X msg 52 251 1;
#X obj 399 447 zscale 0 500 0 0.75;
#X obj 302 343 sqrt;
#X text 155 235 <- loop when done;
#X text 303 83 toronto;
#X obj 89 421 *~;
#X obj 114 421 *~;
#X obj 467 292 - 10;
#X obj 302 291 - 25;
#X obj 328 197 r g_currentPos;
#X obj 328 218 unpack 0 0 0;
#X obj 369 380 sqrt;
#X floatatom 432 389 5 0 0 0 - - -;
#X floatatom 402 410 5 0 0 0 - - -;
#X floatatom 496 337 5 0 0 0 - - -;
#X obj 369 360 expr $f1 + ($f2*$f2);
#X obj 302 315 expr ($f1*$f1) + ($f2*$f2);
#X obj 726 357 symbol;
#X msg 726 377 open \$1;
#X obj 699 400 readsf~ 2;
#X obj 699 317 t f b;
#X obj 699 299 tgl 15 0 empty empty empty 17 7 0 10 -262144 -1 -1 0
1;
#X obj 750 420 bng 15 250 50 0 empty empty empty 17 7 0 10 -262144
-1 -1;
#X obj 740 484 vsl 15 75 0 1 0 0 empty empty empty 0 -9 0 10 -262144
-1 -1 0 1;
#X obj 603 669 *~ 1;
#X obj 633 669 *~ 1;
#X obj 699 588 *~;
#X obj 725 588 *~;
#X msg 656 438 1;
#X text 767 421 <- loop when done;
#X msg 726 337 /home/posture/content/nta_videos/toronto/BMO-outsideMid.aif
;
#X obj 156 343 zscale -275 200 0 1;
#X floatatom 800 586 5 0 0 0 - - -;
#X floatatom 775 460 5 0 0 0 - - -;
#X obj 798 564 expr 1-abs($f1);
#X obj 801 496 moses -150;
#X obj 800 523 moses 150;
#X obj 799 544 / 150;
#X obj 757 266 zscale -275 200 1 0;
#X obj 625 275 zscale -275 50 1 0;
#X obj 129 303 zscale -50 200 0 0.75;
#X obj 325 53 r tgl_ambient_audio;
#X connect 0 0 1 0;
#X connect 1 0 2 0;
#X connect 2 0 29 0;
#X connect 2 1 30 0;
#X connect 2 2 6 0;
#X connect 3 0 2 0;
#X connect 3 1 4 0;
#X connect 4 0 0 0;
#X connect 5 0 3 0;
#X connect 6 0 24 0;
#X connect 7 0 8 0;
#X connect 8 0 9 0;
#X connect 9 0 21 0;
#X connect 9 1 22 0;
#X connect 9 2 12 0;
#X connect 10 0 9 0;
#X connect 10 1 13 0;
#X connect 11 0 10 0;
#X connect 12 0 23 0;
#X connect 13 0 7 0;
#X connect 14 0 21 1;
#X connect 14 0 22 1;
#X connect 15 0 29 1;
#X connect 15 0 30 1;
#X connect 20 0 16 1;
#X connect 20 0 17 1;
#X connect 20 0 18 1;
#X connect 20 0 19 1;
#X connect 20 0 48 1;
#X connect 20 0 49 1;
#X connect 21 0 18 0;
#X connect 22 0 19 0;
#X connect 23 0 11 0;
#X connect 24 0 5 0;
#X connect 25 0 20 0;
#X connect 26 0 25 0;
#X connect 29 0 16 0;
#X connect 30 0 17 0;
#X connect 31 0 40 1;
#X connect 32 0 40 0;
#X connect 33 0 34 0;
#X connect 34 0 32 0;
#X connect 34 1 31 0;
#X connect 34 2 38 0;
#X connect 34 2 39 1;
#X connect 34 2 57 0;
#X connect 34 2 59 0;
#X connect 34 2 63 0;
#X connect 34 2 64 0;
#X connect 35 0 37 0;
#X connect 39 0 35 0;
#X connect 39 0 36 0;
#X connect 40 0 26 0;
#X connect 40 0 39 0;
#X connect 41 0 42 0;
#X connect 42 0 43 0;
#X connect 43 0 50 0;
#X connect 43 1 51 0;
#X connect 43 2 46 0;
#X connect 44 0 43 0;
#X connect 44 1 54 0;
#X connect 45 0 44 0;
#X connect 46 0 52 0;
#X connect 47 0 50 1;
#X connect 47 0 51 1;
#X connect 50 0 48 0;
#X connect 51 0 49 0;
#X connect 52 0 45 0;
#X connect 54 0 41 0;
#X connect 58 0 56 0;
#X connect 58 0 47 0;
#X connect 59 1 60 0;
#X connect 60 0 61 0;
#X connect 61 0 58 0;
#X connect 63 0 14 0;
#X connect 64 0 15 0;
#X connect 65 0 11 0;
#X connect 65 0 5 0;
#X connect 65 0 45 0;
#X restore 237 320 pd ambient-audio;
#X connect 0 0 10 0;
#X connect 4 0 6 0;
#X connect 10 0 27 0;
#X connect 10 1 38 0;
#X connect 10 3 42 0;
#X connect 10 3 68 0;
#X connect 10 4 61 0;
#X connect 10 5 16 0;
#X connect 12 0 20 0;
#X connect 16 0 18 0;
#X connect 19 0 21 0;
#X connect 22 0 23 0;
#X connect 23 0 24 0;
#X connect 23 1 25 0;
#X connect 23 2 26 0;
#X connect 27 0 28 0;
#X connect 29 0 28 0;
#X connect 34 0 36 0;
#X connect 35 0 47 0;
#X connect 36 0 15 0;
#X connect 36 1 48 0;
#X connect 39 0 38 0;
#X connect 40 0 34 0;
#X connect 42 0 52 0;
#X connect 44 0 46 1;
#X connect 45 0 46 1;
#X connect 48 0 47 0;
#X connect 49 0 50 0;
#X connect 51 0 50 0;
#X connect 54 0 52 0;
#X connect 55 0 14 0;
#X connect 57 0 56 0;
#X connect 58 0 57 0;
#X connect 62 0 61 0;
#X connect 63 0 64 0;
#X connect 63 0 80 0;
#X connect 65 0 92 0;
#X connect 66 0 50 0;
#X connect 67 0 50 0;
#X connect 69 0 68 0;
#X connect 70 0 50 0;
#X connect 72 0 74 0;
#X connect 73 0 74 0;
#X connect 74 0 71 0;
#X connect 75 0 74 0;
#X connect 76 0 77 0;
#X connect 76 0 78 0;
#X connect 77 0 74 0;
#X connect 80 0 74 0;
#X connect 81 0 50 0;
#X connect 82 0 50 0;
#X connect 83 0 50 0;
#X connect 84 0 14 0;
#X connect 86 0 14 0;
#X connect 87 0 14 0;
#X connect 89 0 14 0;
#X connect 91 0 14 0;
#X connect 93 0 14 0;
#X connect 94 0 14 0;
#X connect 95 0 14 0;
