#N canvas 0 47 1278 877 10;
#X obj 162 -4 inlet;
#X msg 195 41 hostname -s;
#X obj 195 21 loadbang;
#X obj 162 102 symbol;
#X obj 450 108 print Creating_User;
#X obj 28 241 delay 500;
#X msg 106 246 audioInit;
#X obj 219 297 OSCsymbol;
#X text 484 369 Reporter (used to report hotspot enter/exit);
#X text 484 722 LIGHT:;
#X msg 481 327 1;
#X text 514 327 enable collisions;
#X text 491 441 Reporter (used to report angle wrt the 4-angle video)
;
#X obj 481 70 s g_userID;
#X msg 461 141 userRefresh;
#X text 491 496 Pointer Reporter;
#X obj 88 51 bng 15 250 50 0 empty empty empty 17 7 0 10 -262144 -1
-1;
#X msg 485 459 /\$1-reporter-video setParent \$1 \, /\$1-reporter-video
setReporting INCIDENCE 1 \, /\$1-reporter-video setMaxRate 10;
#X msg 478 389 /\$1-reporter-hotspot setParent \$1 \, /\$1-reporter-hotspot
setReporting CONTAINMENT 1 \, /\$1-reporter-hotspot setMaxRate 10;
#X msg 488 513 /\$1-pointer setParent \$1 \, /\$1-pointer-reporter
setParent \$1-pointer \, /\$1-pointer-reporter setReporting INCIDENCE
1 \, /\$1-pointer-reporter setReporting DISTANCE 1 \, /\$1-pointer-reporter
setMaxRate 2;
#X obj 9 456 r g_currentPos;
#X obj 9 476 t b;
#X obj 9 497 delay 180000;
#X text 92 497 3 min;
#X text 8 434 inactivity timer:;
#X obj 483 573 pack s s;
#X obj 866 557 list2symbol;
#X msg 866 538 Point HERE;
#X obj 31 583 t b b;
#X obj 165 478 OSCparse /posture??;
#X obj 164 518 route reset;
#X obj 164 497 route event setTranslation;
#X obj 240 520 s g_currentPos;
#X text 252 538 ^ NEED this!;
#X obj 195 61 shell;
#X obj 195 82 symbol;
#X obj 351 825 s \$1-to-SPIN-TCP;
#X text -4 11 patch arg: \$0 from parent;
#X obj 276 435 r g_userID;
#X obj 276 456 OSCsymbol;
#X obj 84 345 makefilename /%s-listener;
#X obj 14 366 list prepend;
#X msg 28 264 stateDump;
#X obj 159 270 r g_userID;
#X obj 138 317 OSCprepend /\$2;
#X obj 102 682 OSCprepend;
#X obj 165 460 r \$1-from-SPIN;
#X obj 97 404 s \$1-to-SPIN-TCP;
#X obj 461 161 s \$1-to-SPIN-TCP;
#X msg 468 269 createNode \$1-target SwitchNode \, createNode \$1-target-cursor
TextNode \, createNode \$1-target-instructions TextNode;
#X obj 131 581 sel posture06 posture08;
#X msg 198 604 1;
#X msg 131 604 -1;
#X obj 102 640 pack s 0 0 1.5;
#X msg 31 604 setTranslation;
#X obj 139 554 r g_userID;
#X obj 159 662 OSCsymbol;
#X msg 480 746 /\$1-light setParent \$1 \, /\$1-light setTranslation
0 0 0 \, /\$1-light setOrientation -90 0 0 \, /\$1-light setCutoff
180 \, /\$1-light setExponent 100 \, /\$1-light setAttenuation 0.2
\, /\$1-light setAmbient 0.25 0.25 0.25 1 \, /\$1-light setDiffuse
0.75 0.75 0.75 1 \, /\$1-light setSpecular 1 1 1 1;
#X obj 9 546 spigot 0;
#X obj 26 521 r g_inactivityToggle;
#X symbolatom 175 124 10 0 0 0 - - -;
#X text 202 -7 <- bang to use hostnamem or send a symbol for the user
id;
#X obj 162 145 t b s s b s s;
#X msg 441 188 createNode \$1 UserNode \, createNode \$1-listener Listener
\, createNode \$1-reporter-hotspot ReporterNode \, createNode \$1-reporter-video
ReporterNode \, createNode \$1-light LightSource \, createNode \$1-pointer
GroupNode \, createNode \$1-pointer-reporter ReporterNode \, /\$1-listener
setParent \$1;
#X obj 481 346 s g_collisions-set;
#X obj 748 4 r g_collisions;
#X obj 800 103 OSCsymbol;
#X obj 800 82 r g_userID;
#X obj 719 123 OSCprepend /\$2;
#X obj 719 143 s \$1-to-SPIN-TCP;
#X text 861 35 COLLIDE_THRU;
#X obj 747 28 * 5;
#X msg 748 61 setConstraintMode \$1;
#X obj -33 252 t b;
#X obj 31 721 anyreg g_SCENE_BOUND;
#X obj 99 824 OSCprepend;
#X obj 179 803 OSCsymbol;
#X msg 17 780 setCubeOffset \$1 \$2 \$3;
#X msg 183 775 setCubeSize \$4 \$5 \$6;
#X msg 479 600 /\$1-target setParent \$1 \, /\$1-target-instructions
setParent \$1-target \, /\$1-target-cursor setParent \$1-pointer \,
/\$1-target-cursor setTextValue + \, /\$1-target-instructions setTextValue
\$2 \, /\$1-target-* setScale 0.015 0.015 0.015 \, /\$1-target-* setColor
1 0 0 1 \, /\$1-target-* setDecoration 9 \, /\$1-target-* setFont GillSans.ttf
\, /\$1-target-* setBillboard 2 \, /\$1-target-cursor setTranslation
0 0.02 0 \, /\$1-target-instructions setTranslation 0 0.02 0 \, /\$1-target
setEnabled \$1-target-instructions 0;
#X msg 675 324 /\$1-listener setOrientation 0 0 45;
#X msg 863 602 /\$1-target setParent \$1-pointer \, /\$1-target-instructions
setParent \$1-target \, /\$1-target-cursor setParent \$1-target \,
/\$1-target-cursor setTextValue + \, /\$1-target-instructions setTextValue
\$2 \, /\$1-target setTranslation 0 0.01 0 \, /\$1-target setScale
0.01 0.01 0.01 \, /\$1-target-* setColor 1 0 0 1 \, /\$1-target-* setDecoration
9 \, /\$1-target-* setFont GillSans.ttf \, /\$1-target-* setBillboard
2 \, /\$1-target-instructions setTranslation 0 0 0.1 \, /\$1-target
setEnabled \$1-target-instructions 0;
#X connect 0 0 3 0;
#X connect 1 0 34 0;
#X connect 2 0 1 0;
#X connect 3 0 60 0;
#X connect 3 0 62 0;
#X connect 5 0 42 0;
#X connect 6 0 44 0;
#X connect 7 0 44 1;
#X connect 10 0 64 0;
#X connect 14 0 48 0;
#X connect 16 0 3 0;
#X connect 17 0 36 0;
#X connect 18 0 36 0;
#X connect 19 0 36 0;
#X connect 20 0 21 0;
#X connect 21 0 22 0;
#X connect 22 0 58 0;
#X connect 25 0 79 0;
#X connect 26 0 25 1;
#X connect 27 0 26 0;
#X connect 28 0 54 0;
#X connect 29 0 31 0;
#X connect 30 0 28 0;
#X connect 31 0 30 0;
#X connect 31 1 32 0;
#X connect 34 0 35 0;
#X connect 35 0 3 1;
#X connect 38 0 39 0;
#X connect 39 0 29 1;
#X connect 40 0 41 1;
#X connect 41 0 47 0;
#X connect 42 0 41 0;
#X connect 43 0 7 0;
#X connect 43 0 40 0;
#X connect 44 0 47 0;
#X connect 45 0 36 0;
#X connect 46 0 29 0;
#X connect 49 0 36 0;
#X connect 50 0 52 0;
#X connect 50 1 51 0;
#X connect 51 0 53 1;
#X connect 52 0 53 1;
#X connect 53 0 45 0;
#X connect 54 0 53 0;
#X connect 55 0 56 0;
#X connect 55 0 50 0;
#X connect 56 0 45 1;
#X connect 56 0 76 0;
#X connect 57 0 36 0;
#X connect 58 0 28 0;
#X connect 59 0 58 1;
#X connect 62 0 6 0;
#X connect 62 0 5 0;
#X connect 62 0 73 0;
#X connect 62 1 18 0;
#X connect 62 1 10 0;
#X connect 62 1 57 0;
#X connect 62 1 17 0;
#X connect 62 1 19 0;
#X connect 62 1 25 0;
#X connect 62 1 80 0;
#X connect 62 2 49 0;
#X connect 62 2 63 0;
#X connect 62 2 27 0;
#X connect 62 3 14 0;
#X connect 62 5 4 0;
#X connect 62 5 13 0;
#X connect 63 0 36 0;
#X connect 65 0 71 0;
#X connect 66 0 68 1;
#X connect 67 0 66 0;
#X connect 68 0 69 0;
#X connect 71 0 72 0;
#X connect 72 0 68 0;
#X connect 73 0 74 0;
#X connect 74 0 77 0;
#X connect 74 0 78 0;
#X connect 75 0 36 0;
#X connect 76 0 75 1;
#X connect 77 0 75 0;
#X connect 78 0 75 0;
#X connect 79 0 36 0;
#X connect 80 0 36 0;
#X connect 81 0 36 0;
