#N canvas 182 300 967 723 10;
#X obj 446 626 cnv 15 125 15 empty empty empty 20 12 0 14 -257985 -66577
0;
#X obj 62 610 cnv 15 225 15 empty empty empty 20 12 0 14 -257985 -66577
0;
#X obj 71 109 moses 0;
#X obj 70 22 inlet;
#X text 114 24 <- current relative view angle;
#X obj 103 471 anyreg \$0-cameras;
#X obj 103 495 list split;
#X obj 118 401 t b f;
#X obj 131 515 list split 1;
#X symbolatom 67 611 20 0 0 1 (selectedCamera) - -;
#X obj 67 675 outlet;
#X obj 453 675 outlet;
#X floatatom 453 628 5 0 0 1 (cameraAngle) - -;
#X obj 457 260 r \$0-angle-between-cameras;
#X obj 104 257 r \$0-angle-between-cameras;
#X obj 199 276 r \$0-numCameras;
#X obj 693 211 cnv 15 120 15 empty empty empty 20 12 0 14 -257985 -66577
0;
#X obj 496 209 cnv 15 180 15 empty empty empty 20 12 0 14 -257985 -66577
0;
#X msg 604 60 posture03_1 posture03_0 posture03_2 posture03_3;
#X obj 594 114 anyreg \$0-cameras;
#X obj 583 20 inlet;
#X obj 594 142 list length;
#X obj 500 190 expr 360/$f1;
#X obj 583 86 t b a;
#X text 626 21 <- set cameras (list of symbolic names \, starting at
0 degrees \, and going clockwise);
#X obj 500 227 s \$0-angle-between-cameras;
#X obj 699 230 s \$0-numCameras;
#X floatatom 500 210 5 0 0 1 (angle-between-cameras) - -;
#X floatatom 699 213 5 0 0 1 (numCameras) - -;
#X obj 575 380 r \$0-numCameras;
#X obj 524 410 / 2;
#X obj 484 449 moses;
#X obj 714 520 r \$0-angle-between-cameras;
#X obj 800 538 r \$0-numCameras;
#X obj 397 523 r \$0-angle-between-cameras;
#X obj 96 76 nbx 5 14 -1e+37 1e+37 0 0 empty empty empty 0 -8 0 10
-262144 -1 -1 0 256;
#X text 154 78 <- to test \, pass angle (from -180 to 180);
#X obj 67 651 change1;
#X obj 453 600 -;
#X msg 670 451 0;
#X obj 642 429 sel 1;
#X floatatom 650 479 5 0 0 1 (angularOffset) - -;
#X msg 640 451 180;
#X obj 453 656 change;
#X obj 720 608 r \$0-angle-between-cameras;
#X obj 806 626 r \$0-numCameras;
#X obj 635 645 expr -(($f3-$f1)*$f2)+($f2/2);
#X obj 208 687 expr ($f1*$f2)+($f2/2);
#X obj 275 659 r \$0-angle-between-cameras;
#X obj 10 296 expr $f3 - int(abs($f1/$f2)) - 1;
#X obj 358 279 expr int($f1/$f2);
#X obj 70 86 -;
#X obj 325 184 / 2;
#X msg 743 103 dca3 e117 e5e3 df80;
#X msg 752 132 dca3 e5e3;
#X msg 758 156 dca3;
#X floatatom 114 53 5 0 0 0 - - -;
#X obj 118 371 expr ($f1+1)%$f2;
#X obj 161 400 cnv 15 125 15 empty empty empty 20 12 0 14 -257985 -66577
0;
#X floatatom 167 401 5 0 0 1 (cameraIndex) - -;
#X obj 211 353 r \$0-numCameras;
#X obj 762 317 r \$0-angle-between-cameras;
#X obj 848 335 r \$0-numCameras;
#X obj 445 320 r \$0-angle-between-cameras;
#X obj 379 348 expr ($f1*$f2)+$f2;
#X obj 676 355 expr -(($f3-$f1)*$f2)+$f2;
#X obj 332 551 expr ($f1*$f2);
#X obj 628 558 expr -(($f3-$f1)*$f2);
#X connect 2 0 49 0;
#X connect 2 1 50 0;
#X connect 3 0 51 0;
#X connect 3 0 56 0;
#X connect 5 0 6 0;
#X connect 6 1 8 0;
#X connect 7 0 5 0;
#X connect 7 1 6 1;
#X connect 7 1 31 0;
#X connect 8 0 9 0;
#X connect 9 0 37 0;
#X connect 12 0 43 0;
#X connect 13 0 50 1;
#X connect 14 0 49 1;
#X connect 15 0 49 2;
#X connect 18 0 23 0;
#X connect 19 0 21 0;
#X connect 20 0 23 0;
#X connect 21 0 22 0;
#X connect 21 0 28 0;
#X connect 22 0 27 0;
#X connect 23 0 19 0;
#X connect 23 1 19 0;
#X connect 27 0 25 0;
#X connect 27 0 52 0;
#X connect 28 0 26 0;
#X connect 29 0 30 0;
#X connect 29 0 40 0;
#X connect 30 0 31 1;
#X connect 31 0 66 0;
#X connect 31 1 67 0;
#X connect 32 0 67 1;
#X connect 33 0 67 2;
#X connect 34 0 66 1;
#X connect 35 0 51 1;
#X connect 37 0 10 0;
#X connect 38 0 12 0;
#X connect 39 0 41 0;
#X connect 40 0 42 0;
#X connect 40 1 39 0;
#X connect 41 0 38 1;
#X connect 42 0 41 0;
#X connect 43 0 11 0;
#X connect 44 0 46 1;
#X connect 45 0 46 2;
#X connect 48 0 47 1;
#X connect 49 0 57 0;
#X connect 50 0 57 0;
#X connect 51 0 2 0;
#X connect 52 0 51 1;
#X connect 53 0 23 0;
#X connect 54 0 23 0;
#X connect 55 0 23 0;
#X connect 57 0 59 0;
#X connect 57 0 7 0;
#X connect 60 0 57 1;
#X connect 61 0 65 1;
#X connect 62 0 65 2;
#X connect 63 0 64 1;
#X connect 66 0 38 0;
#X connect 67 0 38 0;
