#N canvas 1023 99 811 849 10;
#X obj 31 20 inlet;
#X text 162 449 IMPORTANT: the context must be set to the hostname
of the user's machine. ie \,;
#X obj 31 40 list;
#X text 241 105 create a UserNode (just in case) \, a ShapeNode to
map the video texture on:;
#X obj 452 682 cnv 15 120 15 empty empty empty 20 12 0 14 -257985 -66577
0;
#X obj 353 613 list length;
#X obj 259 661 expr 360/$f1;
#X obj 259 698 s \$0-angle-between-cameras;
#X obj 458 701 s \$0-numCameras;
#X floatatom 259 681 5 0 0 1 (angle-between-cameras) - -;
#X floatatom 458 684 5 0 0 1 (numCameras) - -;
#X msg 87 21 posture05 cam1 cam2 cam3 cam4;
#X obj 31 60 t a a a;
#X obj 197 69 anyreg \$0-userid;
#X msg 197 49 \$1;
#X msg 249 166 createNode \$1 UserNode;
#X obj 62 207 list prepend;
#X msg 122 146 \$1;
#X obj 5 91 list split 1;
#X obj 16 167 list split 1;
#X obj 40 131 list;
#X obj 105 289 t a a;
#X msg 172 321 createNode \$1-\$2 ShapeNode;
#X msg 105 364 /\$1-\$2 setParent \$1 \, /\$1-\$2 setTranslation 0
-0.01 1 \, /\$1-\$2 setBillboard 0 \, /\$1-\$2 setScale 2.666 1 2 \,
/\$1-\$2 setShape 6;
#X msg 350 518 cam1 cam2 cam3 cam4;
#X msg 149 508 /\$1-\$2 setContext \$1;
#X obj 36 657 outlet;
#X text 237 757 TODO: set orientation of each plane;
#X connect 0 0 2 0;
#X connect 2 0 12 0;
#X connect 5 0 6 0;
#X connect 5 0 10 0;
#X connect 6 0 9 0;
#X connect 9 0 7 0;
#X connect 10 0 8 0;
#X connect 11 0 2 0;
#X connect 12 0 18 0;
#X connect 12 2 14 0;
#X connect 12 2 15 0;
#X connect 12 2 17 0;
#X connect 14 0 13 0;
#X connect 15 0 26 0;
#X connect 16 0 21 0;
#X connect 17 0 16 1;
#X connect 18 1 19 0;
#X connect 19 0 16 0;
#X connect 19 1 20 0;
#X connect 20 0 19 0;
#X connect 21 0 23 0;
#X connect 21 0 25 0;
#X connect 21 1 22 0;
#X connect 22 0 26 0;
#X connect 23 0 26 0;
#X connect 24 0 5 0;
#X connect 25 0 26 0;
