#N canvas 546 107 728 502 10;
#X obj 198 -5 inlet;
#X obj 184 193 t a a;
#X obj 121 460 outlet;
#X msg 241 410 /\$2 setContext \$3;
#X text 257 337 IMPORTANT: the context of a "seenby" node must be set
to the *hostname* of user who wants to "see" it. The spinviewer app
looks at the context paramter to decide if it should render it \, and
only renders if it matches the hostname...;
#X msg 183 170 list \$1 \$1-seenby-\$2 \$2;
#X msg 237 223 createNode \$1 UserNode \, createNode \$2 ShapeNode
;
#X obj 184 148 list append \$1;
#X text 247 -3 list of all UserNodes in SPIN;
#X text 286 148 <- arg #1 to this patch is the current user/viewer
;
#X text 231 190 create ShapeNode for each user: "userID-seenby-currentUser"
;
#X obj 198 58 route NULL;
#X text 275 61 ignore empty user list (a string that says "NULL");
#X msg 218 29 posture04 posture05 posture06;
#X text 412 32 <- test;
#X obj 185 126 list split 1;
#X obj 269 126 list;
#X msg 252 263 /\$2 setParent \$1 \, /\$2 setTranslation 0 -0.01 1
\, /\$2 setOrientation 0 0 180 \, /\$2 setBillboard 0 \, /\$2 setScale
2.666 1 2 \, /\$2 setShape 6 \, /\$2 setLighting 0;
#X connect 0 0 11 0;
#X connect 1 0 17 0;
#X connect 1 0 3 0;
#X connect 1 1 6 0;
#X connect 3 0 2 0;
#X connect 5 0 1 0;
#X connect 6 0 2 0;
#X connect 7 0 5 0;
#X connect 11 1 15 0;
#X connect 13 0 11 0;
#X connect 15 0 7 0;
#X connect 15 1 16 0;
#X connect 16 0 15 0;
#X connect 17 0 2 0;
