#N canvas 1245 234 992 805 10;
#X obj 31 20 inlet;
#X text 316 316 IMPORTANT: the context must be set to the hostname
of the user's machine. ie \,;
#X text 241 105 create a UserNode (just in case) \, a ShapeNode to
map the video texture on:;
#X obj 830 460 cnv 15 120 15 empty empty empty 20 12 0 14 -257985 -66577
0;
#X obj 731 391 list length;
#X obj 637 439 expr 360/$f1;
#X obj 637 476 s \$0-angle-between-cameras;
#X obj 836 479 s \$0-numCameras;
#X floatatom 637 459 5 0 0 1 (angle-between-cameras) - -;
#X floatatom 836 462 5 0 0 1 (numCameras) - -;
#X msg 728 296 cam1 cam2 cam3 cam4;
#X obj 48 684 outlet;
#X text 741 549 TODO: set orientation of each plane;
#X msg 249 166 createNode \$1 UserNode \, createNode \$1-video ShapeNode
;
#X msg 303 375 /\$1-video setContext \$1;
#X obj 349 508 list prepend;
#X msg 418 457 \$1;
#X obj 295 452 list split 1;
#X obj 294 480 list split 1;
#X obj 378 480 list;
#X obj 349 529 t a a;
#X msg 416 561 createStateSet \$1-\$2 ImageTexture;
#X text 415 542 TODO: replace with SharedVideoTexture;
#X obj 31 80 t a a;
#X obj 31 57 list;
#X obj 330 429 t a a;
#X msg 349 604 /\$1-\$2 setPath ~/src/postures/trunk/prototypes/\$2
;
#X msg 259 231 /\$1-video setParent \$1 \, /\$1-video setTranslation
0 -0.01 1 \, /\$1-video setOrientation 0 0 180 \, /\$1-video setBillboard
0 \, /\$1-video setScale 2.666 1 2 \, /\$1-video setShape 6;
#X connect 0 0 24 0;
#X connect 4 0 5 0;
#X connect 4 0 9 0;
#X connect 5 0 8 0;
#X connect 8 0 6 0;
#X connect 9 0 7 0;
#X connect 10 0 4 0;
#X connect 13 0 11 0;
#X connect 14 0 11 0;
#X connect 15 0 20 0;
#X connect 16 0 15 1;
#X connect 17 1 18 0;
#X connect 18 0 15 0;
#X connect 18 1 19 0;
#X connect 19 0 18 0;
#X connect 20 0 26 0;
#X connect 20 1 21 0;
#X connect 21 0 11 0;
#X connect 23 0 27 0;
#X connect 23 0 14 0;
#X connect 23 0 25 0;
#X connect 23 1 13 0;
#X connect 24 0 23 0;
#X connect 25 0 17 0;
#X connect 25 1 16 0;
#X connect 26 0 11 0;
#X connect 27 0 11 0;
