#N canvas 59 41 753 454 10;
#X obj 101 27 inlet;
#X obj 89 121 t a a;
#X obj 89 103 list;
#X obj 95 351 outlet;
#X msg 195 148 createNode \$1 UserNode \, createNode \$1-text TextNode
;
#X text 239 105 create a UserNode (just in case) and a TextNode for
debugging:;
#X msg 188 205 /\$1 setTranslation \$2 \$3 \$4 \, /\$1 setOrientation
\$5 \$6 \$7;
#X msg 193 250 /\$1-text setParent \$1 \, /\$1-text setContext \$1
\, /\$1-text setTextValue \$1 \, /\$1-text setTranslation 0 0 0.2 \,
/\$1-text setBillboard 0 \, /\$1-text setScale 2 2 2;
#X connect 0 0 2 0;
#X connect 1 0 6 0;
#X connect 1 0 7 0;
#X connect 1 1 4 0;
#X connect 2 0 1 0;
#X connect 4 0 3 0;
#X connect 6 0 3 0;
#X connect 7 0 3 0;
