#N canvas 744 29 956 751 10;
#X obj 11 12 widget-spinConnect \$0;
#N canvas 45 238 943 700 SHARED_VIDEO_STUFF 1;
#X obj 505 38 r \$0-from-SPIN;
#X obj 383 141 rad2deg;
#X obj 602 131 rad2deg;
#X obj 383 190 cameraSwitcher;
#X obj 464 151 loadbang;
#X obj 683 185 loadbang;
#X obj 496 466 s \$0-to-SPIN;
#X obj 577 411 * 2;
#X text 611 43 NOTE: all measured angles are in (-PI \, PI);
#X obj 383 80 OSCparse /posture03-meas;
#X obj 383 161 * -1;
#X obj 602 70 OSCparse /posture01-meas;
#X obj 629 251 * -1;
#X obj 602 150 * -1;
#X obj 577 377 vradio 15 1 0 2 empty empty empty 0 -8 0 10 -262144
-1 -1 0;
#X text 597 392 billboard (vertical);
#X text 597 378 no billboard (switched angles);
#X obj 418 229 * -1;
#X obj 383 99 route incidence;
#X obj 602 89 route incidence;
#X msg 708 154 dca3 e117 e5e3 df80;
#X msg 711 126 e606 df4e df44 df9f;
#X msg 464 170 dca3 e117 e5e3 df80;
#X msg 684 203 e606 df4e df44 df9f;
#X obj 602 223 cameraSwitcher;
#X msg 96 266 /posture03-meas setTarget posture01;
#X msg 110 287 /posture01-meas setTarget posture03;
#X obj 68 65 t b s b b;
#X obj 37 356 s \$0-to-SPIN;
#X obj 68 16 inlet;
#X text 403 501 OLD:;
#X msg 59 198 /posture01 setTranslation 0 -2 1.7 \, /posture01 setOrientation
0 0 0;
#X msg 48 528 \$3-video setTextureFromFile shared_video_texture\$1
\, /shvid_\$1 setTextureID shvid_\$1 \, \$3-video setOrientation 0
90 \$2 \, \$3-text setText \$3:\$1;
#X msg 140 109 /posture01-video setTextureFromFile shared_video_texture_posture01
;
#X msg 112 144 /posture03-video setTextureFromFile shared_video_texture_posture03
;
#X obj 323 410 pp;
#X msg 476 191 symbol posture03;
#X msg 695 223 symbol posture01;
#X msg 266 587 /shvid__\$3 setTextureID shvid_\$1 \, /\$3-video setOrientation
0 90 \$2 \, /\$3-text setText \$3:\$1;
#X msg 577 431 /posture03-video setBillboard \$1;
#X obj 383 282 pack s 0 s 0;
#X obj 602 295 pack s 0 s 0;
#X msg 560 522 /\$3-video setTextureID shvid_\$1 \, /\$3-video setOrientation
0 90 \$2 \, /\$3-text setText \$3:\$1 \, /\$3-text setOrientation 0
0 \$4;
#X msg 456 330 /\$3-video setTextureID shvid_\$1 \, /\$3-video setOrientation
0 90 \$2 \, /\$3-text setOrientation 0 0 \$4;
#X obj 452 263 + 180;
#X obj 671 276 + 180;
#X msg 23 428 /posture03 setTranslation 0 2 1.7 \, /posture03 setOrientation
0 0 180;
#X msg 74 231 /posture03 setTranslation 0 2 1.7 \, /posture03 setOrientation
0 0 0;
#X connect 0 0 9 0;
#X connect 0 0 11 0;
#X connect 1 0 10 0;
#X connect 2 0 13 0;
#X connect 3 0 40 0;
#X connect 3 1 17 0;
#X connect 4 0 22 0;
#X connect 4 0 36 0;
#X connect 5 0 23 0;
#X connect 5 0 37 0;
#X connect 7 0 39 0;
#X connect 9 0 18 0;
#X connect 10 0 3 0;
#X connect 11 0 19 0;
#X connect 12 0 41 1;
#X connect 12 0 45 0;
#X connect 13 0 24 0;
#X connect 14 0 7 0;
#X connect 17 0 40 1;
#X connect 17 0 44 0;
#X connect 18 0 1 0;
#X connect 19 0 2 0;
#X connect 22 0 3 1;
#X connect 23 0 24 1;
#X connect 24 0 41 0;
#X connect 24 1 12 0;
#X connect 25 0 28 0;
#X connect 26 0 28 0;
#X connect 27 0 25 0;
#X connect 27 0 26 0;
#X connect 27 0 31 0;
#X connect 27 0 47 0;
#X connect 29 0 27 0;
#X connect 31 0 28 0;
#X connect 33 0 28 0;
#X connect 34 0 28 0;
#X connect 36 0 40 2;
#X connect 37 0 41 2;
#X connect 39 0 6 0;
#X connect 40 0 43 0;
#X connect 41 0 43 0;
#X connect 43 0 6 0;
#X connect 44 0 40 3;
#X connect 45 0 41 3;
#X connect 47 0 28 0;
#X restore 381 49 pd SHARED_VIDEO_STUFF;
#X obj 31 708 s \$0-to-SPIN;
#X obj 381 29 posturesUser \$0 posture01;
#X obj 27 137 cnv 15 24 24 empty empty 1 4 12 1 24 -99865 -262144 0
;
#X obj 129 287 cnv 15 24 24 empty empty 3 4 12 1 24 -99865 -262144
0;
#X obj 173 364 cnv 15 24 24 empty empty 4 4 12 1 24 -99865 -262144
0;
#X obj 153 551 cnv 15 24 24 empty empty 5 4 12 1 24 -99865 -262144
0;
#X obj 77 182 cnv 15 24 24 empty empty 2 4 12 1 24 -99865 -262144 0
;
#X msg 65 143 refresh;
#X msg 154 209 posture06 -1 0 1.5 0 0 -135;
#X msg 116 184 posture04 1 0 1.5 0 0 135;
#X msg 163 289 posture04;
#X msg 172 402 posture04 north.jpg east.jpg south.jpg west.jpg;
#X msg 230 289 posture06;
#X text 385 12 old stuff:;
#X msg 187 428 posture06 north.jpg east.jpg south.jpg west.jpg;
#X obj 516 182 r \$0-from-SPIN;
#X obj 516 205 route nodeList;
#X obj 516 226 route UserNode;
#X obj 495 334 s \$0-to-SPIN;
#X obj 482 259 createVideoBillboards posture04;
#N canvas 0 0 635 422 CreateTextures 0;
#X obj 153 50 inlet;
#X obj 234 373 outlet;
#X obj 164 181 list prepend;
#X msg 233 130 \$1;
#X obj 110 125 list split 1;
#X obj 109 153 list split 1;
#X obj 193 153 list;
#X obj 164 202 t a a;
#X msg 231 234 createStateSet \$1-\$2 ImageTexture;
#X text 230 215 TODO: replace with SharedVideoTexture;
#X obj 145 102 t a a;
#X msg 164 277 /\$1-\$2 setPath ~/src/postures/trunk/prototypes/\$2
;
#X obj 153 71 list;
#X connect 0 0 12 0;
#X connect 2 0 7 0;
#X connect 3 0 2 1;
#X connect 4 1 5 0;
#X connect 5 0 2 0;
#X connect 5 1 6 0;
#X connect 6 0 5 0;
#X connect 7 0 11 0;
#X connect 7 1 8 0;
#X connect 8 0 1 0;
#X connect 10 0 4 0;
#X connect 10 1 3 0;
#X connect 11 0 1 0;
#X connect 12 0 10 0;
#X restore 152 467 pd CreateTextures;
#N canvas 0 0 450 300 CreateAvatar 0;
#X obj 91 132 t s s;
#X obj 81 40 bng 15 250 50 0 empty empty empty 17 7 0 10 -262144 -1
-1;
#X obj 101 41 inlet;
#X msg 118 151 createNode \$1 UserNode \, createNode \$1-avatar ModelNode
;
#X text 180 42 3D avatar;
#X obj 105 261 outlet;
#X msg 90 306 /\$1-avatar setParent \$1 \, /\$1-avatar setModelFromFile
~/src/postures/trunk/prototypes/avatar.osg \, /\$1-avatar setTranslation
0 0 -0.2 \, /\$1-avatar setHost \$1;
#X msg 91 170 /\$1-avatar setParent \$1 \, /\$1-avatar setModelFromFile
~/src/postures/trunk/prototypes/avatar.osg \, /\$1-avatar setTranslation
0 0 0;
#X obj 91 113 symbol;
#X connect 0 0 7 0;
#X connect 0 1 3 0;
#X connect 1 0 8 0;
#X connect 2 0 8 0;
#X connect 3 0 5 0;
#X connect 7 0 5 0;
#X connect 8 0 0 0;
#X restore 163 317 pd CreateAvatar;
#N canvas 0 0 669 414 CreateUser 0;
#X obj 101 27 inlet;
#X obj 89 121 t a a;
#X obj 89 103 list;
#X obj 95 351 outlet;
#X msg 195 148 createNode \$1 UserNode \, createNode \$1-text TextNode
;
#X text 239 105 create a UserNode (just in case) and a TextNode for
debugging:;
#X msg 188 205 /\$1 setTranslation \$2 \$3 \$4 \, /\$1 setOrientation
\$5 \$6 \$7;
#X msg 193 250 /\$1-text setParent \$1 \, /\$1-text setContext \$1
\, /\$1-text setTextValue \$1 \, /\$1-text setTranslation 0 0 0.2 \,
/\$1-text setBillboard 0 \, /\$1-text setScale 2 2 2;
#X connect 0 0 2 0;
#X connect 1 0 6 0;
#X connect 1 0 7 0;
#X connect 1 1 4 0;
#X connect 2 0 1 0;
#X connect 4 0 3 0;
#X connect 6 0 3 0;
#X connect 7 0 3 0;
#X restore 111 234 pd CreateUser;
#X msg 163 590 /posture04-seenby-posture05 setStateSet posture04-south.jpg
;
#X msg 171 616 /posture04-seenby-posture05 setStateSet posture04-north.jpg
;
#X obj 481 124 cnv 15 150 24 empty empty callback: 4 12 1 24 -99865
-262144 0;
#X msg 181 648 /posture04-seenby-posture06 setStateSet posture04-west.jpg
;
#X text 191 557 test:;
#X obj 612 414 cnv 15 150 24 empty empty callback: 4 12 1 24 -99865
-262144 0;
#X obj 620 505 userMeasurement posture05;
#X obj 608 472 r \$0-from-SPIN;
#X msg 184 671 /posture04-seenby-posture06 setStateSet posture04-east.jpg
;
#X obj 495 281 createVideoBillboards posture05;
#X obj 507 301 createVideoBillboards posture06;
#X text 432 154 (creates video billboards given a user \, for EACH
OTHER user);
#X text 547 443 (measures distance/angle between users and siwtches
texture);
#X connect 9 0 2 0;
#X connect 10 0 24 0;
#X connect 11 0 24 0;
#X connect 12 0 23 0;
#X connect 13 0 22 0;
#X connect 14 0 23 0;
#X connect 16 0 22 0;
#X connect 17 0 18 0;
#X connect 18 0 19 0;
#X connect 19 0 21 0;
#X connect 19 0 34 0;
#X connect 19 0 35 0;
#X connect 21 0 20 0;
#X connect 22 0 2 0;
#X connect 23 0 2 0;
#X connect 24 0 2 0;
#X connect 25 0 2 0;
#X connect 26 0 2 0;
#X connect 28 0 2 0;
#X connect 32 0 31 0;
#X connect 33 0 2 0;
#X connect 34 0 20 0;
#X connect 35 0 20 0;
