#N canvas 768 175 869 720 10;
#X obj 305 13 inlet;
#X obj 142 108 OSCsplit;
#X obj 544 125 OSCparse /\$1;
#X obj 544 145 route global6DOF;
#X text 554 105 current viewer orientation;
#X obj 115 85 t a a;
#X obj 115 181 OSCparse /posture0?;
#X obj 115 199 route global6DOF;
#X text 173 148 store the incoming nodeID;
#X obj 64 61 route /\$1;
#X text 133 63 ignore the node specified by \$1;
#X text 221 202 this is the (x y z p r y) for a posture that doesn't
match the \$1 argument;
#X text 548 164 this is the (x y z p r y) for the \$1 posture;
#X obj 206 383 t a a;
#X floatatom 46 607 5 0 0 0 - - -;
#X obj 97 511 rad2deg;
#X floatatom 30 536 5 0 0 0 - - -;
#X obj 97 540 expr $f2 - $f1;
#X obj 180 355 pack 0 0 0 0 0;
#X obj 99 255 unpack 0 0 0 0 0 0;
#X obj 264 314 unpack 0 0 0 0 0 0;
#X obj 237 292 t b a;
#X obj 97 441 expr $f1-$f3;
#X obj 298 441 expr $f2-$f4;
#X obj 90 663 outlet;
#X obj 160 624 r \$0-postureID;
#X obj 187 128 s \$0-postureID;
#X floatatom 302 282 5 0 0 0 - - -;
#X obj 97 489 expr atan2($f2 \, $f1) - (3.14159/2);
#X text 191 542 <- relative to other posture's orientation;
#X text 315 488 angle (on XY plane) to other posture (minus PI/2);
#X text 384 441 dir vector (XY) to other posture;
#X text 275 357 only need x \, y of each;
#X obj 97 571 * -1;
#X text 139 570 flip (right-handed);
#X obj 91 643 list append;
#X text 150 665 output list: angle currentPosture otherPosture;
#X obj 92 605 list append \$1;
#X connect 0 0 2 0;
#X connect 0 0 9 0;
#X connect 1 1 26 0;
#X connect 2 0 3 0;
#X connect 3 0 21 0;
#X connect 5 0 6 0;
#X connect 5 1 1 0;
#X connect 6 0 7 0;
#X connect 7 0 19 0;
#X connect 9 1 5 0;
#X connect 13 0 22 0;
#X connect 13 1 23 0;
#X connect 15 0 16 0;
#X connect 15 0 17 0;
#X connect 17 0 33 0;
#X connect 18 0 13 0;
#X connect 19 0 18 0;
#X connect 19 1 18 1;
#X connect 19 5 27 0;
#X connect 19 5 17 1;
#X connect 20 0 18 2;
#X connect 20 1 18 3;
#X connect 21 0 18 0;
#X connect 21 1 20 0;
#X connect 22 0 28 0;
#X connect 23 0 28 1;
#X connect 25 0 35 1;
#X connect 28 0 15 0;
#X connect 33 0 14 0;
#X connect 33 0 37 0;
#X connect 35 0 24 0;
#X connect 37 0 35 0;
