#N canvas 222 141 958 720 10;
#X obj 18 71 cnv 15 24 24 empty empty 1 4 12 1 24 -99865 -262144 0
;
#X obj 72 242 cnv 15 24 24 empty empty 3 4 12 1 24 -99865 -262144 0
;
#X obj 55 523 s \$0-to-SPIN;
#X obj 18 197 cnv 15 24 24 empty empty 2 4 12 1 24 -99865 -262144 0
;
#X obj 18 18 widget-spinConnect \$0;
#X obj 52 74 bng 15 250 50 0 empty empty empty 17 7 0 10 -262144 -1
-1;
#X text 73 71 set view for this example;
#X obj 81 115 spin.toCamera \$0;
#X msg 77 138 createNode grid GridNode;
#X obj 77 160 s \$0-to-SPIN;
#X obj 524 346 subwidget-PAT \$0;
#X obj 524 305 loadbang;
#X obj 241 536 vradio 11 1 0 14 empty empty empty 0 -8 0 10 -262144
-1 -1 5;
#X text 255 631 9) QUAD_STRIP;
#X text 255 620 8) QUADS;
#X text 255 609 7) TRIANGLE_FAN;
#X text 255 598 6) TRIANGLE_STRIP;
#X text 255 587 5) TRIANGLES;
#X text 255 576 4) LINE_LOOP;
#X text 255 554 2) LINES;
#X text 255 543 1) POINTS;
#X text 255 532 0) NONE;
#X text 255 565 3) LINE_STRIP;
#X text 255 664 12) BOXES;
#X text 255 653 11) LIGHTPOINTS;
#X text 255 642 10) POLYGON;
#X obj 130 438 hsl 128 15 0 100 0 0 empty empty empty -2 -8 0 10 -262144
-1 -1 0 1;
#X floatatom 127 461 5 0 0 0 - - -;
#X text 162 411 Play with some parameters:;
#X text 53 192 Create a PointCloud node;
#X msg 57 210 createNode cloud PointCloud;
#X msg 127 477 /cloud setPointSize \$1;
#X msg 524 325 cloud;
#X obj 133 407 cnv 15 24 24 empty empty 4 4 12 1 24 -99865 -262144
0;
#X text 105 242 Load a point cloud from a .pcd file:;
#X obj 107 288 thisdir;
#X obj 107 260 bng 20 250 50 0 empty empty empty 17 7 0 10 -262144
-1 -1;
#X text 356 18 This example shows how to load a "point cloud" \, which
can be rendered with several different draw modes. The default is LIGHTPOINTS
\, which are self-illuminated points that maintain the same size regardless
of distance.;
#X text 255 675 13) CUSTOM;
#X msg 82 95 setTranslation 0 -1 0.15;
#X obj 528 238 s \$0-to-SPIN;
#X text 518 281 You can move the entire cloud around like this:;
#X obj 195 514 cnv 15 24 24 empty empty 5 4 12 1 24 -99865 -262144
0;
#X obj 501 101 cnv 15 24 24 empty empty 6 4 12 1 24 -99865 -262144
0;
#X text 222 516 Try different draw modes:;
#X text 533 97 Set the draw mode to CUSTOM (above) \, and then replace
the points of the PointCloud with any SPIN node!;
#X msg 528 136 createNode shp ShapeNode \, /shp setTranslation 10 0
0 \, /shp setStateSetFromFile http://spinframework.org/images/logo_SPIN.jpg
\, /shp setSpin 20 0 45 \, /cloud setCustomNode shp;
#X text 547 199 CAREFUL of the mesh size! Try to only use low-poly
models like cubes and planes.;
#X obj 637 519 hsl 128 15 0.0005 0.1 1 0 empty empty empty -2 -8 0
10 -262144 -1 -1 12100 1;
#X floatatom 634 538 5 0 0 0 - - -;
#X obj 642 673 s \$0-to-SPIN;
#X msg 654 648 /cloud setDistCrop 0 \$1;
#X obj 657 609 hsl 128 15 0 10 0 0 empty empty empty -2 -8 0 10 -262144
-1 -1 0 1;
#X floatatom 654 628 5 0 0 0 - - -;
#X msg 107 307 /cloud setURI \$1/Resources/bunny.pcd \, /cloud setOrientation
180 0 0;
#X msg 21 588 /cloud debug;
#X msg 542 482 /cloud setDrawMode 11 \, /cloud setURI kinect://1;
#X obj 490 443 cnv 15 24 24 empty empty 7 4 12 1 24 -99865 -262144
0;
#X text 523 433 Read points in real time from the Kinect \, but DON'T
use CUSTOM drawMode. The Kinect produces way too many points way too
fast.;
#X text 135 261 .pcd files can be generated using PCL: www.pointclouds.org
;
#X obj 297 439 hsl 128 15 0 0.1 0 0 empty empty empty -2 -8 0 10 -262144
-1 -1 0 1;
#X floatatom 294 461 5 0 0 0 - - -;
#X msg 294 477 /cloud setRandomCoeff \$1;
#X text 120 343 NOTE: If you get the error: "Failed to find a field
named: 'rgba'" \, you need to upgrade your .pcd file. Set change rgb
to rgba in the FIELDS \, and set the TYPE to F F F U;
#X msg 608 314 dragon;
#X msg 240 693 /cloudModel setDrawMode \$1;
#X msg 634 561 /set* setVoxelSize \$1;
#X connect 5 0 8 0;
#X connect 5 0 39 0;
#X connect 8 0 9 0;
#X connect 11 0 32 0;
#X connect 12 0 65 0;
#X connect 26 0 27 0;
#X connect 27 0 31 0;
#X connect 30 0 2 0;
#X connect 31 0 2 0;
#X connect 32 0 10 0;
#X connect 35 0 54 0;
#X connect 36 0 35 0;
#X connect 39 0 7 0;
#X connect 46 0 40 0;
#X connect 48 0 49 0;
#X connect 49 0 66 0;
#X connect 51 0 50 0;
#X connect 52 0 53 0;
#X connect 53 0 51 0;
#X connect 54 0 2 0;
#X connect 55 0 2 0;
#X connect 56 0 50 0;
#X connect 60 0 61 0;
#X connect 61 0 62 0;
#X connect 62 0 2 0;
#X connect 64 0 10 0;
#X connect 65 0 2 0;
#X connect 66 0 50 0;
