#N canvas 263 216 518 704 10;
#X obj 116 317 textfile;
#X obj 89 60 bng 30 250 50 0 empty empty LOAD 32 15 0 24 -150892 -1
-1;
#X msg 162 243 rewind;
#X obj 116 243 until;
#X obj 49 271 bng 15 250 50 0 empty empty empty 17 7 0 10 -262144 -1
-1;
#X msg 251 354 reset;
#X obj 116 371 list2symbol;
#X obj 212 441 == 1;
#X obj 179 461 spigot;
#X obj 116 407 jasch_lib/detox 1;
#X obj 179 483 symbol;
#X obj 231 241 thisdir;
#X text 68 271 STEP;
#X obj 212 188 bng 15 250 50 0 empty empty empty 17 7 0 10 -262144
-1 -1;
#X text 229 187 RESET;
#X obj 89 7 inlet;
#X obj 36 184 bng 15 250 50 0 empty empty empty 17 7 0 10 -262144 -1
-1;
#X obj 116 159 delay 1000;
#X obj 89 30 t b b;
#X obj 131 30 print UPDATING_TEXT_LABELS;
#X obj 95 483 route id;
#X obj 116 519 pack 0 s;
#X obj 128 441 == 1;
#X obj 95 461 spigot;
#X msg 231 263 read \$1/127.0.0.1/musee/donateurs.php cr;
#X obj 212 206 t b b b;
#X obj 116 182 t b b;
#X obj 89 135 shell;
#X msg 89 99 cd ~/src/postures/projects/hmr && sh update.sh;
#X obj 404 586 outlet;
#X text 387 606 bang when done;
#X obj 116 578 outlet;
#X text 104 606 output of file;
#X msg 404 492 1234;
#X obj 404 522 change;
#X obj 404 545 t b;
#X text 386 624 (only 1st time);
#X connect 0 0 6 0;
#X connect 0 1 3 1;
#X connect 0 1 33 0;
#X connect 1 0 28 0;
#X connect 2 0 0 0;
#X connect 3 0 0 0;
#X connect 4 0 0 0;
#X connect 5 0 9 0;
#X connect 6 0 9 0;
#X connect 7 0 8 1;
#X connect 8 0 10 0;
#X connect 9 0 23 0;
#X connect 9 1 8 0;
#X connect 9 3 7 0;
#X connect 9 3 22 0;
#X connect 10 0 21 1;
#X connect 11 0 24 0;
#X connect 13 0 25 0;
#X connect 15 0 18 0;
#X connect 16 0 26 0;
#X connect 17 0 26 0;
#X connect 18 0 1 0;
#X connect 18 1 19 0;
#X connect 20 0 21 0;
#X connect 21 0 31 0;
#X connect 22 0 23 1;
#X connect 23 0 20 0;
#X connect 24 0 0 0;
#X connect 25 0 2 0;
#X connect 25 1 11 0;
#X connect 25 2 5 0;
#X connect 26 0 3 0;
#X connect 26 1 13 0;
#X connect 27 1 17 0;
#X connect 28 0 27 0;
#X connect 33 0 34 0;
#X connect 34 0 35 0;
#X connect 35 0 29 0;
