#N canvas 66 180 1198 757 10;
#X obj 108 -34 inlet;
#X obj 49 30 bng 15 250 50 0 empty empty empty 17 7 0 10 -262144 -1
-1;
#X obj 95 28 symbol \$2;
#X obj 166 192 list append setTranslation \$3 \$4 \$5;
#X obj 166 212 list append setScale \$6 \$7 \$8;
#X obj 131 168 OSCsymbol;
#X obj 564 83 route containedBy;
#X obj 77 310 s \$1-to-SPIN-TCP;
#X obj 589 379 sph2rect2;
#X obj 614 307 f \$9;
#X obj 614 288 loadbang;
#X msg 559 300 1;
#X obj 556 132 change;
#X obj 557 152 sel 1;
#X obj 288 409 s \$1-to-SPIN-TCP;
#X obj 614 327 - 90;
#X obj 688 297 bng 15 250 50 0 empty empty empty 17 7 0 10 -262144
-1 -1;
#X obj 725 307 anyreg posturePos;
#X obj 599 418 pack 0 0 0 0 0 0;
#X obj 718 353 unpack 0 0 0;
#X obj 581 534 pack 0 0 0;
#X obj 599 438 t a a;
#X text 620 204 Move user one unit back from current position (along
the hotspot's orientation);
#X obj 522 471 expr $f4+$f1;
#X obj 602 471 expr $f5+$f2;
#X obj 682 471 expr $f6+$f3;
#X obj 552 184 t b b b;
#X obj 592 232 t b b;
#X obj 595 214 bng 15 250 50 0 empty empty empty 17 7 0 10 -262144
-1 -1;
#X obj 54 437 s g_hotspot_debugview;
#X msg 66 405 1;
#X obj 618 353 + \$10;
#X obj 573 596 anyreg lastPos;
#X msg 42 602 /posture?? setCubeOffset \$1 \$2 \$3 \, /posture?? setCubeSize
0.001 0.001 0.001 \, /posture?? setConstraintMode 0 \, /posture?? setTranslation
\$1 \$2 \$3;
#X text 288 344 send user to step3-sang;
#X text 599 152 this only gets triggered when the user goes IN (once)
;
#X obj 623 569 print setting_lastPos;
#X msg 288 380 /posture?? setTranslation -26 2308.5 7.5;
#X obj 95 49 makefilename hotspot_%s;
#X obj 564 102 route hotspot_\$2;
#X obj 681 134 print;
#X msg 19 331 /posture??-reporter debug;
#X obj 564 64 OSCparse /posture??-reporter;
#X obj 465 271 s up3;
#X obj 729 44 makefilename /%s-reporter;
#X obj 166 232 list append setOrientation \$9 \$10 \$11;
#X obj 166 252 list append setParent \$12;
#X msg 184 -59 deleteNode \$1 \, createNode \$1 ShapeNode \, /\$1 setShape
2 \, /\$1 setColor 1 0 0 1 \, /\$1 setRenderBin 999;
#X msg 191 -115 deleteNode \$1 \, createNode \$1 ModelNode \, /\$1
setColor 1 0 0 1 \, /\$1 setRenderBin 999 \, /\$1 setModelFromFile
~/Documents/Metalab/hmr/models/\$1.ac;
#X obj 263 49 anyreg gProjectPath;
#X obj 95 95 t a a a;
#X msg 152 119 deleteNode \$1 \, createNode \$1 ModelNode \, /\$1 setModelFromFile
\$2/models/\$1.ac \, /\$1 setColor 1 0 0 1 \, /\$1 setRenderBin 999
;
#X msg 121 133 \$1;
#X obj 497 184 t b b b;
#X obj 410 271 s up3;
#X obj 729 23 anyreg g_hostname;
#X obj 564 31 t a b;
#X obj 564 10 r \$1-from-SPIN;
#X obj 729 3 loadbang;
#X obj 712 3 bng 15 250 50 0 empty empty empty 17 7 0 10 -262144 -1
-1;
#X obj 95 71 pack s s s;
#X obj 388 49 anyreg g_hostname;
#X obj 108 -8 t b b b;
#X msg 145 280 /\$3-reporter addTarget \$1;
#X obj 189 311 p;
#X connect 0 0 62 0;
#X connect 1 0 2 0;
#X connect 2 0 38 0;
#X connect 3 0 7 0;
#X connect 4 0 7 0;
#X connect 5 0 3 0;
#X connect 5 0 4 0;
#X connect 5 0 45 0;
#X connect 5 0 46 0;
#X connect 6 0 39 0;
#X connect 8 0 18 0;
#X connect 8 1 18 1;
#X connect 8 2 18 2;
#X connect 9 0 15 0;
#X connect 10 0 9 0;
#X connect 11 0 8 0;
#X connect 12 0 13 0;
#X connect 13 0 53 0;
#X connect 15 0 31 0;
#X connect 16 0 9 0;
#X connect 17 0 19 0;
#X connect 18 0 21 0;
#X connect 19 0 18 3;
#X connect 19 1 18 4;
#X connect 19 2 18 5;
#X connect 20 0 32 0;
#X connect 20 0 36 0;
#X connect 21 0 23 0;
#X connect 21 1 24 0;
#X connect 21 1 25 0;
#X connect 23 0 20 0;
#X connect 24 0 20 1;
#X connect 25 0 20 2;
#X connect 26 0 43 0;
#X connect 26 1 11 0;
#X connect 26 2 17 0;
#X connect 27 0 11 0;
#X connect 27 1 17 0;
#X connect 28 0 27 0;
#X connect 30 0 29 0;
#X connect 31 0 8 1;
#X connect 37 0 14 0;
#X connect 38 0 60 0;
#X connect 39 0 12 0;
#X connect 39 0 40 0;
#X connect 41 0 7 0;
#X connect 42 0 6 0;
#X connect 44 0 42 1;
#X connect 45 0 7 0;
#X connect 46 0 7 0;
#X connect 49 0 60 1;
#X connect 50 0 63 0;
#X connect 50 1 52 0;
#X connect 50 2 51 0;
#X connect 51 0 7 0;
#X connect 52 0 5 0;
#X connect 53 0 54 0;
#X connect 55 0 44 0;
#X connect 56 0 42 0;
#X connect 56 1 55 0;
#X connect 57 0 56 0;
#X connect 58 0 55 0;
#X connect 59 0 55 0;
#X connect 60 0 50 0;
#X connect 61 0 60 2;
#X connect 62 0 2 0;
#X connect 62 1 49 0;
#X connect 62 2 61 0;
#X connect 63 0 7 0;
#X connect 63 0 64 0;
