#N canvas 588 266 1198 757 10;
#X obj 95 -34 inlet;
#X obj 95 28 symbol \$2;
#X obj 156 282 list append setTranslation \$3 \$4 \$5;
#X obj 156 302 list append setScale \$6 \$7 \$8;
#X obj 121 258 OSCsymbol;
#X obj 67 400 s \$1-to-SPIN-TCP;
#X obj 618 522 change;
#X obj 618 542 sel 1;
#X text 660 542 this only gets triggered when the user goes IN (once)
;
#X obj 95 49 makefilename hotspot_%s;
#X obj 618 497 route hotspot_\$2;
#X obj 618 454 OSCparse /posture??-reporter;
#X obj 783 434 makefilename /%s-reporter;
#X obj 156 322 list append setOrientation \$9 \$10 \$11;
#X obj 204 351 list append setParent \$12;
#X obj 263 49 anyreg gProjectPath;
#X obj 95 125 t a a a;
#X msg 111 223 \$1;
#X obj 618 571 t b b b;
#X obj 618 607 s up3;
#X obj 783 413 anyreg g_hostname;
#X obj 618 421 t a b;
#X obj 618 400 r \$1-from-SPIN;
#X obj 783 393 loadbang;
#X obj 766 393 bng 15 250 50 0 empty empty empty 17 7 0 10 -262144
-1 -1;
#X obj 95 101 pack s s s;
#X obj 388 49 anyreg g_hostname;
#X obj 95 -8 t b b b;
#X msg 204 372 /\$3-reporter addTarget \$1;
#X obj 727 210 p;
#X obj 582 66 route /chantalbaron;
#X obj 618 478 route containedBy;
#X obj 733 26 anyreg g_hostname;
#X obj 582 -14 r \$1-from-SPIN;
#X obj 733 -14 loadbang;
#X obj 713 28 bng 15 250 50 0 empty empty empty 17 7 0 10 -262144 -1
-1;
#X obj 622 144 symbol \$2;
#X obj 622 165 makefilename hotspot_%s;
#X obj 582 112 t a b;
#X obj 582 86 route collide;
#X obj 733 46 makefilename /%s;
#X obj 582 6 t a b;
#X obj 582 193 route hotspot_name;
#X obj 631 120 bng 15 250 50 0 empty empty empty 17 7 0 10 -262144
-1 -1;
#X obj 582 216 s up3;
#X obj 152 156 list append \$12;
#X obj 65 -14 bng 15 250 50 0 empty empty empty 17 7 0 10 -262144 -1
-1;
#X obj 189 233 p;
#X msg 152 178 deleteNode \$1 \, createNode \$1 ModelNode \, /\$1 setParent
\$4-2 \, /\$1 setModelFromFile \$2/models/\$1.ac \, /\$1 setColor 1
0 0 1 \, /\$1 setRenderBin 9;
#X obj 733 6 delay 100;
#X connect 0 0 27 0;
#X connect 1 0 9 0;
#X connect 2 0 5 0;
#X connect 3 0 5 0;
#X connect 4 0 2 0;
#X connect 4 0 3 0;
#X connect 4 0 13 0;
#X connect 6 0 7 0;
#X connect 7 0 18 0;
#X connect 9 0 25 0;
#X connect 10 0 6 0;
#X connect 13 0 5 0;
#X connect 14 0 5 0;
#X connect 15 0 25 1;
#X connect 16 1 17 0;
#X connect 16 2 45 0;
#X connect 17 0 4 0;
#X connect 18 0 19 0;
#X connect 20 0 12 0;
#X connect 21 0 11 0;
#X connect 21 1 20 0;
#X connect 23 0 20 0;
#X connect 24 0 20 0;
#X connect 25 0 16 0;
#X connect 26 0 25 2;
#X connect 27 0 1 0;
#X connect 27 1 15 0;
#X connect 27 2 26 0;
#X connect 28 0 5 0;
#X connect 30 0 39 0;
#X connect 31 0 10 0;
#X connect 32 0 40 0;
#X connect 33 0 41 0;
#X connect 34 0 49 0;
#X connect 35 0 32 0;
#X connect 36 0 37 0;
#X connect 37 0 42 1;
#X connect 38 0 42 0;
#X connect 38 1 36 0;
#X connect 39 0 38 0;
#X connect 40 0 30 1;
#X connect 41 0 30 0;
#X connect 41 1 32 0;
#X connect 42 0 44 0;
#X connect 42 0 29 0;
#X connect 43 0 36 0;
#X connect 45 0 48 0;
#X connect 46 0 27 0;
#X connect 48 0 5 0;
#X connect 48 0 47 0;
#X connect 49 0 32 0;
