#N canvas 639 419 1197 555 10;
#X obj 28 28 widget-spinConnect \$0;
#X obj 28 111 delay 100;
#X obj 28 91 t b;
#N canvas 623 146 1236 721 LTC-models 1;
#X obj -131 54 inlet;
#X obj -131 84 t b b b b b b b b b b b;
#X obj 11 422 s \$0-to-SPIN-TCP;
#X obj 703 125 thisdir;
#X obj 703 151 t b s;
#X obj 673 183 symbol \$1;
#X obj 708 226 pack s s;
#X obj 704 100 delay;
#X obj 823 68 bng 15 250 50 0 empty empty empty 17 7 0 10 -262144 -1
-1;
#X msg 707 274 /LTC setModelFromFile \$2/LTC.ac;
#X obj 118 234 bng 15 250 50 0 empty empty empty 17 7 0 10 -262144
-1 -1;
#X obj 128 259 bng 15 250 50 0 empty empty empty 17 7 0 10 -262144
-1 -1;
#X obj 711 398 tgl 15 0 empty empty empty 17 7 0 10 -262144 -1 -1 0
1;
#X msg 711 419 /experience setEnabled LTC \$1;
#X msg 731 365 /LTC setParent experience;
#X obj 732 452 tgl 15 0 empty empty empty 17 7 0 10 -262144 -1 -1 0
1;
#X msg 732 473 /experience setEnabled LTC-room \$1;
#X obj 103 210 bng 15 250 50 0 empty empty empty 17 7 0 10 -262144
-1 -1;
#X obj 144 283 bng 15 250 50 0 empty empty empty 17 7 0 10 -262144
-1 -1;
#X obj 158 307 bng 15 250 50 0 empty empty empty 17 7 0 10 -262144
-1 -1;
#X obj 172 330 bng 15 250 50 0 empty empty empty 17 7 0 10 -262144
-1 -1;
#X msg 242 171 LTC;
#X obj 246 144 bng 15 250 50 0 empty empty empty 17 7 0 10 -262144
-1 -1;
#X msg 87 113 createNode experience SwitchNode;
#X obj 165 282 step4-models cell;
#X obj 193 329 step6-models patient;
#X obj -251 152 bng 15 250 50 0 empty empty empty 17 7 0 10 -262144
-1 -1;
#X obj -158 116 bng 15 250 50 0 empty empty empty 17 7 0 10 -262144
-1 -1;
#X obj -196 208 list 1 1 1 1 1 1 1;
#X msg -258 274 /experience setEnabled step1 \$1 \, /experience setEnabled
step2 \$2 \, /experience setEnabled step3 \$3 \, /experience setEnabled
step4 \$4 \, /experience setEnabled step5 \$5 \, /experience setEnabled
step6 \$6 \, /experience setEnabled step7 \$7;
#X obj -239 400 print;
#X obj -191 169 delay 5000;
#X obj -251 125 r reset;
#X obj 123 210 step1-models corridor;
#X obj 149 258 step3-models sang;
#X obj 138 234 step2-models laboratoire;
#X obj -258 242 list 1 0 0 0 0 0 0;
#X obj 179 306 step5-models sang2;
#N canvas 900 126 562 382 create_step_nodes 0;
#X obj -6 50 inlet;
#X obj 1 241 outlet;
#X msg 64 72 createNode step1 SwitchNode \, /step1 setParent experience
;
#X msg 80 97 createNode step2 SwitchNode \, /step2 setParent experience
;
#X msg 95 121 createNode step3 SwitchNode \, /step3 setParent experience
;
#X msg 111 146 createNode step4 SwitchNode \, /step4 setParent experience
;
#X msg 130 171 createNode step5 SwitchNode \, /step5 setParent experience
;
#X msg 145 195 createNode step6 SwitchNode \, /step6 setParent experience
;
#X connect 0 0 2 0;
#X connect 0 0 4 0;
#X connect 0 0 5 0;
#X connect 0 0 6 0;
#X connect 0 0 7 0;
#X connect 0 0 3 0;
#X connect 2 0 1 0;
#X connect 3 0 1 0;
#X connect 4 0 1 0;
#X connect 5 0 1 0;
#X connect 6 0 1 0;
#X connect 7 0 1 0;
#X restore 311 108 pd create_step_nodes;
#X text 271 207 <-- Step 1 : corridor (x +0 \, y +0);
#X text 308 304 <-- Step 5 : sang 2e passage (x +2000 \, y +2000);
#X text 305 232 <-- Step 2 : laboratoire (x +0 \, y +0);
#X text 282 256 <-- Step 3 : sang (x +0 \, y +2000);
#X text 295 281 <-- Step 4 : cellule (x +1000 \, y +3000);
#X text 329 327 <-- Step 6 : patient (x +2000 \, y +1000);
#X connect 0 0 1 0;
#X connect 1 2 31 0;
#X connect 1 4 25 0;
#X connect 1 5 37 0;
#X connect 1 6 24 0;
#X connect 1 7 34 0;
#X connect 1 8 35 0;
#X connect 1 9 33 0;
#X connect 1 10 23 0;
#X connect 1 10 38 0;
#X connect 3 0 4 0;
#X connect 4 0 5 0;
#X connect 4 1 6 1;
#X connect 5 0 6 0;
#X connect 6 0 9 0;
#X connect 7 0 3 0;
#X connect 8 0 3 0;
#X connect 9 0 2 0;
#X connect 10 0 35 0;
#X connect 11 0 34 0;
#X connect 12 0 13 0;
#X connect 13 0 2 0;
#X connect 14 0 2 0;
#X connect 15 0 16 0;
#X connect 16 0 2 0;
#X connect 17 0 33 0;
#X connect 18 0 24 0;
#X connect 19 0 37 0;
#X connect 20 0 25 0;
#X connect 21 0 35 0;
#X connect 22 0 21 0;
#X connect 23 0 2 0;
#X connect 24 0 2 0;
#X connect 25 0 2 0;
#X connect 27 0 28 0;
#X connect 28 0 29 0;
#X connect 29 0 2 0;
#X connect 29 0 30 0;
#X connect 31 0 36 0;
#X connect 32 0 26 0;
#X connect 33 0 2 0;
#X connect 34 0 2 0;
#X connect 35 0 2 0;
#X connect 36 0 29 0;
#X connect 37 0 2 0;
#X connect 38 0 2 0;
#X restore 93 240 pd LTC-models;
#N canvas 684 91 1220 823 LTC-hotspot 1;
#X obj 393 296 s \$0-to-SPIN-TCP;
#X obj 160 14 shell;
#X msg 160 -6 hostname -s;
#X obj 160 -28 inlet;
#X text 336 -12 TODO: make hotspot correct size \, transparent \, etc.
;
#X obj 160 74 t a a a a;
#X obj 286 62 t a;
#X text 897 310 hz;
#X msg 758 284 /posture??-reporter debug;
#X msg 741 126 /hotspot* setShape 2;
#X msg 693 311 /posture??-reporter setMaxRate 20;
#X msg 642 23 /posture??-reporter setReporting DISTANCE 0;
#X msg 572 708 createNode hotspot ShapeNode \, /\$1-reporter addTarget
hotspot;
#X obj 162 47 symbol;
#X msg 347 99 createNode hotspot_up3 ShapeNode \, /\$1-reporter addTarget
hotspot_up3 \, /hotspot_up3 setParent hotspot_tripper;
#X msg 369 137 createNode hotspot_up4 ShapeNode \, /\$1-reporter addTarget
hotspot_up4 \, /hotspot_up4 setParent hotspot_tripper;
#X msg 392 174 createNode hotspot_up5 ShapeNode \, /\$1-reporter addTarget
hotspot_up5 \, /hotspot_up5 setParent hotspot_tripper;
#X msg 414 212 createNode hotspot_up6 ShapeNode \, /\$1-reporter addTarget
hotspot_up6 \, /hotspot_up6 setParent hotspot_tripper;
#X obj 782 69 hotspot up1;
#X obj 931 54 t a;
#X obj 971 283 s \$0-to-SPIN-TCP;
#X msg 992 92 createNode hotspot_down2 ShapeNode \, /\$1-reporter addTarget
hotspot_down2 \, /hotspot_down2 setParent hotspot_tripper;
#X msg 1010 130 createNode hotspot_down3 ShapeNode \, /\$1-reporter
addTarget hotspot_down3 \, /hotspot_down3 setParent hotspot_tripper
;
#X msg 1032 168 createNode hotspot_down4 ShapeNode \, /\$1-reporter
addTarget hotspot_down4 \, /hotspot_down4 setParent hotspot_tripper
;
#X msg 1055 205 createNode hotspot_down5 ShapeNode \, /\$1-reporter
addTarget hotspot_down5 \, /hotspot_down5 setParent hotspot_tripper
;
#X obj 1 458 s \$0-to-SPIN-TCP;
#X obj 399 778 s \$0-to-SPIN-TCP;
#X msg 971 54 createNode hotspot_down1 ShapeNode \, /\$1-reporter addTarget
hotspot_down1 \, /hotspot_down1 setParent hotspot_tripper;
#X msg 589 731 /hotspot setShape 2 \, /hotspot setColor 0 0 0 0 \,
/hotspot setRenderBin 9999 \, /hotspot setTranslation 0 0 -1.59 \,
/hotspot setScale 4 4 4;
#X obj 946 345 t a;
#X obj 979 763 s \$0-to-SPIN-TCP;
#X msg 329 61 createNode hotspot_up2 ShapeNode \, /\$1-reporter addTarget
hotspot_up2 \, /hotspot_up2 setParent hotspot_tripper;
#X obj 38 535 bng 15 250 50 0 empty empty empty 17 7 0 10 -262144 -1
-1;
#X obj 100 501 bng 15 250 50 0 empty empty empty 17 7 0 10 -262144
-1 -1;
#X obj 79 716 bng 15 250 50 0 empty empty empty 17 7 0 10 -262144 -1
-1;
#X obj 141 682 bng 15 250 50 0 empty empty empty 17 7 0 10 -262144
-1 -1;
#X obj 361 377 t a;
#X msg 38 595 /hotspot_tripper setEnabled hotspot_up2 \$2 \, /hotspot_tripper
setEnabled hotspot_up3 \$3 \, /hotspot_tripper setEnabled hotspot_up4
\$4 \, /hotspot_tripper setEnabled hotspot_up5 \$5 \, /hotspot_tripper
setEnabled hotspot_up6 \$6;
#X obj 100 529 list 1 1 1 1 1 1;
#X obj 38 563 list 0 1 0 0 0 0;
#X msg 79 776 /hotspot_tripper setEnabled hotspot_down1 \$1 \, /hotspot_tripper
setEnabled hotspot_down2 \$2 \, /hotspot_tripper setEnabled hotspot_down3
\$3 \, /hotspot_tripper setEnabled hotspot_down4 \$4 \, /hotspot_tripper
setEnabled hotspot_down5 \$5;
#X obj 141 710 list 1 1 1 1 1 1;
#X obj 79 744 list 0 1 0 0 0 0;
#X text 797 440 <-- to step3 sang;
#X text 781 381 <-- to step2 laboratoire;
#X text 816 497 <-- to step4 cell;
#X text 828 559 <-- to step5 sang2;
#X text 838 629 <-- to step6 patient;
#X text 1391 468 <-- to step3 sang;
#X text 1377 404 <-- to step2 laboratoire;
#X text 1412 532 <-- to step4 cell;
#X text 1421 591 <-- to step5 sang2;
#X text 1360 357 <-- to step1 corridor;
#X msg 1005 393 /hotspot_down2 setShape 2 \, /hotspot_down2 setColor
0 0 0 0 \, /hotspot_down2 setRenderBin 9999 \, /hotspot_down2 setTranslation
0 2301 0 \, /hotspot_down2 setScale 600 6 600;
#X msg 456 548 /hotspot_up5 setShape 2 \, /hotspot_up5 setColor 0 0
0 0 \, /hotspot_up5 setRenderBin 9999 \, /hotspot_up5 setTranslation
1000 3475 0 \, /hotspot_up5 setScale 600 6 600;
#X msg 1015 451 /hotspot_down3 setShape 2 \, /hotspot_down3 setColor
0 0 0 0 \, /hotspot_down3 setRenderBin 9999 \, /hotspot_down3 setTranslation
1000 3485 0 \, /hotspot_down3 setScale 600 6 600;
#X msg 471 613 /hotspot_up6 setShape 2 \, /hotspot_up6 setColor 0 0
0 0 \, /hotspot_up6 setRenderBin 9999 \, /hotspot_up6 setTranslation
2000 2300 0 \, /hotspot_up6 setScale 600 6 600;
#X msg 273 23 2-1 \, 2-2 \, 2-3 \, 2-4 \, 2-5 \, 2-6 \, 2-7 \, 2-8
\, 2-9 \, 2-10 \, 2-11 \, 2-12 \, 2-13;
#X msg 426 422 /hotspot_up3 setShape 1 \, /hotspot_up3 setColor 1 0
0 1 \, /hotspot_up3 setRenderBin 9999 \, /hotspot_up3 setTranslation
-25.5 1209 4 \, /hotspot_up3 setScale 2 2 4 \, /hotspot_up3 setOrientation
0 0 30;
#N canvas 409 28 1024 597 hotspots_up3 0;
#X obj 62 56 inlet;
#X obj 224 141 bng 15 250 50 0 empty empty empty 17 7 0 10 -262144
-1 -1;
#X obj 222 176 bng 15 250 50 0 empty empty empty 17 7 0 10 -262144
-1 -1;
#X obj 221 212 bng 15 250 50 0 empty empty empty 17 7 0 10 -262144
-1 -1;
#X obj 218 247 bng 15 250 50 0 empty empty empty 17 7 0 10 -262144
-1 -1;
#X obj 215 283 bng 15 250 50 0 empty empty empty 17 7 0 10 -262144
-1 -1;
#X obj 210 319 bng 15 250 50 0 empty empty empty 17 7 0 10 -262144
-1 -1;
#X obj 207 355 bng 15 250 50 0 empty empty empty 17 7 0 10 -262144
-1 -1;
#X obj 204 389 bng 15 250 50 0 empty empty empty 17 7 0 10 -262144
-1 -1;
#X obj 200 424 bng 15 250 50 0 empty empty empty 17 7 0 10 -262144
-1 -1;
#X obj 197 459 bng 15 250 50 0 empty empty empty 17 7 0 10 -262144
-1 -1;
#X obj 194 495 bng 15 250 50 0 empty empty empty 17 7 0 10 -262144
-1 -1;
#X obj 189 531 bng 15 250 50 0 empty empty empty 17 7 0 10 -262144
-1 -1;
#X obj 186 567 bng 15 250 50 0 empty empty empty 17 7 0 10 -262144
-1 -1;
#X obj 88 92 t b b b b b b b b b b b b b;
#X obj 51 81 bng 15 250 50 0 empty empty empty 17 7 0 10 -262144 -1
-1;
#X text 597 175 <----------Room 2 - microscope (CERC111);
#X text 595 211 <----------Room 3 - pipette (CERC110);
#X text 608 247 <----------Room 4 - hotte (CERC113);
#X text 599 282 <----------Room 5 - hotte (CERC108);
#X text 562 317 <----------Room 6 - selecteur immuno (CERC201);
#X text 589 353 <----------Room 7 - pipette (CERC202);
#X text 573 388 <----------Room 8 - microscope (CERC114);
#X text 590 423 <----------Room 9 - congelation (CERC115);
#X text 567 458 <----------Room 10 - microscope (CERC314);
#X text 565 494 <----------Room 11 - scanner (CERC316);
#X text 513 529 <----------Room 12 - congelation (CERC321);
#X text 581 565 <----------Room 13 - hotte (CERC318);
#X text 614 139 <----------Room 1 - scanner (CERC112);
#X obj -135 167 hmr_hotspot \$0 up3-2 -64.5 1180 1.5 1 1 1 0 0 30;
#X obj -138 193 hmr_hotspot \$0 up3-3 -85.5 1178.5 1 0.5 0.5 2 0 0
0;
#X obj -141 218 hmr_hotspot \$0 up3-4 -132.75 1189.25 2.25 1 1 0.5
30 0 30;
#X obj -145 243 hmr_hotspot \$0 up3-5 -27.75 1289.25 2.25 1 1 0.5 30
0 30;
#X obj -149 269 hmr_hotspot \$0 up3-6 -144.5 1273 2.5 1 1 1 0 0 0;
#X obj -152 295 hmr_hotspot \$0 up3-7 -180.5 1274 2 1 1 2 0 0 0;
#X obj -156 320 hmr_hotspot \$0 up3-8 -104.5 1370 1.5 1 1 1 0 0 0;
#X obj -160 345 hmr_hotspot \$0 up3-9 -164.5 1370 -2 2 2 2 0 0 0;
#X obj -164 370 hmr_hotspot \$0 up3-10 -209.5 1275 1.5 1 1 1 0 0 0
;
#X obj -166 396 hmr_hotspot \$0 up3-11 -262 1272.5 4.25 1 1 0.5 0 30
0;
#X obj -171 422 hmr_hotspot \$0 up3-12 -294.5 1275 -2 2 2 2 0 0 0;
#X obj -174 447 hmr_hotspot \$0 up3-13 -287.75 1364.25 2.25 1 1 0.5
30 0 30;
#X obj -133 141 hmr_hotspot \$0 up3-1 -24.9 1207.5 4.75 1 1 0.4 0 45
90;
#X obj 293 97 hmr_hotspot \$0 up3-1 -19.85 109.75 4.75 1 1 0.4 -100
0 45 1-scanner;
#X obj 233 282 hmr_hotspot \$0 up3-5 -56.25 182.25 2.5 1 1.5 0.5 -45
0 255 5-hotte-group;
#X obj 229 318 hmr_hotspot \$0 up3-6 -133 192 10 1 1.5 0.5 90 0 105
6-select-immuno-group;
#X obj 226 354 hmr_hotspot \$0 up3-7 -179.6 189.5 1.2 0.2 0.2 1.4 0
10 0 7-pipette-group;
#X obj 218 424 hmr_hotspot \$0 up3-9 -164.5 270 -2 2 2 2 0 0 0 9-congelation-group
;
#X obj 207 531 hmr_hotspot \$0 up3-12 -294.5 175 -2 2 2 2 0 0 0 12-congelation-group
;
#X obj 204 566 hmr_hotspot \$0 up3-13 -287.75 264.25 2.5 1 1.5 0.5
-45 0 255 13-hotte-group;
#X obj 896 136 hmr_hotspot \$0 up3-1 -4.7 -2.55 -1.87 1 1 0.4 -100
0 45 1-scanner-group;
#X obj 894 172 hmr_hotspot \$0 up3-2 0 0 0 0.6 0.6 0.2 0 0 50 2-microscope-group
;
#X obj 891 208 hmr_hotspot \$0 up3-3 -94.5 89.7 1.2 0.2 0.2 1.4 0 10
0 3-pipette-group;
#X obj 888 243 hmr_hotspot \$0 up3-4 -133.4 104.25 2.5 1 1.5 0.5 -45
0 255 4-hotte-group;
#X obj 884 278 hmr_hotspot \$0 up3-5 -56.25 182.25 2.5 1 1.5 0.5 -45
0 255 5-hotte-group;
#X obj 880 314 hmr_hotspot \$0 up3-6 -133 192 10 1 1.5 0.5 90 0 105
6-select-immuno-group;
#X obj 877 350 hmr_hotspot \$0 up3-7 -179.6 189.5 1.2 0.2 0.2 1.4 0
10 0 7-pipette-group;
#X obj 873 385 hmr_hotspot \$0 up3-8 -110 268 1.9 0.6 0.6 0.2 0 0 50
8-microscope-group;
#X obj 869 420 hmr_hotspot \$0 up3-9 -164.5 270 -2 2 2 2 0 0 0 9-congelation-group
;
#X obj 865 455 hmr_hotspot \$0 up3-10 -209.5 175 1.9 0.6 0.6 0.2 0
0 50 10-microscope-group;
#X obj 863 491 hmr_hotspot \$0 up3-11 -262 172.5 4.25 1 1 0.5 -45 0
145 11-scanner-group;
#X obj 858 527 hmr_hotspot \$0 up3-12 -294.5 175 -2 2 2 2 0 0 0 12-congelation-group
;
#X obj 855 562 hmr_hotspot \$0 up3-13 -287.75 264.25 2.5 1 1.5 0.5
-45 0 255 13-hotte-group;
#X obj 212 495 hmr_hotspot \$0 up3-11 -4.7 -2.55 -1.87 1 1 0.4 -100
0 45 11-scanner-group;
#X obj 243 176 hmr_hotspot \$0 up3-2 -1.9 2.15 -3.75 0.6 0.6 0.2 0
90 0 2-microscope-group;
#X obj 222 389 hmr_hotspot \$0 up3-8 -1.9 2.15 -3.75 0.6 0.6 0.2 0
90 0 8-microscope-group;
#X obj 214 459 hmr_hotspot \$0 up3-10 -1.9 2.15 -3.75 0.6 0.6 0.2 0
90 0 10-microscope-group;
#X obj 240 212 hmr_hotspot \$0 up3-3 -0.9 -1.85 -0.75 0.2 0.2 1.4 0
10 0 3-pipette-group;
#X obj 237 247 hmr_hotspot \$0 up3-4 -2.64 9.26 2.25 1 1.5 0.5 -45
0 255 4-hotte-group;
#X obj 245 140 hmr_hotspot \$0 up3-1 -4.7 -2.55 -1.87 1 1 0.4 -100
0 45;
#X connect 0 0 14 0;
#X connect 1 0 68 0;
#X connect 2 0 63 0;
#X connect 3 0 66 0;
#X connect 4 0 67 0;
#X connect 5 0 43 0;
#X connect 6 0 44 0;
#X connect 7 0 45 0;
#X connect 8 0 64 0;
#X connect 9 0 46 0;
#X connect 10 0 65 0;
#X connect 11 0 62 0;
#X connect 12 0 47 0;
#X connect 13 0 48 0;
#X connect 14 0 48 0;
#X connect 14 1 47 0;
#X connect 14 2 62 0;
#X connect 14 3 65 0;
#X connect 14 4 46 0;
#X connect 14 5 64 0;
#X connect 14 6 45 0;
#X connect 14 7 44 0;
#X connect 14 8 43 0;
#X connect 14 9 67 0;
#X connect 14 10 66 0;
#X connect 14 11 63 0;
#X connect 14 12 68 0;
#X connect 15 0 14 0;
#X restore 257 169 pd hotspots_up3;
#X obj 246 145 bng 15 250 50 0 empty empty empty 17 7 0 10 -262144
-1 -1;
#X msg 600 4 /posture??-reporter setReporting CONTAINMENT 1;
#X msg 145 454 /posture?? setCubeSize 10000 10000 10000;
#X obj 1081 643 r down1;
#X obj 1097 703 r up2;
#X msg 1097 725 /hotspot_down1 setScale 600 2 600 \, /room1-4 setTranslation
-4.902 90.902 3.75;
#X msg 1081 663 /hotspot_down1 setScale 0 0 0 \, /room1-4 setTranslation
-4.902 100 3.75;
#X msg 990 345 /hotspot_down1 setShape 2 \, /hotspot_down1 setColor
0 0 0 0 \, /hotspot_down1 setRenderBin 9999 \, /hotspot_down1 setTranslation
0 45 0 \, /hotspot_down1 setScale 600 6 600;
#X msg 412 370 /hotspot_up2 setShape 2 \, /hotspot_up2 setColor 0 0
0 0 \, /hotspot_up2 setRenderBin 99999 \, /hotspot_up2 setTranslation
-184 178 3 \, /hotspot_up2 setScale 361 249 28;
#X msg 26 203 /\$1-reporter setParent \$1 \, /\$1-reporter setReporting
CONTAINMENT 1 \, /\$1 setcontainmentMode 1 \, /\$1 setCubeOffset 0
0 0 \, /\$1 setCubeSize 100 100 100;
#X msg 150 482 /posture?? setCubeSize 700 500 150;
#X msg 1502 655 /hotspot_down5 setShape 2 \, /hotspot_down5 setColor
1 0 0 1 \, /hotspot_down5 setRenderBin 9999 \, /hotspot_down5 setTranslation
2025 1082.67 16 \, /hotspot_down5 setScale 1.5 2.5 0.5;
#X msg 1048 578 /hotspot_down5 setShape 2 \, /hotspot_down5 setColor
1 0 0 1 \, /hotspot_down5 setRenderBin 999 \, /hotspot_down5 setTranslation
2020.85 1077.03 5.25 \, /hotspot_down5 setScale 0.65 0.65 0.65;
#X msg 442 486 /hotspot_up4 setShape 1 \, /hotspot_up4 setColor 0 0
0 0 \, /hotspot_up4 setRenderBin 9999 \, /hotspot_up4 setTranslation
-24.23 2384.03 6.51 \, /hotspot_up4 setScale 100 0.5 100;
#X msg 1035 516 /hotspot_down4 setShape 2 \, /hotspot_down4 setColor
0 0 0 0 \, /hotspot_down4 setRenderBin 9999 \, /hotspot_down4 setTranslation
2001.76 2383.74 6.51 \, /hotspot_down4 setScale 100 0.5 100;
#X msg -49 291 createNode \$1-reporter ReporterNode \, createNode hotspot_tripper
SwitchNode \, /hotspot_tripper setParent step2;
#X msg 2 361 deleteNode mainLight \, createNode mainLight LightSource
\, /mainLight setParent posture05;
#X connect 1 0 13 0;
#X connect 2 0 1 0;
#X connect 3 0 2 0;
#X connect 5 0 29 0;
#X connect 5 0 36 0;
#X connect 5 1 6 0;
#X connect 5 1 19 0;
#X connect 5 2 69 0;
#X connect 5 3 75 0;
#X connect 6 0 15 0;
#X connect 6 0 16 0;
#X connect 6 0 17 0;
#X connect 6 0 31 0;
#X connect 8 0 0 0;
#X connect 9 0 0 0;
#X connect 10 0 0 0;
#X connect 11 0 0 0;
#X connect 13 0 5 0;
#X connect 14 0 0 0;
#X connect 15 0 0 0;
#X connect 16 0 0 0;
#X connect 17 0 0 0;
#X connect 19 0 21 0;
#X connect 19 0 22 0;
#X connect 19 0 23 0;
#X connect 19 0 24 0;
#X connect 19 0 27 0;
#X connect 21 0 20 0;
#X connect 22 0 20 0;
#X connect 23 0 20 0;
#X connect 24 0 20 0;
#X connect 27 0 20 0;
#X connect 29 0 74 0;
#X connect 29 0 55 0;
#X connect 29 0 53 0;
#X connect 29 0 67 0;
#X connect 29 0 72 0;
#X connect 31 0 0 0;
#X connect 32 0 39 0;
#X connect 33 0 38 0;
#X connect 34 0 42 0;
#X connect 35 0 41 0;
#X connect 36 0 68 0;
#X connect 36 0 54 0;
#X connect 36 0 56 0;
#X connect 36 0 73 0;
#X connect 37 0 26 0;
#X connect 38 0 37 0;
#X connect 39 0 37 0;
#X connect 40 0 26 0;
#X connect 41 0 40 0;
#X connect 42 0 40 0;
#X connect 53 0 30 0;
#X connect 54 0 26 0;
#X connect 55 0 30 0;
#X connect 56 0 26 0;
#X connect 58 0 26 0;
#X connect 60 0 59 0;
#X connect 61 0 0 0;
#X connect 62 0 25 0;
#X connect 63 0 66 0;
#X connect 64 0 65 0;
#X connect 65 0 30 0;
#X connect 66 0 30 0;
#X connect 67 0 30 0;
#X connect 68 0 26 0;
#X connect 69 0 25 0;
#X connect 70 0 25 0;
#X connect 72 0 30 0;
#X connect 73 0 26 0;
#X connect 74 0 30 0;
#X connect 75 0 25 0;
#X connect 76 0 25 0;
#X restore 179 187 pd LTC-hotspot;
#X obj 71 240 bng 15 250 50 0 empty empty empty 17 7 0 10 -262144 -1
-1;
#N canvas 16 115 980 812 hotspot_triggers 1;
#X obj 278 49 shell;
#X msg 278 27 hostname -s;
#X obj 113 74 r \$0-from-SPIN;
#X obj 278 93 makefilename /%s-reporter;
#X obj 33 142 list;
#X obj 113 114 OSCparse /posture??-reporter;
#X obj 278 71 symbol;
#X obj 258 144 list;
#X obj 958 86 loadbang;
#X obj 958 110 delay 10000;
#X obj -67 578 print;
#X obj 275 -1 loadbang;
#X obj 232 11 bng 15 250 50 0 empty empty empty 17 7 0 10 -262144 -1
-1;
#X obj -53 178 trigger-hotspot hotspot_up2;
#X obj -24 222 trigger-hotspot hotspot_up4;
#X obj -10 244 trigger-hotspot hotspot_up5;
#X obj 5 268 trigger-hotspot hotspot_up6;
#X obj 178 178 trigger-hotspot hotspot_down1;
#X obj 187 200 trigger-hotspot hotspot_down2;
#X obj 202 222 trigger-hotspot hotspot_down3;
#X obj 216 244 trigger-hotspot hotspot_down4;
#X obj 231 268 trigger-hotspot hotspot_down5;
#X obj -53 385 bng 15 250 50 0 empty empty empty 17 7 0 10 -262144
-1 -1;
#X obj -80 693 s \$0-to-SPIN-TCP;
#X obj 523 761 print;
#X obj -207 350 s gotoPos;
#X obj 636 75 symbol;
#X obj 571 15 r gotoPos;
#X obj 571 157 s \$0-to-SPIN-TCP;
#X obj 571 102 OSCprepend /postureID;
#X msg 571 37 setTranslation \$1 \$2 \$3;
#X obj 610 131 print;
#X text 493 377 <-- 3 last digits = set user coordinates (x \, y \,
z);
#X obj 837 135 bng 15 250 50 0 empty empty empty 17 7 0 10 -262144
-1 -1;
#X obj 837 108 r reset;
#X msg -81 496 /experience setEnabled step1 \$1 \, /experience setEnabled
step2 \$2 \, /experience setEnabled step3 \$3 \, /experience setEnabled
step4 \$4 \, /experience setEnabled step5 \$5 \, /experience setEnabled
step6 \$6;
#X msg 567 661 /hotspot_tripper setEnabled hotspot_up2 \$1 \, /hotspot_tripper
setEnabled hotspot_up3 \$2 \, /hotspot_tripper setEnabled hotspot_up4
\$3 \, /hotspot_tripper setEnabled hotspot_up5 \$4 \, /hotspot_tripper
setEnabled hotspot_up6 \$5;
#X msg 622 570 /hotspot_tripper setEnabled hotspot_down1 \$2 \, /hotspot_tripper
setEnabled hotspot_down2 \$3 \, /hotspot_tripper setEnabled hotspot_down3
\$4 \, /hotspot_tripper setEnabled hotspot_down4 \$5 \, /hotspot_tripper
setEnabled hotspot_down5 \$6;
#X text 942 156 <-- reset models and user position;
#X text 987 221 <-- reset hotspots;
#X obj -78 362 bng 15 250 50 0 empty empty empty 17 7 0 10 -262144
-1 -1;
#X obj -7 428 bng 15 250 50 0 empty empty empty 17 7 0 10 -262144 -1
-1;
#X obj -32 405 bng 15 250 50 0 empty empty empty 17 7 0 10 -262144
-1 -1;
#X obj 18 449 bng 15 250 50 0 empty empty empty 17 7 0 10 -262144 -1
-1;
#X obj -100 340 bng 15 250 50 0 empty empty empty 17 7 0 10 -262144
-1 -1;
#X obj 865 223 list 1 0 0 0 0 0 0;
#X text 546 463 <-- switches between step 3 and 5 by going back and
forth;
#X obj 332 422 bng 15 250 50 0 empty empty empty 17 7 0 10 -262144
-1 -1;
#X obj 347 399 bng 15 250 50 0 empty empty empty 17 7 0 10 -262144
-1 -1;
#X obj 302 500 bng 15 250 50 0 empty empty empty 17 7 0 10 -262144
-1 -1;
#X obj 317 442 bng 15 250 50 0 empty empty empty 17 7 0 10 -262144
-1 -1;
#X obj 290 521 bng 15 250 50 0 empty empty empty 17 7 0 10 -262144
-1 -1;
#X obj 365 377 bng 15 250 50 0 empty empty empty 17 7 0 10 -262144
-1 -1;
#X obj -198 233 bng 15 250 50 0 empty empty empty 17 7 0 10 -262144
-1 -1;
#X obj -223 210 bng 15 250 50 0 empty empty empty 17 7 0 10 -262144
-1 -1;
#X obj -152 276 bng 15 250 50 0 empty empty empty 17 7 0 10 -262144
-1 -1;
#X obj -177 253 bng 15 250 50 0 empty empty empty 17 7 0 10 -262144
-1 -1;
#X obj -127 297 bng 15 250 50 0 empty empty empty 17 7 0 10 -262144
-1 -1;
#X msg -207 330 \$1 \$2 \$3;
#X obj -59 362 list 0 1 0 0 0 0;
#X obj -33 383 list 0 0 1 0 0 0;
#X obj 12 426 list 0 0 0 0 1 0;
#X obj 37 448 list 0 0 0 0 0 1;
#X obj 385 378 list 1 0 0 0 0 0;
#X obj 366 399 list 0 1 0 0 0 0;
#X obj 352 420 list 0 0 1 0 0 0;
#X obj 335 442 list 0 0 0 1 0 0;
#X obj 321 498 list 0 0 0 0 1 0;
#X obj 309 520 list 0 0 0 0 0 1;
#X obj 446 442 list 0 0 0 0 0 0;
#X obj 433 463 list 0 0 0 1 0 0;
#X obj 421 225 bng 15 250 50 0 empty empty empty 17 7 0 10 -262144
-1 -1;
#X obj 396 202 bng 15 250 50 0 empty empty empty 17 7 0 10 -262144
-1 -1;
#X obj 467 268 bng 15 250 50 0 empty empty empty 17 7 0 10 -262144
-1 -1;
#X obj 442 245 bng 15 250 50 0 empty empty empty 17 7 0 10 -262144
-1 -1;
#X obj 374 180 bng 15 250 50 0 empty empty empty 17 7 0 10 -262144
-1 -1;
#X obj 438 320 s gotoPos;
#X msg 438 300 \$1 \$2 \$3;
#X obj 904 257 list 0 0 7.5;
#X text 987 257 <-- reset user position;
#X obj 905 305 s gotoPos;
#X msg 905 285 \$1 \$2 \$3;
#X msg 17 581 /hotspot_tripper debug;
#X obj 164 717 bng 15 250 50 0 empty empty empty 17 7 0 10 -262144
-1 -1;
#X obj 178 756 bng 15 250 50 0 empty empty empty 17 7 0 10 -262144
-1 -1;
#X obj 325 463 list 0 0 0 0 0 0;
#X obj -159 253 list 1000 3495 7.5;
#X obj 460 245 list 1000 3495 7.5;
#X obj 486 266 list 2000 2315 7.5;
#X msg 186 717 /hotspot_down3 setTranslation 1000 3455 0;
#X msg 199 756 /hotspot_down3 setTranslation 1000 3485 0;
#X obj 35 604 tgl 15 0 empty empty empty 17 7 0 10 -262144 -1 -1 0
1;
#X floatatom 189 570 5 0 0 0 - - -;
#X msg 189 590 /step2 setTranslation 0 \$1 0;
#X floatatom 237 616 5 0 0 0 - - -;
#X msg 237 636 /room1-1 setTranslation 0 0 \$1;
#X msg 29 629 /step2 setAll \$1;
#X obj 49 648 tgl 15 0 empty empty empty 17 7 0 10 -262144 -1 -1 0
1;
#X msg 43 673 /experience setEnabled step2 \$1;
#X obj -197 619 tgl 15 0 empty empty empty 17 7 0 10 -262144 -1 -1
0 1;
#X msg -201 644 /experience setEnabled step1 \$1;
#X floatatom 275 668 5 0 0 0 - - -;
#X msg 276 688 /room1-1 setScale \$1 \$1 \$1;
#X obj -178 231 list -26 2308.5 7.5;
#X obj -82 340 list 1 1 0 0 0 0;
#X msg -213 456 /step2 setTranslation 0 0 0;
#X obj 138 317 s fogOFF;
#X obj 138 357 s laboON;
#X obj 138 377 s cellON;
#X obj 138 337 s sangfrontON;
#X obj 138 397 s sangbackON;
#X obj -204 210 list -20 1162 7.5;
#X obj 392 180 list -10.5 40 7.5;
#X obj -164 83 trigger-hotspot hotspot_up3;
#X obj -39 200 r up3;
#X obj 837 156 list 1 1 0 0 0 0;
#X msg 726 264 /step2 setTranslation 0 0 0;
#X obj 726 286 s \$0-to-SPIN-TCP;
#X msg -220 429 /step2 setTranslation 0 0 0;
#X obj -206 160 s up2;
#X obj -209 184 s down1;
#X obj 415 202 list -20 108.5 4.25;
#X obj 790 235 s laboON;
#X obj -14 405 list 0 0 0 1 1 0;
#X obj 161 420 s upcell;
#X obj 159 443 s sang1;
#X obj 156 467 s sang2;
#N canvas 322 22 481 346 cellSwitch 0;
#X obj 140 94 s upcell;
#X obj 138 117 s sang1;
#X obj 135 141 s sang2;
#X restore -150 124 pd cellSwitch;
#X obj -134 275 list 2001.75 2384 6.5;
#X obj -108 296 list 2020.97 1076.22 5.5;
#X obj -52 26 bng 15 250 50 0 empty empty empty 17 7 0 10 -262144 -1
-1;
#X obj -47 48 s up3;
#X obj 441 223 list -26 2382.75 7.5;
#X connect 0 0 6 0;
#X connect 0 0 26 0;
#X connect 1 0 0 0;
#X connect 2 0 5 0;
#X connect 3 0 5 1;
#X connect 4 0 13 0;
#X connect 4 0 14 0;
#X connect 4 0 15 0;
#X connect 4 0 16 0;
#X connect 5 0 4 0;
#X connect 5 0 7 0;
#X connect 6 0 3 0;
#X connect 7 0 17 0;
#X connect 7 0 18 0;
#X connect 7 0 19 0;
#X connect 7 0 20 0;
#X connect 7 0 21 0;
#X connect 8 0 9 0;
#X connect 9 0 45 0;
#X connect 9 0 78 0;
#X connect 9 0 115 0;
#X connect 11 0 1 0;
#X connect 12 0 1 0;
#X connect 13 0 59 0;
#X connect 13 0 64 0;
#X connect 13 0 118 0;
#X connect 13 0 107 0;
#X connect 13 0 119 0;
#X connect 14 0 66 0;
#X connect 14 0 69 0;
#X connect 14 0 83 0;
#X connect 14 0 86 0;
#X connect 14 0 108 0;
#X connect 14 0 123 0;
#X connect 14 0 124 0;
#X connect 15 0 61 0;
#X connect 15 0 67 0;
#X connect 15 0 110 0;
#X connect 15 0 126 0;
#X connect 15 0 128 0;
#X connect 16 0 62 0;
#X connect 16 0 68 0;
#X connect 16 0 106 0;
#X connect 16 0 107 0;
#X connect 16 0 129 0;
#X connect 17 0 63 0;
#X connect 17 0 104 0;
#X connect 17 0 105 0;
#X connect 17 0 106 0;
#X connect 17 0 120 0;
#X connect 17 0 107 0;
#X connect 18 0 59 0;
#X connect 18 0 64 0;
#X connect 18 0 107 0;
#X connect 18 0 121 0;
#X connect 19 0 60 0;
#X connect 19 0 65 0;
#X connect 19 0 110 0;
#X connect 19 0 125 0;
#X connect 19 0 132 0;
#X connect 20 0 70 0;
#X connect 20 0 84 0;
#X connect 20 0 85 0;
#X connect 20 0 87 0;
#X connect 20 0 108 0;
#X connect 20 0 123 0;
#X connect 20 0 124 0;
#X connect 21 0 61 0;
#X connect 21 0 67 0;
#X connect 21 0 88 0;
#X connect 21 0 109 0;
#X connect 21 0 126 0;
#X connect 22 0 60 0;
#X connect 26 0 29 1;
#X connect 27 0 30 0;
#X connect 29 0 28 0;
#X connect 29 0 31 0;
#X connect 30 0 29 0;
#X connect 33 0 45 0;
#X connect 33 0 78 0;
#X connect 33 0 115 0;
#X connect 33 0 116 0;
#X connect 33 0 122 0;
#X connect 34 0 33 0;
#X connect 35 0 10 0;
#X connect 35 0 23 0;
#X connect 36 0 23 0;
#X connect 36 0 24 0;
#X connect 37 0 23 0;
#X connect 37 0 24 0;
#X connect 40 0 59 0;
#X connect 41 0 61 0;
#X connect 42 0 123 0;
#X connect 43 0 62 0;
#X connect 44 0 104 0;
#X connect 45 0 36 0;
#X connect 45 0 37 0;
#X connect 47 0 65 0;
#X connect 48 0 64 0;
#X connect 49 0 67 0;
#X connect 50 0 66 0;
#X connect 51 0 68 0;
#X connect 52 0 63 0;
#X connect 53 0 103 0;
#X connect 54 0 111 0;
#X connect 55 0 128 0;
#X connect 56 0 86 0;
#X connect 57 0 129 0;
#X connect 58 0 25 0;
#X connect 59 0 35 0;
#X connect 60 0 35 0;
#X connect 61 0 35 0;
#X connect 62 0 35 0;
#X connect 63 0 36 0;
#X connect 63 0 37 0;
#X connect 64 0 36 0;
#X connect 64 0 37 0;
#X connect 65 0 36 0;
#X connect 65 0 37 0;
#X connect 66 0 36 0;
#X connect 67 0 36 0;
#X connect 68 0 36 0;
#X connect 68 0 37 0;
#X connect 69 0 37 0;
#X connect 70 0 37 0;
#X connect 71 0 132 0;
#X connect 72 0 121 0;
#X connect 73 0 88 0;
#X connect 74 0 87 0;
#X connect 75 0 112 0;
#X connect 77 0 76 0;
#X connect 78 0 81 0;
#X connect 81 0 80 0;
#X connect 82 0 23 0;
#X connect 83 0 89 0;
#X connect 84 0 90 0;
#X connect 85 0 36 0;
#X connect 86 0 58 0;
#X connect 87 0 77 0;
#X connect 88 0 77 0;
#X connect 89 0 23 0;
#X connect 90 0 23 0;
#X connect 91 0 96 0;
#X connect 92 0 93 0;
#X connect 93 0 23 0;
#X connect 94 0 95 0;
#X connect 95 0 23 0;
#X connect 96 0 23 0;
#X connect 97 0 98 0;
#X connect 98 0 23 0;
#X connect 99 0 100 0;
#X connect 100 0 23 0;
#X connect 101 0 102 0;
#X connect 102 0 23 0;
#X connect 103 0 58 0;
#X connect 104 0 35 0;
#X connect 105 0 23 0;
#X connect 111 0 58 0;
#X connect 112 0 77 0;
#X connect 114 0 60 0;
#X connect 114 0 65 0;
#X connect 114 0 103 0;
#X connect 114 0 109 0;
#X connect 114 0 125 0;
#X connect 115 0 35 0;
#X connect 116 0 117 0;
#X connect 118 0 23 0;
#X connect 121 0 77 0;
#X connect 123 0 35 0;
#X connect 128 0 58 0;
#X connect 129 0 58 0;
#X connect 130 0 131 0;
#X connect 132 0 77 0;
#X restore 376 131 pd hotspot_triggers;
#X obj 172 499 s \$0-to-SPIN-TCP;
#X obj 112 387 bng 15 250 50 0 empty empty empty 17 7 0 10 -262144
-1 -1;
#X obj 93 357 bng 15 250 50 0 empty empty empty 17 7 0 10 -262144 -1
-1;
#X obj 287 301 nbx 8 14 -1e+37 1e+37 0 0 empty empty empty 0 -8 0 10
-262144 -1 -1 0 256;
#X obj 343 319 nbx 8 14 -1e+37 1e+37 0 0 empty empty empty 0 -8 0 10
-262144 -1 -1 0 256;
#X obj 399 340 nbx 8 14 -1e+37 1e+37 0 0 empty empty empty 0 -8 0 10
-262144 -1 -1 0 256;
#X obj 349 363 hotpack3 x y z;
#X obj 393 510 s \$0-to-SPIN-TCP;
#X msg 688 464 /experience setEnabled step3 1;
#X obj 33 333 bng 15 250 50 0 empty empty empty 17 7 0 10 -262144 -1
-1;
#X obj 17 308 bng 15 250 50 0 empty empty empty 17 7 0 10 -262144 -1
-1;
#X obj 371 249 bng 15 250 50 0 empty empty empty 17 7 0 10 -262144
-1 -1;
#X obj 57 461 bng 15 250 50 0 empty empty empty 17 7 0 10 -262144 -1
-1;
#X msg 75 461 /hotspot_down2 setTranslation 0 0 0;
#X obj 35 435 tgl 15 0 empty empty empty 17 7 0 10 -262144 -1 -1 0
1;
#X msg 132 388 /hotspot_up4 setScale 12 1 8;
#X msg 163 412 /hotspot_up5 setTranslation \$1 \$2 \$3;
#X msg 56 435 /hotspot_tripper setEnabled hotspot_down4 \$1;
#X obj 708 23 r \$0-from-SPIN;
#X obj 708 86 route reset;
#X obj 708 43 OSCparse /posture??;
#X obj 708 108 t b b;
#X obj 708 64 route event setTranslation;
#X obj 708 133 s reset;
#N canvas 148 88 932 695 LTC-laboratoire 0;
#X obj 384 -74 bng 15 250 50 0 empty empty empty 17 7 0 10 -262144
-1 -1;
#X obj 46 470 s \$0-to-SPIN-TCP;
#X obj 17 118 bng 15 250 50 0 empty empty empty 17 7 0 10 -262144 -1
-1;
#X obj -7 329 bng 15 250 50 0 empty empty empty 17 7 0 10 -262144 -1
-1;
#X obj 476 793 s \$0-to-SPIN-TCP;
#X obj 404 91 bng 15 250 50 0 empty empty empty 17 7 0 10 -262144 -1
-1;
#X obj 3 219 bng 15 250 50 0 empty empty empty 17 7 0 10 -262144 -1
-1;
#X obj 616 793 print;
#X obj 406 242 bng 15 250 50 0 empty empty empty 17 7 0 10 -262144
-1 -1;
#X obj 412 388 bng 15 250 50 0 empty empty empty 17 7 0 10 -262144
-1 -1;
#X obj 407 510 bng 15 250 50 0 empty empty empty 17 7 0 10 -262144
-1 -1;
#X msg 15 328 /room1 setOrientation 0 180 -90 \, /room2 setOrientation
0 180 -90 \, /room3 setOrientation 0 180 -90 \, /room4 setOrientation
0 180 -90 \, /room5 setOrientation 0 180 -90 \, /room6 setOrientation
0 180 -90 \, /room7 setOrientation 0 180 -90 \, /room8 setOrientation
0 180 -90 \, /room9 setOrientation 0 180 -90 \, /room10 setOrientation
0 180 -90 \, /room11 setOrientation 0 180 -90 \, /room12 setOrientation
0 180 -90 \, /room13 setOrientation 0 180 -90;
#X msg 25 218 createNode room1 SwitchNode \, createNode room2 SwitchNode
\, createNode room3 SwitchNode \, createNode room4 SwitchNode \, createNode
room5 SwitchNode \, createNode room6 SwitchNode \, createNode room7
SwitchNode \, createNode room8 SwitchNode \, createNode room9 SwitchNode
\, createNode room10 SwitchNode \, createNode room11 SwitchNode \,
createNode room12 SwitchNode \, createNode room13 SwitchNode;
#X obj 835 81 bng 15 250 50 0 empty empty empty 17 7 0 10 -262144 -1
-1;
#X obj 846 216 bng 15 250 50 0 empty empty empty 17 7 0 10 -262144
-1 -1;
#X obj 858 345 bng 15 250 50 0 empty empty empty 17 7 0 10 -262144
-1 -1;
#X obj 869 493 bng 15 250 50 0 empty empty empty 17 7 0 10 -262144
-1 -1;
#X obj 1267 51 bng 15 250 50 0 empty empty empty 17 7 0 10 -262144
-1 -1;
#X obj 1278 198 bng 15 250 50 0 empty empty empty 17 7 0 10 -262144
-1 -1;
#X obj 1283 343 bng 15 250 50 0 empty empty empty 17 7 0 10 -262144
-1 -1;
#X obj 1293 490 bng 15 250 50 0 empty empty empty 17 7 0 10 -262144
-1 -1;
#X obj 898 781 s \$0-to-SPIN-TCP;
#X obj 1038 781 print;
#X obj 1311 761 s \$0-to-SPIN-TCP;
#X obj 1451 761 print;
#X text 787 -71 <-- translation (x \, y \, z) \, scale (x \, y \, z)
\, orientation (pitch \, roll \, yaw);
#X obj 33 34 t b b b b;
#X obj 318 56 t b b b b b;
#X obj 844 45 t b b b b;
#X obj 1271 12 t b b b b;
#X obj 2 7 bng 15 250 50 0 empty empty empty 17 7 0 10 -262144 -1 -1
;
#X obj 316 34 bng 15 250 50 0 empty empty empty 17 7 0 10 -262144 -1
-1;
#X obj 842 22 bng 15 250 50 0 empty empty empty 17 7 0 10 -262144 -1
-1;
#X obj 1273 -16 bng 15 250 50 0 empty empty empty 17 7 0 10 -262144
-1 -1;
#X msg 29 615 deleteNode \$1 \, createNode \$1 ShapeNode \, /\$1 setShape
6 \, /\$1 setParent step2 \, /\$1 setTranslation \$4 \$2 \$3 \, /\$1
setScale \$7 \$5 \$6 \, /\$1 setOrientation 0 0 \$10 \, /\$1 setTextValue
PowerCorpOfCanada;
#X obj 124 520 tgl 15 0 empty empty empty 17 7 0 10 -262144 -1 -1 0
1;
#X msg 146 520 /experience setEnabled step2 \$1;
#X obj 156 500 tgl 15 0 empty empty empty 17 7 0 10 -262144 -1 -1 0
1;
#X msg 176 498 /experience setEnabled step1 \$1;
#X floatatom 87 545 5 0 0 0 - - -;
#X msg 127 543 /test setScale \$1 \$1 \$1;
#X obj 473 -144 anyreg room1text PowerCorpOfCanadaPowerCorpOfCanadaPowerCorpOfCanadaPowerCorpOfCanadaPowerCorpOfCanadaPowerCorpOfCanadaPowerCorpOfCanadaPowerCorpOfCanadaPowerCorpOfCanadaPowerCorpOfCanadaPowerCorpOfCanada
;
#X obj 33 7 delay 20000;
#X obj 54 573 tgl 15 0 empty empty empty 17 7 0 10 -262144 -1 -1 0
1;
#X msg 74 571 /room1-3 setCharacterSize \$1;
#X floatatom 32 551 5 0 0 0 - - -;
#X obj 51 594 tgl 15 0 empty empty empty 17 7 0 10 -262144 -1 -1 0
1;
#X msg 71 592 /room1-3 setAlignment 2;
#X obj 181 468 tgl 15 0 empty empty empty 17 7 0 10 -262144 -1 -1 0
1;
#X floatatom 159 444 5 0 0 0 - - -;
#X msg 201 466 /room1-3 setBoxSize 27.5 \$1;
#X msg 39 117 /step2 setOrientation 0 0 0 \, /step2 setTranslation
0 0 0;
#X msg 40 693 deleteNode test \, createNode test TextNode \, /test
setParent step2 \, /test setTranslation 0 0 0 \, /test setBox 1 1 \,
/test setScale 30 0 27.5 \, /test setOrientation 0 0 0 \, /test setText
PowerCorpOfCanada;
#X obj 33 -19 inlet;
#X obj -31 -21 loadbang;
#X text 551 73 <-- changed room1-4 x from 90.902 to 100;
#X text 705 784 R:84 \, G:109 \, B:142;
#X text 1098 768 old color 0 0.5 1 1;
#X text 995 52 <-- changed height from 27.5 to 13;
#X obj 432 93 anyreg room2-1 room2-1 56.252 3.75 -56.302 0 10 30.8
90 0 1;
#X obj 440 128 anyreg room2-2 room2-2 78.602 3.75 -71.702 0 10 44.7
90 0 90;
#X obj 452 163 anyreg room2-3 room2-3 100.952 3.75 -48.602 0 10 15.4
90 0 0;
#X obj 464 199 anyreg room2-4 room2-4 78.602 3.75 -40.902 0 10 44.7
90 0 270;
#X obj 419 -69 anyreg room1-1 room1-1 56.252 3.75 -21.752 0 10 33.7
0 0 180;
#X obj 428 -33 anyreg room1-2 room1-2 81.451 3.75 -38.602 0 10 50.4
0 0 90;
#X obj 439 8 anyreg room1-3 room1-3 125.552 3.75 -21.752 0 10 33.7
0 0 0;
#X obj 451 44 anyreg room1-4 room1-4 100 3.75 -4.902 0 10 69.3 0 0
270;
#X obj 444 237 anyreg room3-1 room3-1 56.252 3.75 -89.152 0 10 32.5
90 0 0;
#X obj 452 271 anyreg room3-2 room3-2 78.602 3.75 -105.402 0 10 44.7
90 0 90;
#X obj 464 307 anyreg room3-3 room3-3 100.952 3.75 -97.277 0 10 16.25
90 0 0;
#X obj 476 343 anyreg room3-4 room3-4 78.602 3.75 -72.902 0 10 44.7
90 0 270;
#X obj 450 387 anyreg room4-1 room4-1 56.252 3.75 -124.602 0 10 36
90 0 0;
#X obj 458 421 anyreg room4-2 room4-2 90.206 3.75 -142.602 0 10 67.909
90 0 90;
#X obj 470 457 anyreg room4-3 room4-3 124.162 3.75 -133.602 0 10 18
90 0 0;
#X obj 482 490 anyreg room4-4 room4-4 90.206 3.75 -106.602 0 10 67.909
90 0 270;
#X obj 462 530 anyreg room5-1 room5-1 130.552 3.75 -35.852 0 10 61.9
90 0 180;
#X obj 470 564 anyreg room5-2 room5-2 177.402 3.75 -66.802 0 10 44.7
90 0 90;
#X obj 482 597 anyreg room5-3 room5-3 199.852 3.75 -35.852 0 10 61.9
90 0 0;
#X obj 494 633 anyreg room5-4 room5-4 165.202 3.75 -4.902 0 10 69.3
90 0 270;
#X obj 927 615 anyreg room9-4 room9-4 263.652 3.75 -140.302 0 10 44.4
90 0 270;
#X obj 915 579 anyreg room9-3 room9-3 285.852 3.75 -155.402 0 10 30.2
90 0 0;
#X obj 903 544 anyreg room9-2 room9-2 256.752 3.75 -170.502 0 10 58.2
90 0 90;
#X obj 895 509 anyreg room9-1 room9-1 227.652 3.75 -160.291 0 10 20.421
90 0 0;
#X obj 915 473 anyreg room8-4 room8-4 256.752 3.75 -94.102 0 10 58.2
90 0 270;
#X obj 904 436 anyreg room8-3 room8-3 285.852 3.75 -109.202 0 10 30.2
90 0 0;
#X obj 891 400 anyreg room8-2 room8-2 256.752 3.75 -124.302 0 10 58.2
90 0 90;
#X obj 883 366 anyreg room8-1 room8-1 227.652 3.75 -101.402 0 10 14.6
90 0 0;
#X obj 909 331 anyreg room7-4 room7-4 179.102 3.75 -162.002 0 10 54.1
90 0 270;
#X obj 897 295 anyreg room7-3 room7-3 206.152 3.75 -184.052 0 10 20.9
90 0 0;
#X obj 885 260 anyreg room7-2 room7-2 179.102 3.75 -194.502 0 10 54.1
90 0 90;
#X obj 877 226 anyreg room7-1 room7-1 152.052 3.75 -184.052 0 10 20.9
90 0 0;
#X obj 898 188 anyreg room6-4 room6-4 179.102 3.75 -127.402 0 10 54.1
90 0 270;
#X obj 886 152 anyreg room6-3 room6-3 206.152 3.75 -137.852 0 10 20.9
90 0 0;
#X obj 873 117 anyreg room6-2 room6-2 179.103 3.75 -159.902 0 10 54.1
90 0 90;
#X obj 865 82 anyreg room6-1 room6-1 152.052 3.75 -137.852 0 10 20.9
90 0 0;
#X obj 1293 50 anyreg room10-1 room10-1 152.052 3.75 -207.58 0 10 22.357
90 0 0;
#X obj 1300 85 anyreg room10-2 room10-2 179.102 3.75 -232.502 0 10
54.1 90 0 90;
#X obj 1314 120 anyreg room10-3 room10-3 206.152 3.75 -207.58 0 10
22.357 90 0 0;
#X obj 1325 157 anyreg room10-4 room10-4 179.102 3.75 -196.402 0 10
54.1 90 0 270;
#X obj 1300 195 anyreg room11-1 room11-1 152.052 3.75 -266.402 0 10
23 90 0 0;
#X obj 1308 229 anyreg room11-2 room11-2 179.102 3.75 -277.902 0 10
54.1 90 0 90;
#X obj 1320 264 anyreg room11-3 room11-3 206.152 3.75 -266.402 0 10
23 90 0 0;
#X obj 1332 300 anyreg room11-4 room11-4 179.102 3.75 -234.502 0 10
54.1 90 0 270;
#X obj 1307 339 anyreg room12-1 room12-1 152.052 3.75 -304.552 0 10
49.9 90 0 0;
#X obj 1314 373 anyreg room12-2 room12-2 169.402 3.75 -329.502 0 10
34.7 90 0 90;
#X obj 1327 408 anyreg room12-3 room12-3 206.152 3.75 -304.552 0 10
49.9 90 0 0;
#X obj 1339 444 anyreg room12-4 room12-4 179.102 3.75 -279.602 0 10
54.1 90 0 270;
#X obj 1318 488 anyreg room13-1 room13-1 229.652 3.75 -282.026 0 10
38.249 90 0 0;
#X obj 1327 521 anyreg room13-2 room13-2 247.952 3.75 -329.502 0 10
36.6 90 0 90;
#X obj 1338 557 anyreg room13-3 room13-3 266.252 3.75 -296.202 0 10
66.6 90 0 0;
#X obj 1350 593 anyreg room13-4 room13-4 247.952 3.75 -262.902 0 10
36.6 90 0 270;
#X msg 157 763 deleteNode room1-1;
#X msg 1312 642 deleteNode \$1 \, createNode \$1 TextNode \, /\$1 setParent
step2 \, /\$1 setTranslation \$4 \$2 \$3 \, /\$1 setBoxSize \$7 \$6
\, /\$1 setScale 1 1 1 \, /\$1 setCharacterSize 0.25 \, /\$1 setOrientation
0 0 \$10 \, /\$1 setAlignment 4 \, /\$1 setMargin 0 \, /\$1 setLineSpacing
0 \, /\$1 setColor 0.33 0.43 0.56 1 \, /\$1 setSingleSided 1 \, /\$1
setText SallePaulA.Fournier_ \, /\$1 setRepetitions 2000 \, /\$1 setFont
GillSans.ttf;
#X msg 901 660 deleteNode \$1 \, createNode \$1 TextNode \, /\$1 setParent
step2 \, /\$1 setTranslation \$4 \$2 \$3 \, /\$1 setBoxSize \$7 \$6
\, /\$1 setScale 1 1 1 \, /\$1 setCharacterSize 0.25 \, /\$1 setOrientation
0 0 \$10 \, /\$1 setAlignment 4 \, /\$1 setMargin 0 \, /\$1 setLineSpacing
0 \, /\$1 setColor 0.33 0.43 0.56 1 \, /\$1 setSingleSided 1 \, /\$1
setText SalleFondationMolson_ \, /\$1 setRepetitions 2000 \, /\$1 setFont
GillSans.ttf;
#X msg 473 673 deleteNode \$1 \, createNode \$1 TextNode \, /\$1 setParent
step2 \, /\$1 setTranslation \$4 \$2 \$3 \, /\$1 setBoxSize \$7 \$6
\, /\$1 setScale 1 1 1 \, /\$1 setCharacterSize 0.25 \, /\$1 setOrientation
0 0 \$10 \, /\$1 setAlignment 4 \, /\$1 setMargin 0 \, /\$1 setLineSpacing
0 \, /\$1 setColor 0.663 0.663 0.663 1 \, /\$1 setSingleSided 1 \,
/\$1 setText SallePowerCorporationDuCanada_ \, /\$1 setRepetitions
2000 \, /\$1 setFont GillSans.ttf;
#X connect 0 0 64 0;
#X connect 0 0 65 0;
#X connect 0 0 66 0;
#X connect 2 0 51 0;
#X connect 3 0 11 0;
#X connect 5 0 59 0;
#X connect 5 0 60 0;
#X connect 5 0 61 0;
#X connect 5 0 62 0;
#X connect 6 0 12 0;
#X connect 8 0 67 0;
#X connect 8 0 68 0;
#X connect 8 0 69 0;
#X connect 8 0 70 0;
#X connect 9 0 71 0;
#X connect 9 0 72 0;
#X connect 9 0 73 0;
#X connect 9 0 74 0;
#X connect 10 0 75 0;
#X connect 10 0 76 0;
#X connect 10 0 77 0;
#X connect 10 0 78 0;
#X connect 11 0 1 0;
#X connect 12 0 1 0;
#X connect 13 0 91 0;
#X connect 13 0 92 0;
#X connect 13 0 93 0;
#X connect 13 0 94 0;
#X connect 14 0 87 0;
#X connect 14 0 88 0;
#X connect 14 0 89 0;
#X connect 14 0 90 0;
#X connect 15 0 83 0;
#X connect 15 0 84 0;
#X connect 15 0 85 0;
#X connect 15 0 86 0;
#X connect 16 0 79 0;
#X connect 16 0 80 0;
#X connect 16 0 81 0;
#X connect 16 0 82 0;
#X connect 17 0 95 0;
#X connect 17 0 96 0;
#X connect 17 0 97 0;
#X connect 17 0 98 0;
#X connect 18 0 99 0;
#X connect 18 0 100 0;
#X connect 18 0 101 0;
#X connect 18 0 102 0;
#X connect 19 0 103 0;
#X connect 19 0 104 0;
#X connect 19 0 105 0;
#X connect 19 0 106 0;
#X connect 20 0 107 0;
#X connect 20 0 108 0;
#X connect 20 0 109 0;
#X connect 20 0 110 0;
#X connect 26 0 27 0;
#X connect 26 1 28 0;
#X connect 26 2 29 0;
#X connect 26 3 51 0;
#X connect 27 0 10 0;
#X connect 27 1 9 0;
#X connect 27 2 8 0;
#X connect 27 3 5 0;
#X connect 27 4 0 0;
#X connect 28 0 13 0;
#X connect 28 1 14 0;
#X connect 28 2 15 0;
#X connect 28 3 16 0;
#X connect 29 0 17 0;
#X connect 29 1 18 0;
#X connect 29 2 19 0;
#X connect 29 3 20 0;
#X connect 30 0 26 0;
#X connect 31 0 27 0;
#X connect 32 0 28 0;
#X connect 33 0 29 0;
#X connect 35 0 36 0;
#X connect 36 0 4 0;
#X connect 37 0 38 0;
#X connect 38 0 4 0;
#X connect 39 0 40 0;
#X connect 40 0 4 0;
#X connect 42 0 26 0;
#X connect 43 0 44 0;
#X connect 44 0 4 0;
#X connect 45 0 44 0;
#X connect 46 0 47 0;
#X connect 47 0 4 0;
#X connect 48 0 50 0;
#X connect 49 0 50 0;
#X connect 50 0 4 0;
#X connect 51 0 1 0;
#X connect 52 0 4 0;
#X connect 53 0 42 0;
#X connect 59 0 114 0;
#X connect 60 0 114 0;
#X connect 61 0 114 0;
#X connect 62 0 114 0;
#X connect 63 0 114 0;
#X connect 64 0 114 0;
#X connect 65 0 114 0;
#X connect 66 0 114 0;
#X connect 67 0 114 0;
#X connect 68 0 114 0;
#X connect 69 0 114 0;
#X connect 70 0 114 0;
#X connect 71 0 114 0;
#X connect 72 0 114 0;
#X connect 73 0 114 0;
#X connect 74 0 114 0;
#X connect 75 0 114 0;
#X connect 76 0 114 0;
#X connect 77 0 114 0;
#X connect 78 0 114 0;
#X connect 79 0 113 0;
#X connect 80 0 113 0;
#X connect 81 0 113 0;
#X connect 82 0 113 0;
#X connect 83 0 113 0;
#X connect 84 0 113 0;
#X connect 85 0 113 0;
#X connect 86 0 113 0;
#X connect 87 0 113 0;
#X connect 88 0 113 0;
#X connect 89 0 113 0;
#X connect 90 0 113 0;
#X connect 91 0 113 0;
#X connect 92 0 113 0;
#X connect 93 0 113 0;
#X connect 94 0 113 0;
#X connect 95 0 112 0;
#X connect 96 0 112 0;
#X connect 97 0 112 0;
#X connect 98 0 112 0;
#X connect 99 0 112 0;
#X connect 100 0 112 0;
#X connect 101 0 112 0;
#X connect 102 0 112 0;
#X connect 103 0 112 0;
#X connect 104 0 112 0;
#X connect 105 0 112 0;
#X connect 106 0 112 0;
#X connect 107 0 112 0;
#X connect 108 0 112 0;
#X connect 109 0 112 0;
#X connect 110 0 112 0;
#X connect 111 0 4 0;
#X connect 112 0 23 0;
#X connect 112 0 24 0;
#X connect 113 0 21 0;
#X connect 113 0 22 0;
#X connect 114 0 4 0;
#X connect 114 0 7 0;
#X restore 238 130 pd LTC-laboratoire;
#X obj 28 8 loadbang1 DD;
#N canvas 0 22 909 786 text-control 0;
#X obj 44 106 cnv 15 24 24 empty empty 1 4 12 1 24 -99865 -262144 0
;
#X obj 114 193 cnv 15 24 24 empty empty 3 4 12 1 24 -99865 -262144
0;
#X obj 204 263 cnv 15 24 24 empty empty 4 4 12 1 24 -99865 -262144
0;
#X obj 44 142 cnv 15 24 24 empty empty 2 4 12 1 24 -99865 -262144 0
;
#X msg 82 109 createNode grid GridNode;
#X text 266 109 create a grid so we can orient ourselves;
#X obj 48 291 s \$0-to-SPIN-TCP;
#X msg 98 163 createNode txt TextNode;
#X text 372 42 This example explains the use of TextNode;
#X msg 153 227 /txt setTextValue \$1;
#X symbolatom 153 211 30 0 0 0 - - -;
#X text 444 737 (fonts can be found in /usr/local/share/spinFramework)
;
#X msg 679 351 /txt setBillboard \$1;
#X obj 679 301 vradio 15 1 0 3 empty empty empty 0 -8 0 10 -262144
-1 -1 0;
#X text 700 302 no billboard (faces +Y axis);
#X text 700 317 billboard;
#X text 700 332 billboard around Z-axis;
#X text 152 194 set the value of the actual text;
#X text 92 140 create a TextNode named 'txt';
#X text 236 267 Set some other properties:;
#X obj 71 358 vradio 15 1 0 4 empty empty empty 0 -8 0 10 -262144 -1
-1 0;
#X text 91 358 no background;
#X text 91 373 filled;
#X text 91 389 wireframe;
#X text 91 404 all;
#X msg 71 421 /txt setBackground \$1;
#X obj 167 544 vradio 15 1 0 10 empty empty empty 0 -8 0 10 -262144
-1 -1 0;
#X text 187 544 Dropshadow (bottom right);
#X text 187 559 Dropshadow (center right);
#X text 187 575 Dropshadow (top right);
#X text 187 590 Dropshadow (bottom center);
#X text 187 604 Dropshadow (top center);
#X text 187 619 Dropshadow (bottom left);
#X text 187 634 Dropshadow (center left);
#X text 187 650 Dropshadow (top left);
#X text 187 665 outline;
#X text 187 681 none;
#X msg 167 707 /txt setDecoration \$1;
#X obj 445 423 nbx 4 14 -1e+37 1e+37 0 0 empty empty Red 0 -8 1 11
-262144 -1 -1 0 256;
#X obj 495 423 nbx 4 14 -1e+37 1e+37 0 0 empty empty Green 0 -8 1 11
-262144 -1 -1 0 256;
#X obj 545 423 nbx 4 14 -1e+37 1e+37 0 0 empty empty Blue 0 -8 1 11
-262144 -1 -1 0 256;
#X obj 595 423 nbx 4 14 -1e+37 1e+37 0 0 empty empty Alpha 0 -8 1 11
-262144 -1 -1 0 256;
#X obj 498 454 hotpack7;
#X obj 346 331 nbx 4 14 -1e+37 1e+37 0 0 empty empty Red 0 -8 1 11
-262144 -1 -1 0 256;
#X obj 396 331 nbx 4 14 -1e+37 1e+37 0 0 empty empty Green 0 -8 1 11
-262144 -1 -1 0 256;
#X obj 446 331 nbx 4 14 -1e+37 1e+37 0 0 empty empty Blue 0 -8 1 11
-262144 -1 -1 0 256;
#X obj 496 331 nbx 4 14 -1e+37 1e+37 0 0 empty empty Alpha 0 -8 1 11
-262144 -1 -1 0 256;
#X obj 399 362 hotpack7;
#X msg 82 465 /txt setMargin \$1;
#X obj 85 445 hsl 128 15 0 1 0 0 empty empty empty -2 -8 0 10 -262144
-1 -1 0 1;
#X msg 498 473 /txt setBgColor \$1 \$2 \$3 \$4;
#X msg 399 381 /txt setColor \$1 \$2 \$3 \$4;
#X obj 580 657 symbol;
#X msg 579 677 /txt setFont \$1.ttf;
#X msg 642 613 times;
#X msg 642 593 fudd;
#X msg 642 573 dirtydoz;
#X msg 642 553 VeraMono;
#X msg 642 533 Vera;
#X msg 642 513 arial;
#X msg 642 633 GillSans;
#X obj 75 267 r \$0-send;
#X obj 425 525 s \$0-send;
#X obj 579 697 s \$0-send;
#X obj 167 729 s \$0-send;
#X obj 66 495 s \$0-send;
#X obj 679 372 s \$0-send;
#X msg 195 315 /txt debug;
#X msg 435 137 POWER CORPORATION OF CANADA;
#X symbolatom 435 160 30 0 0 0 - - -;
#X msg 435 183 /room1-1 setTextValue \$1;
#X msg 446 204 /room1-2 setTextValue \$1;
#X msg 461 225 /room1-3 setTextValue \$1;
#X msg 472 246 /room1-4 setTextValue \$1;
#X obj 435 271 s \$0-to-SPIN-TCP;
#X obj 414 131 bng 15 250 50 0 empty empty empty 17 7 0 10 -262144
-1 -1;
#X connect 4 0 6 0;
#X connect 7 0 6 0;
#X connect 9 0 6 0;
#X connect 10 0 9 0;
#X connect 12 0 66 0;
#X connect 13 0 12 0;
#X connect 20 0 25 0;
#X connect 25 0 65 0;
#X connect 26 0 37 0;
#X connect 37 0 64 0;
#X connect 38 0 42 0;
#X connect 39 0 42 1;
#X connect 40 0 42 2;
#X connect 41 0 42 3;
#X connect 42 0 50 0;
#X connect 43 0 47 0;
#X connect 44 0 47 1;
#X connect 45 0 47 2;
#X connect 46 0 47 3;
#X connect 47 0 51 0;
#X connect 48 0 65 0;
#X connect 49 0 48 0;
#X connect 50 0 62 0;
#X connect 51 0 62 0;
#X connect 52 0 53 0;
#X connect 53 0 63 0;
#X connect 54 0 52 0;
#X connect 55 0 52 0;
#X connect 56 0 52 0;
#X connect 57 0 52 0;
#X connect 58 0 52 0;
#X connect 59 0 52 0;
#X connect 60 0 52 0;
#X connect 61 0 6 0;
#X connect 67 0 6 0;
#X connect 68 0 69 0;
#X connect 69 0 70 0;
#X connect 69 0 71 0;
#X connect 69 0 72 0;
#X connect 69 0 73 0;
#X connect 70 0 74 0;
#X connect 71 0 74 0;
#X connect 72 0 74 0;
#X connect 73 0 74 0;
#X connect 75 0 68 0;
#X restore 376 110 pd text-control;
#N canvas 175 192 1277 678 fog 1;
#X obj 63 -67 inlet;
#X obj 112 410 s \$0-to-SPIN-TCP;
#X obj 88 76 hsl 128 15 0 1 0 0 empty empty empty -2 -8 0 10 -262144
-1 -1 0 1;
#X obj 26 225 hsl 128 15 0 0.1 0 0 empty empty empty -2 -8 0 10 -262144
-1 -1 0 1;
#X obj 252 249 line \$1 50;
#X obj 326 248 line \$1 50;
#X obj 360 310 pack 0 0 0;
#X obj 396 248 line \$1 50;
#X msg 362 95 0.005 0.75 0.75 0.75;
#X msg 401 152 0 0 0 0.2;
#X obj 466 248 line \$1 50;
#X obj 339 185 unpack 0 0 0 0;
#X msg 162 157 \$1 \$1 \$1;
#X obj 392 10 r gScene;
#X obj 382 40 sel 0 1 2;
#X text 497 94 white;
#X text 451 123 black;
#X text 467 152 blue;
#X msg 375 123 0.01 0 0 0;
#X obj 120 -29 print CREATE_FOG;
#X obj 63 -46 t b b b;
#X msg 149 29 createStateSet sang-Fog Fog;
#X msg 236 72 deleteNode sang-Fog;
#X msg 48 338 /sang-Fog setFogDensity \$1;
#X msg 258 343 /sang-Fog setFogColor \$1 \$2 \$3 0;
#X text 765 96 red;
#X msg 641 171 0 0 0 0;
#X text 694 170 none;
#X msg 85 55 0;
#X msg 18 203 0;
#X text 649 116 R:172 \, G:57 \, B:74;
#X msg 327 229 \$1 0;
#X msg 397 229 \$1 0;
#X msg 467 229 \$1 0;
#X msg 253 230 \$1 0;
#X obj 641 145 r fogOFF;
#X text 642 36 R:172 \, G:57 \, B:74;
#X obj 571 -10 r laboON;
#X text 876 269 red;
#X text 751 289 R:172 \, G:57 \, B:74;
#X obj 740 212 r cellON;
#X obj 513 544 s \$0-to-SPIN-TCP;
#X obj 761 444 pack 0 0 0;
#X obj 740 319 unpack 0 0 0 0;
#X msg 449 472 /sang-Fog setFogDensity \$1;
#X msg 659 477 /sang-Fog setFogColor \$1 \$2 \$3 0;
#X obj 740 244 delay 50;
#X obj 620 216 bng 15 250 50 0 empty empty empty 17 7 0 10 -262144
-1 -1;
#X obj 643 383 line \$1;
#X obj 727 382 line \$1 0;
#X obj 807 382 line \$1 0;
#X obj 887 382 line \$1 0;
#X msg 808 363 \$1 0;
#X msg 728 363 \$1 0;
#X msg 888 363 \$1 0;
#X obj 638 70 r sangfrontON;
#X text 1206 294 red;
#X text 1090 314 R:172 \, G:57 \, B:74;
#X obj 1082 200 r sangbackON;
#X obj 852 600 s \$0-to-SPIN-TCP;
#X obj 1100 500 pack 0 0 0;
#X obj 1079 375 unpack 0 0 0 0;
#X msg 788 528 /sang-Fog setFogDensity \$1;
#X msg 998 533 /sang-Fog setFogColor \$1 \$2 \$3 0;
#X obj 982 439 line \$1;
#X obj 1066 438 line \$1 0;
#X obj 1146 438 line \$1 0;
#X obj 1226 438 line \$1 0;
#X msg 1147 419 \$1 0;
#X msg 1067 419 \$1 0;
#X msg 1227 419 \$1 0;
#X text 723 15 black blue;
#X obj 1018 216 bng 15 250 50 0 empty empty empty 17 7 0 10 -262144
-1 -1;
#X obj 1070 257 delay 50;
#X obj 701 145 r reset;
#X text 586 158 red;
#X msg 501 158 0.02 1 0 0;
#X text 1082 329 R:0.67 \, G:0.22 \, B:0.29;
#X msg 1028 295 1 0;
#X msg 982 420 \$1 0;
#X text 819 37 R:172 \, G:57 \, B:74;
#X text 900 16 black blue;
#X msg 809 17 0.004 0 0 0.4;
#X floatatom 656 -20 5 0 0 0 - - -;
#X floatatom 418 378 5 0 0 0 - - -;
#X msg 334 415 0.004 0.33 0.43 0.56;
#X msg 661 267 1e-05 0;
#X msg 643 364 \$1 0;
#X msg 1078 295 0.04 1 0 0;
#X msg 639 96 0.04 1 0 0;
#X msg 740 269 5e-05 1 0 0;
#X text 642 50 R:172 \, G:57 \, B:74;
#X msg 572 17 0.002 0.196 0.055 0.376;
#X connect 0 0 20 0;
#X connect 2 0 12 0;
#X connect 3 0 23 0;
#X connect 4 0 23 0;
#X connect 5 0 6 0;
#X connect 6 0 24 0;
#X connect 7 0 6 1;
#X connect 8 0 11 0;
#X connect 9 0 11 0;
#X connect 10 0 6 2;
#X connect 11 0 34 0;
#X connect 11 1 31 0;
#X connect 11 2 32 0;
#X connect 11 3 33 0;
#X connect 12 0 24 0;
#X connect 14 0 8 0;
#X connect 14 1 18 0;
#X connect 14 2 9 0;
#X connect 18 0 11 0;
#X connect 20 0 28 0;
#X connect 20 0 29 0;
#X connect 20 1 21 0;
#X connect 20 2 19 0;
#X connect 21 0 1 0;
#X connect 22 0 1 0;
#X connect 23 0 1 0;
#X connect 24 0 1 0;
#X connect 26 0 11 0;
#X connect 28 0 2 0;
#X connect 29 0 3 0;
#X connect 31 0 5 0;
#X connect 32 0 7 0;
#X connect 33 0 10 0;
#X connect 34 0 4 0;
#X connect 35 0 26 0;
#X connect 37 0 92 0;
#X connect 40 0 86 0;
#X connect 40 0 46 0;
#X connect 42 0 45 0;
#X connect 43 0 87 0;
#X connect 43 1 53 0;
#X connect 43 2 52 0;
#X connect 43 3 54 0;
#X connect 44 0 41 0;
#X connect 45 0 41 0;
#X connect 46 0 90 0;
#X connect 47 0 86 0;
#X connect 47 0 46 0;
#X connect 48 0 44 0;
#X connect 49 0 42 0;
#X connect 50 0 42 1;
#X connect 51 0 42 2;
#X connect 52 0 50 0;
#X connect 53 0 49 0;
#X connect 54 0 51 0;
#X connect 55 0 89 0;
#X connect 58 0 73 0;
#X connect 60 0 63 0;
#X connect 61 0 79 0;
#X connect 61 1 69 0;
#X connect 61 2 68 0;
#X connect 61 3 70 0;
#X connect 62 0 59 0;
#X connect 63 0 59 0;
#X connect 64 0 62 0;
#X connect 65 0 60 0;
#X connect 66 0 60 1;
#X connect 67 0 60 2;
#X connect 68 0 66 0;
#X connect 69 0 65 0;
#X connect 70 0 67 0;
#X connect 72 0 73 0;
#X connect 72 0 78 0;
#X connect 73 0 78 0;
#X connect 73 0 88 0;
#X connect 74 0 26 0;
#X connect 76 0 11 0;
#X connect 78 0 64 0;
#X connect 79 0 64 0;
#X connect 83 0 92 0;
#X connect 84 0 85 0;
#X connect 85 0 11 0;
#X connect 86 0 48 0;
#X connect 87 0 48 0;
#X connect 88 0 61 0;
#X connect 89 0 11 0;
#X connect 90 0 43 0;
#X connect 92 0 11 0;
#X restore 139 215 pd fog;
#N canvas 792 1 1077 582 containment 0;
#X obj 72 -70 loadbang;
#X obj 72 -6 anyreg containments step1 step2 step3 step4 step5 step6
;
#X obj 39 -4 bng 15 250 50 0 empty empty empty 17 7 0 10 -262144 -1
-1;
#X text 428 119 STEP2-laboratoire x: -400 to 50 (450) \, y: 1140 to
1400 (360) \, z: -10 to 50 (60);
#X text 472 180 STEP3-sang x: -75 to 25 (100) \, y: 2275 to 2425 (150)
\, z: same as x (100);
#X text 516 239 STEP4-cell x: don't know (500) \, y: 3480 to 3980 (500)
\, z: same as x (500);
#X text 602 354 STEP6 patient x: 1950 to 2050 (100) \, y: 1110 to 950
(160) \, z: -17.5 to 32.5 (50);
#X obj 80 422 s \$0-to-SPIN-TCP;
#X text 368 28 ***Place centers at half (Y) - 10***;
#X text 561 301 STEP5-sang2 : meme que STEP-sang (100 \, 150 \, 100)
\, mais dcal en +x;
#X text 398 65 STEP1-ccorridor x: 300 \, y: 300 \, z: 100;
#X obj 72 -48 delay 10000;
#X obj 20 305 shell;
#X msg 20 283 hostname -s;
#X obj 20 327 symbol;
#X obj 20 253 bng 15 250 50 0 empty empty empty 17 7 0 10 -262144 -1
-1;
#X msg 20 348 /\$1-reporter debug;
#X msg 286 437 /step1-box setCubeSize 100 100 100;
#X msg 95 170 deleteNode \$3-box \, createNode \$3-box ConstraintsNode
\, /\$3-reporter addTarget \$3-box \, /\$3-box setParent \$3 \, /\$3-box
setCubeSize 100 150 100 \, /\$3-box setCubeOffset 0 2065 0;
#X msg 132 229 deleteNode \$4-box \, createNode \$4-box ConstraintsNode
\, /\$4-reporter addTarget \$4-box \, /\$4-box setParent \$4 \, /\$4-box
setCubeSize 500 500 500 \, /\$4-box setCubeOffset 1000 3240 -250;
#X msg 172 287 deleteNode \$5-box \, createNode \$5-box ConstraintsNode
\, /\$5-reporter addTarget \$5-box \, /\$5-box setParent \$5 \, /\$5-box
setCubeSize 100 150 100 \, /\$5-box setCubeOffset 2000 1950 0;
#X msg 209 346 deleteNode \$6-box \, createNode \$6-box ConstraintsNode
\, /\$6-reporter addTarget \$6-box \, /\$6-box setParent \$6 \, /\$6-box
setCubeSize 100 160 50 \, /\$6-box setCubeOffset 2000 910 0;
#X msg 19 52 deleteNode \$1-box \, createNode \$1-box ConstraintsNode
\, /\$1-box setTarget /\$1-reporter addTarget \$1-box \, /\$1-box setParent
\$1 \, /\$1-box setCubeSize 100 100 50 \, /\$1-box setCubeOffset 0
0 20;
#X msg 56 111 deleteNode \$2-box \, createNode \$2-box ConstraintsNode
\, /\$2-reporter addTarget \$2-box \, /\$2-box setParent \$2 \, /\$2-box
setCubeSize 450 600 60 \, /\$2-box setCubeOffset 0 1170 0;
#X connect 0 0 11 0;
#X connect 1 0 22 0;
#X connect 1 0 23 0;
#X connect 1 0 18 0;
#X connect 1 0 20 0;
#X connect 1 0 21 0;
#X connect 1 0 19 0;
#X connect 2 0 1 0;
#X connect 12 0 14 0;
#X connect 13 0 12 0;
#X connect 14 0 16 0;
#X connect 15 0 13 0;
#X connect 16 0 7 0;
#X connect 17 0 7 0;
#X connect 18 0 7 0;
#X connect 19 0 7 0;
#X connect 20 0 7 0;
#X connect 21 0 7 0;
#X connect 22 0 7 0;
#X connect 23 0 7 0;
#X restore 376 182 pd containment;
#X obj 393 35 anyreg gProjectPath ~/Documents/Metalab/hmr;
#N canvas 707 216 602 664 iphone_setup 0;
#X obj 49 180 pack s s;
#X obj 204 127 list2symbol;
#X obj 15 99 shell;
#X msg 16 81 hostname -s;
#X msg 204 108 Pointer ici;
#X obj 22 32 inlet;
#X obj 51 199 t a a;
#X obj 207 77 loadbang;
#X obj 100 460 s \$0-to-SPIN-TCP;
#X msg 31 266 /\$1-pointer setParent \$1 \, /\$1-target setParent \$1-pointer
\, /\$1-target-instructions setParent \$1-target \, /\$1-target-cursor
setParent \$1-target \, /\$1-target-cursor setTextValue + \, /\$1-target-instructions
setTextValue \$2 \, /\$1-target setTranslation 0 0.01 0 \, /\$1-target
setScale 0.01 0.01 0.01 \, /\$1-target-* setColor 1 0 0 1 \, /\$1-target-*
setDecoration 9 \, /\$1-target-* setFont GillSans.ttf \, /\$1-target-*
setBillboard 2 \, /\$1-target-instructions setTranslation 0 0 0.1 \,
/\$1-target setEnabled \$1-target-instructions 0;
#X msg 157 176 createNode \$1-pointer GroupNode \, createNode \$1-target
SwitchNode \, createNode \$1-target-cursor TextNode \, createNode \$1-target-instructions
TextNode;
#X obj 35 147 symbol;
#X obj 262 497;
#X connect 0 0 6 0;
#X connect 1 0 0 1;
#X connect 2 0 11 0;
#X connect 3 0 2 0;
#X connect 4 0 1 0;
#X connect 5 0 3 0;
#X connect 6 0 9 0;
#X connect 6 1 10 0;
#X connect 7 0 4 0;
#X connect 9 0 8 0;
#X connect 10 0 8 0;
#X connect 11 0 0 0;
#X restore 218 157 pd iphone_setup;
#X obj 621 209 widget-nodeEditor \$0;
#X obj 197 157 bng 15 250 50 0 empty empty empty 17 7 0 10 -262144
-1 -1;
#X obj 160 188 bng 15 250 50 0 empty empty empty 17 7 0 10 -262144
-1 -1;
#X obj 120 216 bng 15 250 50 0 empty empty empty 17 7 0 10 -262144
-1 -1;
#N canvas 103 57 668 933 mikes_test 0;
#X obj 135 103 openpanel;
#X obj 83 348 s \$0-to-SPIN;
#X obj 135 70 bng 30 250 50 0 empty empty empty 17 7 0 10 -262144 -1
-1;
#X obj 79 483 subwidget-PAT \$0;
#X msg 94 382 cloud;
#X msg 178 127 ~/Documents/Metalab/hmr/models/pcd/set1.cpc;
#X msg 187 147 ~/Documents/Metalab/hmr/models/pcd/set2-1.cpc;
#X msg 218 187 ~/Documents/Metalab/hmr/models/pcd/set2-3.cpc;
#X msg 198 167 ~/Documents/Metalab/hmr/models/pcd/set2-2.cpc;
#X msg 228 207 ~/Documents/Metalab/hmr/models/pcd/set3.cpc;
#X msg 238 227 ~/Documents/Metalab/hmr/models/pcd/set4.cpc;
#X symbolatom 153 279 50 0 0 0 - - -;
#X obj 153 258 symbol;
#X msg 250 373 refresh;
#X msg 83 24 createNode cloudModel PointCloud \, createNode cloud GroupNode
\, /cloudModel setParent cloud;
#X msg 154 300 /cloudModel setURI \$1;
#X msg 169 332 /cloudModel setTranslation 0 -2 0.8 \, /cloudModel setOrientation
0 90 0;
#X msg 184 401 /cloud setSpin 0 0 20;
#X obj 365 380 hsl 128 15 0.1 10 0 0 empty empty empty -2 -8 0 10 -262144
-1 -1 0 1;
#X msg 362 400 /cloudModel setPointSize \$1;
#X obj 79 734 s \$0-to-SPIN;
#X msg 345 425 deleteNode cloudModel;
#X obj 121 615 list;
#X obj 349 712 vradio 11 1 0 14 empty empty empty 0 -8 0 10 -262144
-1 -1 0;
#X text 363 807 9) QUAD_STRIP;
#X text 363 796 8) QUADS;
#X text 363 785 7) TRIANGLE_FAN;
#X text 363 774 6) TRIANGLE_STRIP;
#X text 363 763 5) TRIANGLES;
#X text 363 752 4) LINE_LOOP;
#X text 363 730 2) LINES;
#X text 363 719 1) POINTS;
#X text 363 708 0) NONE;
#X text 363 741 3) LINE_STRIP;
#X text 363 840 12) BOXES;
#X text 363 829 11) LIGHTPOINTS;
#X text 363 818 10) POLYGON;
#X text 363 851 13) CUSTOM;
#X msg 348 869 /set* setDrawMode \$1;
#X obj 84 835 hsl 128 15 0.1 10 0 0 empty empty empty -2 -8 0 10 -262144
-1 -1 0 1;
#X msg 81 855 /set* setPointSize \$1;
#X obj 177 738 hsl 128 15 0 0.1 0 0 empty empty empty -2 -8 0 10 -262144
-1 -1 0 1;
#X floatatom 174 760 5 0 0 0 - - -;
#X msg 174 775 /set* setRandomCoeff \$1;
#X msg 121 570 set1.cpc -7 \, set2-3.cpc -5 \, set3.cpc -3 \, set4.cpc
-1.5 \, set5.cpc 0 \, set6.cpc 1.5 \, set7.cpc 3 \, set8.cpc 4.5 \,
set9.cpc 7;
#X obj 14 475 bng 30 250 50 0 empty empty empty 17 7 0 10 -262144 -1
-1;
#X msg 30 895 /set1.cpc setDrawMode 11;
#X obj 501 704 hsl 128 15 0.0005 0.1 1 0 empty empty empty -2 -8 0
10 -262144 -1 -1 0 1;
#X floatatom 499 720 5 0 0 0 - - -;
#X obj 506 782 hsl 128 15 0 10 0 0 empty empty empty -2 -8 0 10 -262144
-1 -1 0 1;
#X floatatom 503 801 5 0 0 0 - - -;
#X msg 503 821 /set* setDistCrop 0 \$1;
#X msg 500 743 /set* setVoxelSize \$1;
#X obj 488 853 s \$0-to-SPIN;
#X msg 493 551 set2-3.cpc 0;
#X msg 121 635 createNode \$1 PointCloud \, createNode p\$1 GroupNode
\, /\$1 setParent p\$1 \, /\$1 setTranslation 0 -2 0.8 \, /\$1 setOrientation
0 90 0 \, /p\$1 setTranslation \$2 0 0 \, /p\$1 setSpin 0 0 20 \, /\$1
setDrawMode 1 \, /\$1 setURI ~/Documents/Metalab/hmr/models/pcd/\$1
;
#X msg 504 669 0.01;
#X msg 46 432 9-congelation.cpc;
#X connect 0 0 12 0;
#X connect 2 0 0 0;
#X connect 4 0 3 0;
#X connect 5 0 12 0;
#X connect 6 0 12 0;
#X connect 7 0 12 0;
#X connect 8 0 12 0;
#X connect 9 0 12 0;
#X connect 10 0 12 0;
#X connect 11 0 15 0;
#X connect 12 0 11 0;
#X connect 13 0 1 0;
#X connect 14 0 1 0;
#X connect 15 0 1 0;
#X connect 16 0 1 0;
#X connect 17 0 1 0;
#X connect 18 0 19 0;
#X connect 19 0 1 0;
#X connect 21 0 1 0;
#X connect 22 0 55 0;
#X connect 23 0 38 0;
#X connect 38 0 20 0;
#X connect 39 0 40 0;
#X connect 40 0 20 0;
#X connect 41 0 42 0;
#X connect 42 0 43 0;
#X connect 43 0 20 0;
#X connect 44 0 22 0;
#X connect 45 0 44 0;
#X connect 46 0 20 0;
#X connect 47 0 48 0;
#X connect 48 0 52 0;
#X connect 49 0 50 0;
#X connect 50 0 51 0;
#X connect 51 0 53 0;
#X connect 52 0 53 0;
#X connect 54 0 22 0;
#X connect 55 0 20 0;
#X connect 57 0 3 0;
#X restore 504 110 pd mikes_test;
#X text 422 14 Here is the main folder path;
#X msg 115 357 /hotspot_up3 setColor 1 0 0 1;
#X msg 5 518 /hotspot_up3 setScale 3 3 6;
#X obj 784 87 anyreg posturePos;
#N canvas 0 0 450 300 UTILITIES 0;
#X obj 41 106 * 0.5;
#X obj 49 188 s \$0-to-SPIN-TCP;
#X obj 50 59 r g_hotspot_debugview;
#X obj 45 126 pack;
#X obj 50 83 t f f;
#X obj 87 110 + 50;
#X msg 61 229 /hotspot_* setColor 1 0 0 \$1 \, /hotspot_* setRenderBin
\$2;
#X msg 45 157 /hotspot_* setColor 1 0 0 \$1 \, /hotspot_* setRenderBin
\$2;
#X connect 0 0 3 0;
#X connect 2 0 4 0;
#X connect 3 0 7 0;
#X connect 4 0 0 0;
#X connect 4 1 5 0;
#X connect 5 0 3 1;
#X connect 7 0 1 0;
#X restore 135 94 pd UTILITIES;
#X obj 524 206 tgl 30 0 g_hotspot_debugview g_hotspot_debugview-set
showHotspots -25 -10 0 10 -262144 -1 -1 0 1;
#X text 761 133 <------GOING TO hotspot_triggers + fog patch;
#X msg 499 344 refreshSubscribers;
#X obj 5 66 bng 15 250 50 0 empty empty empty 17 7 0 10 -262144 -1
-1;
#X floatatom 1052 191 5 0 0 0 - - -;
#X obj 1063 394 s \$0-to-SPIN-TCP;
#X msg 1091 364 /1-scanner debug;
#X floatatom 1061 304 5 0 0 0 - - -;
#X floatatom 1071 248 5 0 0 0 - - -;
#X msg 1071 273 /1-scanner-pcd setTranslation 0 \$1 0;
#X obj 1122 118 t b f;
#X obj 1121 142 pack f f;
#X floatatom 1122 92 8 0 0 0 - - -;
#X floatatom 1063 92 8 0 0 0 - - -;
#X obj 1040 451 t b f;
#X obj 1039 475 pack f f;
#X floatatom 1040 425 8 0 0 0 - - -;
#X floatatom 986 425 8 0 0 0 - - -;
#X obj 1039 524 s \$0-to-SPIN-TCP;
#X floatatom 1342 196 5 0 0 0 - - -;
#X obj 1380 123 t b f;
#X obj 1379 147 pack f f;
#X floatatom 1380 97 8 0 0 0 - - -;
#X floatatom 1321 97 8 0 0 0 - - -;
#X msg 1039 499 /hotspot_up3-8 setTranslation \$1 \$2 1.9;
#X obj 1178 777 s \$0-to-SPIN-TCP;
#X obj 1388 602 t b f;
#X obj 1387 626 pack f f;
#X obj 1388 542 vsl 15 50 0 1 0 0 empty empty empty 0 -9 0 10 -191407
-1 -1 0 1;
#X obj 1364 559 vsl 15 50 0 1 0 0 empty empty empty 0 -9 0 10 -191407
-1 -1 0 1;
#X msg 1387 647 /voxShader setUniform_vec2 voxels_distance \$1 \$2
;
#X obj 1325 626 t b f;
#X obj 1324 650 pack f f;
#X obj 1325 566 vsl 15 50 0 1 0 0 empty empty empty 0 -9 0 10 -191407
-1 -1 0 1;
#X obj 1301 583 vsl 15 50 0 1 0 0 empty empty empty 0 -9 0 10 -191407
-1 -1 0 1;
#X obj 1263 654 t b f;
#X obj 1262 678 pack f f;
#X obj 1263 594 vsl 15 50 0 1 0 0 empty empty empty 0 -9 0 10 -191407
-1 -1 0 1;
#X obj 1239 611 vsl 15 50 0 1 0 0 empty empty empty 0 -9 0 10 -191407
-1 -1 0 1;
#X msg 1324 671 /voxShader setUniform_vec2 voxels_size \$1 \$2;
#X msg 1262 699 /voxShader setUniform_vec2 voxels_offset \$1 \$2;
#X msg 1336 742 /voxShader debug;
#X floatatom 1493 540 5 0 0 0 - - -;
#X floatatom 1461 540 5 0 0 0 - - -;
#X msg 1339 219 /13-hotte setOrientation 0 90 \$1;
#X msg 1377 172 /13-hotte setTranslation \$1 \$2 0;
#X obj 672 105 bng 15 250 50 0 empty empty empty 17 7 0 10 -262144
-1 -1;
#X obj 34 646 bng 15 250 50 0 empty empty empty 17 7 0 10 -262144 -1
-1;
#X obj 330 592 bng 15 250 50 0 empty empty empty 17 7 0 10 -262144
-1 -1;
#X obj 573 596 nbx 8 14 -1e+37 1e+37 0 0 empty empty empty 0 -8 0 10
-262144 -1 -1 0 256;
#X obj 629 616 nbx 8 14 -1e+37 1e+37 0 0 empty empty empty 0 -8 0 10
-262144 -1 -1 0 256;
#X obj 685 637 nbx 8 14 -1e+37 1e+37 0 0 empty empty empty 0 -8 0 10
-262144 -1 -1 0 256;
#X obj 635 660 hotpack3 x y z;
#X obj 657 546 bng 15 250 50 0 empty empty empty 17 7 0 10 -262144
-1 -1;
#X obj 781 637 bng 15 250 50 0 empty empty empty 17 7 0 10 -262144
-1 -1;
#N canvas 858 100 1024 597 hotspots_up3 1;
#X obj 62 56 inlet;
#X obj 224 141 bng 15 250 50 0 empty empty empty 17 7 0 10 -262144
-1 -1;
#X obj 222 176 bng 15 250 50 0 empty empty empty 17 7 0 10 -262144
-1 -1;
#X obj 221 212 bng 15 250 50 0 empty empty empty 17 7 0 10 -262144
-1 -1;
#X obj 218 247 bng 15 250 50 0 empty empty empty 17 7 0 10 -262144
-1 -1;
#X obj 215 283 bng 15 250 50 0 empty empty empty 17 7 0 10 -262144
-1 -1;
#X obj 210 319 bng 15 250 50 0 empty empty empty 17 7 0 10 -262144
-1 -1;
#X obj 207 355 bng 15 250 50 0 empty empty empty 17 7 0 10 -262144
-1 -1;
#X obj 204 389 bng 15 250 50 0 empty empty empty 17 7 0 10 -262144
-1 -1;
#X obj 200 424 bng 15 250 50 0 empty empty empty 17 7 0 10 -262144
-1 -1;
#X obj 194 499 bng 15 250 50 0 empty empty empty 17 7 0 10 -262144
-1 -1;
#X obj 191 535 bng 15 250 50 0 empty empty empty 17 7 0 10 -262144
-1 -1;
#X obj 186 571 bng 15 250 50 0 empty empty empty 17 7 0 10 -262144
-1 -1;
#X obj 177 646 bng 15 250 50 0 empty empty empty 17 7 0 10 -262144
-1 -1;
#X obj 77 92 t b b b b b b b b b b b b b;
#X obj 51 93 bng 15 250 50 0 empty empty empty 17 7 0 10 -262144 -1
-1;
#X text 607 180 <----------Room 2 - microscope (CERC111);
#X text 605 216 <----------Room 3 - pipette (CERC110);
#X text 598 252 <----------Room 4 - hotte (CERC113);
#X text 589 287 <----------Room 5 - hotte (CERC108);
#X text 562 322 <----------Room 6 - selecteur immuno (CERC201);
#X text 589 358 <----------Room 7 - pipette (CERC202);
#X text 593 393 <----------Room 8 - microscope (CERC114);
#X text 590 428 <----------Room 9 - congelation (CERC115);
#X text 574 503 <----------Room 10 - microscope (CERC314);
#X text 562 539 <----------Room 11 - scanner (CERC316);
#X text 510 574 <----------Room 12 - congelation (CERC321);
#X text 562 649 <----------Room 13 - hotte (CERC318);
#X text 614 144 <----------Room 1 - scanner (CERC112);
#X obj 312 -131 anyreg gProjectPath;
#X obj 313 -103 t b s;
#X obj 283 -71 symbol \$1;
#X obj 318 -28 pack s s;
#X obj 315 61 s \$0-to-SPIN-TCP;
#X obj 233 -109 bng 15 250 50 0 empty empty empty 17 7 0 10 -262144
-1 -1;
#X msg 314 -1 deleteNode hotspot_cube \, createNode hotspot_cube ModelNode
\, /hotspot_cube setModelFromFile \$2/models/hotspot_cube.ac \, /hotspot_cube
setTranslation 2020.85 1077.03 5.25 \, /hotspot_cube setScale 0.65
0.65 0.65;
#X msg 698 -10 deleteNode hotspot_cube3-1 \, createNode hotspot_cube3-1
ModelNode \, /hotspot_cube3-1 setModelFromFile \$2/models/hotspot_cube.ac
\, /hotspot_cube3-1 setTranslation -19.83 109.79 4.21 \, /hotspot_cube3-1
setScale 1 1.5 0.4 \, /hotspot_cube3-1 setOrientation -136 0 -56;
#X obj 196 461 bng 15 250 50 0 empty empty empty 17 7 0 10 -262144
-1 -1;
#X obj 183 608 bng 15 250 50 0 empty empty empty 17 7 0 10 -262144
-1 -1;
#X obj 246 140 hmr_hotspot \$0 1-cube -5.49 -2.38 -1.88 1 2 0.4 46
-97 90 1-scanner-group;
#X obj -135 167 hmr_hotspot \$0 up3-2 -64.5 1180 1.5 1 1 1 0 0 30;
#X obj -138 193 hmr_hotspot \$0 up3-3 -85.5 1178.5 1 0.5 0.5 2 0 0
0;
#X obj -141 218 hmr_hotspot \$0 up3-4 -132.75 1189.25 2.25 1 1 0.5
30 0 30;
#X obj -145 243 hmr_hotspot \$0 up3-5 -27.75 1289.25 2.25 1 1 0.5 30
0 30;
#X obj -149 269 hmr_hotspot \$0 up3-6 -144.5 1273 2.5 1 1 1 0 0 0;
#X obj -152 295 hmr_hotspot \$0 up3-7 -180.5 1274 2 1 1 2 0 0 0;
#X obj -156 320 hmr_hotspot \$0 up3-8 -104.5 1370 1.5 1 1 1 0 0 0;
#X obj -160 345 hmr_hotspot \$0 up3-9 -164.5 1370 -2 2 2 2 0 0 0;
#X obj -164 370 hmr_hotspot \$0 up3-10 -209.5 1275 1.5 1 1 1 0 0 0
;
#X obj -166 396 hmr_hotspot \$0 up3-11 -262 1272.5 4.25 1 1 0.5 0 30
0;
#X obj -171 422 hmr_hotspot \$0 up3-12 -294.5 1275 -2 2 2 2 0 0 0;
#X obj -174 447 hmr_hotspot \$0 up3-13 -287.75 1364.25 2.25 1 1 0.5
30 0 30;
#X obj -133 141 hmr_hotspot \$0 up3-1 -24.9 1207.5 4.75 1 1 0.4 0 45
90;
#X obj 873 135 hmr_hotspot \$0 up3-1 -4.7 -2.55 -1.87 1 1 0.4 -100
0 45 1-scanner-group;
#X obj 862 277 hmr_hotspot \$0 up3-5 -56.25 182.25 2.5 1 1.5 0.5 -45
0 255 5-hotte-group;
#X obj 858 313 hmr_hotspot \$0 up3-6 -133 192 10 1 1.5 0.5 90 0 105
6-select-immuno-group;
#X obj 855 349 hmr_hotspot \$0 up3-7 -179.6 189.5 1.2 0.2 0.2 1.4 0
10 0 7-pipette-group;
#X obj 851 384 hmr_hotspot \$0 up3-8 -110 268 1.9 0.6 0.6 0.2 0 0 50
8-microscope-group;
#X obj 847 419 hmr_hotspot \$0 up3-9 -164.5 270 -2 2 2 2 0 0 0 9-congelation-group
;
#X obj 840 494 hmr_hotspot \$0 up3-10 -209.5 175 1.9 0.6 0.6 0.2 0
0 50 10-microscope-group;
#X obj 838 530 hmr_hotspot \$0 up3-11 -262 172.5 4.25 1 1 0.5 -45 0
145 11-scanner-group;
#X obj 833 566 hmr_hotspot \$0 up3-12 -294.5 175 -2 2 2 2 0 0 0 12-congelation-group
;
#X obj 824 640 hmr_hotspot \$0 up3-13 -287.75 264.25 2.5 1 1.5 0.5
-45 0 255 13-hotte-group;
#X obj 872 171 hmr_hotspot \$0 up3-2 -1.9 2.15 -3.75 0.6 0.6 0.2 0
90 0 2-microscope-group;
#X obj 869 207 hmr_hotspot \$0 up3-3 -0.9 -1.85 -0.75 0.2 0.2 1.4 0
90 0 3-pipette-group;
#X obj 866 242 hmr_hotspot \$0 up3-4 -2.64 9.26 2.25 1 1.5 0.5 0 90
45 4-hotte-group;
#X obj 243 176 hmr_hotspot \$0 2-petrie -2.67 -2.08 -0.62 0.8 1.2 0.8
0 0 90 2-microscope-group;
#X obj 240 212 hmr_hotspot \$0 3-tube -1 2 0.5 1.2 1.2 1.2 20 0 90
3-pipette-group;
#X obj 237 247 hmr_hotspot \$0 4-poche -2.75 12.36 3.11 2.5 2.5 3.5
55 110 90 4-hotte-group;
#X obj 233 282 hmr_hotspot \$0 5-poche -2.75 12.36 3.11 2.5 2.5 3.5
55 110 90 5-hotte-group;
#X obj 195 645 hmr_hotspot \$0 13-poche -2.75 12.36 3.11 2.5 2.5 3.5
55 110 90 13-hotte-group;
#X obj 226 354 hmr_hotspot \$0 7-tube -1 2 0.5 1.2 1.2 1.2 20 0 90
7-pipette-group;
#X obj 211 499 hmr_hotspot \$0 10-petrie -2.67 -2.08 -0.62 0.8 1.2
0.8 0 0 90 10-microscope-group;
#X obj 222 389 hmr_hotspot \$0 8-petrie -2.67 -2.08 -0.62 0.8 1.2 0.8
0 0 90 8-microscope-group;
#X obj 662 92 hmr_hotspot \$0 1-cube -19.83 109.79 4.21 1 1.5 0.4 -136
0 -56 1-scanner-group;
#X obj 209 535 hmr_hotspot \$0 11-cube -5.49 -2.38 -1.88 1 2 0.4 46
-97 90 11-scanner-group;
#X obj 229 318 hmr_hotspot \$0 6-poche -10.44 6.27 -1.48 2 2 3 0 71
90 6-select-immuno-group;
#X obj 219 424 hmr_hotspot \$0 9-cube -0.66 -2.41 -1.26 1.7 0.5 3 20
63 0 9-congelation-group;
#X obj 215 461 hmr_hotspot \$0 9-cube2 -3.56 -1.51 1.33 1.7 0.5 3 6
26 0 9-congelation-group;
#X obj 201 608 hmr_hotspot \$0 12-cube2 -3.56 -1.51 1.33 1.7 0.5 3
6 26 0 12-congelation-group;
#X obj 204 571 hmr_hotspot \$0 12-cube -0.66 -2.41 -1.26 1.7 0.5 3
20 63 0 12-congelation-group;
#X obj 301 92 hmr_hotspot \$0 1-cube -5.49 -2.38 -1.88 1 2 0.4 46 -97
90 1-scanner-group;
#X connect 0 0 14 0;
#X connect 1 0 39 0;
#X connect 2 0 66 0;
#X connect 3 0 67 0;
#X connect 4 0 68 0;
#X connect 5 0 69 0;
#X connect 6 0 76 0;
#X connect 7 0 71 0;
#X connect 8 0 73 0;
#X connect 9 0 77 0;
#X connect 10 0 72 0;
#X connect 11 0 75 0;
#X connect 12 0 80 0;
#X connect 13 0 70 0;
#X connect 14 0 70 0;
#X connect 14 1 79 0;
#X connect 14 1 80 0;
#X connect 14 2 75 0;
#X connect 14 3 72 0;
#X connect 14 4 77 0;
#X connect 14 4 78 0;
#X connect 14 5 73 0;
#X connect 14 6 71 0;
#X connect 14 7 76 0;
#X connect 14 8 69 0;
#X connect 14 9 68 0;
#X connect 14 10 67 0;
#X connect 14 11 66 0;
#X connect 14 12 39 0;
#X connect 15 0 14 0;
#X connect 29 0 30 0;
#X connect 30 0 31 0;
#X connect 30 1 32 1;
#X connect 31 0 32 0;
#X connect 32 0 35 0;
#X connect 32 0 36 0;
#X connect 34 0 29 0;
#X connect 35 0 33 0;
#X connect 36 0 33 0;
#X connect 37 0 78 0;
#X connect 38 0 79 0;
#X restore 59 267 pd hotspots_up3;
#X obj 39 269 bng 15 250 50 0 empty empty empty 17 7 0 10 -262144 -1
-1;
#X obj 217 130 bng 15 250 50 0 empty empty empty 17 7 0 10 -262144
-1 -1;
#X obj 46 138 t b b b b b b;
#X msg 202 532 /hotspot_up3-1 setParent 1-scanner-group;
#X msg 161 683 deleteNode containmentCube \, createNode containmentCube
ShapeNode \, /containmentCube setParent;
#N canvas 31 89 980 812 hotspot_triggers_containment 0;
#X obj 510 70 shell;
#X msg 510 48 hostname -s;
#X obj 345 95 r \$0-from-SPIN;
#X obj 510 114 makefilename /%s-reporter;
#X obj 265 163 list;
#X obj 345 135 OSCparse /posture??-reporter;
#X obj 510 92 symbol;
#X obj 490 165 list;
#X obj 507 20 loadbang;
#X obj 464 32 bng 15 250 50 0 empty empty empty 17 7 0 10 -262144 -1
-1;
#X obj 179 199 trigger-hotspot hotspot_up2;
#X obj 208 243 trigger-hotspot hotspot_up4;
#X obj 222 265 trigger-hotspot hotspot_up5;
#X obj 237 289 trigger-hotspot hotspot_up6;
#X obj 410 199 trigger-hotspot hotspot_down1;
#X obj 419 221 trigger-hotspot hotspot_down2;
#X obj 434 243 trigger-hotspot hotspot_down3;
#X obj 448 265 trigger-hotspot hotspot_down4;
#X obj 463 289 trigger-hotspot hotspot_down5;
#X obj 193 221 r up3;
#X obj 166 656 s \$0-to-SPIN-TCP;
#X obj 750 197 shell;
#X msg 750 177 hostname -s;
#X obj 750 257 t a a a a;
#X obj 752 230 symbol;
#X msg 83 366 /posture?? setCubeOffset 0 0 0 \, /posture?? setCubeSize
700 500 150;
#X msg 114 405 /posture?? setCubeOffset -164 178 14 \, /posture?? setCubeSize
350 265 50;
#X text 460 370 <-- Step 1 : corridor (x +0 \, y +0);
#X text 542 525 <-- Step 5 : sang 2e passage (x +2000 \, y +2000);
#X text 477 406 <-- Step 2 : laboratoire (x +0 \, y +0);
#X text 513 448 <-- Step 3 : sang (x +0 \, y +2000);
#X text 526 490 <-- Step 4 : cellule (x +1000 \, y +3000);
#X text 572 565 <-- Step 6 : patient (x +2000 \, y +1000);
#X obj 63 307 r reset;
#X msg 148 444 /posture?? setCubeOffset 0 2300 0 \, /posture?? setCubeSize
400 400 400;
#X msg 216 521 /posture?? setCubeOffset 2000 2350 0 \, /posture?? setCubeSize
500 500 500;
#X msg 247 560 /posture?? setCubeOffset 2000 1000 0 \, /posture?? setCubeSize
500 500 500;
#X msg 179 483 /posture?? setCubeOffset 1000 3500 0 \, /posture?? setCubeSize
500 2000 500;
#X connect 0 0 6 0;
#X connect 1 0 0 0;
#X connect 2 0 5 0;
#X connect 3 0 5 1;
#X connect 4 0 10 0;
#X connect 4 0 11 0;
#X connect 4 0 12 0;
#X connect 4 0 13 0;
#X connect 5 0 4 0;
#X connect 5 0 7 0;
#X connect 6 0 3 0;
#X connect 7 0 14 0;
#X connect 7 0 15 0;
#X connect 7 0 16 0;
#X connect 7 0 17 0;
#X connect 7 0 18 0;
#X connect 8 0 1 0;
#X connect 9 0 1 0;
#X connect 10 0 26 0;
#X connect 11 0 37 0;
#X connect 12 0 35 0;
#X connect 13 0 36 0;
#X connect 14 0 25 0;
#X connect 15 0 26 0;
#X connect 16 0 34 0;
#X connect 17 0 37 0;
#X connect 18 0 35 0;
#X connect 19 0 34 0;
#X connect 21 0 24 0;
#X connect 22 0 21 0;
#X connect 24 0 23 0;
#X connect 25 0 20 0;
#X connect 26 0 20 0;
#X connect 33 0 25 0;
#X connect 34 0 20 0;
#X connect 35 0 20 0;
#X connect 36 0 20 0;
#X connect 37 0 20 0;
#X restore 376 152 pd hotspot_triggers_containment;
#X msg 1120 168 /patient-group setTranslation \$1 \$2 7.5;
#X msg 1060 327 /corridor-group setOrientation \$1 0 145;
#X msg 1052 214 /patient-group2 setOrientation 0 90 \$1;
#X obj 326 615 bng 15 250 50 0 empty empty empty 17 7 0 10 -262144
-1 -1;
#X msg 346 616 /hotspot_up3-1 setShape 1;
#X obj 340 561 nbx 8 14 -1e+37 1e+37 0 0 empty empty empty 0 -8 0 10
-262144 -1 -1 0 256;
#X obj 40 619 nbx 8 14 -1e+37 1e+37 0 0 empty empty empty 0 -8 0 10
-262144 -1 -1 0 256;
#X obj 602 689 bng 15 250 50 0 empty empty empty 17 7 0 10 -262144
-1 -1;
#X obj 770 539 nbx 8 14 -1e+37 1e+37 0 0 empty empty empty 0 -8 0 10
-262144 -1 -1 0 256;
#X obj 826 559 nbx 8 14 -1e+37 1e+37 0 0 empty empty empty 0 -8 0 10
-262144 -1 -1 0 256;
#X obj 882 580 nbx 8 14 -1e+37 1e+37 0 0 empty empty empty 0 -8 0 10
-262144 -1 -1 0 256;
#X obj 832 603 hotpack3 x y z;
#X obj 854 489 bng 15 250 50 0 empty empty empty 17 7 0 10 -262144
-1 -1;
#X msg 350 593 /cell-globule setScale \$1 \$1 \$1;
#X msg 51 332 /hotspot_down4 setColor 1 0 0 1;
#X text 460 281 1027 542 8 \, scale 1.33;
#X text 460 303 845 2741 8 \, scale 1.33;
#X msg 402 389 /posture??-reporter debug;
#X msg 531 502 /12-congelation-group debug;
#X msg 623 687 /hotspot_9-cube2 setScale \$1 \$2 \$3;
#X msg 801 636 /hotspot_9-cube2 setOrientation \$1 \$2 \$3;
#X msg 51 645 /sang-cone setTranslation \$1 \$2 \$3;
#X msg 625 178 sang-cone;
#X msg 696 178 posture05;
#X msg 40 308 /sang-cone setColor 0 0 0 0;
#X obj 1711 298 shell;
#X msg 1711 276 hostname -s;
#X obj 1708 248 loadbang;
#X obj 1665 260 bng 15 250 50 0 empty empty empty 17 7 0 10 -262144
-1 -1;
#X obj 1711 363 symbol;
#X obj 1633 295 r gotoPos;
#X obj 1650 493 s \$0-to-SPIN-TCP;
#X obj 1646 418 OSCprepend /postureID;
#X msg 1648 325 setTranslation \$1 \$2 \$3;
#X obj 1685 462 print;
#X obj 393 70 hmr_hotspot \$0 up3 -25.5 1209 10 3 3 6 30;
#X msg 477 413 /experience debug;
#X msg 497 437 /step2 debug;
#X msg 498 475 /hotspot_up4 debug;
#X msg 504 457 /hotspot_up4 setReportMode 1;
#X msg 497 369 /hotspot_tripper debug;
#X connect 0 0 2 0;
#X connect 1 0 106 0;
#X connect 2 0 1 0;
#X connect 5 0 3 0;
#X connect 8 0 22 0;
#X connect 9 0 44 0;
#X connect 10 0 13 0;
#X connect 11 0 13 1;
#X connect 12 0 13 2;
#X connect 13 0 131 0;
#X connect 15 0 14 0;
#X connect 16 0 124 0;
#X connect 17 0 134 0;
#X connect 18 0 10 0;
#X connect 18 0 11 0;
#X connect 18 0 12 0;
#X connect 19 0 20 0;
#X connect 20 0 7 0;
#X connect 21 0 24 0;
#X connect 21 0 23 0;
#X connect 22 0 7 0;
#X connect 23 0 7 0;
#X connect 24 0 7 0;
#X connect 25 0 27 0;
#X connect 26 0 28 0;
#X connect 27 0 29 0;
#X connect 28 0 30 0;
#X connect 29 0 26 0;
#X connect 29 1 46 0;
#X connect 39 0 37 0;
#X connect 40 0 4 0;
#X connect 41 0 34 0;
#X connect 44 0 7 0;
#X connect 45 0 7 0;
#X connect 50 0 14 0;
#X connect 51 0 2 0;
#X connect 52 0 112 0;
#X connect 54 0 53 0;
#X connect 55 0 111 0;
#X connect 56 0 57 0;
#X connect 57 0 53 0;
#X connect 58 0 59 0;
#X connect 58 1 59 1;
#X connect 59 0 110 0;
#X connect 60 0 58 0;
#X connect 61 0 59 0;
#X connect 62 0 63 0;
#X connect 62 1 63 1;
#X connect 63 0 72 0;
#X connect 64 0 62 0;
#X connect 65 0 63 0;
#X connect 67 0 92 0;
#X connect 68 0 69 0;
#X connect 68 1 69 1;
#X connect 69 0 93 0;
#X connect 70 0 68 0;
#X connect 71 0 69 0;
#X connect 72 0 66 0;
#X connect 74 0 75 0;
#X connect 74 1 75 1;
#X connect 75 0 78 0;
#X connect 76 0 74 0;
#X connect 77 0 75 0;
#X connect 78 0 73 0;
#X connect 79 0 80 0;
#X connect 79 1 80 1;
#X connect 80 0 87 0;
#X connect 81 0 79 0;
#X connect 82 0 80 0;
#X connect 83 0 84 0;
#X connect 83 1 84 1;
#X connect 84 0 88 0;
#X connect 85 0 83 0;
#X connect 86 0 84 0;
#X connect 87 0 73 0;
#X connect 88 0 73 0;
#X connect 89 0 73 0;
#X connect 90 0 75 1;
#X connect 90 0 75 0;
#X connect 91 0 80 0;
#X connect 91 0 80 1;
#X connect 92 0 53 0;
#X connect 93 0 53 0;
#X connect 94 0 30 0;
#X connect 95 0 131 0;
#X connect 96 0 123 0;
#X connect 97 0 100 0;
#X connect 98 0 100 1;
#X connect 99 0 100 2;
#X connect 100 0 129 0;
#X connect 101 0 97 0;
#X connect 101 0 98 0;
#X connect 101 0 99 0;
#X connect 102 0 130 0;
#X connect 104 0 103 0;
#X connect 105 0 31 0;
#X connect 106 0 103 0;
#X connect 106 1 3 0;
#X connect 106 2 34 0;
#X connect 106 3 4 0;
#X connect 106 4 37 0;
#X connect 106 5 31 0;
#X connect 107 0 7 0;
#X connect 110 0 53 0;
#X connect 111 0 53 0;
#X connect 112 0 53 0;
#X connect 113 0 114 0;
#X connect 114 0 7 0;
#X connect 115 0 123 0;
#X connect 116 0 131 0;
#X connect 117 0 129 0;
#X connect 118 0 121 0;
#X connect 119 0 121 1;
#X connect 120 0 121 2;
#X connect 121 0 130 0;
#X connect 122 0 118 0;
#X connect 122 0 119 0;
#X connect 122 0 120 0;
#X connect 123 0 7 0;
#X connect 124 0 7 0;
#X connect 127 0 14 0;
#X connect 128 0 14 0;
#X connect 129 0 7 0;
#X connect 130 0 7 0;
#X connect 131 0 7 0;
#X connect 132 0 38 0;
#X connect 133 0 38 0;
#X connect 134 0 7 0;
#X connect 135 0 139 0;
#X connect 136 0 135 0;
#X connect 137 0 136 0;
#X connect 138 0 136 0;
#X connect 139 0 142 1;
#X connect 140 0 143 0;
#X connect 142 0 141 0;
#X connect 142 0 144 0;
#X connect 143 0 142 0;
#X connect 146 0 14 0;
#X connect 147 0 14 0;
#X connect 148 0 14 0;
#X connect 149 0 14 0;
#X connect 150 0 14 0;
