#N canvas 99 432 847 563 10;
#X obj 223 190 anyreg gProjectPath;
#X obj 62 346 shell;
#X obj 89 366 bng 15 250 50 0 empty empty empty 17 7 0 10 -262144 -1
-1;
#X obj 95 150 list2symbol;
#X obj 223 168 loadbang;
#X obj 61 289 t a a;
#X obj 106 200 length;
#X obj 106 178 symbol2list;
#X obj 169 158 symbol;
#X obj 169 138 loadbang;
#X floatatom 201 258 5 0 0 0 - - -;
#X obj 183 121 bng 15 250 50 0 empty empty empty 17 7 0 10 -262144
-1 -1;
#X obj 290 140 bng 15 250 50 0 empty empty empty 17 7 0 10 -262144
-1 -1;
#X msg 123 86 CERC112 I want a nice juicy hamburger that is delicious
and tasty::;
#X obj 29 36 inlet;
#X obj 29 125 symbol \$1;
#X obj 32 73 t b a;
#X obj 61 266 pack s s s;
#X obj 201 278 outlet;
#X obj 201 234 f;
#X floatatom 113 229 5 0 0 0 - - -;
#X msg 103 24 asoe;
#X msg 96 57 Salle Power Corporation du Canada::;
#X msg 61 312 \$3/text-rect/text-rect -t "\$2" -f "Gill sans 72" -H
1 -o \$3/text-rect/\$1.png -s 2;
#X connect 0 0 17 2;
#X connect 1 1 2 0;
#X connect 2 0 19 0;
#X connect 3 0 7 0;
#X connect 3 0 17 1;
#X connect 4 0 0 0;
#X connect 5 0 23 0;
#X connect 6 0 19 1;
#X connect 6 0 20 0;
#X connect 7 0 6 0;
#X connect 8 0 7 1;
#X connect 9 0 8 0;
#X connect 10 0 18 0;
#X connect 11 0 8 0;
#X connect 12 0 0 0;
#X connect 14 0 16 0;
#X connect 15 0 17 0;
#X connect 16 0 15 0;
#X connect 16 1 3 0;
#X connect 17 0 5 0;
#X connect 19 0 10 0;
#X connect 21 0 16 0;
#X connect 22 0 16 0;
#X connect 23 0 1 0;
