#N canvas 66 264 1103 790 10;
#X obj 192 598 outlet;
#X obj 146 37 inlet creation;
#X obj 110 161 symbol \$1;
#X obj 141 78 delay;
#X obj 263 19 loadbang;
#X obj 263 47 random 5000;
#X obj 263 72 + 5000;
#X text 363 46 Arguments: name of the planet;
#X text 322 71 <-- to avoid loading 10 obj at the same time;
#X text 177 160 <-- first symbol is node name;
#X text 211 202 <-- second symbol is current directory (folder) to
look for .ac file;
#X obj 141 103 anyreg gProjectPath;
#X obj 1108 522 vsl 15 50 0 1 0 0 empty empty empty 0 -9 0 10 -258113
-1 -1 4900 1;
#X obj 1034 428 loadbang;
#X msg 1034 475 1;
#X obj 1034 452 delay 2000;
#X obj 689 98 r \$0-shader;
#X obj 796 29 loadbang;
#X obj 796 78 symbol;
#X obj 800 193 s \$0-shader;
#X msg 810 134 chromakey_brcosa.jxs;
#X msg 730 164 INVALID;
#X msg 795 48 anyreg gProjectPath;
#X obj 632 199 pack s s s;
#X msg 632 220 /\$1 setShader \$2/\$3;
#X obj 649 125 t b s;
#X obj 619 157 symbol \$1;
#X obj 514 103 delay 500;
#X obj 514 125 anyreg gProjectPath;
#X text 210 231 <-- third symbol is name of shader;
#X obj 105 44 bng 15 250 50 0 empty empty empty 17 7 0 10 -262144 -1
-1;
#X msg 252 560 /voxShader debug;
#X obj 1336 516 t b f;
#X obj 1335 540 pack f f;
#X obj 1336 456 vsl 15 50 0 1 0 0 empty empty empty 0 -9 0 10 -191407
-1 -1 0 1;
#X obj 1312 473 vsl 15 50 0 1 0 0 empty empty empty 0 -9 0 10 -191407
-1 -1 0 1;
#X msg 1335 561 /voxShader setUniform_vec2 voxels_distance \$1 \$2
;
#X obj 1273 540 t b f;
#X obj 1272 564 pack f f;
#X obj 1273 480 vsl 15 50 0 1 0 0 empty empty empty 0 -9 0 10 -191407
-1 -1 0 1;
#X obj 1249 497 vsl 15 50 0 1 0 0 empty empty empty 0 -9 0 10 -191407
-1 -1 0 1;
#X obj 1211 568 t b f;
#X obj 1210 592 pack f f;
#X obj 1211 508 vsl 15 50 0 1 0 0 empty empty empty 0 -9 0 10 -191407
-1 -1 0 1;
#X obj 1187 525 vsl 15 50 0 1 0 0 empty empty empty 0 -9 0 10 -191407
-1 -1 0 1;
#X msg 1272 585 /voxShader setUniform_vec2 voxels_size \$1 \$2;
#X msg 1210 613 /voxShader setUniform_vec2 voxels_offset \$1 \$2;
#X obj 1143 492 delay;
#X obj 1179 415 loadbang;
#X obj 1179 443 random 5000;
#X obj 1179 468 + 5000;
#X obj 471 106 bng 15 250 50 0 empty empty empty 17 7 0 10 -262144
-1 -1;
#X msg 1284 656 /voxShader debug;
#X obj 1020 143 t b s;
#X obj 990 175 symbol \$1;
#X obj 1025 218 pack s s;
#X text 1077 178 <-- first symbol is node name;
#X text 1091 216 <-- second symbol is current directory (folder) to
look for .ac file;
#X msg 23 564 /corridor setTranslation 0 0 0.3;
#X floatatom 44 604 5 0 0 0 - - -;
#X msg 25 645 /corridor-group setTranslation 10 115 \$1;
#X floatatom 1413 421 5 0 0 0 - - -;
#X msg 1415 449 /corridor-pcd setPointSize \$1;
#X obj 308 1025 loadbang;
#X obj 300 1047 delay 2000;
#X obj 90 1167 t b f;
#X obj 72 1187 pack f f;
#X obj 72 1111 vsl 15 50 0 1 0 0 empty empty empty 0 -9 0 10 -191407
-1 -1 26 1;
#X obj 87 1111 vsl 15 50 0 1 0 0 empty empty empty 0 -9 0 10 -191407
-1 -1 26 1;
#X obj 258 1166 t b f;
#X obj 240 1186 pack f f;
#X obj 240 1106 vsl 15 50 0 1 0 0 empty empty empty 0 -9 0 10 -191407
-1 -1 0 1;
#X obj 255 1106 vsl 15 50 0 1 0 0 empty empty empty 0 -9 0 10 -191407
-1 -1 0 1;
#X obj 377 1165 t b f;
#X obj 359 1185 pack f f;
#X obj 359 1109 vsl 15 50 0 1 0 0 empty empty empty 0 -9 0 10 -191407
-1 -1 172 1;
#X obj 374 1109 vsl 15 50 0 1 0 0 empty empty empty 0 -9 0 10 -191407
-1 -1 172 1;
#X msg 301 1076 0.5;
#X obj 304 843 vsl 15 150 0 0.1 0 0 empty empty Size 0 -9 0 10 -4032
-1 -1 800 1;
#X obj 350 842 vsl 15 150 0 1 0 0 empty empty Distance 0 -9 0 10 -4032
-1 -1 522 1;
#X obj 364 790 line;
#X obj 321 661 tgl 15 0 empty empty empty 17 7 0 10 -262144 -1 -1 0
1;
#X obj 362 742 / 1000;
#X obj 361 721 random 100;
#X obj 294 790 line;
#X obj 292 742 / 1000;
#X obj 291 721 random 100;
#X obj 322 682 metro 2000;
#X msg 362 766 \$1 2000;
#X msg 292 766 \$1 2000;
#X obj 474 955 hradio 15 1 0 6 empty empty Voxelize_method 0 -8 0 10
-4032 -1 -1 0;
#X text 353 808 comment;
#X obj 581 955 tgl 15 0 empty empty Activate_texture 17 7 0 10 -4032
-1 -1 0 1;
#X obj 706 953 hradio 15 1 0 2 empty empty Voxel_type 0 -8 0 10 -4032
-1 -1 0;
#X obj 826 839 vsl 15 150 0.1 2 0 0 empty empty Ratio 0 -9 0 10 -4032
-1 -1 13300 1;
#X msg 72 1207 /voxShader setUniform_vec2 voxels_size \$1 \$2;
#X msg 240 1230 /voxShader setUniform_vec2 voxels_offset \$1 \$2;
#X msg 359 1205 /voxShader setUniform_vec2 voxels_distance \$1 \$2
;
#X msg 581 1107 /voxShader setUniform_int vShowTexture \$1;
#X obj 764 782 tgl 15 0 empty empty empty 17 7 0 10 -262144 -1 -1 15661
15661;
#X msg 950 727 connect \$1;
#X obj 949 707 tgl 15 0 empty empty empty 17 7 0 10 -258113 -1 -1 0
1;
#X obj 762 751 to-spin localhost 54324 /shaders;
#X msg 474 1143 /voxShader setUniform_int vMethod \$1;
#X obj 261 1306 s \$2-to-SPIN;
#X obj 1126 691 s \$2-to-SPIN-TCP;
#X obj 632 245 s \$2-to-SPIN-TCP;
#X msg 706 1139 /voxShader setUniform_int vVoxelType \$1;
#X msg 844 1108 /voxShader setUniform_float vRatio \$1;
#X floatatom 1417 476 10 0 0 0 - - -;
#X msg 1418 498 /corridor-pcd setVoxelSize \$1;
#X msg 710 289 deleteNode \$1-pcd \, deleteNode \$1-group \, createNode
\$1-group GroupNode \, createNode \$1-pcd PointCloud \, /\$1-pcd setParent
\$1-group \, /\$1-group setParent step1 \, /\$1-group setTranslation
9 163 -1.5 \, /\$1-pcd setTranslation 0 -20 0 \, /\$1-group setOrientation
0 90 0 \, /\$1-pcd setDrawMode 1 \, /\$1-pcd setURI \$2/models/pcd/direction.cpc
\, /\$1-pcd setScale 11 11 11 \, /\$1-pcd setPointSize 3 \, /\$1-pcd
setVoxelSize 1e-05;
#X floatatom 251 999 10 0 0 0 - - -;
#X floatatom 334 1001 10 0 0 0 - - -;
#X floatatom 813 1008 10 0 0 0 - - -;
#X msg 171 362 deleteNode \$1-text \, createNode \$1-text ModelNode
\, /\$1-text setModelFromFile \$2/models/\$1-text.ac \, /\$1-text setParent
step1 \, /\$1-text setOrientation 90 0 90 \, /\$1-text setScale 0.1
0.1 0.1 \, /\$1-text setTranslation 0 0 0.1 \, /\$1-text setRenderBin
99;
#X msg 418 513 createStateSet voxShader Shader \, /voxShader setShader
\$2/models/shaders/\$3s \, /\$1 setStateSet voxShader \, /voxShader
setUniform_int vMethod 4 \, /voxShader setUniform_int vShowTexture
1 \, /voxShader setUniform_int vVoxelType 1 \, /voxShader setUniform_float
vRatio 1.23 \, /voxShader setUniform_int vVoxelType 1 \, /voxShader
setUniform_vec2 voxels_size 0.017 0.017 \, /voxShader setUniform_vec2
voxels_distance 0.181 0.181;
#X msg 151 442 deleteNode \$1 \, createNode \$1 ModelNode \, /\$1 setModelFromFile
\$2/models/\$1.ac \, /\$1 setParent step1 \, /\$1 setOrientation 90
0 90 \, /\$1 setScale 0.1 0.1 0.1 \, /\$1 setTranslation 0 0 0.1 \,
/\$1 setRenderBin 9;
#X obj 142 129 t b s s;
#X obj 132 215 pack s s s;
#X obj 371 158 anyreg shader;
#X obj -210 165 anyreg gProjectPath;
#X obj 72 47 bng 15 250 50 0 empty empty empty 17 7 0 10 -262144 -1
-1;
#X msg -208 193 /voxShader setShader \$1/models/shaders/voxelizew.jxs
;
#X msg 15 517 /\$1 setStateSet voxShader;
#X obj 132 239 t l l l l;
#X connect 1 0 3 0;
#X connect 2 0 119 0;
#X connect 3 0 11 0;
#X connect 4 0 5 0;
#X connect 5 0 6 0;
#X connect 6 0 3 1;
#X connect 11 0 53 0;
#X connect 11 0 118 0;
#X connect 13 0 15 0;
#X connect 14 0 12 0;
#X connect 15 0 14 0;
#X connect 16 0 23 2;
#X connect 17 0 22 0;
#X connect 20 0 19 0;
#X connect 21 0 19 0;
#X connect 22 0 18 0;
#X connect 23 0 24 0;
#X connect 24 0 106 0;
#X connect 25 0 26 0;
#X connect 25 1 23 1;
#X connect 26 0 23 0;
#X connect 27 0 28 0;
#X connect 28 0 26 0;
#X connect 30 0 11 0;
#X connect 31 0 0 0;
#X connect 32 0 33 0;
#X connect 32 1 33 1;
#X connect 33 0 36 0;
#X connect 34 0 32 0;
#X connect 35 0 33 0;
#X connect 36 0 105 0;
#X connect 37 0 38 0;
#X connect 37 1 38 1;
#X connect 38 0 45 0;
#X connect 39 0 37 0;
#X connect 40 0 38 0;
#X connect 41 0 42 0;
#X connect 41 1 42 1;
#X connect 42 0 46 0;
#X connect 43 0 41 0;
#X connect 44 0 42 0;
#X connect 45 0 105 0;
#X connect 46 0 105 0;
#X connect 48 0 49 0;
#X connect 49 0 50 0;
#X connect 50 0 47 1;
#X connect 51 0 27 0;
#X connect 52 0 105 0;
#X connect 53 0 54 0;
#X connect 53 1 55 1;
#X connect 54 0 55 0;
#X connect 55 0 111 0;
#X connect 58 0 0 0;
#X connect 59 0 60 0;
#X connect 60 0 0 0;
#X connect 61 0 62 0;
#X connect 62 0 105 0;
#X connect 63 0 64 0;
#X connect 64 0 77 0;
#X connect 65 0 66 0;
#X connect 65 1 66 1;
#X connect 66 0 95 0;
#X connect 67 0 66 0;
#X connect 68 0 65 0;
#X connect 69 0 70 0;
#X connect 69 1 70 1;
#X connect 70 0 96 0;
#X connect 71 0 70 0;
#X connect 72 0 69 0;
#X connect 73 0 74 0;
#X connect 73 1 74 1;
#X connect 74 0 97 0;
#X connect 75 0 74 0;
#X connect 76 0 73 0;
#X connect 77 0 67 0;
#X connect 77 0 68 0;
#X connect 77 0 75 0;
#X connect 77 0 76 0;
#X connect 78 0 67 0;
#X connect 78 0 68 0;
#X connect 78 0 112 0;
#X connect 79 0 75 0;
#X connect 79 0 76 0;
#X connect 79 0 113 0;
#X connect 80 0 79 0;
#X connect 81 0 87 0;
#X connect 82 0 88 0;
#X connect 83 0 82 0;
#X connect 84 0 78 0;
#X connect 85 0 89 0;
#X connect 86 0 85 0;
#X connect 87 0 83 0;
#X connect 87 0 86 0;
#X connect 88 0 80 0;
#X connect 89 0 84 0;
#X connect 90 0 103 0;
#X connect 92 0 98 0;
#X connect 93 0 107 0;
#X connect 94 0 108 0;
#X connect 94 0 114 0;
#X connect 95 0 104 0;
#X connect 96 0 104 0;
#X connect 97 0 104 0;
#X connect 98 0 104 0;
#X connect 100 0 102 1;
#X connect 101 0 100 0;
#X connect 102 0 99 0;
#X connect 103 0 104 0;
#X connect 107 0 104 0;
#X connect 108 0 104 0;
#X connect 109 0 110 0;
#X connect 110 0 105 0;
#X connect 111 0 0 0;
#X connect 115 0 0 0;
#X connect 116 0 0 0;
#X connect 117 0 0 0;
#X connect 118 0 2 0;
#X connect 118 1 119 1;
#X connect 118 2 120 0;
#X connect 119 0 125 0;
#X connect 120 0 119 2;
#X connect 121 0 123 0;
#X connect 122 0 121 0;
#X connect 123 0 0 0;
#X connect 124 0 0 0;
#X connect 125 0 124 0;
#X connect 125 1 117 0;
#X connect 125 2 115 0;
