#N canvas 771 167 1103 790 10;
#X obj 132 97 anyreg gProjectPath;
#X msg 642 222 /voxShader debug;
#X msg 656 250 /corridor setTranslation 0 0 0.3;
#X floatatom 673 276 5 0 0 0 - - -;
#X msg 673 295 /corridor-group setTranslation 10 115 \$1;
#X obj 274 881 loadbang;
#X obj 267 913 delay 2000;
#X obj 56 1023 t b f;
#X obj 38 1043 pack f f;
#X obj 38 967 vsl 15 50 0 1 0 0 empty empty empty 0 -9 0 10 -191407
-1 -1 0 1;
#X obj 53 967 vsl 15 50 0 1 0 0 empty empty empty 0 -9 0 10 -191407
-1 -1 0 1;
#X obj 224 1022 t b f;
#X obj 206 1042 pack f f;
#X obj 206 962 vsl 15 50 0 1 0 0 empty empty empty 0 -9 0 10 -191407
-1 -1 0 1;
#X obj 221 962 vsl 15 50 0 1 0 0 empty empty empty 0 -9 0 10 -191407
-1 -1 0 1;
#X obj 343 1021 t b f;
#X obj 325 1041 pack f f;
#X obj 325 965 vsl 15 50 0 1 0 0 empty empty empty 0 -9 0 10 -191407
-1 -1 0 1;
#X obj 340 965 vsl 15 50 0 1 0 0 empty empty empty 0 -9 0 10 -191407
-1 -1 0 1;
#X msg 267 932 0.5;
#X obj 270 699 vsl 15 150 0 0.1 0 0 empty empty Size 0 -9 0 10 -4032
-1 -1 0 1;
#X obj 316 698 vsl 15 150 0 1 0 0 empty empty Distance 0 -9 0 10 -4032
-1 -1 0 1;
#X obj 330 646 line;
#X obj 287 517 tgl 15 0 empty empty empty 17 7 0 10 -262144 -1 -1 0
1;
#X obj 328 598 / 1000;
#X obj 327 577 random 100;
#X obj 260 646 line;
#X obj 258 598 / 1000;
#X obj 257 577 random 100;
#X obj 288 538 metro 2000;
#X msg 328 622 \$1 2000;
#X msg 258 622 \$1 2000;
#X obj 440 811 hradio 15 1 0 6 empty empty Voxelize_method 0 -8 0 10
-4032 -1 -1 0;
#X text 319 664 comment;
#X obj 547 811 tgl 15 0 empty empty Activate_texture 17 7 0 10 -4032
-1 -1 0 1;
#X obj 672 809 hradio 15 1 0 2 empty empty Voxel_type 0 -8 0 10 -4032
-1 -1 0;
#X obj 792 695 vsl 15 150 0.1 2 0 0 empty empty Ratio 0 -9 0 10 -4032
-1 -1 0 1;
#X msg 38 1063 /voxShader setUniform_vec2 voxels_size \$1 \$2;
#X msg 206 1086 /voxShader setUniform_vec2 voxels_offset \$1 \$2;
#X msg 325 1061 /voxShader setUniform_vec2 voxels_distance \$1 \$2
;
#X msg 547 963 /voxShader setUniform_int vShowTexture \$1;
#X msg 440 999 /voxShader setUniform_int vMethod \$1;
#X obj 227 1162 s \$2-to-SPIN;
#X msg 672 995 /voxShader setUniform_int vVoxelType \$1;
#X msg 810 964 /voxShader setUniform_float vRatio \$1;
#X floatatom 134 807 10 0 0 0 - - -;
#X floatatom 300 857 10 0 0 0 - - -;
#X floatatom 779 864 10 0 0 0 - - -;
#X msg 690 324 createStateSet voxShader Shader \, /voxShader setShader
\$2/models/shaders/\$3s \, /\$1 setStateSet voxShader \, /voxShader
setUniform_int vMethod 4 \, /voxShader setUniform_int vShowTexture
1 \, /voxShader setUniform_int vVoxelType 1 \, /voxShader setUniform_float
vRatio 1.23 \, /voxShader setUniform_int vVoxelType 1 \, /voxShader
setUniform_vec2 voxels_size 0.017 0.017 \, /voxShader setUniform_vec2
voxels_distance 0.181 0.181;
#X floatatom 181 670 10 0 0 0 - - -;
#X floatatom 372 707 10 0 0 0 - - -;
#X obj 132 76 inlet;
#X floatatom 840 646 10 0 0 0 - - -;
#X msg 132 363 deleteNode \$1-pcd \, deleteNode \$1-group \, createNode
\$1-group GroupNode \, createNode \$1-pcd PointCloud \, /\$1-pcd setParent
\$1-group \, /\$1-group setParent step1 \, /\$1-group setTranslation
9 163 -1.5 \, /\$1-pcd setTranslation 0 -20 0 \, /\$1-group setOrientation
0 90 0 \, /\$1-pcd setDrawMode 1 \, /\$1-pcd setURI \$2/models/pcd/direction.cpc
\, /\$1-pcd setScale 11 11 11 \, /\$1-pcd setPointSize 2 \, /\$1-pcd
setVoxelSize 1e-05;
#X obj 255 87 bng 10 250 50 0 empty empty empty 17 7 0 10 -262144 -1
-1;
#X obj 132 177 t l l l;
#X obj 132 117 list prepend \$1;
#X msg 171 205 deleteNode \$1 \, createNode \$1 ModelNode \, /\$1 setModelFromFile
\$2/models/\$1.ac \, /\$1 setParent step1 \, /\$1 setOrientation 90
0 90 \, /\$1 setScale 0.1 0.1 0.1 \, /\$1 setTranslation 0 0 0.1 \,
/\$1 setRenderBin 9 \, /\$1 setStateSet \$3;
#X obj 132 157 list append voxShader2;
#X obj 132 137 list append voxShader;
#X msg 151 284 deleteNode \$1-text \, createNode \$1-text ModelNode
\, /\$1-text setModelFromFile \$2/models/\$1-text.ac \, /\$1-text setParent
step1 \, /\$1-text setOrientation 90 0 90 \, /\$1-text setScale 0.1
0.1 0.1 \, /\$1-text setTranslation 0 0 0.1 \, /\$1-text setRenderBin
99 \, /\$1-text setStateSet \$4;
#X obj 642 445 s \$2-to-SPIN-TCP;
#X obj 132 476 s \$2-to-SPIN-TCP;
#X obj 456 544 p;
#X connect 0 0 56 0;
#X connect 1 0 61 0;
#X connect 2 0 61 0;
#X connect 3 0 4 0;
#X connect 4 0 61 0;
#X connect 6 0 19 0;
#X connect 7 0 8 0;
#X connect 7 1 8 1;
#X connect 8 0 37 0;
#X connect 9 0 8 0;
#X connect 10 0 7 0;
#X connect 11 0 12 0;
#X connect 11 1 12 1;
#X connect 12 0 38 0;
#X connect 13 0 12 0;
#X connect 14 0 11 0;
#X connect 15 0 16 0;
#X connect 15 1 16 1;
#X connect 16 0 39 0;
#X connect 17 0 16 0;
#X connect 18 0 15 0;
#X connect 19 0 9 0;
#X connect 19 0 10 0;
#X connect 19 0 17 0;
#X connect 19 0 18 0;
#X connect 20 0 9 0;
#X connect 20 0 10 0;
#X connect 20 0 45 0;
#X connect 21 0 17 0;
#X connect 21 0 18 0;
#X connect 21 0 46 0;
#X connect 22 0 21 0;
#X connect 23 0 29 0;
#X connect 24 0 30 0;
#X connect 25 0 24 0;
#X connect 26 0 20 0;
#X connect 27 0 31 0;
#X connect 28 0 27 0;
#X connect 29 0 25 0;
#X connect 29 0 28 0;
#X connect 30 0 22 0;
#X connect 31 0 26 0;
#X connect 32 0 41 0;
#X connect 34 0 40 0;
#X connect 35 0 43 0;
#X connect 36 0 44 0;
#X connect 36 0 47 0;
#X connect 37 0 42 0;
#X connect 38 0 42 0;
#X connect 39 0 42 0;
#X connect 40 0 42 0;
#X connect 41 0 42 0;
#X connect 43 0 42 0;
#X connect 44 0 42 0;
#X connect 49 0 20 0;
#X connect 50 0 21 0;
#X connect 51 0 0 0;
#X connect 52 0 36 0;
#X connect 53 0 62 0;
#X connect 54 0 0 0;
#X connect 55 0 53 0;
#X connect 55 1 60 0;
#X connect 55 2 57 0;
#X connect 56 0 59 0;
#X connect 57 0 62 0;
#X connect 58 0 55 0;
#X connect 59 0 58 0;
#X connect 60 0 62 0;
