#N canvas 111 403 1306 772 10;
#X obj 135 1072 outlet;
#X obj 110 156 symbol \$1;
#X obj 110 184 pack s s;
#X obj 141 78 delay;
#X obj 263 19 loadbang;
#X obj 263 47 random 5000;
#X obj 263 72 + 5000;
#X text 363 46 Arguments: name of the planet;
#X text 323 77 <-- to avoid loading 10 obj at the same time;
#X text 305 174 <-- first symbol is node name;
#X text 319 212 <-- second symbol is current directory (folder) to
look for .ac file;
#X msg 631 106 deleteNode \$1 \, createNode \$1 ModelNode \, /\$1 setModelFromFile
\$2/models/\$1.ac \, /\$1 setParent step4 \, /\$1 setOrientation 90
0 90 \, /\$1 setScale 0.1 0.1 0.1;
#X text 1008 118 <-- cell models;
#X msg -226 277 deleteNode \$1 \, createNode \$1 SwitchNode;
#X obj -253 245 t a a;
#X msg 639 33 deleteNode \$1 \, createNode \$1 ModelNode \, /\$1 setModelFromFile
\$2/models/\$1.ac \, /\$1 setParent step4 \, /\$1 setOrientation 90
0 90 \, /\$1 setScale 0.1 0.1 0.1 \, /\$1 setTranslation 1030 3300
0;
#X obj 140 103 anyreg gProjectPath;
#X text 701 292 <-- x -65 \, y +100;
#X msg 1151 298 createStateSet voxShader Shader \, /voxShader setShader
\$2/models/shaders/\$3 \, /\$1 setStateSet voxShader;
#X obj 1130 192 symbol \$1;
#X obj 1161 109 delay;
#X obj 1283 50 loadbang;
#X obj 1283 78 random 5000;
#X obj 1283 103 + 5000;
#X text 1383 77 Arguments: name of the planet;
#X text 1343 108 <-- to avoid loading 10 obj at the same time;
#X text 1217 195 <-- first symbol is node name;
#X text 1231 233 <-- second symbol is current directory (folder) to
look for .ac file;
#X obj 1160 134 anyreg gProjectPath;
#X obj 1163 261 t l l;
#X obj 1165 235 pack s s s;
#X msg 1237 165 symbol voxelize.jxs;
#X obj 1160 160 t b s b;
#X obj 1148 633 s \$0-to-SPIN-TCP;
#X obj 1101 73 bng 15 250 50 0 empty empty empty 17 7 0 10 -262144
-1 -1;
#X msg 1189 343 deleteNode \$1-Centrioles_w_Extras \, createNode \$1-Centrioles_w_Extras
ModelNode \, /\$1-Centrioles_w_Extras setModelFromFile \$2/models/HMR-modeles/cell-IVE/\$1-Centrioles_w_Extras.IVE
\, /\$1-Centrioles_w_Extras setParent step4 \, /\$1-Centrioles_w_Extras
setOrientation 0 0 0 \, /\$1-Centrioles_w_Extras setScale 0.01 0.01
0.01 \, /\$1-Centrioles_w_Extras setTranslation 938 3800 100;
#X obj 73 249 t a a a a a a a a;
#X obj 88 70 bng 15 250 50 0 empty empty empty 17 7 0 10 -262144 -1
-1;
#X msg 679 433 deleteNode \$1-Protein_molecules \, createNode \$1-Protein_molecules
ModelNode \, /\$1-Protein_molecules setModelFromFile \$2/models/HMR-modeles/cell-IVE/\$1-Protein_molecules.IVE
\, /\$1-Protein_molecules setParent step4 \, /\$1-Protein_molecules
setOrientation 0 0 90 \, /\$1-Protein_molecules setScale 0.001 0.001
0.001 \, /\$1-Protein_molecules setTranslation 965 3800 100;
#X msg 1120 693 deleteNode \$1-Scene_Action_Endoplasmic_Ret_w_ribosomes_extras
\, createNode \$1-Scene_Action_Endoplasmic_Ret_w_ribosomes_extras ModelNode
\, /\$1-Scene_Action_Endoplasmic_Ret_w_ribosomes_extras setModelFromFile
\$2/models/HMR-modeles/cell-IVE/\$1-Scene_Action_Endoplasmic_Ret_w_ribosomes_extras.IVE
\, /\$1-Scene_Action_Endoplasmic_Ret_w_ribosomes_extras setParent step4
\, /\$1-Scene_Action_Endoplasmic_Ret_w_ribosomes_extras setOrientation
0 0 90 \, /\$1-Scene_Action_Endoplasmic_Ret_w_ribosomes_extras setScale
0.005 0.005 0.005 \, /\$1-Scene_Action_Endoplasmic_Ret_w_ribosomes_extras
setTranslation 992 3604 -2.5;
#X msg 647 312 deleteNode \$1-Nucleus_w_extras \, createNode \$1-Nucleus_w_extras
ModelNode \, /\$1-Nucleus_w_extras setModelFromFile \$2/models/HMR-modeles/cell-IVE/\$1-Nucleus_w_extras.IVE
\, /\$1-Nucleus_w_extras setParent step4 \, /\$1-Nucleus_w_extras setOrientation
0 0 90 \, /\$1-Nucleus_w_extras setScale 0.005 0.005 0.005 \, /\$1-Nucleus_w_extras
setTranslation 992 3804 -2.5;
#X msg 360 1084 deleteNode cell-globuleBlanc;
#X text 58 639 970 3847 7.5;
#X text 803 805 1115 4079 -43;
#X text -13 613 scale 0.1 \, pos 1005 3962 0;
#X msg 684 578 deleteNode \$1-CytoSkeleton_Elements3 \, createNode
\$1-CytoSkeleton_Elements3 ModelNode \, /\$1-CytoSkeleton_Elements3
setModelFromFile \$2/models/HMR-modeles/cell-IVE/\$1-CytoSkeleton_Elements.IVE
\, /\$1-CytoSkeleton_Elements3 setParent step4 \, /\$1-CytoSkeleton_Elements3
setOrientation 0 0 180 \, /\$1-CytoSkeleton_Elements3 setScale 0.15
0.15 0.15 \, /\$1-CytoSkeleton_Elements3 setTranslation 1220 5083 0
;
#X obj 1605 663 anyreg gProjectPath;
#X obj 1546 582 bng 15 250 50 0 empty empty empty 17 7 0 10 -262144
-1 -1;
#X obj 1681 1007 p;
#X obj 1790 610 t b s;
#X obj 1760 642 symbol \$1;
#X obj 1795 685 pack s s;
#X obj 1565 581 t b b;
#X obj 1677 742 t b a;
#X obj 1620 823 list prepend \$1-globuleBlanc;
#X msg 1660 912 deleteNode \$1 \, createNode \$1 ModelNode \, /\$1
setModelFromFile \$2/models/\$1.ac \, /\$1 setParent step4 \, /\$1
setOrientation 0 90 0 \, /\$1 setScale 6.5 6.5 6.5 \, /\$1 setTranslation
1012 4109 25;
#X obj 179 291 list prepend \$1-globuleBlanc;
#X obj 172 829 list prepend \$1-CytoSkeleton_Elements;
#X obj 161 935 list prepend \$1-Mitochondria;
#X obj 557 553 p;
#X obj 198 725 list prepend \$1-CytoSkeleton_Elements;
#X msg 384 1038 deleteNode cell-Endoplasmic_Ret_w_ribosomesw_Smooth_endoplasmic
;
#X obj 146 37 inlet;
#X obj 140 124 t s b;
#N canvas 759 104 929 661 cell-scene 0;
#X obj 195 544 outlet;
#X obj 177 84 bng 15 250 50 0 empty empty empty 17 7 0 10 -262144 -1
-1;
#X obj 178 105 anyreg gProjectPath;
#X floatatom 135 424 5 0 0 0 - - -;
#X floatatom 178 424 5 0 0 0 - - -;
#X floatatom 220 424 5 0 0 0 - - -;
#X obj 168 453 hotpack3;
#X msg 141 381 1005;
#X msg 239 381 0;
#X obj 224 355 bng 15 250 50 0 empty empty empty 17 7 0 10 -262144
-1 -1;
#X obj 318 554 p;
#X msg 165 478 /cell-CytoSkeleton_Elements-3 setTranslation \$1 \$2
\$3;
#X msg 190 380 3997;
#X obj 178 126 list prepend \$1-CytoSkeleton_Elements;
#X msg 584 37 deleteNode \$1-\$3 \, createNode \$1-\$3 ModelNode \,
/\$1-\$3 setModelFromFile \$2/models/HMR-modeles/cell-IVE/\$1.IVE \,
/\$1-\$3 setParent step4 \, /\$1-\$3 setOrientation 0 0 180 \, /\$1-\$3
setScale 0.1 0.1 0.1 \, /\$1-\$3 setTranslation 1248 4105 85 \, /\$1-\$3
setRenderBin 999 \, /\$1-\$3 setStateSet voxShader;
#X obj 584 17 list append 3;
#X obj 585 130 list append 4;
#X msg 585 150 deleteNode \$1-\$3 \, createNode \$1-\$3 ModelNode \,
/\$1-\$3 setModelFromFile \$2/models/HMR-modeles/cell-IVE/\$1.IVE \,
/\$1-\$3 setParent step4 \, /\$1-\$3 setOrientation 0 0 180 \, /\$1-\$3
setScale 0.1 0.1 0.1 \, /\$1-\$3 setTranslation 1200 4105 -121 \, /\$1-\$3
setRenderBin 999 \, /\$1-\$3 setStateSet voxShader;
#X obj 585 236 list append 5;
#X msg 585 256 deleteNode \$1-\$3 \, createNode \$1-\$3 ModelNode \,
/\$1-\$3 setModelFromFile \$2/models/HMR-modeles/cell-IVE/\$1.IVE \,
/\$1-\$3 setParent step4 \, /\$1-\$3 setOrientation 0 0 180 \, /\$1-\$3
setScale 0.1 0.1 0.1 \, /\$1-\$3 setTranslation 900 4105 -121 \, /\$1-\$3
setRenderBin 999 \, /\$1-\$3 setStateSet voxShader;
#X obj 585 330 list append 6;
#X msg 585 350 deleteNode \$1-\$3 \, createNode \$1-\$3 ModelNode \,
/\$1-\$3 setModelFromFile \$2/models/HMR-modeles/cell-IVE/\$1.IVE \,
/\$1-\$3 setParent step4 \, /\$1-\$3 setOrientation 0 0 180 \, /\$1-\$3
setScale 0.1 0.1 0.1 \, /\$1-\$3 setTranslation 837 4105 126 \, /\$1-\$3
setRenderBin 999 \, /\$1-\$3 setStateSet voxShader;
#X obj 585 423 list append 7;
#X msg 585 443 deleteNode \$1-\$3 \, createNode \$1-\$3 ModelNode \,
/\$1-\$3 setModelFromFile \$2/models/HMR-modeles/cell-IVE/\$1.IVE \,
/\$1-\$3 setParent step4 \, /\$1-\$3 setOrientation 0 0 180 \, /\$1-\$3
setScale 0.1 0.1 0.1 \, /\$1-\$3 setTranslation 1032 4105 205 \, /\$1-\$3
setRenderBin 999 \, /\$1-\$3 setStateSet voxShader;
#X obj 178 147 list append 8;
#X msg 178 167 deleteNode \$1-\$3 \, createNode \$1-\$3 ModelNode \,
/\$1-\$3 setModelFromFile \$2/models/HMR-modeles/cell-IVE/\$1.IVE \,
/\$1-\$3 setParent step3 \, /\$1-\$3 setOrientation 180 0 180 \, /\$1-\$3
setScale 0.00025 0.00025 0.00025 \, /\$1-\$3 setTranslation 0.1 2385.23
0.1 \, /\$1-\$3 setRenderBin 1 \, /\$1-\$3 setStateSet voxShader;
#X connect 1 0 2 0;
#X connect 2 0 13 0;
#X connect 3 0 6 0;
#X connect 4 0 6 1;
#X connect 5 0 6 2;
#X connect 6 0 11 0;
#X connect 7 0 3 0;
#X connect 8 0 5 0;
#X connect 9 0 7 0;
#X connect 9 0 12 0;
#X connect 9 0 8 0;
#X connect 11 0 10 0;
#X connect 11 0 0 0;
#X connect 12 0 4 0;
#X connect 13 0 24 0;
#X connect 15 0 14 0;
#X connect 16 0 17 0;
#X connect 18 0 19 0;
#X connect 20 0 21 0;
#X connect 22 0 23 0;
#X connect 24 0 25 0;
#X connect 25 0 0 0;
#X connect 25 0 10 0;
#X restore 718 853 pd cell-scene;
#X obj 540 392 bng 15 250 50 0 empty empty empty 17 7 0 10 -262144
-1 -1;
#X obj 191 407 list prepend \$1-lisosome;
#X obj 195 623 list prepend \$1-Golgi_Apparatus;
#X obj 194 513 list prepend \$1-Endoplasmic_Ret_w_ribosomesw_Smooth_endoplasmic
;
#X msg 194 547 deleteNode \$1 \, createNode \$1 ModelNode \, /\$1 setModelFromFile
\$2/models/HMR-modeles/cell-IVE/\$1.ac \, /\$1 setParent step4 \, /\$1
setOrientation 90 0 90 \, /\$1 setScale 0.17 0.17 0.17 \, /\$1 setTranslation
1060 3860 -22 \, /\$1 setRenderBin 999 \, /\$1 setStateSet \$3;
#X msg 161 959 deleteNode \$1 \, createNode \$1 ModelNode \, /\$1 setModelFromFile
\$2/models/HMR-modeles/cell-IVE/\$1.ac \, /\$1 setParent step4 \, /\$1
setOrientation 0 0 0 \, /\$1 setScale 0.004 0.004 0.004 \, /\$1 setTranslation
955 3778 0 \, /\$1 setRenderBin 999 \, /\$1 setStateSet \$3;
#X obj 732 1013 list prepend \$1-CytoSkeleton_Elements;
#X obj 758 909 list prepend \$1-CytoSkeleton_Elements;
#X msg 758 934 deleteNode \$1 \, createNode \$1 ModelNode \, /\$1 setModelFromFile
\$2/models/HMR-modeles/cell-IVE/\$1.ac \, /\$1 setParent step4 \, /\$1
setOrientation 270 0 180 \, /\$1 setScale 0.2 0.2 0.2 \, /\$1 setTranslation
1005 2967 20 \, /\$1 setRenderBin 999 \, /\$1 setStateSet \$3;
#X msg 732 1037 deleteNode \$1-2 \, createNode \$1-2 ModelNode \, /\$1-2
setModelFromFile \$2/models/HMR-modeles/cell-IVE/\$1.ac \, /\$1-2 setParent
step4 \, /\$1-2 setOrientation 90 0 180 \, /\$1-2 setScale 0.6 0.6
0.6 \, /\$1-2 setTranslation 1005 7229 20 \, /\$1-2 setRenderBin 999
\, /\$1-2 setStateSet \$3;
#X msg 198 750 deleteNode \$1 \, createNode \$1 ModelNode \, /\$1 setModelFromFile
\$2/models/HMR-modeles/cell-IVE/\$1.ac \, /\$1 setParent step4 \, /\$1
setOrientation 270 0 180 \, /\$1 setScale 0.5 0.5 0.5 \, /\$1 setTranslation
1005 2967 20 \, /\$1 setRenderBin 999 \, /\$1 setStateSet \$3;
#N canvas 448 297 450 300 mitochondrias 1;
#N canvas 996 202 726 958 mitochondria 1;
#X obj 17 121 until;
#X obj 17 165 f;
#X obj 56 164 + 1;
#X obj 28 215 random 360;
#X obj 95 215 random 360;
#X obj 123 249 r FloatSpeed;
#X obj 17 11 inlet;
#X obj 17 55 t b b;
#X text 168 53 change the translation and scale to fit your scene;
#X text 395 344 change the translation to be the center;
#X text 393 358 of your screen rather than the world origin;
#X text 397 373 replace shapenodes with appropriate models;
#X obj 133 460 inlet;
#X obj 133 483 tgl 20 0 empty g_motionToggle MOTION? 25 7 1 10 -4034
-1 -1 1 1;
#X msg 93 534 /con* setVelocity 0 0 0;
#X obj 53 811 r FloatSpeed;
#X floatatom 129 828 5 0 0 0 - - -;
#X obj 219 819 print;
#X msg 71 133 0;
#X obj 56 25 r Number;
#X floatatom 113 42 5 0 0 0 - - -;
#X obj 23 93 f 1;
#X obj 429 621 bng 15 250 50 0 empty empty empty 17 7 0 10 -262144
-1 -1;
#X obj 423 903 pack 0 0;
#X obj 373 951 print;
#X obj 484 896 bng 15 250 50 0 empty empty empty 17 7 0 10 -262144
-1 -1;
#X obj 540 955 pack 0 0;
#X obj 494 1001 print;
#X obj 601 948 bng 15 250 50 0 empty empty empty 17 7 0 10 -262144
-1 -1;
#X obj 423 856 sel 1;
#X obj 540 908 sel 2;
#X obj 443 516 r Number;
#X floatatom 497 533 5 0 0 0 - - -;
#X obj 167 214 anyreg gProjectPath;
#X obj 423 879 random 10;
#X obj 540 931 random 10;
#X obj 17 950 outlet;
#X msg 101 72 createNode box ShapeNode \, /box setShape 2 \, /box setTranslation
1000 4000 0 \, /box setScale 400 400 400 \, /box setColor 0 0 0 0 \,
/box setParent step4 \, /box setRenderBin 999;
#X msg 81 724 /con30 debug;
#X obj 17 191 t f b b f;
#X obj 17 247 pack 0 0 0 0 s s;
#X obj -7 30 bng 15 250 50 0 empty empty empty 17 7 0 10 -262144 -1
-1;
#X msg 310 222 symbol cell-Mitochondria.ac;
#X msg 326 245 symbol cell-Mitochondria-2.ac;
#X obj -27 145 bng 15 250 50 0 empty empty empty 17 7 0 10 -262144
-1 -1;
#X msg 496 976 /con\$1 rotate \$2 \$3 \$4;
#X msg 374 924 /con\$1 rotate \$2 \$3 \$4;
#X msg 53 877 /con* setVelocity 0 \$1 0;
#X obj 368 604 random 10;
#X obj 278 763 pack 0 0 0;
#X obj 356 660 t f b;
#X msg 219 788 /con\$1 rotate \$2 0 \$3;
#X obj 349 811 p;
#X obj 324 726 random 60;
#X obj 391 726 random 60;
#X obj 368 580 metro 50;
#X msg 17 324 createNode con\$1 ConstraintsNode \, createNode sh\$1
ModelNode \, /con\$1 setParent step4 \, /sh\$1 setParent con\$1 \,
/sh\$1 setModelFromFile \$5/models/HMR-modeles/cell-IVE/\$6 \, /sh\$1
setTranslation 0 0 0 \, /sh\$1 setScale 0.05 0.05 0.05 \, /con\$1 setTranslation
1000 4000 0 \, /con\$1 setTarget box \, /con\$1 setConstraintMode 3
\, /con\$1 setOrientation \$2 0 \$3 \, /sh\$1 setOrientation 0 0 0
\, /con\$1 setComputationMode 1 \, /con\$1 setVelocityMode 1 \, /con\$1
setVelocity 0 10 0 \, /sh\$1 setStateSet voxShader;
#X obj 140 139 p;
#X obj 93 513 sel 0 1;
#X obj 114 848 f;
#X obj 513 199 % 3;
#X obj 525 241 p;
#X msg 476 162 14;
#X obj 320 171 % 4;
#X obj 320 196 sel 0 1 2 3;
#X msg 345 271 symbol cell-Mitochondria.ac;
#X msg 361 294 symbol cell-Mitochondria-2.ac;
#X obj 17 457 s \$2-to-SPIN-TCP;
#X connect 0 0 1 0;
#X connect 1 0 2 0;
#X connect 1 0 39 0;
#X connect 2 0 1 1;
#X connect 3 0 40 1;
#X connect 4 0 40 2;
#X connect 5 0 40 3;
#X connect 6 0 7 0;
#X connect 7 0 21 0;
#X connect 7 1 18 0;
#X connect 7 1 37 0;
#X connect 12 0 13 0;
#X connect 13 0 55 0;
#X connect 13 0 58 0;
#X connect 14 0 36 0;
#X connect 15 0 16 0;
#X connect 15 0 47 0;
#X connect 16 0 59 1;
#X connect 18 0 1 1;
#X connect 19 0 20 0;
#X connect 20 0 21 1;
#X connect 21 0 0 0;
#X connect 23 0 46 0;
#X connect 26 0 45 0;
#X connect 29 0 34 0;
#X connect 30 0 35 0;
#X connect 31 0 32 0;
#X connect 31 0 48 1;
#X connect 33 0 40 4;
#X connect 34 0 25 0;
#X connect 34 0 23 0;
#X connect 35 0 28 0;
#X connect 35 0 26 0;
#X connect 37 0 36 0;
#X connect 38 0 36 0;
#X connect 39 0 40 0;
#X connect 39 1 4 0;
#X connect 39 1 3 0;
#X connect 39 2 33 0;
#X connect 39 3 63 0;
#X connect 40 0 56 0;
#X connect 40 0 57 0;
#X connect 41 0 7 0;
#X connect 42 0 40 5;
#X connect 43 0 40 5;
#X connect 44 0 1 0;
#X connect 45 0 36 0;
#X connect 46 0 36 0;
#X connect 47 0 36 0;
#X connect 48 0 22 0;
#X connect 48 0 50 0;
#X connect 49 0 51 0;
#X connect 50 0 49 0;
#X connect 50 1 53 0;
#X connect 50 1 54 0;
#X connect 51 0 36 0;
#X connect 53 0 49 1;
#X connect 54 0 49 2;
#X connect 55 0 48 0;
#X connect 56 0 67 0;
#X connect 58 0 14 0;
#X connect 58 1 59 0;
#X connect 59 0 47 0;
#X connect 60 0 61 0;
#X connect 62 0 60 0;
#X connect 63 0 64 0;
#X connect 64 0 42 0;
#X connect 64 1 43 0;
#X connect 64 2 65 0;
#X connect 64 3 66 0;
#X connect 65 0 40 5;
#X connect 66 0 40 5;
#X restore -432 -401 pd mitochondria;
#X obj -345 -425 tgl 20 0 empty g_motionToggle MOTION? 25 7 1 10 -4034
-1 -1 1 1;
#X obj -432 -425 bng 20 250 50 0 empty empty empty 17 7 0 10 -4034
-1 -1;
#X obj -170 -417 nbx 4 16 0 1e+37 0 0 FloatSpeed FloatSpeed-set FloatSpeed
57 10 1 14 -261682 -1 -1 10 256;
#X floatatom -171 -390 5 0 0 1 Number Number-set Number;
#X obj -432 -549 inlet;
#X obj -177 -481 r stop-motion;
#X obj -271 -481 r start-motion;
#X msg -177 -460 0;
#X msg -271 -460 1;
#X obj -432 -379 s \$2-to-SPIN;
#X msg -398 -470 10;
#X floatatom -358 -530 5 0 0 0 - - -;
#X floatatom -319 -531 5 0 0 0 - - -;
#X obj -360 -473 s Number-set;
#X obj -398 -450 s FloatSpeed-set;
#X obj -238 -512 bng 15 250 50 0 empty empty empty 17 7 0 10 -262144
-1 -1;
#X obj -432 -527 t b b b b;
#X msg -360 -492 100;
#X connect 0 0 10 0;
#X connect 1 0 0 1;
#X connect 2 0 0 0;
#X connect 5 0 17 0;
#X connect 6 0 8 0;
#X connect 7 0 9 0;
#X connect 8 0 1 0;
#X connect 9 0 1 0;
#X connect 11 0 15 0;
#X connect 12 0 15 0;
#X connect 13 0 14 0;
#X connect 16 0 17 0;
#X connect 17 0 9 0;
#X connect 17 1 2 0;
#X connect 17 2 11 0;
#X connect 17 3 18 0;
#X connect 18 0 14 0;
#X restore 33 317 pd mitochondrias;
#X msg 172 853 deleteNode \$1-2 \, createNode \$1-2 ModelNode \, /\$1-2
setModelFromFile \$2/models/HMR-modeles/cell-IVE/\$1.ac \, /\$1-2 setParent
step4 \, /\$1-2 setOrientation 90 0 180 \, /\$1-2 setScale 1 1 1 \,
/\$1-2 setTranslation 1005 6650 20 \, /\$1-2 setRenderBin 999 \, /\$1-2
setStateSet \$3;
#X obj 180 156 symbol voxShader;
#X msg 195 646 deleteNode \$1 \, createNode \$1 ModelNode \, /\$1 setModelFromFile
\$2/models/HMR-modeles/cell-IVE/\$1.ac \, /\$1 setParent step4 \, /\$1
setOrientation 90 0 40 \, /\$1 setScale 0.2 0.2 0.2 \, /\$1 setTranslation
860 3870 115 \, /\$1 setRenderBin 999 \, /\$1 setStateSet \$3;
#X msg 191 432 deleteNode \$1 \, createNode \$1 ModelNode \, /\$1 setModelFromFile
\$2/models/HMR-modeles/cell-IVE/\$1.ac \, /\$1 setParent step4 \, /\$1
setOrientation 90 0 0 \, /\$1 setScale 0.15 0.15 0.15 \, /\$1 setTranslation
1005 3847 8 \, /\$1 setRenderBin 999 \, /\$1 setStateSet \$3;
#N canvas 437 225 450 300 mitochondrias-bkp 0;
#N canvas 1002 187 726 958 mitochondria 0;
#X obj 17 121 until;
#X obj 17 165 f;
#X obj 57 166 + 1;
#X obj 28 215 random 360;
#X obj 95 215 random 360;
#X obj 119 246 r FloatSpeed;
#X obj 17 11 inlet;
#X obj 17 55 t b b;
#X text 168 53 change the translation and scale to fit your scene;
#X text 395 298 change the translation to be the center;
#X text 393 312 of your screen rather than the world origin;
#X text 397 327 replace shapenodes with appropriate models;
#X obj 133 470 inlet;
#X obj 93 513 sel 0;
#X obj 133 493 tgl 20 0 empty g_motionToggle MOTION? 25 7 1 10 -4034
-1 -1 0 1;
#X msg 93 534 /con* setVelocity 0 0 0;
#X obj 247 517 r FloatSpeed;
#X floatatom 323 534 5 0 0 0 - - -;
#X obj 219 819 print;
#X msg 71 133 0;
#X obj 56 25 r Number;
#X floatatom 113 42 5 0 0 0 - - -;
#X obj 61 90 f 1;
#X obj 17 79 bng 15 250 50 0 empty empty empty 17 7 0 10 -262144 -1
-1;
#X msg 267 563 0;
#X obj 429 702 bng 15 250 50 0 empty empty empty 17 7 0 10 -262144
-1 -1;
#X obj 368 614 random 3;
#X obj 363 883 pack 0 0;
#X obj 313 931 print;
#X obj 516 782 bng 15 250 50 0 empty empty empty 17 7 0 10 -262144
-1 -1;
#X obj 453 951 pack 0 0;
#X obj 407 997 print;
#X obj 611 850 bng 15 250 50 0 empty empty empty 17 7 0 10 -262144
-1 -1;
#X obj 368 652 sel 0;
#X obj 439 653 sel 1;
#X obj 494 654 sel 2;
#X obj 495 565 drunk;
#X obj 368 580 metro 100;
#X obj 548 709 r Number;
#X floatatom 602 726 5 0 0 0 - - -;
#X obj 167 214 anyreg gProjectPath;
#X obj 368 685 random 10;
#X obj 455 765 random 10;
#X obj 550 833 random 10;
#X obj 17 950 outlet;
#X msg 101 72 createNode box ShapeNode \, /box setShape 2 \, /box setTranslation
1000 4000 0 \, /box setScale 400 400 400 \, /box setColor 0 0 0 0 \,
/box setParent step4 \, /box setRenderBin 999;
#X msg 314 904 /con\$1 setVelocity \$2 0 0;
#X msg 219 788 /con\$1 setVelocity 0 \$2 0;
#X obj 278 763 pack 0 0;
#X msg 409 972 /con\$1 setVelocity 0 0 \$2;
#X msg 81 724 /con30 debug;
#X obj 314 208 % 2;
#X obj 17 191 t f b b f;
#X obj 314 233 sel 0 1;
#X obj 17 247 pack 0 0 0 0 s s;
#X msg 21 324 createNode con\$1 ConstraintsNode \, createNode sh\$1
ModelNode \, /con\$1 setParent step4 \, /sh\$1 setParent con\$1 \,
/sh\$1 setModelFromFile \$5/models/HMR-modeles/cell-IVE/\$6 \, /sh\$1
setTranslation 0 0 0 \, /sh\$1 setScale 0.05 0.05 0.05 \, /con\$1 setTranslation
1000 4000 0 \, /con\$1 setTarget box \, /con\$1 setConstraintMode 3
\, /sh\$1 setOrientation \$2 0 \$3 \, /con\$1 setOrientation 0 0 0
\, /con\$1 setComputationMode 1 \, /con\$1 setVelocityMode 0 \, /con\$1
setVelocity 0 1 0 \, /sh\$1 setStateSet voxShader;
#X obj -7 30 bng 15 250 50 0 empty empty empty 17 7 0 10 -262144 -1
-1;
#X msg 304 259 symbol cell-Mitochondria.ac;
#X msg 320 282 symbol cell-Mitochondria-2.ac;
#X obj -27 145 bng 15 250 50 0 empty empty empty 17 7 0 10 -262144
-1 -1;
#X connect 0 0 1 0;
#X connect 1 0 2 0;
#X connect 1 0 52 0;
#X connect 2 0 1 1;
#X connect 3 0 54 1;
#X connect 4 0 54 2;
#X connect 5 0 54 3;
#X connect 6 0 7 0;
#X connect 7 0 23 0;
#X connect 7 1 45 0;
#X connect 7 1 19 0;
#X connect 12 0 14 0;
#X connect 13 0 15 0;
#X connect 14 0 13 0;
#X connect 14 0 37 0;
#X connect 15 0 24 0;
#X connect 15 0 44 0;
#X connect 16 0 17 0;
#X connect 17 0 27 1;
#X connect 17 0 30 1;
#X connect 17 0 48 1;
#X connect 19 0 1 1;
#X connect 20 0 21 0;
#X connect 21 0 22 0;
#X connect 22 0 0 0;
#X connect 23 0 22 0;
#X connect 24 0 37 0;
#X connect 26 0 33 0;
#X connect 26 0 34 0;
#X connect 26 0 35 0;
#X connect 27 0 46 0;
#X connect 30 0 49 0;
#X connect 33 0 41 0;
#X connect 34 0 42 0;
#X connect 35 0 43 0;
#X connect 37 0 26 0;
#X connect 38 0 39 0;
#X connect 38 0 41 1;
#X connect 38 0 42 1;
#X connect 38 0 43 1;
#X connect 40 0 54 4;
#X connect 41 0 25 0;
#X connect 41 0 48 0;
#X connect 42 0 29 0;
#X connect 42 0 27 0;
#X connect 43 0 32 0;
#X connect 43 0 30 0;
#X connect 45 0 44 0;
#X connect 46 0 44 0;
#X connect 47 0 44 0;
#X connect 48 0 47 0;
#X connect 49 0 44 0;
#X connect 50 0 44 0;
#X connect 51 0 53 0;
#X connect 52 0 54 0;
#X connect 52 1 4 0;
#X connect 52 1 3 0;
#X connect 52 2 40 0;
#X connect 52 3 51 0;
#X connect 53 0 57 0;
#X connect 53 1 58 0;
#X connect 54 0 55 0;
#X connect 55 0 44 0;
#X connect 56 0 7 0;
#X connect 57 0 54 5;
#X connect 58 0 54 5;
#X connect 59 0 1 0;
#X restore -432 -431 pd mitochondria;
#X obj -345 -455 tgl 20 0 empty g_motionToggle MOTION? 25 7 1 10 -4034
-1 -1 0 1;
#X obj -432 -455 bng 20 250 50 0 empty empty empty 17 7 0 10 -4034
-1 -1;
#X obj -242 -449 nbx 4 16 0 1e+37 0 0 FloatSpeed textSpeed-set FloatSpeed
57 10 1 14 -261682 -1 -1 0 256;
#X floatatom -243 -422 5 0 0 1 Number - Number;
#X obj -380 -535 inlet;
#X obj -375 -494 t b b b;
#X obj -432 -409 outlet;
#X connect 0 0 7 0;
#X connect 1 0 0 1;
#X connect 2 0 0 0;
#X connect 2 0 1 0;
#X restore 37 366 pd mitochondrias-bkp;
#X msg 179 314 deleteNode \$1 \, createNode \$1 ModelNode \, /\$1 setModelFromFile
\$2/models/\$1.ac \, /\$1 setParent step4 \, /\$1 setOrientation 0
90 0 \, /\$1 setScale 6.5 6.5 6.5 \, /\$1 setTranslation 1012 4109
25 \, /\$1 setRenderBin 999 \, /\$1 setStateSet \$3;
#X connect 1 0 2 0;
#X connect 2 0 36 0;
#X connect 3 0 16 0;
#X connect 4 0 5 0;
#X connect 5 0 6 0;
#X connect 6 0 3 1;
#X connect 13 0 0 0;
#X connect 14 0 36 0;
#X connect 14 1 13 0;
#X connect 16 0 63 0;
#X connect 18 0 33 0;
#X connect 19 0 30 0;
#X connect 20 0 28 0;
#X connect 21 0 22 0;
#X connect 22 0 23 0;
#X connect 23 0 20 1;
#X connect 28 0 32 0;
#X connect 29 0 18 0;
#X connect 29 1 35 0;
#X connect 30 0 29 0;
#X connect 31 0 30 2;
#X connect 32 0 19 0;
#X connect 32 1 30 1;
#X connect 32 2 31 0;
#X connect 34 0 20 0;
#X connect 35 0 33 0;
#X connect 36 1 57 0;
#X connect 36 3 60 0;
#X connect 36 4 67 0;
#X connect 36 5 68 0;
#X connect 36 6 66 0;
#X connect 36 7 56 0;
#X connect 37 0 16 0;
#X connect 38 0 0 0;
#X connect 40 0 0 0;
#X connect 41 0 0 0;
#X connect 45 0 0 0;
#X connect 46 0 54 0;
#X connect 47 0 52 0;
#X connect 49 0 50 0;
#X connect 49 1 51 1;
#X connect 50 0 51 0;
#X connect 52 1 46 0;
#X connect 53 0 54 0;
#X connect 54 0 55 0;
#X connect 55 0 48 0;
#X connect 56 0 82 0;
#X connect 57 0 77 0;
#X connect 58 0 70 0;
#X connect 60 0 75 0;
#X connect 61 0 0 0;
#X connect 62 0 3 0;
#X connect 63 0 1 0;
#X connect 63 1 78 0;
#X connect 64 0 0 0;
#X connect 65 0 66 0;
#X connect 66 0 80 0;
#X connect 67 0 79 0;
#X connect 68 0 69 0;
#X connect 69 0 0 0;
#X connect 70 0 0 0;
#X connect 71 0 74 0;
#X connect 72 0 73 0;
#X connect 75 0 0 0;
#X connect 77 0 0 0;
#X connect 78 0 2 1;
#X connect 79 0 0 0;
#X connect 80 0 0 0;
#X connect 80 0 59 0;
#X connect 82 0 0 0;
#X connect 82 0 59 0;
