#N canvas 924 397 763 614 10;
#X obj 166 629 outlet;
#X obj 110 161 symbol \$1;
#X obj 141 78 delay;
#X obj 263 19 loadbang;
#X obj 263 47 random 5000;
#X obj 263 72 + 5000;
#X text 363 46 Arguments: name of the planet;
#X text 323 77 <-- to avoid loading 10 obj at the same time;
#X text 180 163 <-- first symbol is node name;
#X text 231 192 <-- second symbol is current directory (folder) to
look for .ac file;
#X obj 140 103 anyreg gProjectPath;
#X obj 102 60 bng 15 250 50 0 empty empty empty 17 7 0 10 -262144 -1
-1;
#X obj 560 523 p;
#X obj 433 163 anyreg g_hostname;
#X obj 145 224 t a a a a;
#X obj 146 37 inlet;
#X obj 140 129 t b s b b;
#X obj 145 194 pack s s s s;
#X msg 204 432 deleteNode \$1-cone \, createNode \$1-cone ModelNode
\, /\$1-cone setModelFromFile \$2/models/\$1-cone.ac \, /\$1-cone setParent
\$1-targets \, /\$1-cone setOrientation 0 0 0 \, /\$1-cone setScale
50 126 50 \, /\$1-cone setTranslation 2000 2321 0;
#X msg 145 252 deleteNode \$1 \, createNode \$1 ModelNode \, /\$1 setModelFromFile
\$2/models/\$1.ac \, /\$1 setParent step5 \, /\$1 setOrientation 90
0 90 \, /\$1 setScale 0.1 0.1 0.1 \, /\$1 setTranslation 2000 2200
0 \, /\$1 setStateSet \$4;
#X msg 246 550 deleteNode \$1-cell \, createNode \$1-cell ModelNode
\, /\$1-cell setModelFromFile \$2/models/HMR-modeles/\$5.3ds \, /\$1-cell
setParent step5 \, /\$1-cell setOrientation 0 0 90 \, /\$1-cell setScale
0.0004 0.0004 0.0004 \, /\$1-cell setTranslation 2000.18 2384.2 0 \,
/\$1-cell setStateSet \$4;
#X obj 245 517 list append Endoplasmic_Ret_w_ribosomesw_Smooth_endoplasmic
;
#X msg 172 322 deleteNode \$1-globule \, createNode \$1-globule ModelNode
\, /\$1-globule setModelFromFile \$2/models/Blood_Cell_Scene.ac \,
/\$1-globule setParent step5 \, /\$1-globule setOrientation 180 0 0
\, /\$1-globule setScale 0.006 0.006 0.006 \, /\$1-globule setTranslation
2000 2384.5 0 \, /\$1-globule setStateSet \$4;
#X obj 606 163 symbol voxShader2;
#X connect 1 0 17 0;
#X connect 2 0 10 0;
#X connect 3 0 4 0;
#X connect 4 0 5 0;
#X connect 5 0 2 1;
#X connect 10 0 16 0;
#X connect 11 0 10 0;
#X connect 13 0 17 2;
#X connect 14 0 19 0;
#X connect 14 1 22 0;
#X connect 14 2 18 0;
#X connect 14 3 21 0;
#X connect 15 0 2 0;
#X connect 16 0 1 0;
#X connect 16 1 17 1;
#X connect 16 2 13 0;
#X connect 16 3 23 0;
#X connect 17 0 14 0;
#X connect 18 0 0 0;
#X connect 19 0 0 0;
#X connect 20 0 0 0;
#X connect 21 0 20 0;
#X connect 22 0 0 0;
#X connect 23 0 17 3;
