#N canvas 611 98 1306 772 10;
#X obj 135 1052 outlet;
#X obj 146 37 inlet creation;
#X obj 248 139 t b s;
#X obj 218 171 symbol \$1;
#X obj 253 214 pack s s;
#X obj 141 78 delay;
#X obj 263 19 loadbang;
#X obj 263 47 random 5000;
#X obj 263 72 + 5000;
#X text 363 46 Arguments: name of the planet;
#X text 323 77 <-- to avoid loading 10 obj at the same time;
#X text 305 174 <-- first symbol is node name;
#X text 319 212 <-- second symbol is current directory (folder) to
look for .ac file;
#X msg 631 106 deleteNode \$1 \, createNode \$1 ModelNode \, /\$1 setModelFromFile
\$2/models/\$1.ac \, /\$1 setParent step4 \, /\$1 setOrientation 90
0 90 \, /\$1 setScale 0.1 0.1 0.1;
#X text 1008 118 <-- cell models;
#X msg -226 277 deleteNode \$1 \, createNode \$1 SwitchNode;
#X obj -253 245 t a a;
#X msg 639 33 deleteNode \$1 \, createNode \$1 ModelNode \, /\$1 setModelFromFile
\$2/models/\$1.ac \, /\$1 setParent step4 \, /\$1 setOrientation 90
0 90 \, /\$1 setScale 0.1 0.1 0.1 \, /\$1 setTranslation 1030 3300
0;
#X obj 140 103 anyreg gProjectPath;
#X text 701 292 <-- x -65 \, y +100;
#X msg 1151 298 createStateSet voxShader Shader \, /voxShader setShader
\$2/models/shaders/\$3 \, /\$1 setStateSet voxShader;
#X obj 1130 192 symbol \$1;
#X obj 1161 109 delay;
#X obj 1283 50 loadbang;
#X obj 1283 78 random 5000;
#X obj 1283 103 + 5000;
#X text 1383 77 Arguments: name of the planet;
#X text 1343 108 <-- to avoid loading 10 obj at the same time;
#X text 1217 195 <-- first symbol is node name;
#X text 1231 233 <-- second symbol is current directory (folder) to
look for .ac file;
#X obj 1160 134 anyreg gProjectPath;
#X obj 1163 261 t l l;
#X obj 1165 235 pack s s s;
#X msg 1237 165 symbol voxelize.jxs;
#X obj 1160 160 t b s b;
#X obj 1148 633 s \$0-to-SPIN-TCP;
#X obj 1101 73 bng 15 250 50 0 empty empty empty 17 7 0 10 -262144
-1 -1;
#X msg 1189 343 deleteNode \$1-Centrioles_w_Extras \, createNode \$1-Centrioles_w_Extras
ModelNode \, /\$1-Centrioles_w_Extras setModelFromFile \$2/models/HMR-modeles/cell-IVE/\$1-Centrioles_w_Extras.IVE
\, /\$1-Centrioles_w_Extras setParent step4 \, /\$1-Centrioles_w_Extras
setOrientation 0 0 0 \, /\$1-Centrioles_w_Extras setScale 0.01 0.01
0.01 \, /\$1-Centrioles_w_Extras setTranslation 938 3800 100;
#X obj 73 249 t a a a a a a a a;
#X obj 88 70 bng 15 250 50 0 empty empty empty 17 7 0 10 -262144 -1
-1;
#X msg 679 433 deleteNode \$1-Protein_molecules \, createNode \$1-Protein_molecules
ModelNode \, /\$1-Protein_molecules setModelFromFile \$2/models/HMR-modeles/cell-IVE/\$1-Protein_molecules.IVE
\, /\$1-Protein_molecules setParent step4 \, /\$1-Protein_molecules
setOrientation 0 0 90 \, /\$1-Protein_molecules setScale 0.001 0.001
0.001 \, /\$1-Protein_molecules setTranslation 965 3800 100;
#X msg 1120 693 deleteNode \$1-Scene_Action_Endoplasmic_Ret_w_ribosomes_extras
\, createNode \$1-Scene_Action_Endoplasmic_Ret_w_ribosomes_extras ModelNode
\, /\$1-Scene_Action_Endoplasmic_Ret_w_ribosomes_extras setModelFromFile
\$2/models/HMR-modeles/cell-IVE/\$1-Scene_Action_Endoplasmic_Ret_w_ribosomes_extras.IVE
\, /\$1-Scene_Action_Endoplasmic_Ret_w_ribosomes_extras setParent step4
\, /\$1-Scene_Action_Endoplasmic_Ret_w_ribosomes_extras setOrientation
0 0 90 \, /\$1-Scene_Action_Endoplasmic_Ret_w_ribosomes_extras setScale
0.005 0.005 0.005 \, /\$1-Scene_Action_Endoplasmic_Ret_w_ribosomes_extras
setTranslation 992 3604 -2.5;
#X msg 647 312 deleteNode \$1-Nucleus_w_extras \, createNode \$1-Nucleus_w_extras
ModelNode \, /\$1-Nucleus_w_extras setModelFromFile \$2/models/HMR-modeles/cell-IVE/\$1-Nucleus_w_extras.IVE
\, /\$1-Nucleus_w_extras setParent step4 \, /\$1-Nucleus_w_extras setOrientation
0 0 90 \, /\$1-Nucleus_w_extras setScale 0.005 0.005 0.005 \, /\$1-Nucleus_w_extras
setTranslation 992 3804 -2.5;
#X msg 360 1064 deleteNode cell-globuleBlanc;
#X text 58 639 970 3847 7.5;
#X text 803 805 1115 4079 -43;
#X text -13 613 scale 0.1 \, pos 1005 3962 0;
#X msg 684 578 deleteNode \$1-CytoSkeleton_Elements3 \, createNode
\$1-CytoSkeleton_Elements3 ModelNode \, /\$1-CytoSkeleton_Elements3
setModelFromFile \$2/models/HMR-modeles/cell-IVE/\$1-CytoSkeleton_Elements.IVE
\, /\$1-CytoSkeleton_Elements3 setParent step4 \, /\$1-CytoSkeleton_Elements3
setOrientation 0 0 180 \, /\$1-CytoSkeleton_Elements3 setScale 0.15
0.15 0.15 \, /\$1-CytoSkeleton_Elements3 setTranslation 1220 5083 0
;
#X msg 376 1039 deleteNode cell-CytoSkeleton_Elements3;
#X obj 367 274 t a a;
#X obj 1605 663 anyreg gProjectPath;
#X obj 1546 582 bng 15 250 50 0 empty empty empty 17 7 0 10 -262144
-1 -1;
#X obj 1681 1007 p;
#X obj 1790 610 t b s;
#X obj 1760 642 symbol \$1;
#X obj 1795 685 pack s s;
#X obj 1565 581 t b b;
#X obj 1677 742 t b a;
#X obj 1620 823 list prepend \$1-globuleBlanc;
#X msg 1660 912 deleteNode \$1 \, createNode \$1 ModelNode \, /\$1
setModelFromFile \$2/models/\$1.ac \, /\$1 setParent step4 \, /\$1
setOrientation 0 90 0 \, /\$1 setScale 6.5 6.5 6.5 \, /\$1 setTranslation
1012 4109 25;
#X obj 179 301 list prepend \$1-globuleBlanc;
#N canvas 66 82 450 300 add_shader 0;
#X obj 30 14 inlet;
#X obj 47 227 outlet;
#X msg 36 69 createStateSet voxShader Shader \, /voxShader setShader
\$2/models/shaders/\$3 \, /\$1 setStateSet voxShader \, /voxShader
setUniform_int vMethod 4 \, /voxShader setUniform_int vShowTexture
1 \, /voxShader setUniform_int vVoxelType 1 \, /voxShader setUniform_float
vRatio 1.23 \, /voxShader setUniform_int vVoxelType 1 \, /voxShader
setUniform_vec2 voxels_size 0.017 0.017 \, /voxShader setUniform_vec2
voxels_distance 0.181 0.181;
#X connect 0 0 2 0;
#X connect 2 0 1 0;
#X restore 433 300 pd add_shader;
#X obj 212 390 list prepend \$1-Centrioles_w_Extras;
#X obj 172 809 list prepend \$1-CytoSkeleton_Elements;
#X obj 161 915 list prepend \$1-Mitochondria;
#X obj 195 603 list prepend \$1-Golgi_Apparatus2_w_microtubules;
#X obj 194 493 list prepend \$1-Endoplasmic_Ret_w_ribosomesw_Smooth_endoplasmic
;
#X obj 509 499 p;
#X obj 198 705 list prepend \$1-CytoSkeleton_Elements;
#X msg 179 324 deleteNode \$1 \, createNode \$1 ModelNode \, /\$1 setModelFromFile
\$2/models/\$1.ac \, /\$1 setParent step4 \, /\$1 setOrientation 0
90 0 \, /\$1 setScale 6.5 6.5 6.5 \, /\$1 setTranslation 1012 4109
25 \, /\$1 setRenderBin 999;
#X msg 212 415 deleteNode \$1 \, createNode \$1 ModelNode \, /\$1 setModelFromFile
\$2/models/HMR-modeles/cell-IVE/\$1.IVE \, /\$1 setParent step4 \,
/\$1 setOrientation 0 0 0 \, /\$1 setScale 0.004 0.004 0.004 \, /\$1
setTranslation 1005 3847 8 \, /\$1 setStateSet voxShader \, /\$1 setRenderBin
999;
#X msg 195 626 deleteNode \$1 \, createNode \$1 ModelNode \, /\$1 setModelFromFile
\$2/models/HMR-modeles/cell-IVE/\$1.IVE \, /\$1 setParent step4 \,
/\$1 setOrientation 0 0 0 \, /\$1 setScale 0.01 0.01 0.01 \, /\$1 setTranslation
933 3811 0 \, /\$1 setStateSet voxShader \, /\$1 setRenderBin 999;
#X msg 198 730 deleteNode \$1 \, createNode /\$1 ModelNode \, \$1 setModelFromFile
\$2/models/HMR-modeles/cell-IVE/\$1.IVE \, /\$1 setParent step4 \,
/\$1 setOrientation 0 0 180 \, /\$1 setScale 0.2 0.2 0.2 \, /\$1 setTranslation
1005 5328 0 \, /\$1 setStateSet voxShader \, /\$1 setRenderBin 999
;
#X msg 172 833 deleteNode \$1-2 \, createNode \$1-2 ModelNode \, /\$1-2
setModelFromFile \$2/models/HMR-modeles/cell-IVE/\$1.IVE \, /\$1-2
setParent step4 \, /\$1-2 setOrientation 0 0 180 \, /\$1-2 setScale
0.1 0.1 0.1 \, /\$1-2 setTranslation 1005 3997 20 \, /\$1-2 setStateSet
voxShader \, /\$1 setRenderBin 999;
#X msg 161 939 deleteNode \$1 \, createNode \$1 ModelNode \, /\$1-Mitochondria
setModelFromFile \$2/models/HMR-modeles/cell-IVE/\$1.IVE \, /\$1 setParent
step4 \, /\$1 setOrientation 0 0 0 \, /\$1 setScale 0.004 0.004 0.004
\, /\$1 setTranslation 955 3778 0 \, /\$1 setStateSet voxShader \,
/\$1 setRenderBin 999;
#X msg 194 527 deleteNode \$1 \, createNode \$1 ModelNode \, /\$1 setModelFromFile
\$2/models/HMR-modeles/\$1.3ds \, /\$1 setParent step4 \, /\$1 setOrientation
0 0 90 \, /\$1 setScale 0.17 0.17 0.17 \, /\$1 setTranslation 1098
3860 -22 \, /\$1 setStateSet voxShaderk \, /\$1 setRenderBin 999;
#X connect 1 0 5 0;
#X connect 2 0 3 0;
#X connect 2 1 4 1;
#X connect 3 0 4 0;
#X connect 5 0 18 0;
#X connect 6 0 7 0;
#X connect 7 0 8 0;
#X connect 8 0 5 1;
#X connect 15 0 0 0;
#X connect 16 0 38 0;
#X connect 16 1 15 0;
#X connect 18 0 2 0;
#X connect 18 0 38 0;
#X connect 20 0 35 0;
#X connect 21 0 32 0;
#X connect 22 0 30 0;
#X connect 23 0 24 0;
#X connect 24 0 25 0;
#X connect 25 0 22 1;
#X connect 30 0 34 0;
#X connect 31 0 20 0;
#X connect 31 1 37 0;
#X connect 32 0 31 0;
#X connect 33 0 32 2;
#X connect 34 0 21 0;
#X connect 34 1 32 1;
#X connect 34 2 33 0;
#X connect 36 0 22 0;
#X connect 37 0 35 0;
#X connect 38 0 64 0;
#X connect 38 1 63 0;
#X connect 38 4 68 0;
#X connect 38 5 65 0;
#X connect 38 6 66 0;
#X connect 38 7 60 0;
#X connect 39 0 18 0;
#X connect 40 0 0 0;
#X connect 42 0 0 0;
#X connect 43 0 0 0;
#X connect 47 0 0 0;
#X connect 48 0 0 0;
#X connect 50 0 58 0;
#X connect 51 0 56 0;
#X connect 53 0 54 0;
#X connect 53 1 55 1;
#X connect 54 0 55 0;
#X connect 56 1 50 0;
#X connect 57 0 58 0;
#X connect 58 0 59 0;
#X connect 59 0 52 0;
#X connect 60 0 69 0;
#X connect 62 0 70 0;
#X connect 63 0 73 0;
#X connect 64 0 74 0;
#X connect 65 0 71 0;
#X connect 66 0 75 0;
#X connect 68 0 72 0;
#X connect 69 0 0 0;
#X connect 70 0 0 0;
#X connect 71 0 0 0;
#X connect 72 0 0 0;
#X connect 73 0 0 0;
#X connect 74 0 0 0;
#X connect 75 0 0 0;
