#N canvas 16 22 986 777 10;
#X obj 132 733 outlet;
#X obj 146 37 inlet creation;
#X obj 140 129 t b s;
#X obj 110 161 symbol \$1;
#X obj 145 204 pack s s;
#X obj 141 78 delay;
#X obj 263 19 loadbang;
#X obj 263 47 random 5000;
#X obj 263 72 + 5000;
#X text 363 46 Arguments: name of the planet;
#X text 323 77 <-- to avoid loading 10 obj at the same time;
#X text 197 164 <-- first symbol is node name;
#X text 211 202 <-- second symbol is current directory (folder) to
look for .ac file;
#X msg 631 106 deleteNode \$1 \, createNode \$1 ModelNode \, /\$1 setModelFromFile
\$2/models/\$1.ac \, /\$1 setParent step4 \, /\$1 setOrientation 90
0 90 \, /\$1 setScale 0.1 0.1 0.1;
#X text 1008 118 <-- cell models;
#X msg 41 276 deleteNode \$1 \, createNode \$1 SwitchNode;
#X obj 14 244 t a a;
#X obj 120 304 t a a a a a a a;
#X msg 639 33 deleteNode \$1 \, createNode \$1 ModelNode \, /\$1 setModelFromFile
\$2/models/\$1.ac \, /\$1 setParent step4 \, /\$1 setOrientation 90
0 90 \, /\$1 setScale 0.1 0.1 0.1 \, /\$1 setTranslation 1030 3300
0;
#X obj 140 103 anyreg gProjectPath;
#X msg 711 552 deleteNode \$1-Scene_Action_Endoplasmic_Ret_w_ribosomes_extras
\, createNode \$1-Scene_Action_Endoplasmic_Ret_w_ribosomes_extras ModelNode
\, /\$1-Scene_Action_Endoplasmic_Ret_w_ribosomes_extras setModelFromFile
\$2/models/HMR-modeles/cell-IVE/\$1-Scene_Action_Endoplasmic_Ret_w_ribosomes_extras.IVE
\, /\$1-Scene_Action_Endoplasmic_Ret_w_ribosomes_extras setParent step4
\, /\$1-Scene_Action_Endoplasmic_Ret_w_ribosomes_extras setOrientation
0 0 90 \, /\$1-Scene_Action_Endoplasmic_Ret_w_ribosomes_extras setScale
0.05 0.05 0.05 \, /\$1-Scene_Action_Endoplasmic_Ret_w_ribosomes_extras
setTranslation 1065 3800 -50;
#X msg 679 433 deleteNode \$1-Protein_molecules \, createNode \$1-Protein_molecules
ModelNode \, /\$1-Protein_molecules setModelFromFile \$2/models/HMR-modeles/cell-IVE/\$1-Protein_molecules.IVE
\, /\$1-Protein_molecules setParent step4 \, /\$1-Protein_molecules
setOrientation 0 0 90 \, /\$1-Protein_molecules setScale 0.01 0.01
0.01 \, /\$1-Protein_molecules setTranslation 965 3800 100;
#X msg 647 314 deleteNode \$1-Nucleus_w_extras \, createNode \$1-Nucleus_w_extras
ModelNode \, /\$1-Nucleus_w_extras setModelFromFile \$2/models/HMR-modeles/cell-IVE/\$1-Nucleus_w_extras.IVE
\, /\$1-Nucleus_w_extras setParent step4 \, /\$1-Nucleus_w_extras setOrientation
0 0 90 \, /\$1-Nucleus_w_extras setScale 0.05 0.05 0.05 \, /\$1-Nucleus_w_extras
setTranslation 1065 3800 -50;
#X text 701 292 <-- x -65 \, y +100;
#X msg 195 365 deleteNode \$1-Centrioles_w_Extras \, createNode \$1-Centrioles_w_Extras
ModelNode \, /\$1-Centrioles_w_Extras setModelFromFile \$2/models/HMR-modeles/cell-IVE/\$1-Centrioles_w_Extras.IVE
\, /\$1-Centrioles_w_Extras setParent step4 \, /\$1-Centrioles_w_Extras
setOrientation 0 0 0 \, /\$1-Centrioles_w_Extras setScale 0.01 0.01
0.01 \, /\$1-Centrioles_w_Extras setTranslation 938 3800 100;
#X msg 629 168 deleteNode \$1-Golgi_Apparatus2_w_microtubules \, createNode
\$1-Golgi_Apparatus2_w_microtubules ModelNode \, /\$1-Golgi_Apparatus2_w_microtubules
setModelFromFile \$2/models/HMR-modeles/cell-IVE/\$1-Golgi_Apparatus2_w_microtubules.IVE
\, /\$1-Golgi_Apparatus2_w_microtubules setParent step4 \, /\$1-Golgi_Apparatus2_w_microtubules
setOrientation 0 0 0 \, /\$1-Golgi_Apparatus2_w_microtubules setScale
0.01 0.01 0.01 \, /\$1-Golgi_Apparatus2_w_microtubules setTranslation
919 3800 100;
#X msg 220 484 deleteNode \$1-CytoSkeleton_Elements \, createNode \$1-CytoSkeleton_Elements
ModelNode \, /\$1-CytoSkeleton_Elements setModelFromFile \$2/models/HMR-modeles/cell-IVE/\$1-CytoSkeleton_Elements.IVE
\, /\$1-CytoSkeleton_Elements setParent step4 \, /\$1-CytoSkeleton_Elements
setOrientation 0 0 0 \, /\$1-CytoSkeleton_Elements setScale 1 1 1 \,
/\$1-CytoSkeleton_Elements setTranslation 949 3562 -39;
#X msg 247 607 deleteNode \$1-Glycan_Protein_Cell_membrane \, createNode
\$1-Glycan_Protein_Cell_membrane ModelNode \, /\$1-Glycan_Protein_Cell_membrane
setModelFromFile \$2/models/HMR-modeles/cell-IVE/\$1-Glycan_Protein_Cell_membrane.IVE
\, /\$1-Glycan_Protein_Cell_membrane setParent step4 \, /\$1-Glycan_Protein_Cell_membrane
setOrientation 0 0 0 \, /\$1-Glycan_Protein_Cell_membrane setScale
0.01 0.01 0.01 \, /\$1-Glycan_Protein_Cell_membrane setTranslation
965 3800 100;
#X connect 1 0 5 0;
#X connect 2 0 3 0;
#X connect 2 1 4 1;
#X connect 3 0 4 0;
#X connect 4 0 17 0;
#X connect 5 0 19 0;
#X connect 6 0 7 0;
#X connect 7 0 8 0;
#X connect 8 0 5 1;
#X connect 15 0 0 0;
#X connect 16 0 17 0;
#X connect 16 1 15 0;
#X connect 17 0 27 0;
#X connect 17 1 26 0;
#X connect 17 2 24 0;
#X connect 17 3 21 0;
#X connect 17 4 22 0;
#X connect 17 5 25 0;
#X connect 17 6 20 0;
#X connect 19 0 2 0;
#X connect 20 0 0 0;
#X connect 21 0 0 0;
#X connect 22 0 0 0;
#X connect 24 0 0 0;
#X connect 25 0 0 0;
#X connect 26 0 0 0;
#X connect 27 0 0 0;
