#N canvas 359 430 676 599 10;
#X obj 201 65 r \$0-connect;
#X obj 245 407 spigot 0;
#X msg 29 271 setAddress \$2 \$3;
#X obj 192 422 OSCtx;
#X obj 342 252 r \$0-id;
#X obj 342 274 t s s;
#X obj 29 249 pack 0 s 0;
#X obj 114 175 r \$0-rxPort;
#X obj 66 148 r \$0-rxAddr;
#X obj 63 183 t b s;
#X obj 106 202 t b f;
#X obj 30 229 spigot;
#X obj 244 346 OSCprepend /SPIN;
#X obj 244 321 OSCprepend /default;
#X obj 342 295 s \$1-sceneID;
#X obj 253 370 s \$1-to-SPIN-print;
#X obj 18 180 t b f;
#X obj 84 12 inlet;
#X obj 179 108 sel 0;
#X msg 179 131 disconnect;
#X obj 340 103 inlet;
#X obj 334 179 s \$0-connect;
#X obj 425 184 s \$0-rxAddr;
#X obj 508 185 s \$0-rxPort;
#X obj 453 118 symbol \$1;
#X obj 545 113 float \$2;
#X obj 466 31 loadbang;
#X obj 471 61 delay 1000;
#X obj 434 83 t b b;
#X msg 400 115 1;
#X obj 331 148 route connect address port scene-id;
#X obj 602 185 s \$0-id;
#X obj 608 114 symbol \$3;
#X text 279 20 Args: address port scene-id;
#X obj 198 465 outlet;
#X obj 341 425 r \$1-to-SPIN-print;
#X obj 342 454 print to-spin;
#X obj 42 452 print OSCtx;
#X connect 0 0 16 0;
#X connect 0 0 18 0;
#X connect 2 0 3 0;
#X connect 2 0 37 0;
#X connect 3 0 34 0;
#X connect 4 0 5 0;
#X connect 5 0 14 0;
#X connect 5 1 13 1;
#X connect 6 0 2 0;
#X connect 7 0 10 0;
#X connect 8 0 9 0;
#X connect 9 0 11 0;
#X connect 9 1 6 1;
#X connect 10 0 11 0;
#X connect 10 1 6 2;
#X connect 11 0 6 0;
#X connect 12 0 15 0;
#X connect 12 0 3 0;
#X connect 13 0 12 0;
#X connect 16 0 11 0;
#X connect 16 1 11 1;
#X connect 17 0 13 0;
#X connect 18 0 19 0;
#X connect 19 0 3 0;
#X connect 19 0 37 0;
#X connect 20 0 30 0;
#X connect 24 0 22 0;
#X connect 25 0 23 0;
#X connect 26 0 27 0;
#X connect 27 0 28 0;
#X connect 28 0 29 0;
#X connect 28 1 25 0;
#X connect 28 1 24 0;
#X connect 28 1 32 0;
#X connect 29 0 21 0;
#X connect 30 0 21 0;
#X connect 30 1 22 0;
#X connect 30 2 23 0;
#X connect 30 3 31 0;
#X connect 32 0 31 0;
#X connect 35 0 36 0;
