#N canvas 560 131 573 366 10;
#X obj 45 32 inlet;
#X obj 64 222 outlet;
#X obj 45 74 sel 0 1;
#X obj 64 125 t b b b;
#X obj 103 281 s \$0-to-SPIN-TCP;
#X msg 285 206 -29 293 -4;
#N canvas 535 151 454 386 start_4_planets_sounds 0;
#N canvas 501 161 825 588 SOUND_9N 0;
#X obj 233 446 dac~;
#X obj 265 148 symbol;
#X msg 265 168 open \$1;
#X obj 238 191 readsf~ 2;
#X obj 238 108 t f b;
#X obj 177 74 tgl 15 0 empty empty empty 17 7 0 10 -262144 -1 -1 0
1;
#X obj 289 214 bng 15 250 50 0 empty empty empty 17 7 0 10 -262144
-1 -1;
#X obj 225 411 gain2~;
#X obj 275 411 gain2~;
#X obj 317 316 vsl 14 64 -99 18 0 1 empty empty gain 24 22 1 12 -261704
-1 -1 5223 1;
#X floatatom 359 392 5 0 0 1 _db - -;
#X obj 67 66 tgl 25 0 empty empty empty 17 7 0 10 -262144 -1 -1 0 1
;
#X msg 59 101 \; pd dsp \$1;
#X text 306 215 <- bang when done;
#X msg 238 85 1;
#X obj 289 236 outlet;
#X obj 238 62 inlet;
#X msg 334 162 /home/posture/content/nta_videos/toronto/BMO-otherworld.aif
;
#X msg 265 128 /home/posture/content/nta/scale/voices/9N.wav;
#X obj 336 236 s activateMenu;
#X obj 317 273 loadbang;
#X msg 317 294 -2;
#X connect 1 0 2 0;
#X connect 2 0 3 0;
#X connect 3 0 7 0;
#X connect 3 1 8 0;
#X connect 3 2 6 0;
#X connect 4 0 3 0;
#X connect 4 1 18 0;
#X connect 5 0 4 0;
#X connect 6 0 15 0;
#X connect 6 0 19 0;
#X connect 7 0 0 0;
#X connect 8 0 0 1;
#X connect 9 0 10 0;
#X connect 9 0 7 1;
#X connect 9 0 8 1;
#X connect 11 0 12 0;
#X connect 14 0 4 0;
#X connect 16 0 14 0;
#X connect 18 0 1 0;
#X connect 20 0 21 0;
#X connect 21 0 9 0;
#X restore 61 222 pd SOUND_9N;
#N canvas 501 161 825 588 SOUND_10N 0;
#X obj 233 406 dac~;
#X obj 265 148 symbol;
#X msg 265 168 open \$1;
#X obj 238 191 readsf~ 2;
#X obj 238 108 t f b;
#X obj 177 74 tgl 15 0 empty empty empty 17 7 0 10 -262144 -1 -1 0
1;
#X obj 289 214 bng 15 250 50 0 empty empty empty 17 7 0 10 -262144
-1 -1;
#X obj 225 371 gain2~;
#X obj 275 371 gain2~;
#X obj 317 276 vsl 14 64 -99 18 0 1 empty empty gain 24 22 1 12 -261704
-1 -1 5000 1;
#X floatatom 359 352 5 0 0 1 _db - -;
#X obj 67 66 tgl 25 0 empty empty empty 17 7 0 10 -262144 -1 -1 0 1
;
#X msg 59 101 \; pd dsp \$1;
#X text 306 215 <- bang when done;
#X msg 238 85 1;
#X obj 289 236 outlet;
#X obj 238 62 inlet;
#X msg 334 162 /home/posture/content/nta_videos/toronto/BMO-otherworld.aif
;
#X msg 265 128 /home/posture/content/nta/scale/voices/10N.wav;
#X obj 336 236 s activateMenu;
#X connect 1 0 2 0;
#X connect 2 0 3 0;
#X connect 3 0 7 0;
#X connect 3 1 8 0;
#X connect 3 2 6 0;
#X connect 4 0 3 0;
#X connect 4 1 18 0;
#X connect 5 0 4 0;
#X connect 6 0 15 0;
#X connect 6 0 19 0;
#X connect 7 0 0 0;
#X connect 8 0 0 1;
#X connect 9 0 10 0;
#X connect 9 0 7 1;
#X connect 9 0 8 1;
#X connect 11 0 12 0;
#X connect 14 0 4 0;
#X connect 16 0 14 0;
#X connect 18 0 1 0;
#X restore 79 247 pd SOUND_10N;
#N canvas 501 161 825 588 SOUND_11N 0;
#X obj 233 406 dac~;
#X obj 265 148 symbol;
#X msg 265 168 open \$1;
#X obj 238 191 readsf~ 2;
#X obj 238 108 t f b;
#X obj 177 74 tgl 15 0 empty empty empty 17 7 0 10 -262144 -1 -1 0
1;
#X obj 289 214 bng 15 250 50 0 empty empty empty 17 7 0 10 -262144
-1 -1;
#X obj 225 371 gain2~;
#X obj 275 371 gain2~;
#X obj 317 276 vsl 14 64 -99 18 0 1 empty empty gain 24 22 1 12 -261704
-1 -1 5000 1;
#X floatatom 359 352 5 0 0 1 _db - -;
#X obj 67 66 tgl 25 0 empty empty empty 17 7 0 10 -262144 -1 -1 0 1
;
#X msg 59 101 \; pd dsp \$1;
#X text 306 215 <- bang when done;
#X msg 238 85 1;
#X obj 289 236 outlet;
#X obj 238 62 inlet;
#X msg 334 162 /home/posture/content/nta_videos/toronto/BMO-otherworld.aif
;
#X msg 265 128 /home/posture/content/nta/scale/voices/11N.wav;
#X obj 336 236 s activateMenu;
#X connect 1 0 2 0;
#X connect 2 0 3 0;
#X connect 3 0 7 0;
#X connect 3 1 8 0;
#X connect 3 2 6 0;
#X connect 4 0 3 0;
#X connect 4 1 18 0;
#X connect 5 0 4 0;
#X connect 6 0 15 0;
#X connect 6 0 19 0;
#X connect 7 0 0 0;
#X connect 8 0 0 1;
#X connect 9 0 10 0;
#X connect 9 0 7 1;
#X connect 9 0 8 1;
#X connect 11 0 12 0;
#X connect 14 0 4 0;
#X connect 16 0 14 0;
#X connect 18 0 1 0;
#X restore 101 272 pd SOUND_11N;
#N canvas 501 161 825 588 SOUND_12N 0;
#X obj 233 406 dac~;
#X obj 265 148 symbol;
#X msg 265 168 open \$1;
#X obj 238 191 readsf~ 2;
#X obj 238 108 t f b;
#X obj 177 74 tgl 15 0 empty empty empty 17 7 0 10 -262144 -1 -1 0
1;
#X obj 289 214 bng 15 250 50 0 empty empty empty 17 7 0 10 -262144
-1 -1;
#X obj 225 371 gain2~;
#X obj 275 371 gain2~;
#X obj 317 276 vsl 14 64 -99 18 0 1 empty empty gain 24 22 1 12 -261704
-1 -1 5000 1;
#X floatatom 359 352 5 0 0 1 _db - -;
#X obj 67 66 tgl 25 0 empty empty empty 17 7 0 10 -262144 -1 -1 0 1
;
#X msg 59 101 \; pd dsp \$1;
#X text 306 215 <- bang when done;
#X msg 238 85 1;
#X obj 289 236 outlet;
#X obj 238 62 inlet;
#X msg 334 162 /home/posture/content/nta_videos/toronto/BMO-otherworld.aif
;
#X msg 265 128 /home/posture/content/nta/scale/voices/12N.wav;
#X obj 336 236 s activateMenu;
#X connect 1 0 2 0;
#X connect 2 0 3 0;
#X connect 3 0 7 0;
#X connect 3 1 8 0;
#X connect 3 2 6 0;
#X connect 4 0 3 0;
#X connect 4 1 18 0;
#X connect 5 0 4 0;
#X connect 6 0 15 0;
#X connect 6 0 19 0;
#X connect 7 0 0 0;
#X connect 8 0 0 1;
#X connect 9 0 10 0;
#X connect 9 0 7 1;
#X connect 9 0 8 1;
#X connect 11 0 12 0;
#X connect 14 0 4 0;
#X connect 16 0 14 0;
#X connect 18 0 1 0;
#X restore 119 297 pd SOUND_12N;
#X obj 68 106 inlet;
#X obj 72 351 outlet;
#X obj 207 23 r planet_started;
#X obj 246 85 + 1;
#X floatatom 207 105 5 0 0 0 - - -;
#X obj 207 65 bng 15 250 50 0 empty empty empty 17 7 0 10 -262144 -1
-1;
#X obj 207 85 float;
#X obj 232 44 r reset;
#X msg 232 64 0;
#X obj 68 146 list prepend;
#X obj 207 122 hradio 15 1 0 9 empty empty empty 0 -8 0 10 -260097
-1 -1 0;
#X obj 61 200 bng 15 250 50 0 empty empty empty 17 7 0 10 -262144 -1
-1;
#X obj 80 200 bng 15 250 50 0 empty empty empty 17 7 0 10 -262144 -1
-1;
#X obj 99 200 bng 15 250 50 0 empty empty empty 17 7 0 10 -262144 -1
-1;
#X obj 118 200 bng 15 250 50 0 empty empty empty 17 7 0 10 -262144
-1 -1;
#X obj 68 168 sel 0 1 2 3 4;
#X obj 68 127 bng 15 250 50 0 empty empty empty 17 7 0 10 -262144 -1
-1;
#N canvas 501 161 825 588 SOUND_13N 0;
#X obj 233 406 dac~;
#X obj 265 148 symbol;
#X msg 265 168 open \$1;
#X obj 238 191 readsf~ 2;
#X obj 238 108 t f b;
#X obj 177 74 tgl 15 0 empty empty empty 17 7 0 10 -262144 -1 -1 0
1;
#X obj 289 214 bng 15 250 50 0 empty empty empty 17 7 0 10 -262144
-1 -1;
#X obj 225 371 gain2~;
#X obj 275 371 gain2~;
#X obj 317 276 vsl 14 64 -99 18 0 1 empty empty gain 24 22 1 12 -261704
-1 -1 5000 1;
#X floatatom 359 352 5 0 0 1 _db - -;
#X obj 67 66 tgl 25 0 empty empty empty 17 7 0 10 -262144 -1 -1 0 1
;
#X msg 59 101 \; pd dsp \$1;
#X text 306 215 <- bang when done;
#X msg 238 85 1;
#X obj 289 236 outlet;
#X obj 238 62 inlet;
#X msg 334 162 /home/posture/content/nta_videos/toronto/BMO-otherworld.aif
;
#X msg 265 128 /home/posture/content/nta/scale/voices/13N.wav;
#X obj 336 236 s activateMenu;
#X connect 1 0 2 0;
#X connect 2 0 3 0;
#X connect 3 0 7 0;
#X connect 3 1 8 0;
#X connect 3 2 6 0;
#X connect 4 0 3 0;
#X connect 4 1 18 0;
#X connect 5 0 4 0;
#X connect 6 0 15 0;
#X connect 6 0 19 0;
#X connect 7 0 0 0;
#X connect 8 0 0 1;
#X connect 9 0 10 0;
#X connect 9 0 7 1;
#X connect 9 0 8 1;
#X connect 11 0 12 0;
#X connect 14 0 4 0;
#X connect 16 0 14 0;
#X connect 18 0 1 0;
#X restore 139 323 pd SOUND_13N;
#X obj 139 200 bng 15 250 50 0 empty empty empty 17 7 0 10 -262144
-1 -1;
#X connect 0 0 5 0;
#X connect 1 0 5 0;
#X connect 2 0 5 0;
#X connect 3 0 5 0;
#X connect 4 0 20 0;
#X connect 6 0 9 0;
#X connect 7 0 10 1;
#X connect 8 0 14 0;
#X connect 9 0 10 0;
#X connect 10 0 8 0;
#X connect 10 0 7 0;
#X connect 11 0 12 0;
#X connect 12 0 10 0;
#X connect 13 0 19 0;
#X connect 14 0 13 1;
#X connect 15 0 0 0;
#X connect 16 0 1 0;
#X connect 17 0 2 0;
#X connect 18 0 3 0;
#X connect 19 0 15 0;
#X connect 19 1 16 0;
#X connect 19 2 17 0;
#X connect 19 3 18 0;
#X connect 19 4 22 0;
#X connect 20 0 13 0;
#X connect 21 0 5 0;
#X connect 22 0 21 0;
#X restore 83 198 pd start_4_planets_sounds;
#X msg 103 158 /posture?? setTranslation \, /posture?? setCubeSize
0 0 0;
#X obj 45 53 hotspot_trigger \$1;
#X connect 0 0 8 0;
#X connect 2 1 3 0;
#X connect 3 0 1 0;
#X connect 7 0 4 0;
#X connect 8 0 2 0;
