#N canvas 1026 657 397 403 10;
#N canvas 3 75 301 198 osc 0;
#X obj 25 22 OSCrx 3333;
#X obj 25 66 routeNodeMsg;
#X msg 94 22 loadbang;
#X msg 94 39 tuio/2Dobj;
#X obj 25 87 route set;
#X obj 25 109 unpack f f f f f f f f f f;
#X obj 42 131 pack f f f f;
#X obj 42 152 outlet;
#X connect 0 0 1 0;
#X connect 1 0 4 0;
#X connect 2 0 3 0;
#X connect 3 0 1 1;
#X connect 4 0 5 0;
#X connect 5 1 6 0;
#X connect 5 2 6 1;
#X connect 5 3 6 2;
#X connect 5 4 6 3;
#X connect 6 0 7 0;
#X restore 32 119 pd osc;
#X obj 5 5 widget-spinConnect \$0;
#X obj 7 61 loadbang;
#X obj 7 365 s \$0-to-SPIN;
#X obj 32 141 route 36;
#X msg 32 295 /cube setTranslation \$1 \$2 0.5;
#X msg 7 81 createNode grid GridNode \, createNode cube ShapeNode \,
/cube setShape 2;
#X obj 32 167 unpack f f f;
#X msg 101 321 /cube setOrientation 0 0 \$1;
#X obj 101 240 * 180;
#X obj 101 211 / 3.14159;
#X obj 297 197 nbx 5 14 -1e+37 1e+37 0 0 empty empty empty 0 -8 0 10
-262144 -1 -1 10 256;
#X msg 297 163 10;
#X obj 32 211 *;
#X obj 66 211 *;
#X obj 32 270 pack f f;
#X obj 32 192 - 0.5;
#X obj 66 192 - 0.5;
#X connect 0 0 4 0;
#X connect 2 0 6 0;
#X connect 4 0 7 0;
#X connect 5 0 3 0;
#X connect 6 0 3 0;
#X connect 7 0 16 0;
#X connect 7 1 17 0;
#X connect 7 2 10 0;
#X connect 8 0 3 0;
#X connect 9 0 8 0;
#X connect 10 0 9 0;
#X connect 11 0 13 1;
#X connect 11 0 14 1;
#X connect 12 0 11 0;
#X connect 13 0 15 0;
#X connect 14 0 15 1;
#X connect 15 0 5 0;
#X connect 16 0 13 0;
#X connect 17 0 14 0;
