#N canvas 991 109 300 189 10;
#X obj 15 12 OSCrx 3333;
#X obj 15 56 routeNodeMsg;
#X msg 84 12 loadbang;
#X msg 84 29 tuio/2Dobj;
#X obj 15 77 route set;
#X obj 15 99 unpack f f f f f f f f f f;
#X obj 32 121 pack f f f f;
#X obj 32 142 outlet;
#X connect 0 0 1 0;
#X connect 1 0 4 0;
#X connect 2 0 3 0;
#X connect 3 0 1 1;
#X connect 4 0 5 0;
#X connect 5 1 6 0;
#X connect 5 2 6 1;
#X connect 5 3 6 2;
#X connect 5 4 6 3;
#X connect 6 0 7 0;
