#N canvas 3075 476 826 610 10;
#X obj 368 41 inlet;
#X msg 143 188 0;
#X obj 98 212 spigot;
#X msg 98 232 \$1;
#X obj 98 272 sel 1;
#X obj 98 252 == \$1;
#X msg 181 188 1;
#X obj 181 167 r reset;
#X obj 258 212 spigot;
#X msg 258 232 \$1;
#X obj 258 272 sel 1;
#X obj 258 322 delay 100;
#X obj 341 167 r reset;
#X obj 258 252 == \$2;
#X obj 418 212 spigot;
#X msg 418 232 \$1;
#X obj 418 272 sel 1;
#X obj 418 322 delay 100;
#X obj 501 167 r reset;
#X obj 578 212 spigot;
#X msg 578 232 \$1;
#X obj 578 272 sel 1;
#X obj 578 322 delay 100;
#X obj 661 167 r reset;
#X obj 418 252 == \$3;
#X obj 578 252 == \$4;
#X msg 341 188 0;
#X msg 501 188 0;
#X msg 661 188 0;
#X msg 623 188 1;
#X msg 463 188 1;
#X msg 303 188 1;
#X obj 109 348 print T1-done;
#X obj 269 348 print T2-done;
#X obj 429 348 print T3-done;
#X obj 589 348 print T4-done;
#X obj 412 109 unpack 0 0;
#X obj 433 136 p;
#X obj 69 499 s next_trajectory;
#X obj 98 322 delay 100;
#X obj 258 292 t b b b;
#X obj 578 292 t b b b;
#X obj 418 292 t b b b;
#X obj 578 378 s ALL_BUBBLES_LOADED;
#X obj 98 292 t b b b;
#X obj 344 499 s t-stop;
#X connect 0 0 2 0;
#X connect 0 0 8 0;
#X connect 0 0 14 0;
#X connect 0 0 19 0;
#X connect 0 0 36 0;
#X connect 1 0 2 1;
#X connect 2 0 3 0;
#X connect 2 0 45 0;
#X connect 3 0 5 0;
#X connect 4 0 44 0;
#X connect 5 0 4 0;
#X connect 6 0 2 1;
#X connect 7 0 6 0;
#X connect 8 0 9 0;
#X connect 8 0 45 0;
#X connect 9 0 13 0;
#X connect 10 0 40 0;
#X connect 11 0 33 0;
#X connect 11 0 43 0;
#X connect 12 0 26 0;
#X connect 13 0 10 0;
#X connect 14 0 15 0;
#X connect 14 0 45 0;
#X connect 15 0 24 0;
#X connect 16 0 42 0;
#X connect 17 0 34 0;
#X connect 17 0 29 0;
#X connect 18 0 27 0;
#X connect 19 0 20 0;
#X connect 19 0 45 0;
#X connect 20 0 25 0;
#X connect 21 0 41 0;
#X connect 22 0 35 0;
#X connect 22 0 43 0;
#X connect 23 0 28 0;
#X connect 24 0 16 0;
#X connect 25 0 21 0;
#X connect 26 0 8 1;
#X connect 27 0 14 1;
#X connect 28 0 19 1;
#X connect 29 0 19 1;
#X connect 30 0 14 1;
#X connect 31 0 8 1;
#X connect 36 1 37 0;
#X connect 39 0 32 0;
#X connect 39 0 31 0;
#X connect 40 0 11 0;
#X connect 40 1 38 0;
#X connect 40 2 26 0;
#X connect 41 0 22 0;
#X connect 41 1 38 0;
#X connect 41 2 28 0;
#X connect 42 0 17 0;
#X connect 42 1 38 0;
#X connect 42 2 27 0;
#X connect 44 0 39 0;
#X connect 44 1 38 0;
#X connect 44 2 1 0;
