#N canvas 2311 265 862 734 10;
#X declare -lib moocow;
#X declare -lib zexy;
#X declare -lib mrpeach;
#X obj 8 30 widget-spinConnect \$0;
#X obj 22 287 bng 20 250 50 0 load_csv load_next_csv LOAD_CSV 25 11
1 14 -260097 -1 -1;
#X obj 476 178 widget-nodeEditor \$0;
#X obj 82 170 bng 20 250 50 0 setup_scene setup_scene SETUP_SCENE 25
11 1 14 -260097 -1 -1;
#X msg 502 102 falcon;
#X msg 525 130 map;
#X obj 674 109 nbx 5 18 -1e+37 1e+37 0 0 mapScale mapScale-set aspect-correct-image-scale
0 -8 1 14 -262130 -1 -1 970 256;
#N canvas 506 82 721 473 exporter 0;
#X obj 40 68 cnv 15 350 250 empty empty Export_Scene_As_OSG: 5 12 1
14 -204786 -66577 0;
#X obj 151 215 bng 20 250 50 0 empty empty empty -170 11 1 12 -257985
-1 -1;
#X symbolatom 190 208 50 0 0 0 - - -;
#X obj 190 189 openpanel;
#X obj 190 171 bng 15 250 50 0 empty empty BROWSE 17 7 1 10 -262144
-1 -1;
#X obj 171 246 pack 0 s s;
#X text 49 171 2) choose filename:;
#X text 71 217 3) export:;
#X text 51 26 requires parent's \$0 as argument (from the patch with
spinConnect);
#X obj 165 292 s \$0-to-SPIN;
#X obj 112 345 bng 15 250 50 0 empty empty empty 17 7 0 10 -262144
-1 -1;
#X obj 292 298 p;
#X obj 112 365 anyreg gExportPath /Users/davidduguay/Documents/Metalab/Turcot/export-test/bubble8.osg
;
#X msg 171 266 exportScene world \$2;
#X connect 1 0 5 0;
#X connect 2 0 5 2;
#X connect 3 0 2 0;
#X connect 4 0 3 0;
#X connect 5 0 13 0;
#X connect 10 0 12 0;
#X connect 12 0 2 0;
#X connect 13 0 9 0;
#X connect 13 0 11 0;
#X restore 274 152 pd exporter;
#N canvas 2281 564 450 300 assets 0;
#X text 26 34 ----PROJECT PATH----;
#X obj 41 157 shell;
#X msg 41 137 hostname -s;
#X obj 41 177 symbol;
#X obj 41 233 anyreg g_hostname;
#X obj 41 117 loadbang;
#X obj 122 127 bng 10 250 50 0 empty empty empty 17 7 0 10 -262144
-1 -1;
#X obj 178 217 p;
#X text 26 84 ----COMPUTER NAME----;
#X text 26 96 loaded automatically at start;
#X obj 61 200 makefilename %s-anim;
#X symbolatom 41 253 30 0 0 0 - - -;
#X obj 150 223 bng 10 250 50 0 empty empty empty 17 7 0 10 -262144
-1 -1;
#X obj 39 53 anyreg gProjectPath ~/Documents/Metalab/Turcot;
#X connect 1 0 3 0;
#X connect 2 0 1 0;
#X connect 3 0 4 0;
#X connect 4 0 11 0;
#X connect 5 0 2 0;
#X connect 6 0 2 0;
#X connect 10 0 4 0;
#X connect 10 0 7 0;
#X connect 12 0 4 0;
#X restore 274 192 pd assets;
#N canvas 2244 254 1173 773 load_csv 1;
#X obj 984 585 p;
#X obj 65 250 csvfile;
#X obj 84 329 print info;
#X obj 156 274 print end;
#X obj 104 275 bng 15 250 50 0 empty empty empty 17 7 0 10 -262144
-1 -1;
#X text 222 274 bangs at end of file;
#X text 157 299 outputs paramaters from the info message;
#X msg 135 142 info;
#X msg 146 167 bang;
#X msg 154 191 rewind;
#X text 202 191 rewind to the beginning of the file;
#X text 186 166 send out one line;
#X obj 65 376 list;
#X floatatom 65 771 5 0 0 1 _distance - -;
#X symbolatom 83 742 10 0 0 1 _EXIF_GPSIm - -;
#X floatatom 101 711 10 0 0 1 _lat1 - -;
#X floatatom 119 692 10 0 0 1 _lon1 - -;
#X floatatom 138 661 10 0 0 1 _x1 - -;
#X floatatom 156 642 10 0 0 1 _y1 - -;
#X floatatom 174 601 10 0 0 1 _x2 - -;
#X floatatom 193 582 10 0 0 1 _y2 - -;
#X text 178 139 send out info on the binary file;
#X obj 506 636 s \$0-to-SPIN-TCP;
#X obj 134 227 until;
#X obj 18 41 t b b;
#X obj 634 725 nbx 5 14 -1e+37 1e+37 0 0 empty empty empty 0 -8 0 10
-262144 -1 -1 0 256;
#N canvas 750 356 601 434 MOVE_CAMERA 0;
#X obj 42 36 sel 0 1 2 3 4 5 6 7;
#X obj 72 343 shell;
#X msg 72 321 hostname -s;
#X obj 72 363 symbol;
#X obj 72 390 list append;
#X obj 87 280 t b a;
#X obj 81 448 s \$0-to-SPIN-TCP;
#X msg 72 414 /\$1 translateTo \$2 \$3 \$4 1 \, /\$1 setOrientationTarget
\$5;
#X msg 47 101 600 0 1200 offset;
#X obj 41 11 inlet;
#X msg 73 128 500 0 1200 FID_6046;
#X msg 118 157 525 250 150 FID_6046;
#X msg 145 186 1200 500 500 FID_6046;
#X msg 168 217 -250 250 500 FID_6046;
#X msg 170 255 500 -1000 1500 FID_6046;
#X connect 0 0 8 0;
#X connect 0 1 10 0;
#X connect 0 2 11 0;
#X connect 0 3 12 0;
#X connect 0 4 13 0;
#X connect 0 5 14 0;
#X connect 1 0 3 0;
#X connect 2 0 1 0;
#X connect 3 0 4 0;
#X connect 4 0 7 0;
#X connect 5 0 2 0;
#X connect 5 1 4 1;
#X connect 7 0 6 0;
#X connect 8 0 5 0;
#X connect 9 0 0 0;
#X connect 10 0 5 0;
#X connect 11 0 5 0;
#X connect 12 0 5 0;
#X connect 13 0 5 0;
#X connect 14 0 5 0;
#X restore 741 731 pd MOVE_CAMERA;
#X obj 741 636 vradio 15 1 0 6 empty cameraPreset empty 0 -8 0 10 -262144
-1 -1 0;
#X floatatom 211 542 6 0 0 1 _orientation - -;
#X msg 615 836 /FID* rotate 0 0 90;
#X obj 30 215 bng 15 250 50 0 empty empty empty 17 7 0 10 -262144 -1
-1;
#X obj 29 298 p;
#X floatatom 229 502 6 0 0 1 _ID - -;
#X obj 65 438 packel 12 1 2 3 6 7 8 9 10 5 11;
#X floatatom 248 465 6 0 0 1 _BubID - -;
#X obj 972 393 s \$0-to-SPIN-TCP;
#X msg 972 326 createNode BubID_\$11 GroupNode;
#X obj 506 412 list append;
#X obj 506 367 t a b;
#X obj 569 388 anyreg gProjectPath;
#X obj 520 589 p;
#X obj 978 431 anyreg gProjectPath;
#X obj 1106 421 bng 15 250 50 0 empty empty empty 17 7 0 10 -262144
-1 -1;
#X msg 915 457 createNode bubble8 SwitchNode \, createNode FID_6046
ShapeNode \, /FID_6046 setParent bubble1 \, /FID_6046 setShape 6 \,
/FID_6046 setTranslation 10 0 0 \, /FID_6046 setOrientation 0 0 0 \,
/FID_6046 setScale 10 10 10 \, /FID_6046 setLighting 0 \, /FID_6046
setColor 1 0 0 1 \, /FID_6046 setStateSetFromFile \$1/bubbles/bubble8/DSC_6046.png
;
#X msg 583 870 /FID* setLighting \$1;
#X obj 583 849 tgl 15 0 empty empty empty 17 7 0 10 -262144 -1 -1 0
1;
#X obj 634 776 hotpack2;
#X obj 679 749 * 1.51;
#X obj 707 776 p;
#X msg 634 800 /FID* setScale \$2 \$1 \$1;
#X msg 586 694 /bubble8 debug;
#X obj 579 351 f;
#X obj 560 352 bng 15 250 50 0 empty empty empty 17 7 0 10 -262144
-1 -1;
#X msg 594 324 0;
#X obj 506 326 t a b;
#X obj 506 437 list append;
#X obj 609 351 - 45;
#X msg 67 119 read T\$1B\$2.csv \, rewind;
#X msg 1141 104 0;
#X obj 18 19 r load_csv;
#X obj 1159 215 p;
#X msg 1201 98 1;
#X obj 1201 77 r reset;
#X obj 1096 128 spigot;
#X msg 1096 148 \$1;
#X obj 1096 188 sel 1;
#X obj 1096 208 t b b b;
#X obj 1096 228 delay 100;
#X obj 1096 168 == \$1;
#N canvas 2701 454 686 488 TxBx_counter 1;
#X obj 204 11 inlet;
#X obj 251 375 outlet;
#X obj 234 221 + 1;
#X obj 282 314 p;
#X obj 185 221 bng 15 250 50 0 empty empty empty 17 7 0 10 -262144
-1 -1;
#X obj 354 220 + 1;
#X obj 306 220 bng 15 250 50 0 empty empty empty 17 7 0 10 -262144
-1 -1;
#X obj 251 282 pack 0 0;
#X obj 257 259 bng 15 250 50 0 empty empty empty 17 7 0 10 -262144
-1 -1;
#X msg 219 194 1;
#X msg 339 194 1;
#X text 39 220 Trajectory counter -->;
#X text 391 220 <-- Bubble counter;
#X obj 204 97 t b b;
#X obj 179 97 bng 15 250 50 0 empty empty empty 17 7 0 10 -262144 -1
-1;
#X obj 219 162 r reset;
#X obj 357 368 bubble-count 5 28 18 9;
#X obj 369 61 r next_trajectory;
#X obj 369 84 t b b;
#X msg 339 106 0;
#X msg 369 106 1;
#X obj 242 97 print bubble;
#X obj 410 84 print t+1;
#X obj 294 149 t b a;
#X obj 204 75 spigot 1;
#X msg 249 52 0;
#X msg 279 52 1;
#X obj 279 32 r reset;
#X obj 249 11 r ALL_BUBBLES_LOADED;
#X text 502 368 <-- put # of bubble per trajectory here = list;
#X obj 204 221 f 1;
#X obj 324 220 f 1;
#X obj 294 129 spigot 0;
#X connect 0 0 24 0;
#X connect 2 0 22 0;
#X connect 2 0 30 1;
#X connect 4 0 30 0;
#X connect 5 0 31 1;
#X connect 6 0 31 0;
#X connect 7 0 3 0;
#X connect 7 0 1 0;
#X connect 8 0 7 0;
#X connect 9 0 30 1;
#X connect 10 0 31 1;
#X connect 13 0 30 0;
#X connect 13 1 21 0;
#X connect 13 1 31 0;
#X connect 14 0 13 0;
#X connect 15 0 9 0;
#X connect 15 0 10 0;
#X connect 17 0 18 0;
#X connect 18 0 20 0;
#X connect 18 1 10 0;
#X connect 19 0 32 1;
#X connect 20 0 32 1;
#X connect 23 0 19 0;
#X connect 23 1 2 0;
#X connect 24 0 13 0;
#X connect 25 0 24 1;
#X connect 26 0 24 1;
#X connect 27 0 26 0;
#X connect 28 0 25 0;
#X connect 30 0 7 0;
#X connect 30 0 32 0;
#X connect 31 0 5 0;
#X connect 31 0 7 1;
#X connect 31 0 16 0;
#X connect 32 0 23 0;
#X restore 67 87 pd TxBx_counter;
#X obj 297 696 change1;
#X obj 88 31 bng 10 250 50 0 empty empty empty 17 7 0 10 -262144 -1
-1;
#X obj 80 406 s csv_list;
#X obj 423 300 s load_next_csv;
#X obj 157 315 s done_csv_parse;
#X msg 460 227 0;
#X msg 490 237 1;
#X obj 490 216 r reset;
#N canvas 2519 430 681 526 bubble_snap 1;
#X obj 88 220 coll;
#C restore;
#X msg 30 176 store \$11 \$6 \$7;
#X obj 83 249 print coll;
#X obj 88 109 r reset;
#X msg 88 130 clear;
#X msg 141 196 dump;
#X obj 263 85 r ALL_BUBBLES_LOADED;
#X msg 431 130 \$1 \$2;
#X obj 372 155 distance2d;
#X msg 261 204 1e+14;
#X obj 245 242 < 999999;
#X obj 165 243 t b a a;
#X obj 216 269 spigot;
#X floatatom 132 11 5 0 0 0 - - -;
#X floatatom 170 11 5 0 0 0 - - -;
#X msg 263 106 delete angle;
#X obj 204 294 anyreg temp_coords;
#X obj 204 315 anyreg closest_bubble;
#X obj 193 137 t b b b;
#X obj 132 37 hotpack2 f f;
#X obj 372 202 print distance;
#X obj 305 344 print final;
#X obj 321 257 f;
#X obj 336 235 t a a;
#X obj 411 251 print foo;
#X obj 173 85 r marker_pos;
#X obj 30 63 r csv_list;
#X obj 62 369 s user_coords;
#X obj 203 483 s \$0-to-SPIN;
#X obj 204 367 t a b;
#X obj 231 387 anyreg g_hostname;
#X obj 204 420 list append;
#X obj 292 485 p;
#X obj 132 59 s marker_pos;
#X text 224 36 <-- simulates marker position in XY;
#X obj 444 280 r marker_pos;
#X obj 424 423 s \$0-to-SPIN;
#X obj 444 309 t a b;
#X obj 471 329 anyreg g_hostname;
#X obj 444 362 list append;
#X obj 530 420 p;
#X msg 444 390 /\$3 setTranslation \$1 \$2 5;
#X msg 204 448 /\$3 translateTo \$1 \$2 2.5 0.5;
#X connect 0 0 11 0;
#X connect 1 0 0 0;
#X connect 3 0 4 0;
#X connect 4 0 0 0;
#X connect 5 0 0 0;
#X connect 7 0 8 1;
#X connect 8 0 23 0;
#X connect 9 0 10 1;
#X connect 10 0 12 1;
#X connect 11 0 12 0;
#X connect 11 1 8 0;
#X connect 11 2 16 0;
#X connect 12 0 16 0;
#X connect 12 0 22 0;
#X connect 13 0 19 0;
#X connect 14 0 19 1;
#X connect 15 0 0 0;
#X connect 16 0 17 0;
#X connect 17 0 21 0;
#X connect 17 0 29 0;
#X connect 18 0 17 0;
#X connect 18 1 5 0;
#X connect 18 2 9 0;
#X connect 19 0 33 0;
#X connect 22 0 10 1;
#X connect 23 0 22 1;
#X connect 23 1 10 0;
#X connect 25 0 8 1;
#X connect 25 0 18 0;
#X connect 26 0 1 0;
#X connect 29 0 31 0;
#X connect 29 1 30 0;
#X connect 30 0 31 1;
#X connect 31 0 42 0;
#X connect 37 0 39 0;
#X connect 37 1 38 0;
#X connect 38 0 39 1;
#X connect 39 0 41 0;
#X connect 41 0 36 0;
#X connect 41 0 40 0;
#X connect 42 0 32 0;
#X connect 42 0 28 0;
#X restore 528 57 pd bubble_snap;
#X obj 460 195 r ALL_BUBBLES_LOADED;
#X obj 594 301 r reset;
#X text 165 86 <-- IN HERE to change # of bubble per trajectory;
#X msg 629 121 createNode \$11 SwitchNode \, createNode FID_\$5_group
SwitchNode \, /FID_\$5_group setParent \$11 \, createNode FID_\$5 ShapeNode
\, /FID_\$5 setParent FID_\$5_group \, /FID_\$5 setShape 6 \, /FID_\$5_group
setTranslation \$6 \$7 10 \, /FID_\$5 setTranslation 0 17 0 \, /FID_\$5_group
setOrientation \$10 0 \$14 \, /FID_\$5 setOrientation 0 0 0 \, /FID_\$5
setScale 15.1 10 10 \, /FID_\$5 setColor 1 1 1 1 \, /FID_\$5 setStateSetFromFile
\$13/bubbles/\$11/DSC_\$5.png \, /DSC_\$5.png setLighting 0;
#N canvas 0 22 450 300 remove_1st_line 0;
#X obj 73 29 inlet;
#X obj 81 240 outlet;
#X obj 83 132 spigot;
#X msg 116 97 0;
#X msg 148 107 1;
#X obj 116 76 r load_next_csv;
#X obj 73 55 t b a;
#X obj 126 56 r reset;
#X connect 0 0 6 0;
#X connect 2 0 1 0;
#X connect 3 0 2 1;
#X connect 4 0 2 1;
#X connect 5 0 3 0;
#X connect 6 0 4 0;
#X connect 6 1 2 0;
#X connect 7 0 3 0;
#X restore 65 351 pd remove_1st_line;
#X text 623 56 <-- closest bubble calculator + bubble database;
#X obj 423 279 delay 3000;
#X obj 184 228 delay 100;
#X text 490 277 <--delay between bubble load;
#X text 244 226 <--delay between image load;
#X msg 214 51 1 1;
#X obj 214 34 bng 10 250 50 0 empty empty empty 17 7 0 10 -262144 -1
-1;
#X obj 321 68 p;
#X obj 162 213 bng 10 250 50 0 empty empty empty 17 7 0 10 -262144
-1 -1;
#X obj 738 342 hsl 128 15 0 4 0 0 empty empty empty -2 -8 0 10 -262144
-1 -1 0 1;
#X msg 728 387 /FID_???? setTranslation 0 \$1 0;
#X obj 423 259 spigot 1;
#X floatatom 748 363 5 0 0 0 - - -;
#X msg 506 461 createNode \$11 SwitchNode \, createNode FID_\$5_group
SwitchNode \, /FID_\$5_group setParent \$11 \, createNode FID_\$5 ShapeNode
\, /FID_\$5 setParent FID_\$5_group \, /FID_\$5 setShape 6 \, /FID_\$5_group
setTranslation \$6 \$7 2.6 \, /FID_\$5 setTranslation 0 2.5 0 \, /FID_\$5_group
setOrientation \$10 0 \$14 \, /FID_\$5 setOrientation 0 0 0 \, /FID_\$5
setScale 3.78 2.5 2.5 \, /FID_\$5 setColor 1 1 1 1 \, /FID_\$5 setStateSetFromFile
\$13/bubbles/\$11/DSC_\$5.png \, /DSC_\$5.png setLighting 0;
#X text 732 306 Changes all bubble images distance from center;
#X msg 723 424 /FID_???? setColor 1 1 1 0.6;
#X connect 1 0 31 0;
#X connect 1 0 83 0;
#X connect 1 1 2 0;
#X connect 1 1 91 0;
#X connect 1 2 4 0;
#X connect 1 2 3 0;
#X connect 1 2 74 0;
#X connect 1 2 23 1;
#X connect 1 2 95 0;
#X connect 7 0 1 0;
#X connect 8 0 1 0;
#X connect 9 0 1 0;
#X connect 12 0 33 0;
#X connect 12 0 54 0;
#X connect 12 0 72 0;
#X connect 23 0 1 0;
#X connect 24 0 23 0;
#X connect 24 1 69 0;
#X connect 25 0 46 0;
#X connect 25 0 47 0;
#X connect 27 0 26 0;
#X connect 29 0 22 0;
#X connect 30 0 1 0;
#X connect 33 0 13 0;
#X connect 33 1 14 0;
#X connect 33 2 15 0;
#X connect 33 3 16 0;
#X connect 33 4 17 0;
#X connect 33 5 18 0;
#X connect 33 6 19 0;
#X connect 33 7 20 0;
#X connect 33 8 28 0;
#X connect 33 9 32 0;
#X connect 33 10 34 0;
#X connect 36 0 35 0;
#X connect 37 0 55 0;
#X connect 38 0 37 0;
#X connect 38 1 39 0;
#X connect 39 0 37 1;
#X connect 41 0 43 0;
#X connect 42 0 41 0;
#X connect 43 0 22 0;
#X connect 43 0 0 0;
#X connect 44 0 22 0;
#X connect 45 0 44 0;
#X connect 46 0 49 0;
#X connect 47 0 46 1;
#X connect 49 0 22 0;
#X connect 49 0 48 0;
#X connect 50 0 22 0;
#X connect 51 0 55 1;
#X connect 51 0 56 0;
#X connect 52 0 51 0;
#X connect 53 0 51 1;
#X connect 54 0 38 0;
#X connect 54 1 51 0;
#X connect 55 0 97 0;
#X connect 56 0 51 1;
#X connect 57 0 1 0;
#X connect 58 0 63 1;
#X connect 59 0 24 0;
#X connect 61 0 63 1;
#X connect 62 0 61 0;
#X connect 63 0 64 0;
#X connect 64 0 68 0;
#X connect 65 0 66 0;
#X connect 66 0 67 0;
#X connect 66 2 58 0;
#X connect 68 0 65 0;
#X connect 69 0 57 0;
#X connect 71 0 24 0;
#X connect 75 0 95 1;
#X connect 76 0 95 1;
#X connect 77 0 76 0;
#X connect 79 0 75 0;
#X connect 80 0 53 0;
#X connect 83 0 12 0;
#X connect 85 0 73 0;
#X connect 89 0 57 0;
#X connect 90 0 89 0;
#X connect 90 0 23 0;
#X connect 92 0 23 0;
#X connect 93 0 96 0;
#X connect 94 0 22 0;
#X connect 95 0 85 0;
#X connect 96 0 94 0;
#X connect 97 0 22 0;
#X connect 97 0 40 0;
#X connect 99 0 22 0;
#X restore 274 172 pd load_csv;
#N canvas 250 149 883 618 setup_scene 0;
#X obj 22 262 shell;
#X msg 22 240 hostname -s;
#X obj 141 34 bng 15 250 50 0 empty empty empty 17 7 0 10 -262144 -1
-1;
#X obj 293 622 s \$0-to-SPIN-TCP;
#X obj 22 282 symbol;
#X obj 466 291 thisdir;
#X obj 466 261 bng 15 250 50 0 empty empty empty 17 7 0 10 -262144
-1 -1;
#X obj 518 482 expr $f1*($f2/$f3) \; 0 \; $f1;
#X obj 518 539 pack 0 0 0;
#X msg 518 561 /map setScale \$1 \$2 \$3;
#X obj 518 460 pack 100 2658 1693;
#X text 637 459 <- image resolution is 2658x1693;
#X obj 518 436 r mapScale;
#X msg 466 316 createNode map ShapeNode \, /map setParent offset \,
/map setShape 6 \, /map setOrientation -90 0 0 \, /map setStateSetFromFile
\$1/Turcot_GoogleEarthScreenshot.png \, /Turcot_GoogleEarthScreenshot.png
setLighting 0;
#X obj 170 58 anyreg g_ORIGIN 569 554 0;
#X msg 443 147 createNode offset GroupNode \, /offset setTranslation
\$1 \$2 \$3;
#X obj 170 81 t b b b a;
#X obj 170 15 r setup_scene;
#X msg -37 470 /\$1 setComputationMode 1 \, /\$1 setOrientationMode
1 \, /\$1 setOrientationTarget offset;
#X msg 22 312 /\$1 setComputationMode 1;
#X msg 150 181 \; mapScale-set 970 \; cameraPreset 1 \;;
#X msg 29 141 \; mapScale-set 970 \;;
#X connect 0 0 4 0;
#X connect 1 0 0 0;
#X connect 2 0 14 0;
#X connect 4 0 19 0;
#X connect 5 0 13 0;
#X connect 6 0 5 0;
#X connect 7 0 8 0;
#X connect 7 1 8 1;
#X connect 7 2 8 2;
#X connect 8 0 9 0;
#X connect 9 0 3 0;
#X connect 10 0 7 0;
#X connect 12 0 10 0;
#X connect 13 0 3 0;
#X connect 14 0 16 0;
#X connect 15 0 3 0;
#X connect 16 0 21 0;
#X connect 16 1 1 0;
#X connect 16 2 5 0;
#X connect 16 3 15 0;
#X connect 17 0 14 0;
#X connect 19 0 3 0;
#X restore 274 112 pd setup_scene;
#X obj 112 130 bng 20 250 50 0 setup_user setup_user SETUP_USER 25
11 1 14 -260097 -1 -1;
#X obj 52 227 bng 20 250 50 0 reset empty RESET 25 11 1 14 -260097
-1 -1;
#N canvas 2476 139 450 300 setup_user 0;
#X obj 35 179 s \$0-to-SPIN-TCP;
#X msg 86 69 setNotifyLevel 1;
#X obj 155 -50 vradio 15 1 0 7 empty empty empty 0 -8 0 10 -262144
-1 -1 0;
#X text 172 -36 FATAL;
#X text 172 -52 ALWAYS;
#X text 172 -20 WARN;
#X text 172 -4 NOTICE;
#X text 172 11 INFO;
#X text 172 27 DEBUG_INFO;
#X text 172 43 DEBUG_FP;
#X obj 35 39 t b b b b;
#X obj 35 10 r setup_user;
#X obj 69 101 anyreg g_hostname;
#X msg 69 123 /\$1 setTranslation 800 -5 20 \, /\$1 setOrientation
0 0 0;
#X connect 1 0 0 0;
#X connect 2 0 1 0;
#X connect 10 2 12 0;
#X connect 10 3 1 0;
#X connect 11 0 10 0;
#X connect 12 0 13 0;
#X connect 13 0 0 0;
#X restore 274 92 pd setup_user;
#N canvas 2869 517 550 377 user_controls 0;
#N canvas 2823 279 301 198 osc 0;
#X obj 25 22 OSCrx 3333;
#X obj 25 66 routeNodeMsg;
#X msg 94 39 tuio/2Dobj;
#X obj 25 87 route set;
#X obj 25 109 unpack f f f f f f f f f f;
#X obj 42 131 pack f f f f;
#X obj 42 152 outlet;
#X obj 141 81 p;
#X obj 46 2 bng 15 250 50 0 empty empty empty 17 7 0 10 -262144 -1
-1;
#X obj 94 20 loadbang;
#X connect 0 0 1 0;
#X connect 1 0 3 0;
#X connect 2 0 1 1;
#X connect 3 0 4 0;
#X connect 4 1 5 0;
#X connect 4 2 5 1;
#X connect 4 3 5 2;
#X connect 4 4 5 3;
#X connect 5 0 6 0;
#X connect 8 0 0 0;
#X connect 9 0 2 0;
#X restore 42 79 pd osc;
#X obj 17 21 loadbang;
#X obj 42 101 route 36;
#X msg 42 275 /cube setTranslation \$1 \$2 0.5;
#X obj 42 127 unpack f f f;
#X msg 111 301 /cube setOrientation 0 0 \$1;
#X obj 111 200 * 180;
#X obj 111 171 / 3.14159;
#X obj 307 157 nbx 5 14 -1e+37 1e+37 0 0 empty empty empty 0 -8 0 10
-262144 -1 -1 1000 256;
#X obj 42 171 *;
#X obj 76 171 *;
#X obj 42 230 pack f f;
#X msg 17 41 createNode cube ShapeNode \, /cube setShape 2;
#X obj 195 332 s \$0-to-SPIN;
#X obj 17 345 s marker_pos;
#X obj 152 97 p;
#X obj 322 249 s marker_pos;
#X obj 42 152 0;
#X obj 76 152 0;
#X msg 307 123 1000;
#X obj 307 99 loadbang;
#X connect 0 0 2 0;
#X connect 2 0 4 0;
#X connect 3 0 14 0;
#X connect 4 0 17 0;
#X connect 4 1 18 0;
#X connect 4 2 7 0;
#X connect 5 0 14 0;
#X connect 7 0 6 0;
#X connect 8 0 9 1;
#X connect 8 0 10 1;
#X connect 9 0 11 0;
#X connect 10 0 11 1;
#X connect 11 0 14 0;
#X connect 11 0 16 0;
#X connect 12 0 14 0;
#X connect 17 0 9 0;
#X connect 18 0 10 0;
#X connect 19 0 8 0;
#X connect 20 0 19 0;
#X restore 274 132 pd user_controls;
#X obj 8 88 t b b b b;
#X obj 74 78 bng 10 250 50 0 empty empty empty 17 7 0 10 -262144 -1
-1;
#X obj 112 91 bng 20 250 50 0 ALL_BUBBLES_LOADED empty STOP_LOADING
25 11 1 14 -258113 -1 -1;
#X obj 52 207 delay 4000;
#X obj 22 267 delay 4500;
#X obj 8 6 loadbang1 turcot;
#X obj 227 313 s \$0-to-SPIN-TCP;
#X msg 485 73 athena;
#X msg 213 282 /athena setCameraOrientation 0 0 -90;
#X connect 4 0 2 0;
#X connect 5 0 2 0;
#X connect 15 0 19 0;
#X connect 15 2 3 0;
#X connect 15 3 11 0;
#X connect 16 0 15 0;
#X connect 18 0 12 0;
#X connect 19 0 1 0;
#X connect 20 0 0 0;
#X connect 22 0 2 0;
#X connect 23 0 21 0;
