#N canvas 413 22 1027 833 10;
#X obj -138 -19 widget-spinConnect-gallery \$0;
#X obj 216 -12 bng 30 250 50 0 reset reset-main RESET 35 15 0 30 -260097
-1 -1;
#X obj -139 -39 loadbang1 timeline-pierrebarouh;
#X obj -138 37 cnv 15 500 700 empty empty empty 20 12 0 14 -204786
-66577 0;
#N canvas 679 227 450 300 assets 0;
#X text 26 14 ----PROJECT PATH----;
#X obj 41 157 shell;
#X msg 41 137 hostname -s;
#X obj 41 177 symbol;
#X obj 41 233 anyreg g_hostname;
#X obj 41 117 loadbang;
#X obj 122 127 bng 10 250 50 0 empty empty empty 17 7 0 10 -262144
-1 -1;
#X obj 178 217 p;
#X text 26 84 ----COMPUTER NAME----;
#X text 26 96 loaded automatically at start;
#X obj 135 166 makefilename %s-anim;
#X symbolatom 41 253 30 0 0 0 - - -;
#X obj 150 223 bng 10 250 50 0 empty empty empty 17 7 0 10 -262144
-1 -1;
#X obj 39 33 anyreg gProjectPath ~/Documents/Metalab/timeline/timeline-pierrebarouh
;
#X connect 1 0 3 0;
#X connect 2 0 1 0;
#X connect 3 0 4 0;
#X connect 3 0 7 0;
#X connect 4 0 11 0;
#X connect 5 0 2 0;
#X connect 6 0 2 0;
#X connect 10 0 4 0;
#X connect 12 0 4 0;
#X restore 153 98 pd assets;
#X text 216 98 <--Important assets are stored here (project path \,
computer name \, etc.);
#N canvas 0 47 1503 817 debug 0;
#X obj 25 551 s \$0-to-SPIN;
#X msg 95 146 /experience debug;
#X msg 38 74 /chantalbaron setCubeSize 10000 10000 10000;
#X msg 14 48 createNode grid GridNode;
#X obj 68 744 s \$0-to-SPIN;
#X floatatom 35 673 5 0 0 0 - - -;
#X obj 257 653 p;
#X floatatom 78 673 5 0 0 0 - - -;
#X floatatom 120 673 5 0 0 0 - - -;
#X obj 68 702 hotpack3;
#X msg 195 278 /chantalbaron setTarget labo-targets;
#X obj 984 281 r \$0-toCamera;
#X obj 984 305 OSCprepend /nodeID;
#X obj 984 331 s \$0-to-SPIN;
#X obj 973 132 nbx 4 16 -1e+37 1e+37 0 0 empty empty left 0 -8 0 11
-262144 -1 -1 0 256;
#X obj 1024 132 nbx 4 16 -1e+37 1e+37 0 0 empty empty right 0 -8 0
11 -262144 -1 -1 0 256;
#X obj 1075 132 nbx 4 16 -1e+37 1e+37 0 0 empty empty bottom 0 -8 0
11 -262144 -1 -1 0 256;
#X obj 1126 132 nbx 4 16 -1e+37 1e+37 0 0 empty empty top 0 -8 0 11
-262144 -1 -1 0 256;
#X obj 1177 132 nbx 4 16 0 1e+37 0 0 empty empty near 0 -8 0 11 -262144
-1 -1 0 256;
#X obj 1228 132 nbx 4 16 0 1e+37 0 0 empty empty far 0 -8 0 11 -262144
-1 -1 0 256;
#X obj 1008 157 hotpack7 -0.01 0.01 -0.01 0.01 0.01 1000;
#X msg 1008 176 setFrustum \$1 \$2 \$3 \$4 \$5 \$6;
#X obj 1008 197 s \$0-toCamera;
#X obj 1089 275 anyreg g_hostname;
#X obj 1089 253 bng 15 250 50 0 empty empty empty 17 7 0 10 -262144
-1 -1;
#X msg 198 302 /corridor debug;
#X obj 975 59 nbx 5 14 -1e+37 1e+37 0 0 empty empty empty 0 -8 0 10
-262144 -1 -1 0 256;
#X obj 1106 76 * -1;
#X obj 1128 48 nbx 5 14 -1e+37 1e+37 0 0 empty empty empty 0 -8 0 10
-262144 -1 -1 0 256;
#X obj 1259 65 * -1;
#X msg 154 213 /cell-globuleBlanc debug;
#X msg 167 236 /7-pipette-group-2 debug;
#X msg 68 723 /7-pipette-pcd setTranslation \$1 \$2 \$3;
#X msg 215 347 /box debug;
#X msg 254 454 /corridor debug;
#X msg 222 372 /CERC112-img debug;
#X msg 145 193 /step4 debug;
#X obj 507 516 widget-nodeEditor \$0;
#X msg 645 345 cell-CytoSkeleton_Elements;
#X msg 664 392 sang-globule;
#X msg 656 368 cell-CytoSkeleton_Elements-2;
#X msg 595 194 corridor-pcd;
#X msg 613 219 7-pipette-pcd;
#X msg 627 269 cell-lisosome;
#X msg 633 294 patient-cube;
#X msg 679 436 mainLight;
#X msg 683 459 mainLight2;
#X msg 265 482 /mainLight debug;
#X msg 269 505 /mainLight2 debug;
#X obj 257 631 r \$0-from-SPIN;
#X msg 638 320 cell-globuleBlanc;
#X msg 673 414 sang-cell;
#X msg 277 550 /sang-globule setParent step4;
#X text 1285 582 sang = 3;
#X text 1285 613 cell = 7;
#X text 1285 552 corridor+others = 16;
#X text 1215 522 EXPONENT (reacts only on models with shader);
#X msg 1231 660 /mainLight setExponent \$1 \, /mainLight2 setExponent
\$1;
#X msg 1260 554 16;
#X obj 1231 684 s \$0-to-SPIN;
#X msg 1218 416 deleteNode mainLight3 \, createNode mainLight3 LightSource
\, /mainLight3 setParent step4 \, /mainLight3 setTranslation 1000 4000
0 \, /mainLight3 setOrientation 0 0 0 \, /mainLight3 setCutoff 180
\, /mainLight3 setExponent 16 \, /mainLight3 setAttenuation 0.1 \,
/mainLight3 setAmbient 1 1 1 1 \, /mainLight3 setDiffuse 1 1 1 1 \,
/mainLight3 setSpecular 0 0 0 1;
#X msg 1259 585 3.5;
#X msg 688 481 mainLight3;
#X msg 279 527 /mainLight3 debug;
#X msg 582 144 chantalbaron-anim;
#X msg 75 122 /chantalbaron-anim debug;
#X msg 572 121 chantalbaron;
#X msg 618 244 cell-Mitochondria;
#X msg 1259 614 10;
#X msg 588 169 sh0;
#X msg 618 169 sh1;
#X msg 650 169 sh2;
#X msg 680 169 sh3;
#X msg 205 324 /sh3 debug;
#X msg 542 72 hotspot_down4;
#X msg 532 45 hotspot_up4;
#X msg 564 95 hotspot_down5;
#X msg 184 256 /hotspot_down5 debug;
#X msg 232 396 /step6 debug;
#X msg 249 423 /patient-targets debug;
#X msg 124 169 /timeline_texts debug;
#X msg 58 97 /posture101 debug;
#X obj 874 544 subwidget-ViewCtl \$0;
#X msg 721 75 ambient-light;
#X msg 769 215 linux;
#X msg 843 427 sphere\$1;
#X floatatom 845 401 5 0 0 0 - - -;
#X msg 983 226 setFrustum -0.3333 0.3333 -0.2222 0.2222 1e-05 1000
;
#X connect 1 0 0 0;
#X connect 2 0 0 0;
#X connect 3 0 0 0;
#X connect 5 0 9 0;
#X connect 7 0 9 1;
#X connect 8 0 9 2;
#X connect 9 0 32 0;
#X connect 10 0 0 0;
#X connect 12 0 13 0;
#X connect 14 0 20 0;
#X connect 15 0 20 1;
#X connect 16 0 20 2;
#X connect 17 0 20 3;
#X connect 18 0 20 4;
#X connect 19 0 20 5;
#X connect 20 0 21 0;
#X connect 21 0 22 0;
#X connect 23 0 12 1;
#X connect 24 0 23 0;
#X connect 25 0 0 0;
#X connect 26 0 27 0;
#X connect 26 0 15 0;
#X connect 27 0 14 0;
#X connect 28 0 29 0;
#X connect 28 0 17 0;
#X connect 29 0 16 0;
#X connect 30 0 0 0;
#X connect 31 0 0 0;
#X connect 32 0 4 0;
#X connect 33 0 0 0;
#X connect 34 0 0 0;
#X connect 35 0 0 0;
#X connect 36 0 0 0;
#X connect 38 0 37 0;
#X connect 39 0 37 0;
#X connect 40 0 37 0;
#X connect 41 0 37 0;
#X connect 42 0 37 0;
#X connect 43 0 37 0;
#X connect 44 0 37 0;
#X connect 45 0 37 0;
#X connect 46 0 37 0;
#X connect 47 0 0 0;
#X connect 48 0 0 0;
#X connect 50 0 37 0;
#X connect 51 0 37 0;
#X connect 52 0 0 0;
#X connect 57 0 59 0;
#X connect 58 0 57 0;
#X connect 60 0 59 0;
#X connect 61 0 57 0;
#X connect 62 0 37 0;
#X connect 63 0 0 0;
#X connect 64 0 37 0;
#X connect 65 0 0 0;
#X connect 66 0 37 0;
#X connect 67 0 37 0;
#X connect 68 0 57 0;
#X connect 69 0 37 0;
#X connect 70 0 37 0;
#X connect 71 0 37 0;
#X connect 72 0 37 0;
#X connect 73 0 0 0;
#X connect 74 0 37 0;
#X connect 75 0 37 0;
#X connect 76 0 37 0;
#X connect 77 0 0 0;
#X connect 78 0 0 0;
#X connect 79 0 0 0;
#X connect 80 0 0 0;
#X connect 81 0 0 0;
#X connect 83 0 37 0;
#X connect 85 0 37 0;
#X connect 86 0 85 0;
#X connect 87 0 12 0;
#X restore 153 78 pd debug;
#N canvas 342 184 672 412 models-full 0;
#X obj 33 -18 inlet;
#X obj 33 277 s \$0-to-SPIN;
#X obj 33 4 anyreg gProjectPath;
#X msg 33 241 deleteNode \$2 \, createNode \$2 ModelNode \, /\$2 setModelFromFile
\$1/\$2.ac;
#X obj 103 95 list append LUC_art;
#X obj 89 117 list append LUC_design;
#X obj 75 139 list append LUC_lieux;
#X obj 61 161 list append LUC_marqueurs_mondiaux;
#X obj 47 183 list append LUC_media_history;
#X obj 33 205 list append LUC_pano_alley;
#X obj 117 73 list append LUC_timeline;
#X obj 33 26 t a a a a a a a a;
#X obj 132 51 list append LUC_timeline-0;
#X text 301 50 <--Timeline + numbers \, maybe not necessary. Numbers
could be hardcoded in PD;
#X connect 0 0 2 0;
#X connect 2 0 11 0;
#X connect 3 0 1 0;
#X connect 4 0 3 0;
#X connect 5 0 3 0;
#X connect 6 0 3 0;
#X connect 7 0 3 0;
#X connect 8 0 3 0;
#X connect 9 0 3 0;
#X connect 10 0 3 0;
#X connect 11 0 9 0;
#X connect 11 1 8 0;
#X connect 11 2 7 0;
#X connect 11 3 6 0;
#X connect 11 4 5 0;
#X connect 11 5 4 0;
#X connect 11 6 10 0;
#X connect 11 7 12 0;
#X connect 12 0 3 0;
#X restore 300 153 pd models-full;
#X obj 166 297 bng 10 250 50 0 empty empty empty 17 7 0 10 -262144
-1 -1;
#X obj 394 143 bng 10 250 50 0 empty empty empty 17 7 0 10 -262144
-1 -1;
#X obj 119 370 tgl 15 0 empty g_motionToggle MOTION? 17 7 1 10 -4034
-1 -1 0 1;
#X obj 439 148 hsl 128 15 0 0.9999 0 0 fogDensity fogDensity-set fogDensity
-2 -8 1 12 -203904 -1 -1 0 1;
#X floatatom 569 148 5 0 0 0 - fogDensity-set -;
#X floatatom 436 165 5 0 0 3 min minFog-set minFog;
#X floatatom 472 165 5 0 0 3 max maxFog-set maxFog;
#X obj 598 526 s \$0-to-usernode;
#X msg 598 509 setParam shader \$1;
#X obj 598 492 pack s;
#X obj 598 448 thisdir;
#X obj 598 433 bng 15 250 50 0 empty empty empty 17 7 0 10 -262144
-1 -1;
#X msg 598 465 \$1/shaders/ppu;
#X obj 432 517 s \$0-to-SPIN;
#X obj 432 446 r \$0-to-usernode;
#X obj 432 500 OSCprepend;
#X obj 489 483 hostname -s;
#X obj 489 466 loadbang;
#N canvas 30 117 1410 415 reset 0;
#X obj 753 93 r \$0-from-SPIN;
#X obj 864 128 anyreg g_hostname;
#X obj 753 124 t a b;
#X obj 753 153 OSCparse /hostname;
#X obj 753 174 route event;
#X obj 753 194 route button;
#X obj 803 214 route 1;
#X obj 753 214 route 0;
#X obj 753 326 sel 1;
#X obj 753 281 +;
#X obj 753 301 == 2;
#X floatatom 753 236 5 0 0 0 - - -;
#X floatatom 803 236 5 0 0 0 - - -;
#X obj 803 257 t b a;
#X obj 25 51 r reset;
#X obj 443 95 r \$0-from-SPIN;
#X obj 425 166 route /chantalbaron /chantalbaron-anim;
#X obj 425 208 route setVelocity global6DOF setTranslation;
#X obj 425 280 sel 0 1;
#X obj 425 240 expr sqrt(($f1*$f1) + ($f2*$f2) + ($f3*$f3));
#X floatatom 529 271 20 0 0 0 - - -;
#X obj 521 306 bng 10 250 50 0 empty empty empty 17 7 0 10 -262144
-1 -1;
#X text 421 66 TIME DELAY : reset after X sec inactivity;
#X obj 1047 95 r \$0-from-SPIN;
#X obj 1047 208 route reset;
#X obj 1047 230 t b b;
#X obj 1123 208 s current_position;
#X obj 1211 263 p;
#X obj 1211 182 p;
#X obj 1101 144 anyreg g_hostname;
#X obj 1047 165 OSCparse /hostname;
#X obj 1047 125 t a b;
#X obj 1074 255 symbol;
#X msg 1111 293 /\$1-reporter setReporting CONTAINMENT 0;
#X obj 1018 289 s reset-main;
#X obj 1111 317 s \$0-to-SPIN-TCP;
#X text 1041 66 POSTURE PAD : white circle button;
#X text 751 66 SPACE NAVIGATOR : press both buttons;
#X text 789 18 3 WAYS TO RESET;
#X obj 444 357 s reset-main;
#X obj 753 348 s reset-main;
#X msg 59 163 /timeline_texts_* setDrawMode 1;
#X obj 554 119 anyreg g_hostname;
#X obj 443 115 t a b;
#X obj 443 144 OSCparse /hostname;
#X obj 586 319 p;
#X obj 444 316 delay 60000;
#X obj 1047 186 route event setVelocity;
#X obj 98 127 s \$0-reliableBroadcast-set;
#X obj 76 128 tgl 15 0 empty empty empty 17 7 0 10 -262144 -1 -1 0
1;
#X msg 25 97 1;
#X msg 76 97 0;
#X obj 25 73 t b b b b;
#X obj 42 219 s reset-user;
#X text 130 217 <--to user-setup patch;
#X obj 95 63 bng 10 250 50 0 empty empty empty 17 7 0 10 -262144 -1
-1;
#X obj 59 188 s \$0-to-SPIN-TCP;
#X obj 425 260 > 0.05;
#X connect 0 0 2 0;
#X connect 1 0 3 1;
#X connect 2 0 3 0;
#X connect 2 1 1 0;
#X connect 3 0 4 0;
#X connect 4 0 5 0;
#X connect 5 0 7 0;
#X connect 5 0 6 0;
#X connect 6 0 12 0;
#X connect 7 0 11 0;
#X connect 8 0 40 0;
#X connect 9 0 10 0;
#X connect 10 0 8 0;
#X connect 11 0 9 0;
#X connect 12 0 13 0;
#X connect 13 0 9 0;
#X connect 13 1 9 1;
#X connect 14 0 52 0;
#X connect 15 0 43 0;
#X connect 16 1 17 0;
#X connect 17 0 19 0;
#X connect 18 0 46 0;
#X connect 19 0 20 0;
#X connect 19 0 57 0;
#X connect 21 0 46 0;
#X connect 24 0 25 0;
#X connect 25 0 34 0;
#X connect 29 0 30 1;
#X connect 29 0 32 1;
#X connect 30 0 47 0;
#X connect 31 0 30 0;
#X connect 31 1 29 0;
#X connect 32 0 33 0;
#X connect 33 0 35 0;
#X connect 41 0 56 0;
#X connect 42 0 44 1;
#X connect 43 0 44 0;
#X connect 43 1 42 0;
#X connect 44 0 17 0;
#X connect 46 0 39 0;
#X connect 47 0 24 0;
#X connect 49 0 48 0;
#X connect 51 0 49 0;
#X connect 52 0 50 0;
#X connect 52 1 53 0;
#X connect 52 2 41 0;
#X connect 52 3 51 0;
#X connect 55 0 52 0;
#X connect 57 0 18 0;
#X restore 153 118 pd reset;
#N canvas 591 200 487 526 iphone_setup 0;
#X obj 49 180 pack s s;
#X obj 204 127 list2symbol;
#X obj 108 57 shell;
#X msg 108 38 hostname -s;
#X msg 204 108 Pointer ici;
#X obj 22 32 inlet;
#X obj 51 199 t a a;
#X obj 207 77 loadbang;
#X obj 100 460 s \$0-to-SPIN;
#X msg 31 266 /\$1-pointer setParent \$1 \, /\$1-target setParent \$1-pointer
\, /\$1-target-instructions setParent \$1-target \, /\$1-target-cursor
setParent \$1-target \, /\$1-target-cursor setTextValue + \, /\$1-target-instructions
setTextValue \$2 \, /\$1-target setTranslation 0 0.01 0 \, /\$1-target
setScale 0.01 0.01 0.01 \, /\$1-target-* setColor 1 0 0 1 \, /\$1-target-*
setDecoration 9 \, /\$1-target-* setFont GillSans.ttf \, /\$1-target-*
setBillboard 2 \, /\$1-target-instructions setTranslation 0 0 0.1 \,
/\$1-target setEnabled \$1-target-instructions 0;
#X msg 157 176 createNode \$1-pointer GroupNode \, createNode \$1-target
SwitchNode \, createNode \$1-target-cursor TextNode \, createNode \$1-target-instructions
TextNode;
#X obj 22 115 anyreg g_hostname;
#X obj 136 105 bng 10 250 50 0 empty empty empty 17 7 0 10 -262144
-1 -1;
#X connect 0 0 6 0;
#X connect 1 0 0 1;
#X connect 2 0 0 0;
#X connect 3 0 2 0;
#X connect 4 0 1 0;
#X connect 5 0 11 0;
#X connect 6 0 9 0;
#X connect 6 1 10 0;
#X connect 7 0 4 0;
#X connect 9 0 8 0;
#X connect 10 0 8 0;
#X connect 11 0 0 0;
#X connect 12 0 11 1;
#X restore 64 307 pd iphone_setup;
#X obj -98 79 delay 2000;
#X obj -98 59 t b;
#X obj -98 611 s \$0-to-SPIN;
#X msg -98 590 refreshSubscribers;
#N canvas 314 251 772 487 user_setup 0;
#X msg 86 87 setNotifyLevel 1;
#X obj 155 -32 vradio 15 1 0 7 empty empty empty 0 -8 0 10 -262144
-1 -1 0;
#X text 172 -18 FATAL;
#X text 172 -34 ALWAYS;
#X text 172 -2 WARN;
#X text 172 14 NOTICE;
#X text 172 29 INFO;
#X text 172 45 DEBUG_INFO;
#X text 172 61 DEBUG_FP;
#X obj 35 0 inlet;
#X obj 35 39 t b b b b;
#X obj 69 135 anyreg g_hostname;
#X obj 186 125 bng 10 250 50 0 empty empty empty 17 7 0 10 -262144
-1 -1;
#X obj 253 264 anyreg g_hostname;
#X obj 370 254 bng 10 250 50 0 empty empty empty 17 7 0 10 -262144
-1 -1;
#X msg 253 284 /\$1 setVelocityScalars 4 6 6 \, /\$1 setSpinScalars
0 0 0;
#X obj 254 321 s \$0-toCamera;
#X obj 52 110 delay 10000;
#X obj 69 235 s \$0-to-SPIN-TCP;
#X obj 254 100 r reset-user;
#X obj 357 11 anyreg g_hostname;
#X obj 474 1 bng 10 250 50 0 empty empty empty 17 7 0 10 -262144 -1
-1;
#X msg 69 155 /\$1 setTranslation 0 12 0.25 \, /\$1 setComputationMode
1 \, /\$1 setVelocityScalars 4 6 6 \, /\$1 setSpinScalars 0 0 0 \,
/\$1 setOrientation 0 0 0 \, /\$1 setCubeSize 1900 1900 300 \, /\$1
setCubeOffset 0 -5 0;
#X msg 357 31 /\$1 setOrientation 0 0 0;
#X connect 0 0 18 0;
#X connect 1 0 0 0;
#X connect 9 0 10 0;
#X connect 10 1 17 0;
#X connect 10 2 11 0;
#X connect 10 3 0 0;
#X connect 11 0 22 0;
#X connect 12 0 11 0;
#X connect 13 0 15 0;
#X connect 14 0 13 0;
#X connect 15 0 16 0;
#X connect 17 0 11 0;
#X connect 19 0 11 0;
#X connect 20 0 23 0;
#X connect 21 0 20 0;
#X connect 22 0 18 0;
#X connect 23 0 18 0;
#X restore -35 149 pd user_setup;
#X obj -98 99 t b b b b b;
#N canvas 361 185 797 555 models-lod 1;
#X obj 33 -16 inlet;
#X obj 33 4 anyreg gProjectPath;
#X text 161 262 <--Timeline + numbers \, maybe not necessary. Numbers
could be hardcoded in PD;
#X obj 155 -6 bng 10 250 50 0 empty empty empty 17 7 0 10 -262144 -1
-1;
#X obj 33 266 list append timeline;
#X obj 33 24 t a b;
#X obj 60 63 bng 15 250 50 0 empty empty empty 17 7 0 10 -262144 -1
-1;
#X text 125 79 create TextNodes for years:;
#X obj 90 35 delay 10000;
#X obj 60 226 makeTimeline \$0 timeline_texts;
#X text 294 79 x y z offsetX offsetY offsetZ startValue increment count
;
#X msg 111 105 348 -21.5 -0.1 -6 0 0 0 1 101;
#X obj 60 81 t b b b b;
#X text 300 103 <--side years 0 to 100 (step = 1);
#X msg 202 25 /timeline_texts_* setDrawMode 0 \, /timeline_texts_*
setLighting 0 \, /timeline_texts_* setColor 1 1 1 1;
#X obj 33 349 s \$0-to-SPIN-TCP;
#X obj 148 250 bng 10 250 50 0 empty empty empty 17 7 0 10 -262144
-1 -1;
#X msg 94 136 444 0 0 -21 0 0 1750 50 4;
#X text 258 135 <--main years 1750 to 1900 (step = 50);
#X msg 77 165 -261 0 0 -21 0 0 2050 50 3;
#X text 248 165 <--main years 2050 to 2150 (step = 50);
#X text 228 195 <--main years 1934 to 2034 (step = 1);
#X msg 60 195 360 0 0 -6 0 0 1934 1 101;
#X msg 33 296 deleteNode \$2 \, createNode \$2 ModelNode \, /\$2 setModelFromFile
\$1/PIERRE_\$2.ac \, /\$2 setOrientation 90 0 0 \, /\$2 setLightingMode
1;
#X connect 0 0 1 0;
#X connect 1 0 5 0;
#X connect 3 0 1 0;
#X connect 4 0 23 0;
#X connect 5 0 4 0;
#X connect 5 1 6 0;
#X connect 6 0 12 0;
#X connect 8 0 6 0;
#X connect 9 0 15 0;
#X connect 11 0 9 0;
#X connect 12 0 22 0;
#X connect 12 1 19 0;
#X connect 12 2 17 0;
#X connect 12 3 11 0;
#X connect 14 0 15 0;
#X connect 16 0 4 0;
#X connect 17 0 9 0;
#X connect 19 0 9 0;
#X connect 22 0 9 0;
#X connect 23 0 15 0;
#X restore -67 494 pd models-lod;
#X obj 22 484 bng 10 250 50 0 empty empty empty 17 7 0 10 -262144 -1
-1;
#X obj 55 139 bng 10 250 50 0 empty empty empty 17 7 0 10 -262144 -1
-1;
#X obj -22 89 bng 10 250 50 0 empty empty empty 17 7 0 10 -262144 -1
-1;
#N canvas 951 211 952 776 pcl-image 0;
#X obj 539 123 subwidget-PAT \$0;
#X obj 539 82 loadbang;
#X obj 338 381 vradio 11 1 0 14 empty empty empty 0 -8 0 10 -262144
-1 -1 0;
#X text 352 476 9) QUAD_STRIP;
#X text 352 465 8) QUADS;
#X text 352 454 7) TRIANGLE_FAN;
#X text 352 443 6) TRIANGLE_STRIP;
#X text 352 432 5) TRIANGLES;
#X text 352 421 4) LINE_LOOP;
#X text 352 399 2) LINES;
#X text 352 388 1) POINTS;
#X text 352 377 0) NONE;
#X text 352 410 3) LINE_STRIP;
#X text 352 509 12) BOXES;
#X text 352 498 11) LIGHTPOINTS;
#X text 352 487 10) POLYGON;
#X obj 128 179 hsl 128 15 0 100 0 0 empty empty empty -2 -8 0 10 -262144
-1 -1 0 1;
#X floatatom 125 197 5 0 0 0 - - -;
#X text 352 520 13) CUSTOM;
#X text 533 58 You can move the entire cloud around like this:;
#X obj 65 362 cnv 15 24 24 empty empty 5 4 12 1 24 -99865 -262144 0
;
#X obj 290 358 cnv 15 24 24 empty empty 6 4 12 1 24 -99865 -262144
0;
#X text 319 361 Try different draw modes:;
#X obj 685 550 hsl 128 15 0.0005 0.1 1 0 empty empty empty -2 -8 0
10 -262144 -1 -1 0 1;
#X floatatom 682 569 5 0 0 0 - - -;
#X obj 690 704 s \$0-to-SPIN;
#X obj 705 640 hsl 128 15 0 10 0 0 empty empty empty -2 -8 0 10 -262144
-1 -1 0 1;
#X floatatom 702 659 5 0 0 0 - - -;
#X msg 590 513 /cloud setDrawMode 11 \, /cloud setURI kinect://1;
#X text 571 464 Read points in real time from the Kinect \, but DON'T
use CUSTOM drawMode. The Kinect produces way too many points way too
fast.;
#X obj 295 180 hsl 128 15 0 0.1 0 0 empty empty empty -2 -8 0 10 -262144
-1 -1 0 1;
#X floatatom 292 197 5 0 0 0 - - -;
#X obj 102 390 tgl 15 0 empty empty empty 17 7 0 10 -262144 -1 -1 0
1;
#X obj 338 558 s \$0-to-SPIN;
#X obj 87 501 s \$0-to-SPIN;
#X obj 540 468 cnv 15 24 24 empty empty 8 4 12 1 24 -99865 -262144
0;
#X text 94 363 Override color:;
#X obj 115 437 rgbaPicker 1 1 1 1;
#X text 122 389 override color;
#X obj 99 50 anyreg gProjectPath;
#X obj 99 321 s \$0-to-SPIN;
#X obj 99 27 inlet;
#X msg 125 213 /luc setPointSize \$1;
#X msg 292 213 /luc setRandomCoeff \$1;
#X msg 102 409 /luc setColorMode \$1;
#X msg 115 471 /luc setColor \$1 \$2 \$3 \$4;
#X msg 338 538 /luc setDrawMode \$1;
#X msg 682 592 /luc setVoxelSize \$1;
#X obj 500 294 p;
#X obj 223 40 bng 10 250 50 0 empty empty empty 17 7 0 10 -262144 -1
-1;
#X msg 263 253 /merge_1358285296497 debug;
#X obj 267 16 list prepend merge_1358285283097;
#X obj 264 47 list prepend merge_1358285283106;
#X msg 539 102 merge_1358285283097;
#X obj 99 80 list prepend merge_1358285293675;
#X msg 276 292 deleteNode merge_1358285293675;
#X msg 702 679 /merge_1358285293675 setDistCrop -10 \$1;
#X msg 99 110 createNode \$1 PointCloud \, /\$1 setURI \$2/luc_pcl/\$1.pcd
\, /\$1 setOrientation 0 90 79 \, /\$1 setTranslation 30 19 -200 \,
/\$1 setScale 400 400 400 \, /\$1 setComputationMode 1 \, /\$1 setPointSize
4 \, /\$1 setDrawMode 11 \, /\$1 setDistCrop -10 10;
#X connect 1 0 53 0;
#X connect 2 0 46 0;
#X connect 16 0 17 0;
#X connect 17 0 42 0;
#X connect 23 0 24 0;
#X connect 24 0 47 0;
#X connect 26 0 27 0;
#X connect 27 0 56 0;
#X connect 28 0 25 0;
#X connect 30 0 31 0;
#X connect 31 0 43 0;
#X connect 32 0 44 0;
#X connect 37 0 45 0;
#X connect 39 0 54 0;
#X connect 41 0 39 0;
#X connect 42 0 40 0;
#X connect 43 0 40 0;
#X connect 44 0 34 0;
#X connect 45 0 34 0;
#X connect 46 0 33 0;
#X connect 47 0 25 0;
#X connect 49 0 39 0;
#X connect 50 0 40 0;
#X connect 53 0 0 0;
#X connect 54 0 57 0;
#X connect 55 0 40 0;
#X connect 56 0 25 0;
#X connect 57 0 40 0;
#X restore -66 519 pd pcl-image;
#X obj 36 418 bng 10 250 50 0 empty empty empty 17 7 0 10 -262144 -1
-1;
#N canvas 176 286 580 592 pcl-video 0;
#X text 8 12 On the sender machine (the one with the Kinect):;
#X text 57 55 ./posture-capture -v -s /tmp/pcd_to_read;
#X text 48 122 Then send it;
#X text 8 182 On the receiver machine (the one with spinviewer):;
#X text 8 252 On the receiver machine (the one with spinviewer):;
#X text 48 42 Capture kinect and right to shared memory:;
#X text 48 82 Or \, test with random noise of 10 \, 0 points (ie \,
100x100):;
#X text 57 205 ./posture-rtpreceive -v -s /tmp/pcd_to_read -r <sender
IP>;
#X text 57 96 ./posture-capture -v -s /tmp/pcd_to_write -n 100;
#X text 58 135 ./posture-rtpsend -v -s /tmp/pcd_to_write -r <receiver
IP>;
#X obj 42 528 s \$0-to-SPIN;
#X obj 42 275 inlet;
#X obj 161 295 bng 10 250 50 0 empty empty empty 17 7 0 10 -262144
-1 -1;
#X obj 106 439 p;
#X obj 65 482 anyreg user1;
#X obj 150 472 bng 10 250 50 0 empty empty empty 17 7 0 10 -262144
-1 -1;
#X floatatom 255 429 5 0 0 0 - - -;
#X obj 161 325 bng 10 250 50 0 empty empty empty 17 7 0 10 -262144
-1 -1;
#X obj 42 335 list prepend luc;
#X obj 42 305 anyreg g_hostname;
#X msg 255 452 /luc setOrientation 0 90 \$1;
#X floatatom 360 432 5 0 0 0 - - -;
#X floatatom 380 505 5 0 0 0 - - -;
#X msg 379 528 /luc setScale \$1 \$1 \$1;
#X msg 348 291 /luc;
#X floatatom 349 549 5 0 0 0 - - -;
#X msg 348 572 /luc setPointSize \$1;
#X msg 259 476 /luc setTranslation 30 19 \$1;
#X floatatom 415 283 5 0 0 0 - - -;
#X msg 414 306 /luc setVoxelSize \$1;
#X floatatom 430 330 5 0 0 0 - - -;
#X msg 65 504 /\$1-avatar setURI shm:///tmp/pcl_play;
#X msg 429 353 /luc setDrawMode \$1;
#X msg 42 364 createNode \$1 PointCloud \, /\$1 setURI shm:///tmp/\$2-sm
\, /\$1 setOrientation 0 90 79 \, /\$1 setTranslation 30 19 -200 \,
/\$1 setScale 400 400 400 \, /\$1 setComputationMode 1 \, /\$1 setPointSize
4 \, /\$1 setDistCrop -10 10 \, /\$1 setVoxelSize 0.01 \, /\$1 setDrawMode
11;
#X connect 11 0 19 0;
#X connect 12 0 19 0;
#X connect 14 0 31 0;
#X connect 15 0 14 0;
#X connect 16 0 20 0;
#X connect 17 0 18 0;
#X connect 18 0 33 0;
#X connect 19 0 18 0;
#X connect 20 0 10 0;
#X connect 21 0 27 0;
#X connect 22 0 23 0;
#X connect 23 0 10 0;
#X connect 25 0 26 0;
#X connect 26 0 10 0;
#X connect 27 0 10 0;
#X connect 28 0 29 0;
#X connect 29 0 10 0;
#X connect 30 0 32 0;
#X connect 31 0 10 0;
#X connect 32 0 10 0;
#X connect 33 0 10 0;
#X connect 33 0 13 0;
#X restore -48 428 pd pcl-video;
#X obj 18 509 bng 10 250 50 0 empty empty empty 17 7 0 10 -262144 -1
-1;
#X text 46 427 <--select 1 for image or video point cloud;
#N canvas 427 302 1013 526 picture-gallery 0;
#N canvas 432 75 1131 999 setup 0;
#X obj 92 125 shell;
#X obj 92 82 thisdir;
#X obj 69 42 bng 15 250 50 0 empty empty empty 17 7 0 10 -262144 -1
-1;
#X obj 92 62 t b b;
#X obj 91 600 pack f s;
#X msg 92 104 ls \$1/lorez/ | wc -l;
#X obj 10 118 print shell;
#X obj 160 331 playlist all 400 300 {Helvetica 10 bold} #457782 yellow
black red;
#X obj 177 220 thisdir;
#X obj 176 197 bng 15 250 50 0 empty empty empty 17 7 0 10 -262144
-1 -1;
#X obj 80 202 until;
#X obj 92 230 f;
#X obj 131 230 + 1;
#X msg 118 275 seek \$1;
#X obj 91 253 t a a;
#X obj 91 623 t a a b;
#X obj 91 647 unpack f s;
#X msg 357 245 font Helvetica normal 12;
#X msg 177 277 location \$1;
#X obj 244 43 inlet;
#X msg 135 204 0;
#X obj 128 150 r num_spheres;
#X obj 107 171 f 20;
#X obj 244 65 t b b;
#X msg 517 815 /sphere* setLighting 0 \, /sphere* setColor 1 1 1 1
;
#X msg 542 778 /sphere* setSingleSided 0;
#X msg 538 751 /sphere* setScale \$1 \$1 \$1;
#X floatatom 535 720 5 0 0 0 - - -;
#X obj 28 456 thisdir;
#X msg 273 150 20;
#X obj 395 670 randomR -20 20;
#X obj 508 670 randomR -20 20;
#X obj 91 688 pack f s f f;
#X obj 193 32 bng 15 250 50 0 empty empty empty 17 7 0 10 -262144 -1
-1;
#X msg 257 186 1;
#X msg 309 111;
#X msg 147 718 createStateSet texture\$1 ImageTexture \, /texture\$1
setPath \$2;
#X obj 90 710 t a a;
#X floatatom 735 709 5 0 0 0 - - -;
#X msg 738 740 /sphere* setDetailRatio 1;
#X obj 176 245 makefilename %s/NIP_Sphere_30;
#X obj 92 870 s \$0-to-SPIN-TCP;
#X msg 253 851 createNode sphere\$1 ModelNode \, /sphere\$1 setModelFromFile
sphere-low-res2.ac \, /sphere\$1 setStateRegistration 1 \, /sphere\$1
setStateSet texture\$1 \, /sphere\$1 setLighting 0 \, /sphere\$1 setParent
con\$1 \, /con\$1 setTranslation 0 18 0 \, /sphere\$1 setScale 0.05
0.05 0.05;
#X msg 595 140 createNode sphere\$1 ShapeNode \, /sphere\$1 setShape
1 \, /sphere\$1 setStateRegistration 1 \, /sphere\$1 setStateSet texture\$1
\, /sphere\$1 setDetailRatio 1 \, /sphere\$1 setLighting 0 \, /sphere\$1
setSingleSided 0 \, /sphere\$1 setParent con\$1 \, /con\$1 setTranslation
0 18 0 \, /sphere\$1 setScale 7 7 7;
#X msg 90 762 createNode sphere\$1 ModelNode \, /sphere\$1 setModelFromFile
sphere-low-res3.ac \, /sphere\$1 setStateRegistration 1 \, /sphere\$1
setStateSet texture\$1 \, /sphere\$1 setLighting 0 \, /sphere\$1 setParent
con\$1 \, /con\$1 setTranslation 0 18 0 \, /sphere\$1 setScale 10 10
10 \, /sphere\$1 setOrientation 90 0 0;
#X connect 0 0 6 0;
#X connect 0 0 10 0;
#X connect 1 0 5 0;
#X connect 2 0 3 0;
#X connect 3 0 1 0;
#X connect 3 1 9 0;
#X connect 3 1 20 0;
#X connect 4 0 15 0;
#X connect 5 0 0 0;
#X connect 7 0 4 1;
#X connect 8 0 40 0;
#X connect 9 0 8 0;
#X connect 10 0 11 0;
#X connect 11 0 12 0;
#X connect 11 0 14 0;
#X connect 12 0 11 1;
#X connect 13 0 7 0;
#X connect 14 0 4 0;
#X connect 14 1 13 0;
#X connect 15 0 16 0;
#X connect 15 2 30 0;
#X connect 15 2 31 0;
#X connect 16 0 32 0;
#X connect 16 1 32 1;
#X connect 17 0 7 0;
#X connect 18 0 7 0;
#X connect 19 0 23 0;
#X connect 20 0 11 1;
#X connect 21 0 22 1;
#X connect 22 0 10 0;
#X connect 23 0 22 0;
#X connect 23 1 9 0;
#X connect 23 1 20 0;
#X connect 24 0 41 0;
#X connect 25 0 41 0;
#X connect 26 0 41 0;
#X connect 27 0 26 0;
#X connect 29 0 22 1;
#X connect 30 0 32 2;
#X connect 31 0 32 3;
#X connect 32 0 37 0;
#X connect 33 0 23 0;
#X connect 34 0 10 0;
#X connect 36 0 41 0;
#X connect 37 0 44 0;
#X connect 37 1 36 0;
#X connect 38 0 39 0;
#X connect 39 0 41 0;
#X connect 40 0 18 0;
#X connect 44 0 41 0;
#X restore 100 259 pd setup spheres;
#N canvas 553 446 782 464 constraints 0;
#X obj -6493 151 until;
#X obj -6493 173 f;
#X obj -6466 173 + 1;
#X msg -6437 147 0;
#X obj -6533 56 bng 15 250 50 0 empty empty empty 17 7 0 10 -262144
-1 -1;
#X obj -6493 78 t b b;
#X obj -6438 245 * 0.01;
#X obj -6451 287 * 0.01;
#X obj -6472 336 * 0.01;
#X obj -6494 196 t a b b b;
#X obj -6494 367 pack 0 0 0 0;
#X obj -6494 411 s \$0-to-SPIN;
#X obj -6495 28 inlet;
#X obj -7012 38 inlet;
#X obj -7012 111 f 20;
#X obj -7012 60 t b b;
#X obj -6991 86 r num_spheres;
#X obj -7012 135 until;
#X obj -7012 157 f;
#X obj -6985 157 + 1;
#X obj -7013 180 t a b b b;
#X msg -6957 110 0;
#X msg -7012 241 createNode con\$1 ConstraintsNode \, /con\$1 setTarget
box \, /con\$1 setConstraintMode 3 \, /con\$1 setComputationMode 1
;
#X msg -6494 389 /con\$1 setVelocity \$2 \$3 \$4;
#X obj -6493 127 f 20;
#X obj -6472 102 r num_spheres;
#X obj -6436 223 expr random(10 \, 20) - 10;
#X obj -6451 265 expr random(10 \, 43) - 18;
#X obj -6472 314 expr random(10 \, 30) - 13;
#X floatatom -6343 152 5 0 0 0 - - -;
#X obj -6345 125 r spheres_velo;
#X obj -7007 326 s \$0-to-SPIN-TCP;
#X connect 0 0 1 0;
#X connect 1 0 2 0;
#X connect 1 0 9 0;
#X connect 2 0 1 1;
#X connect 3 0 1 1;
#X connect 4 0 5 0;
#X connect 5 0 24 0;
#X connect 5 1 3 0;
#X connect 6 0 10 3;
#X connect 7 0 10 2;
#X connect 8 0 10 1;
#X connect 9 0 10 0;
#X connect 9 1 28 0;
#X connect 9 2 27 0;
#X connect 9 3 26 0;
#X connect 10 0 23 0;
#X connect 12 0 5 0;
#X connect 13 0 15 0;
#X connect 14 0 17 0;
#X connect 15 0 14 0;
#X connect 15 1 21 0;
#X connect 16 0 14 1;
#X connect 17 0 18 0;
#X connect 18 0 19 0;
#X connect 18 0 20 0;
#X connect 19 0 18 1;
#X connect 20 0 22 0;
#X connect 21 0 18 1;
#X connect 22 0 31 0;
#X connect 23 0 11 0;
#X connect 24 0 0 0;
#X connect 25 0 24 1;
#X connect 26 0 6 0;
#X connect 27 0 7 0;
#X connect 28 0 8 0;
#X connect 29 0 6 1;
#X connect 29 0 7 1;
#X connect 29 0 8 1;
#X connect 30 0 29 0;
#X restore 256 294 pd constraints;
#X obj 100 240 bng 15 250 50 0 empty empty empty 17 7 0 10 -262144
-1 -1;
#X obj 256 272 bng 15 250 50 0 empty empty empty 17 7 0 10 -262144
-1 -1;
#N canvas 479 653 450 300 cube 0;
#X obj 70 18 inlet;
#X obj 77 119 s \$0-to-SPIN-TCP;
#X msg 77 65 createNode box ShapeNode \, /box setShape 2 \, /box setScale
40 40 40 \, /box setLighting 0 \, /box setColor 0.3 0 0 0.01 \, /box
setTranslation 0 18 0 \, /box setRenderBin 9999;
#X connect 0 0 2 0;
#X connect 2 0 1 0;
#X restore 336 224 pd cube;
#X obj 336 197 bng 15 250 50 0 empty empty empty 17 7 0 10 -262144
-1 -1;
#X obj 354 68 nbx 5 14 -1e+37 1e+37 0 1 num_spheres empty Number_of_spheres
0 -8 0 10 -262144 -1 -1 29 256;
#X obj 341 271 bng 15 250 50 0 empty empty move! 17 7 0 10 -262144
-1 -1;
#X obj 138 98 bng 15 250 50 0 empty empty empty 17 7 0 10 -262144 -1
-1;
#X obj 138 120 t b b b b;
#X obj 552 227 r \$0-toCamera;
#X obj 552 274 spin.toCamera \$0;
#X obj 613 105 vradio 15 1 0 4 empty empty empty 0 -8 0 10 -262144
-1 -1 0;
#X text 632 105 NORMAL;
#X text 632 120 POINT_TO_TARGET;
#X text 632 135 POINT_TO_TARGET_CENTROID;
#X text 632 150 POINT_TO_ORIGIN;
#X msg 613 171 setOrientationMode \$1;
#X obj 553 204 s \$0-toCamera;
#X obj 566 78 cnv 15 24 24 empty empty 5 4 12 1 24 -99865 -262144 0
;
#X text 599 81 Choose POINT_TO_TARGET:;
#X msg 553 52 setOrientationTarget grid;
#X msg 110 347 /Linux-Desktop-2 setSpinScalars 0 0 0;
#X msg 365 345 createNode ambient-light LightSource \, /ambient-light
setCutoff 180;
#X obj 131 10 inlet;
#X obj 131 32 t b b;
#X text 164 155 Just because for some reason it does not register at
load;
#X obj 109 367 s \$0-to-SPIN-TCP;
#X msg 301 38 29;
#X obj 255 207 del 500;
#X obj 107 160 del 7000;
#X obj 128 219 del 1500;
#N canvas 440 75 1131 999 setup 0;
#X obj 92 125 shell;
#X obj 92 82 thisdir;
#X obj 69 42 bng 15 250 50 0 empty empty empty 17 7 0 10 -262144 -1
-1;
#X obj 92 62 t b b;
#X obj 91 600 pack f s;
#X msg 92 104 ls \$1/lorez/ | wc -l;
#X obj 10 118 print shell;
#X obj 160 331 playlist all 400 300 {Helvetica 10 bold} #457782 yellow
black red;
#X obj 177 220 thisdir;
#X obj 176 197 bng 15 250 50 0 empty empty empty 17 7 0 10 -262144
-1 -1;
#X obj 80 202 until;
#X obj 92 230 f;
#X obj 131 230 + 1;
#X msg 118 275 seek \$1;
#X obj 91 253 t a a;
#X obj 91 623 t a a b;
#X obj 91 647 unpack f s;
#X msg 357 245 font Helvetica normal 12;
#X msg 177 277 location \$1;
#X obj 244 43 inlet;
#X msg 135 204 0;
#X obj 128 150 r num_spheres;
#X obj 107 171 f 20;
#X obj 244 65 t b b;
#X msg 517 815 /sphere* setLighting 0 \, /sphere* setColor 1 1 1 1
;
#X msg 542 778 /sphere* setSingleSided 0;
#X msg 538 751 /sphere* setScale \$1 \$1 \$1;
#X floatatom 535 720 5 0 0 0 - - -;
#X obj 28 456 thisdir;
#X msg 273 150 20;
#X obj 395 670 randomR -20 20;
#X obj 508 670 randomR -20 20;
#X obj 91 688 pack f s f f;
#X obj 193 32 bng 15 250 50 0 empty empty empty 17 7 0 10 -262144 -1
-1;
#X msg 257 186 1;
#X msg 309 111;
#X msg 147 718 createStateSet texture\$1 ImageTexture \, /texture\$1
setPath \$2;
#X obj 90 710 t a a;
#X floatatom 735 709 5 0 0 0 - - -;
#X msg 738 740 /sphere* setDetailRatio 1;
#X obj 176 245 makefilename %s/NIP_Sphere_30;
#X obj 92 870 s \$0-to-SPIN-TCP;
#X msg 253 851 createNode sphere\$1 ModelNode \, /sphere\$1 setModelFromFile
sphere-low-res2.ac \, /sphere\$1 setStateRegistration 1 \, /sphere\$1
setStateSet texture\$1 \, /sphere\$1 setLighting 0 \, /sphere\$1 setParent
con\$1 \, /con\$1 setTranslation 0 18 0 \, /sphere\$1 setScale 0.05
0.05 0.05;
#X msg 595 140 createNode sphere\$1 ShapeNode \, /sphere\$1 setShape
1 \, /sphere\$1 setStateRegistration 1 \, /sphere\$1 setStateSet texture\$1
\, /sphere\$1 setDetailRatio 1 \, /sphere\$1 setLighting 0 \, /sphere\$1
setSingleSided 0 \, /sphere\$1 setParent con\$1 \, /con\$1 setTranslation
0 18 0 \, /sphere\$1 setScale 7 7 7;
#X msg 90 762 createNode sphere\$1 ModelNode \, /sphere\$1 setModelFromFile
sphere-low-res3.ac \, /sphere\$1 setStateRegistration 1 \, /sphere\$1
setStateSet texture\$1 \, /sphere\$1 setLighting 0 \, /sphere\$1 setParent
con\$1 \, /con\$1 setTranslation 0 18 0 \, /sphere\$1 setScale 10 10
10 \, /sphere\$1 setOrientation 90 0 0;
#X connect 0 0 6 0;
#X connect 0 0 10 0;
#X connect 1 0 5 0;
#X connect 2 0 3 0;
#X connect 3 0 1 0;
#X connect 3 1 9 0;
#X connect 3 1 20 0;
#X connect 4 0 15 0;
#X connect 5 0 0 0;
#X connect 7 0 4 1;
#X connect 8 0 40 0;
#X connect 9 0 8 0;
#X connect 10 0 11 0;
#X connect 11 0 12 0;
#X connect 11 0 14 0;
#X connect 12 0 11 1;
#X connect 13 0 7 0;
#X connect 14 0 4 0;
#X connect 14 1 13 0;
#X connect 15 0 16 0;
#X connect 15 2 30 0;
#X connect 15 2 31 0;
#X connect 16 0 32 0;
#X connect 16 1 32 1;
#X connect 17 0 7 0;
#X connect 18 0 7 0;
#X connect 19 0 23 0;
#X connect 20 0 11 1;
#X connect 21 0 22 1;
#X connect 22 0 10 0;
#X connect 23 0 22 0;
#X connect 23 1 9 0;
#X connect 23 1 20 0;
#X connect 24 0 41 0;
#X connect 25 0 41 0;
#X connect 26 0 41 0;
#X connect 27 0 26 0;
#X connect 29 0 22 1;
#X connect 30 0 32 2;
#X connect 31 0 32 3;
#X connect 32 0 37 0;
#X connect 33 0 23 0;
#X connect 34 0 10 0;
#X connect 36 0 41 0;
#X connect 37 0 44 0;
#X connect 37 1 36 0;
#X connect 38 0 39 0;
#X connect 39 0 41 0;
#X connect 40 0 18 0;
#X connect 44 0 41 0;
#X restore 88 302 pd setup spheres;
#X obj 88 283 bng 15 250 50 0 empty empty empty 17 7 0 10 -262144 -1
-1;
#X connect 2 0 0 0;
#X connect 3 0 1 0;
#X connect 5 0 4 0;
#X connect 7 0 1 1;
#X connect 8 0 9 0;
#X connect 9 0 30 0;
#X connect 9 1 31 0;
#X connect 9 2 29 0;
#X connect 9 3 5 0;
#X connect 10 0 11 0;
#X connect 12 0 17 0;
#X connect 17 0 18 0;
#X connect 21 0 18 0;
#X connect 22 0 27 0;
#X connect 23 0 27 0;
#X connect 24 0 25 0;
#X connect 25 0 8 0;
#X connect 25 1 28 0;
#X connect 28 0 6 0;
#X connect 29 0 3 0;
#X connect 30 0 7 0;
#X connect 31 0 2 0;
#X connect 33 0 32 0;
#X restore -51 254 pd picture-gallery;
#X obj 69 244 bng 10 250 50 0 empty empty empty 17 7 0 10 -262144 -1
-1;
#X obj 45 370 tgl 15 0 empty empty VISIBLE? 17 7 1 10 -260097 -1 -1
0 1;
#N canvas 81 155 873 599 fog 0;
#X obj 46 24 inlet;
#X obj 246 34 inlet;
#X obj 376 24 inlet;
#X obj 246 76 tgl 15 0 empty empty empty 17 7 0 10 -262144 -1 -1 0
1;
#X obj 376 46 tgl 15 0 empty empty empty 17 7 0 10 -262144 -1 -1 0
1;
#X obj 46 276 s \$0-to-SPIN;
#X obj 123 110 sel 1 0;
#X msg 201 157 deleteNode fog;
#X msg 508 356 /fog setFogDensity \$1;
#X obj 496 129 metro 1000;
#X obj 541 63 random 12000;
#X obj 546 88 + 3999;
#X obj 608 146 bng 40 250 50 0 empty empty empty 17 7 0 10 -262144
-1 -1;
#X msg 508 266 \$1 6000;
#X obj 508 377 s \$0-to-SPIN;
#X floatatom 571 105 7 0 0 0 - - -;
#X floatatom 508 326 5 0 0 0 - - -;
#X obj 579 302 r fogDensity;
#X obj 565 333 sendset fogDensity-set;
#X obj 508 291 line 0 100;
#X obj 527 212 r minFog;
#X obj 769 213 r maxFog;
#X obj 508 238 expr (0.001*random(0 \, 1000)*($f2+$f1)) + $f1;
#X obj 468 212 bng 15 250 50 0 empty empty empty 17 7 0 10 -262144
-1 -1;
#X obj 308 468 s \$0-to-SPIN;
#X obj 292 274 bng 15 250 50 0 empty empty empty 17 7 0 10 -262144
-1 -1;
#X obj 308 419 line 0 100;
#X floatatom 236 413 5 0 0 0 - - -;
#X msg 309 395 \$1 6000;
#X obj 287 328 expr 0.001*random(0 \, 1000);
#X msg 308 441 /fog setFogColor 0 0.03 \$1 1;
#X msg 46 197 createStateSet fog Fog \, /fog setFogColor 0 0.02 0.12
1;
#X obj 309 370 * 0.1;
#X obj 46 164 t b b b;
#X obj 46 44 t b b;
#X obj 86 44 print CREATING_FOG;
#X connect 0 0 34 0;
#X connect 1 0 3 0;
#X connect 2 0 4 0;
#X connect 3 0 6 0;
#X connect 4 0 9 0;
#X connect 6 0 33 0;
#X connect 6 1 7 0;
#X connect 7 0 5 0;
#X connect 8 0 14 0;
#X connect 9 0 12 0;
#X connect 9 0 10 0;
#X connect 9 0 22 0;
#X connect 9 0 29 0;
#X connect 10 0 11 0;
#X connect 11 0 9 1;
#X connect 11 0 15 0;
#X connect 13 0 19 0;
#X connect 16 0 8 0;
#X connect 17 0 16 0;
#X connect 19 0 16 0;
#X connect 19 0 18 0;
#X connect 20 0 22 0;
#X connect 21 0 22 1;
#X connect 22 0 13 0;
#X connect 23 0 22 0;
#X connect 25 0 29 0;
#X connect 26 0 30 0;
#X connect 28 0 26 0;
#X connect 29 0 32 0;
#X connect 30 0 24 0;
#X connect 31 0 5 0;
#X connect 32 0 28 0;
#X connect 32 0 27 0;
#X connect 33 0 16 0;
#X connect 33 1 31 0;
#X connect 34 0 33 0;
#X connect 34 1 35 0;
#X restore -28 388 pd fog __________________;
#X obj -28 373 bng 12 250 50 0 empty empty empty 17 7 0 10 -257985
-1 -1;
#X msg 70 559 debug;
#X obj -2 217 s \$0-reliableBroadcast-set;
#X obj -24 218 tgl 15 0 empty empty empty 17 7 0 10 -262144 -1 -1 0
1;
#X obj -51 172 t b b;
#X msg -24 197 1;
#X obj -83 565 s reset-main;
#X msg 70 597 /timeline setLightingMode 0;
#X obj -67 310 t b b b;
#X obj -28 342 delay 5000;
#X obj -67 458 del 10000;
#X obj -67 288 del 15000;
#X obj -83 544 delay 120000;
#X connect 2 0 0 0;
#X connect 9 0 7 0;
#X connect 16 0 15 0;
#X connect 17 0 16 0;
#X connect 18 0 20 0;
#X connect 19 0 18 0;
#X connect 20 0 17 0;
#X connect 22 0 23 0;
#X connect 23 0 21 0;
#X connect 24 0 23 1;
#X connect 25 0 24 0;
#X connect 28 0 33 0;
#X connect 29 0 28 0;
#X connect 31 0 30 0;
#X connect 33 1 59 0;
#X connect 33 2 58 0;
#X connect 33 3 51 0;
#X connect 33 4 32 0;
#X connect 35 0 34 0;
#X connect 36 0 32 0;
#X connect 37 0 33 0;
#X connect 39 0 40 0;
#X connect 41 0 38 0;
#X connect 44 0 43 0;
#X connect 45 0 46 1;
#X connect 47 0 46 0;
#X connect 48 0 30 0;
#X connect 50 0 49 0;
#X connect 51 0 43 0;
#X connect 51 1 52 0;
#X connect 52 0 50 0;
#X connect 54 0 30 0;
#X connect 55 0 57 0;
#X connect 55 1 40 0;
#X connect 55 2 56 0;
#X connect 56 0 47 0;
#X connect 57 0 34 0;
#X connect 58 0 55 0;
#X connect 59 0 53 0;
