#N canvas 551 84 607 715 10;
#X obj 131 197 until;
#X obj 125 74 list;
#X obj 131 294 list;
#X msg 152 272 \$1 \$2 \$3;
#X obj 162 343 list append;
#X msg 233 319 \$4 \$5 \$6;
#X obj 152 402 expr $f1+$f4;
#X obj 232 402 expr $f2+$f5;
#X obj 312 402 expr $f3+$f6;
#X msg 465 231 \$7;
#X obj 131 218 t b b;
#X obj 501 295 +;
#X obj 215 445 pack 0 0 0;
#X obj 150 507 list prepend;
#X obj 446 289 float;
#X msg 503 226 \$8;
#X msg 131 178 \$9;
#X obj 449 316 t f f;
#X obj 442 463 pack s s;
#X obj 125 31 inlet;
#X text 202 77 x y z offsetX offsetY offsetZ startValue increment count
;
#X obj 487 441 makefilename %d;
#X obj 265 177 s \$1-to-SPIN-TCP;
#X obj 43 531 symbol;
#X obj 43 499 delay 100;
#X obj 317 654 p;
#X obj 265 139 list append \$2;
#X obj 439 502 p;
#X obj 442 365 list append \$2;
#X obj 444 409 makefilename \$2_%d;
#X obj 43 581 list append \$2;
#X obj 125 136 t b a a a a a b;
#X obj 150 526 list append \$2;
#X obj 170 364 t l l l;
#X msg 43 618 /\$2 setAll 1;
#X msg 265 158 createNode \$1 SwitchNode \, /\$1 setOrientation 0 0
-90;
#X msg 150 553 createNode \$1 TextNode \, /\$1 setParent \$6 \, /\$1
setBillboard 2 \, /\$1 setTranslation \$3 \$4 \$5 \, /\$1 setTextValue
\$2 \, /\$1 setFont arial.ttf \, /\$1 setScale 4 4 4 \, /\$1 setDrawMode
1 \, /\$1 setAlignment 4;
#X obj 285 693 s \$1-to-SPIN-TCP;
#X obj 133 667 outlet;
#X connect 0 0 10 0;
#X connect 1 0 31 0;
#X connect 2 0 4 0;
#X connect 2 0 13 0;
#X connect 3 0 2 1;
#X connect 4 0 33 0;
#X connect 5 0 4 1;
#X connect 6 0 12 0;
#X connect 7 0 12 1;
#X connect 8 0 12 2;
#X connect 9 0 14 1;
#X connect 10 0 2 0;
#X connect 10 1 14 0;
#X connect 11 0 14 1;
#X connect 12 0 2 1;
#X connect 13 0 32 0;
#X connect 14 0 11 0;
#X connect 14 0 17 0;
#X connect 15 0 11 1;
#X connect 16 0 0 0;
#X connect 17 0 28 0;
#X connect 17 1 21 0;
#X connect 18 0 13 1;
#X connect 19 0 1 0;
#X connect 21 0 18 1;
#X connect 23 0 30 0;
#X connect 24 0 23 0;
#X connect 26 0 35 0;
#X connect 28 0 29 0;
#X connect 29 0 18 0;
#X connect 29 0 23 1;
#X connect 30 0 34 0;
#X connect 31 0 24 0;
#X connect 31 1 16 0;
#X connect 31 2 3 0;
#X connect 31 3 5 0;
#X connect 31 4 9 0;
#X connect 31 5 15 0;
#X connect 31 6 26 0;
#X connect 32 0 36 0;
#X connect 33 0 6 0;
#X connect 33 1 7 0;
#X connect 33 2 8 0;
#X connect 34 0 38 0;
#X connect 35 0 22 0;
#X connect 36 0 27 0;
#X connect 36 0 25 0;
#X connect 36 0 38 0;
