#N canvas 97 111 1382 813 10;
#X obj 1 1 cnv 15 325 38 empty empty SPIN.Connect: 4 8 1 11 -228856
-16662 0;
#X obj 76 598 dynload1;
#X obj 129 580 bng 15 250 50 0 empty empty <-open-patch 17 7 0 10 -262144
-1 -1;
#X symbolatom 50 66 16 0 0 0 SPIN_Rx: #0-rxAddr-set #0-rxAddr;
#X obj 138 103 tgl 15 0 \$0-connect \$0-connect-set empty -60 9 1 11
-233017 -128992 -128992 1 1;
#X floatatom 199 64 5 0 0 0 udp: #0-rxPort-set #0-rxPort;
#X symbolatom 50 81 16 0 0 0 SPIN_Tx: #0-txAddr-set #0-txAddr;
#X floatatom 199 81 5 0 0 0 udp: #0-txPort-set #0-txPort;
#X obj 124 387 t b s;
#X obj 167 406 t b f;
#X obj 124 367 r \$0-txAddr;
#X obj 167 387 r \$0-txPort;
#X obj 88 494 spigot;
#X obj -7 426 sel 1 0;
#X obj -7 383 r \$0-connect;
#X obj -7 404 t f f;
#X obj 106 524 pack 0 s 0 s;
#X obj 200 460 loadbang;
#X msg 106 546 dynamicOSCrx \$2 \$3 \$4;
#X obj 200 482 symbol \$0-SPIN-RX;
#X obj -44 692 cnv 15 475 50 empty empty empty 20 12 0 14 -257985 -66577
0;
#X obj -38 668 OSCparse /SPIN/*;
#X obj 98 671 OSCsymbol;
#X msg 99 651 /SPIN \$1;
#X obj -38 704 s \$1-from-SPIN;
#X obj 99 628 r \$0-id-set;
#X obj -38 643 r \$0-SPIN-RX;
#X text 70 696 <- This represents the receive. The dynamic patch above
receives messages for SPIN. We route based on the sceneID and send
to the global symbol \$1-from-SPIN;
#X text 107 234 <sym> sceneID;
#X obj 57 230 outlet;
#X obj 219 227 outlet;
#X text 205 244 on-line status;
#X obj 89 470 delay 0;
#X obj 15 20 r \$0-server-popup;
#X symbolatom 50 47 20 0 0 0 sceneID: #0-id-set #0-id;
#X obj 957 4 anyreg global-posReg;
#X text 891 -14 need one of these for copy/paste to work:;
#X obj 405 604 dynload1;
#X obj 458 586 bng 15 250 50 0 empty empty <-open-patch 17 7 0 10 -262144
-1 -1;
#X obj 453 393 t b s;
#X obj 496 412 t b f;
#X obj 453 373 r \$0-txAddr;
#X obj 417 500 spigot;
#X obj 322 432 sel 1 0;
#X obj 322 389 r \$0-connect;
#X obj 322 410 t f f;
#X obj 435 530 pack 0 s 0 s;
#X obj 515 485 loadbang;
#X msg 435 552 dynamicOSCrx \$2 \$3 \$4;
#X obj 418 476 delay 0;
#X obj 496 393 r \$0-syncPort;
#X obj 515 507 symbol \$0-SPIN-sync-RX;
#X floatatom 277 81 5 0 0 0 sync: #0-syncPort-set #0-syncPort;
#X obj 481 691 cnv 15 475 50 empty empty empty 20 12 0 14 -257985 -66577
0;
#X obj 628 649 OSCsymbol;
#X msg 629 629 /SPIN \$1;
#X obj 629 606 r \$0-id-set;
#X obj 492 640 r \$0-SPIN-sync-RX;
#X obj 492 701 s \$1-from-SPIN-sync;
#X text 632 701 (same thing here) We route based on the sceneID and
send to the global symbol \$1-from-SPIN-sync;
#X obj 313 3 tgl 10 0 \$0-db-print \$0-db-print-set msg-print: -49
5 1 10 -228856 -4160 -16662 0 1;
#X obj 941 437 r \$1-from-SPIN;
#X obj 941 519 spigot;
#X obj 978 497 r \$0-db-print;
#X obj 941 544 print FROM_SPIN;
#X obj 244 2 bng 11 250 50 0 \$0-clear! \$0-clear!-set clearScene:
-54 5 1 10 -261234 -258113 -86277;
#X obj 244 28 bng 11 250 50 0 \$0-refresh! \$0-refresh!-set refresh:
-35 5 1 10 -204786 -4034 -13381;
#X obj 1045 208 r \$0-clear!;
#X msg 1026 234 clear;
#X msg 1076 234 clearStates;
#X obj 1078 416 s \$1-to-SPIN;
#X obj 1089 259 r \$0-refresh!;
#X msg 1089 307 refresh;
#X msg 1149 307 userRefresh;
#X obj 313 27 tgl 10 0 \$0-grid \$0-grid-set grid: -24 5 1 10 -228856
-4160 -16662 0 1;
#X obj 1147 335 r \$0-grid;
#X msg 1147 395 createNode grid GridNode;
#X msg 1166 375 deleteNode grid;
#X obj 1147 356 sel 1 0;
#X obj 244 15 bng 11 250 50 0 \$0-clearUsers! \$0-clearUsers!-set clearUsers:
-51 5 1 10 -261234 -258113 -86277;
#X obj 984 164 r \$0-clearUsers!;
#X msg 984 185 clearUsers;
#X floatatom 277 65 5 0 0 0 tcp: #0-tcpPort-set #0-tcpPort;
#X obj 380 -28 inlet;
#N canvas 93 60 865 764 INFOPORT-STUFF 0;
#X obj 23 40 inlet;
#X obj 335 78 AS_infoport;
#X obj 335 99 route /SPIN/__server__;
#X obj 354 365 list prepend store;
#X obj 354 385 list trim;
#X obj 151 445 list;
#X msg 347 518 \$6;
#X obj 188 445 s \$0-id-set;
#X text 193 476 id rxAddr udpPort tcpPort txAddr txPort syncPort;
#X obj 347 537 s \$0-syncPort-set;
#X obj 184 609 t a a;
#X msg 198 647 \$2;
#X msg 171 647 \$1;
#X obj 171 730 s \$0-rxAddr-set;
#X obj 198 689 s \$0-rxPort-set;
#X obj 151 423 coll;
#C restore;
#X msg 226 647 \$3;
#X obj 226 669 s \$0-tcpPort-set;
#X obj 277 542 t a a;
#X obj 304 588 s \$0-txPort-set;
#X obj 277 629 s \$0-txAddr-set;
#X msg 277 566 \$4;
#X msg 304 566 \$5;
#X obj 60 579 s \$0-connect-set;
#X msg 60 556 0 \, 1;
#X obj 151 476 t b a;
#X obj 171 711 symbol;
#X obj 277 609 symbol;
#X obj 524 357 timetagbag;
#X obj 204 185 list split 1;
#X msg 595 378 options;
#X msg 521 378 append \$1;
#X obj 565 453 s \$0-server-popup;
#X obj 605 405 loadbang;
#X msg 605 424 name default;
#X obj 559 192 t b;
#X msg 525 260 1;
#X msg 559 259 0;
#X obj 559 238 delay 20000;
#X obj 628 78 r \$0-id-set;
#X obj 559 170 dynamicRoute;
#X obj 644 101 loadbang;
#X msg 644 120 default;
#X obj 628 151 symbol;
#X text 516 476 (fill popup with current servers);
#X obj 546 303 s \$0-connect-set;
#X obj 204 206 eqsym default;
#X obj 204 226 sel 1;
#X msg 204 247 bang;
#X obj 23 61 symbol;
#X obj 280 146 t a a;
#X text 352 406 first \, store the server;
#X obj 151 337 symbol default;
#X obj 524 338 list split 1;
#X obj 546 284 change;
#X obj 256 274 del 20000;
#X obj 280 24 inlet;
#X text 84 51 to change current scene;
#X text 66 39 <- send a sceneID here;
#X text 325 21 <- in case multicast is not available \, you can fake
an infoport message to this inlet (skip the OSC namespace);
#X text 324 50 FORMAT:;
#X text 376 50 sceneID serverAddr servUDP servTCP multicast rxPort
syncPort;
#X obj 258 364 symbol null;
#X obj 431 165 r \$0-connect;
#X obj 431 184 sel 0;
#X msg 433 206 stop;
#X text 242 225 if server starts after choice;
#X obj 322 325 bng 15 250 50 0 empty empty empty 17 7 0 10 -262144
-1 -1;
#N canvas 942 519 450 300 symbolChange 0;
#X obj 105 42 inlet;
#X obj 111 240 outlet;
#X obj 111 211 symbol;
#X obj 101 175 sel 0;
#X obj 101 148 eqsym;
#X obj 294 42 inlet;
#X obj 105 78 t s s s;
#X connect 0 0 6 0;
#X connect 2 0 1 0;
#X connect 3 0 2 0;
#X connect 4 0 3 0;
#X connect 5 0 4 1;
#X connect 6 0 4 1;
#X connect 6 1 4 0;
#X connect 6 2 2 1;
#X restore 151 389 pd symbolChange;
#X connect 0 0 49 0;
#X connect 1 0 2 0;
#X connect 2 0 40 0;
#X connect 2 0 50 0;
#X connect 2 0 53 0;
#X connect 3 0 4 0;
#X connect 4 0 15 0;
#X connect 5 0 25 0;
#X connect 6 0 9 0;
#X connect 10 0 12 0;
#X connect 10 1 11 0;
#X connect 10 1 16 0;
#X connect 11 0 14 0;
#X connect 12 0 26 0;
#X connect 15 0 5 0;
#X connect 15 1 7 0;
#X connect 16 0 17 0;
#X connect 18 0 21 0;
#X connect 18 1 22 0;
#X connect 21 0 27 0;
#X connect 22 0 19 0;
#X connect 24 0 23 0;
#X connect 25 0 24 0;
#X connect 25 1 6 0;
#X connect 25 1 10 0;
#X connect 25 1 18 0;
#X connect 26 0 13 0;
#X connect 27 0 20 0;
#X connect 28 0 31 0;
#X connect 28 1 30 0;
#X connect 29 0 46 0;
#X connect 30 0 32 0;
#X connect 31 0 32 0;
#X connect 33 0 34 0;
#X connect 34 0 32 0;
#X connect 35 0 36 0;
#X connect 35 0 38 0;
#X connect 36 0 54 0;
#X connect 37 0 54 0;
#X connect 38 0 37 0;
#X connect 39 0 43 0;
#X connect 40 0 35 0;
#X connect 41 0 42 0;
#X connect 42 0 43 0;
#X connect 43 0 40 1;
#X connect 46 0 47 0;
#X connect 47 0 48 0;
#X connect 48 0 52 0;
#X connect 48 0 55 0;
#X connect 49 0 46 1;
#X connect 49 0 15 0;
#X connect 49 0 52 1;
#X connect 50 0 29 0;
#X connect 50 1 3 0;
#X connect 52 0 68 0;
#X connect 53 0 28 0;
#X connect 54 0 45 0;
#X connect 55 0 62 0;
#X connect 56 0 50 0;
#X connect 62 0 68 1;
#X connect 63 0 64 0;
#X connect 64 0 62 0;
#X connect 64 0 65 0;
#X connect 65 0 55 0;
#X connect 65 0 38 0;
#X connect 67 0 62 0;
#X connect 68 0 15 0;
#X restore 335 137 pd INFOPORT-STUFF;
#X obj 140 137 r \$0-connect;
#X obj 503 182 s \$0-server-popup;
#X obj 503 144 symbol;
#X msg 503 163 name \$1;
#X text 187 160 (Send something from outlets after initial connect)
;
#X obj 140 157 change;
#X obj 94 194 r \$0-id-set;
#X obj 57 212 symbol;
#X obj 138 118 tgl 15 0 \$0-connect-tcp \$0-connect-tcp-set empty -60
9 1 11 -233017 -128992 -1 1 1;
#X text 2 116 TCP connection status:;
#X obj 391 62 route sceneID;
#X obj 391 96 t b a;
#X obj 57 185 sel 1;
#X obj 668 335 pack s s s;
#X obj 719 234 loadbang;
#X obj 637 80 r \$0-connect-tcp-rx;
#X obj 639 168 sel 0;
#X obj 664 213 symbol;
#X floatatom 636 145 5 0 0 0 - - -;
#X obj 665 193 makefilename %d;
#X obj 667 421 s \$1-to-SPIN-TCP;
#X obj 637 124 pipe 200;
#X obj 749 615 cnv 15 475 50 empty empty empty 20 12 0 14 -257985 -66577
0;
#X text 896 621 (same thing here) We route based on the sceneID and
send to the global symbol \$1-from-SPIN-TCP;
#X obj 32 286 cnv 15 550 75 empty empty empty 20 12 0 14 -257985 -66577
0;
#X obj 42 296 r \$1-to-SPIN;
#X text 139 295 <- This is a global send that everything uses!;
#X text 149 307 (the parent needs to send the \$1 arg for everything
to sync);
#N canvas 325 136 1035 678 send-to-spin 0;
#X floatatom 192 447 5 0 0 0 - - -;
#X obj 52 74 r \$0-connect;
#X obj 183 506 sendset \$0-connect-set;
#X obj 244 395 spigot 0;
#X msg 29 271 setAddress \$2 \$3;
#X obj 192 422 OSCtx;
#X obj 342 252 r \$0-id;
#X obj 342 274 t s s;
#X obj 29 249 pack 0 s 0;
#X obj 106 183 r \$0-rxPort;
#X obj 63 163 r \$0-rxAddr;
#X obj 63 183 t b s;
#X obj 106 202 t b f;
#X obj 30 229 spigot;
#X obj 244 346 OSCprepend /SPIN;
#X obj 244 321 OSCprepend /default;
#X obj 342 295 s \$1-sceneID;
#X obj 253 370 s \$1-to-SPIN-print;
#X obj 18 180 t b f;
#X obj 285 45 inlet;
#X floatatom 762 506 5 0 0 0 - - -;
#X obj 785 397 spigot 0;
#X obj 883 254 r \$0-id;
#X obj 883 276 t s s;
#X obj 493 253 pack 0 s 0;
#X obj 539 176 t b s;
#X obj 582 195 t b f;
#X obj 494 233 spigot;
#X obj 785 348 OSCprepend /SPIN;
#X obj 785 323 OSCprepend /default;
#X obj 883 297 s \$1-sceneID;
#X obj 763 424 OSCtx tcp;
#X obj 785 45 inlet;
#X obj 775 478 sendset \$0-connect-tcp-set;
#X obj 539 156 r \$0-rxAddr;
#X obj 582 176 r \$0-tcpPort;
#X obj 179 108 sel 0;
#X msg 179 131 disconnect;
#X msg 692 151 disconnect;
#X obj 494 59 r \$0-connect;
#X obj 763 532 s \$0-connect-tcp-rx;
#X obj 774 450 != 0;
#X obj 823 449 s \$0-SPIN-TCP-rx;
#X obj 491 353 list append;
#X obj 493 278 t a b;
#X obj 491 379 list split 1;
#X obj 544 324 t f f;
#X obj 596 337 + 1;
#X obj 544 301 anyreg LAST-SPIN-TCPrx-PORT 54328;
#X obj 526 432 list trim;
#X obj 447 490 list prepend connectFrom;
#X obj 526 404 list prepend connect;
#X text 429 469 The above list prepend used to be:;
#X text 440 403 CHANGED! -->;
#X text 386 510 mikewoz changed this because Pd crashes if there are
multiple instances of the spinConnect widget \, and OSCtx tries to
connect from the same outgoing port. The crash occurs during lo_server_add_method
in OSCtx.cpp;
#X obj 717 384 bng 15 250 50 0 empty empty empty 17 7 0 10 -262144
-1 -1;
#X obj 494 101 t b f b;
#X connect 0 0 3 1;
#X connect 1 0 18 0;
#X connect 1 0 36 0;
#X connect 3 0 5 0;
#X connect 4 0 5 0;
#X connect 5 0 0 0;
#X connect 6 0 7 0;
#X connect 7 0 16 0;
#X connect 7 1 15 1;
#X connect 8 0 4 0;
#X connect 9 0 12 0;
#X connect 10 0 11 0;
#X connect 11 0 13 0;
#X connect 11 1 8 1;
#X connect 12 0 13 0;
#X connect 12 1 8 2;
#X connect 13 0 8 0;
#X connect 14 0 3 0;
#X connect 14 0 17 0;
#X connect 15 0 14 0;
#X connect 18 0 13 0;
#X connect 18 1 13 1;
#X connect 19 0 15 0;
#X connect 20 0 40 0;
#X connect 21 0 31 0;
#X connect 22 0 23 0;
#X connect 23 0 30 0;
#X connect 23 1 29 1;
#X connect 24 0 44 0;
#X connect 25 0 27 0;
#X connect 25 1 24 1;
#X connect 26 0 27 0;
#X connect 26 1 24 2;
#X connect 27 0 24 0;
#X connect 28 0 21 0;
#X connect 29 0 28 0;
#X connect 31 0 20 0;
#X connect 31 0 41 0;
#X connect 31 1 42 0;
#X connect 32 0 29 0;
#X connect 34 0 25 0;
#X connect 35 0 26 0;
#X connect 36 0 37 0;
#X connect 37 0 5 0;
#X connect 38 0 31 0;
#X connect 39 0 56 0;
#X connect 41 0 21 1;
#X connect 41 0 33 0;
#X connect 43 0 45 0;
#X connect 44 0 43 0;
#X connect 44 1 48 0;
#X connect 45 1 51 0;
#X connect 46 0 47 0;
#X connect 46 1 43 1;
#X connect 47 0 48 0;
#X connect 48 0 46 0;
#X connect 49 0 31 0;
#X connect 51 0 49 0;
#X connect 55 0 31 0;
#X connect 56 0 27 0;
#X connect 56 1 27 1;
#X connect 56 2 38 0;
#X restore 42 342 pd send-to-spin;
#X obj 130 323 r \$1-to-SPIN-TCP;
#X obj 492 665 OSCparse /SPIN/*;
#X obj 628 649 OSCsymbol;
#X msg 629 629 /SPIN \$1;
#X obj 629 606 r \$0-id-set;
#X obj 772 563 OSCparse /SPIN/*;
#X obj 785 536 OSCsymbol;
#X msg 786 516 /SPIN \$1;
#X obj 786 493 r \$0-id-set;
#X obj 771 472 r \$0-SPIN-TCP-rx;
#X obj 754 626 s \$1-from-SPIN-TCP;
#X obj 773 588 s \$1-from-SPIN;
#X obj 715 276 myIP;
#X obj 4 17 popup 150 20 #dce4fc timeline timeline;
#X obj 769 -19 inlet;
#X obj 758 278 shell;
#X obj 811 51 anyreg LAST-SPIN-TCPrx-PORT 54327;
#X obj 758 298 symbol;
#X msg 758 258 hostname -s;
#X obj 551 -22 inlet;
#X obj 754 29 unpack s 0;
#X text 483 -48 override TCP subscription info:;
#X text 722 -46 manual info port message:;
#X text 284 -54 specify desired serverID:;
#X text 664 98 ignore;
#X text 828 72 TODO: need to add desired port to OSCtx;
#X obj 757 318 makefilename %s-pd-\$1;
#X msg 668 356 subscribe \$3 \$2 \$1;
#X obj 391 33 r PD_COMMANDLINE_MESS;
#X obj 1089 279 t b b;
#X obj -6 255 s g_refresh_SPIN_typelist;
#X text 687 373 <- Can't do this when secureBroadcast is enabled in
SPIN because Pd will block here and won't be able to respond to secure
events from SPIN. Deadlock.;
#X obj 313 15 tgl 10 0 \$0-reliableBroadcast \$1-reliableBroadcast-set
reliable: -38 5 1 10 -228856 -4160 -16662 1 1;
#X text 889 591 TCP MESSAGES PASSED TO "from-SPIN";
#X obj 303 199 sel 0 1;
#X obj 81 2 cnv 15 15 15 empty \$0-connectStatus (CONNECTED) 0 7 1
9 -233017 -166441 0;
#X obj 303 261 s \$0-connectStatus;
#X text 2 103 UDP connection status:;
#X msg 303 221 label (DISCONNECTED) \, color 10 13;
#X msg 322 241 label (CONNECTED) \, color 10 1;
#X msg 1071 532 0;
#X obj 1071 553 s \$0-connect-set;
#X obj 1071 475 route disconnect;
#X obj 1071 512 delay 50;
#X msg 1150 503 spinserver disconnected;
#X obj 1150 525 print SPIN;
#X msg 946 139 setReliableBroadcast \$1;
#X obj 946 118 r \$0-reliableBroadcast;
#X connect 2 0 1 2;
#X connect 8 0 32 0;
#X connect 8 1 16 1;
#X connect 9 0 32 0;
#X connect 9 1 16 2;
#X connect 10 0 8 0;
#X connect 11 0 9 0;
#X connect 12 0 16 0;
#X connect 13 0 32 0;
#X connect 13 1 1 1;
#X connect 14 0 15 0;
#X connect 15 0 13 0;
#X connect 15 1 12 1;
#X connect 16 0 18 0;
#X connect 17 0 19 0;
#X connect 18 0 1 0;
#X connect 19 0 16 3;
#X connect 21 0 24 0;
#X connect 22 0 21 1;
#X connect 23 0 22 0;
#X connect 25 0 23 0;
#X connect 26 0 21 0;
#X connect 32 0 12 0;
#X connect 33 0 127 0;
#X connect 38 0 37 2;
#X connect 39 0 49 0;
#X connect 39 1 46 1;
#X connect 40 0 49 0;
#X connect 40 1 46 2;
#X connect 41 0 39 0;
#X connect 42 0 46 0;
#X connect 43 0 49 0;
#X connect 43 1 37 1;
#X connect 44 0 45 0;
#X connect 45 0 43 0;
#X connect 45 1 42 1;
#X connect 46 0 48 0;
#X connect 47 0 51 0;
#X connect 48 0 37 0;
#X connect 49 0 42 0;
#X connect 50 0 40 0;
#X connect 51 0 46 3;
#X connect 55 0 54 0;
#X connect 56 0 55 0;
#X connect 57 0 115 0;
#X connect 61 0 62 0;
#X connect 61 0 156 0;
#X connect 62 0 64 0;
#X connect 63 0 62 1;
#X connect 67 0 68 0;
#X connect 67 0 69 0;
#X connect 68 0 70 0;
#X connect 69 0 70 0;
#X connect 71 0 143 0;
#X connect 72 0 70 0;
#X connect 73 0 70 0;
#X connect 75 0 78 0;
#X connect 76 0 70 0;
#X connect 77 0 70 0;
#X connect 78 0 76 0;
#X connect 78 1 77 0;
#X connect 80 0 81 0;
#X connect 81 0 70 0;
#X connect 83 0 87 0;
#X connect 83 0 84 0;
#X connect 85 0 90 0;
#X connect 87 0 88 0;
#X connect 88 0 86 0;
#X connect 90 0 30 0;
#X connect 90 0 97 0;
#X connect 90 0 148 0;
#X connect 91 0 92 1;
#X connect 92 0 29 0;
#X connect 95 0 96 0;
#X connect 96 1 84 0;
#X connect 96 1 87 0;
#X connect 97 0 92 0;
#X connect 97 0 144 0;
#X connect 98 0 141 0;
#X connect 99 0 126 0;
#X connect 99 0 132 0;
#X connect 100 0 106 0;
#X connect 101 1 104 0;
#X connect 102 0 98 0;
#X connect 103 0 101 0;
#X connect 104 0 102 0;
#X connect 106 0 103 0;
#X connect 110 0 113 0;
#X connect 114 0 113 1;
#X connect 115 0 58 0;
#X connect 116 0 115 1;
#X connect 117 0 116 0;
#X connect 118 0 117 0;
#X connect 119 0 125 0;
#X connect 119 0 124 0;
#X connect 120 0 119 1;
#X connect 121 0 120 0;
#X connect 122 0 121 0;
#X connect 123 0 119 0;
#X connect 126 0 98 1;
#X connect 127 1 84 0;
#X connect 128 0 84 1;
#X connect 129 0 131 0;
#X connect 131 0 140 0;
#X connect 132 0 129 0;
#X connect 133 0 134 0;
#X connect 134 0 98 1;
#X connect 134 1 130 0;
#X connect 140 0 98 2;
#X connect 142 0 95 0;
#X connect 143 0 72 0;
#X connect 143 1 73 0;
#X connect 148 0 152 0;
#X connect 148 1 153 0;
#X connect 152 0 150 0;
#X connect 153 0 150 0;
#X connect 154 0 155 0;
#X connect 156 0 157 0;
#X connect 156 0 158 0;
#X connect 157 0 154 0;
#X connect 158 0 159 0;
#X connect 160 0 70 0;
#X connect 161 0 160 0;
#X coords 0 0 1 1 327 40 1 0 0;
